<svg width="16" height="16" viewBox="0 0 16 16" fill="none" xmlns="http://www.w3.org/2000/svg">
<path fill-rule="evenodd" clip-rule="evenodd" d="M8 16C12.4183 16 16 12.4183 16 8C16 3.58173 12.4183 0 8 0C3.58173 0 0 3.58173 0 8C0 12.4183 3.58173 16 8 16ZM14.25 8C14.25 11.4518 11.4518 14.25 8 14.25C4.54822 14.25 1.75 11.4518 1.75 8C1.75 4.54822 4.54822 1.75 8 1.75C11.4518 1.75 14.25 4.54822 14.25 8ZM15 8C15 11.866 11.866 15 8 15C4.134 15 1 11.866 1 8C1 4.13403 4.134 1 8 1C11.866 1 15 4.13403 15 8ZM7.5 11.5C7.22388 11.5 7 11.2761 7 11C7 9.73792 7.49146 8.55145 8.38391 7.659C8.94241 7.10046 9.25 6.35791 9.25 5.56805C9.25 4.70343 8.5466 4 7.68198 4H7.56802C6.7034 4 6 4.70343 6 5.56805V5.75C6 6.02612 5.77612 6.25 5.5 6.25C5.22388 6.25 5 6.02612 5 5.75V5.56805C5 4.15198 6.15201 3 7.56802 3H7.68198C9.09799 3 10.25 4.15198 10.25 5.56805C10.25 6.625 9.83841 7.61871 9.091 8.36615C8.38745 9.06964 8 10.0051 8 11C8 11.2761 7.77612 11.5 7.5 11.5ZM7 13C7 13.2761 7.22403 13.5 7.50015 13.5C7.77628 13.5 8.00015 13.2761 8.00015 13C8.00015 12.7239 7.77628 12.5 7.50015 12.5C7.22369 12.5 7 12.7239 7 13Z" fill="#51473D"/>
</svg>
