<svg width="195" height="190" viewBox="0 0 195 190" fill="none" xmlns="http://www.w3.org/2000/svg">
<rect width="195" height="190" rx="5" fill="#43734D"/>
<path d="M29.5 134H108.5V172.5M100.5 172.5V142H29.5M29.5 150.5H91.5V172.5M65.5 109.5V64M65.5 18.5V34.5M65.5 64H142.5M65.5 64V34.5M152 7.5V114.5M152 177V156M82.5 109.5H108.5M186.5 109.5H115M152 120.5H186.5V88H1.5V95H193M152 120.5V114.5M152 120.5V156M152 114.5H186.5M152 156H129.5V181.5H19V172.5H75.5M75.5 172.5V161H15.5V34.5H65.5M75.5 172.5V187.5H186.5V153H193V5M108.5 109.5V7.5M108.5 109.5H115M115 7.5V109.5M136 145.5V120.5H100.5V82.5H166V181.5H182V172.5V28H15.5V21H172V11H15.5H4.5V181.5M193 99.5H1.5M1.5 51H193M50.5 2V187.5M55.5 187.5V2M60.5 2V187.5" stroke="#2E4934" stroke-width="1.75"/>
<line x1="28.875" y1="61" x2="28.875" y2="157" stroke="#2E4934" stroke-width="1.75"/>
<path d="M28 110.5H82.5V75.5" stroke="#2E4934" stroke-width="1.75"/>
<rect x="8.75" y="9.75" width="175.5" height="171.5" rx="14.25" fill="#F1DEBF" stroke="#51473D" stroke-width="1.5"/>
<mask id="path-6-inside-1" fill="white">
<path fill-rule="evenodd" clip-rule="evenodd" d="M63.597 176.959H28C24.3671 176.959 21.0359 175.667 18.4404 173.519C16.2915 170.923 15 167.592 15 163.959V121.709C15 118.533 17.5744 115.959 20.75 115.959C23.9256 115.959 26.5 113.385 26.5 110.209V71.7089C26.5 68.5333 23.9256 65.9589 20.75 65.9589C17.5744 65.9589 15 63.3846 15 60.2089V26.9589C15 26.7274 15.0052 26.4971 15.0156 26.2681C15.1404 23.5161 16.0067 20.9574 17.4194 18.787C20.1254 16.0724 23.8656 14.3883 28.0014 14.3769L72.0783 14.2557C74.3576 15.0195 76 17.1724 76 19.7089C76 22.8846 78.5744 25.4589 81.75 25.4589H120.25C123.426 25.4589 126 22.8846 126 19.7089C126 16.9622 127.926 14.6654 130.501 14.095L165.001 14.0001C168.637 13.9901 171.974 15.2744 174.576 17.4192C176.715 20.0118 178 23.3353 178 26.9589V69.2089C178 72.3846 175.426 74.9589 172.25 74.9589C169.074 74.9589 166.5 77.5333 166.5 80.7089V119.209C166.5 122.385 169.074 124.959 172.25 124.959C175.426 124.959 178 127.533 178 130.709V163.959C178 167.583 176.715 170.907 174.575 173.5L174.56 173.519C171.964 175.667 168.633 176.959 165 176.959H121.844C119.321 176.357 117.441 174.091 117.434 171.382C117.425 168.206 114.843 165.639 111.668 165.647L73.168 165.753C69.9924 165.762 67.4251 168.343 67.4338 171.519C67.4407 174.029 65.8378 176.169 63.597 176.959Z"/>
</mask>
<path fill-rule="evenodd" clip-rule="evenodd" d="M63.597 176.959H28C24.3671 176.959 21.0359 175.667 18.4404 173.519C16.2915 170.923 15 167.592 15 163.959V121.709C15 118.533 17.5744 115.959 20.75 115.959C23.9256 115.959 26.5 113.385 26.5 110.209V71.7089C26.5 68.5333 23.9256 65.9589 20.75 65.9589C17.5744 65.9589 15 63.3846 15 60.2089V26.9589C15 26.7274 15.0052 26.4971 15.0156 26.2681C15.1404 23.5161 16.0067 20.9574 17.4194 18.787C20.1254 16.0724 23.8656 14.3883 28.0014 14.3769L72.0783 14.2557C74.3576 15.0195 76 17.1724 76 19.7089C76 22.8846 78.5744 25.4589 81.75 25.4589H120.25C123.426 25.4589 126 22.8846 126 19.7089C126 16.9622 127.926 14.6654 130.501 14.095L165.001 14.0001C168.637 13.9901 171.974 15.2744 174.576 17.4192C176.715 20.0118 178 23.3353 178 26.9589V69.2089C178 72.3846 175.426 74.9589 172.25 74.9589C169.074 74.9589 166.5 77.5333 166.5 80.7089V119.209C166.5 122.385 169.074 124.959 172.25 124.959C175.426 124.959 178 127.533 178 130.709V163.959C178 167.583 176.715 170.907 174.575 173.5L174.56 173.519C171.964 175.667 168.633 176.959 165 176.959H121.844C119.321 176.357 117.441 174.091 117.434 171.382C117.425 168.206 114.843 165.639 111.668 165.647L73.168 165.753C69.9924 165.762 67.4251 168.343 67.4338 171.519C67.4407 174.029 65.8378 176.169 63.597 176.959Z" fill="#F8EBD8"/>
<path d="M63.597 176.959V178.459H63.8538L64.096 178.374L63.597 176.959ZM18.4404 173.519L17.285 174.475L17.375 174.584L17.4838 174.674L18.4404 173.519ZM15.0156 26.2681L13.5172 26.2002V26.2002L15.0156 26.2681ZM17.4194 18.787L16.3571 17.728L16.2472 17.8382L16.1622 17.9687L17.4194 18.787ZM28.0014 14.3769L28.0055 15.8769L28.0014 14.3769ZM72.0783 14.2557L72.5549 12.8334L72.3209 12.755L72.0742 12.7557L72.0783 14.2557ZM130.501 14.095L130.497 12.595L130.335 12.5954L130.177 12.6305L130.501 14.095ZM165.001 14.0001L164.997 12.5001L165.001 14.0001ZM174.576 17.4192L175.733 16.4646L175.641 16.3533L175.53 16.2616L174.576 17.4192ZM174.575 173.5L175.731 174.456L175.732 174.455L174.575 173.5ZM174.56 173.519L175.516 174.674L175.626 174.583L175.716 174.474L174.56 173.519ZM121.844 176.959L121.496 178.418L121.668 178.459H121.844V176.959ZM117.434 171.382L115.934 171.386L117.434 171.382ZM111.668 165.647L111.664 164.147H111.664L111.668 165.647ZM73.168 165.753L73.1639 164.253H73.1639L73.168 165.753ZM67.4338 171.519L68.9338 171.515L67.4338 171.519ZM63.597 175.459H28V178.459H63.597V175.459ZM28 175.459C24.7291 175.459 21.7334 174.298 19.3969 172.363L17.4838 174.674C20.3384 177.037 24.0052 178.459 28 178.459V175.459ZM19.5958 172.562C17.6613 170.226 16.5 167.23 16.5 163.959H13.5C13.5 167.954 14.9216 171.621 17.285 174.475L19.5958 172.562ZM16.5 163.959V121.709H13.5V163.959H16.5ZM16.5 121.709C16.5 119.362 18.4028 117.459 20.75 117.459V114.459C16.7459 114.459 13.5 117.705 13.5 121.709H16.5ZM20.75 117.459C24.7541 117.459 28 114.213 28 110.209H25C25 112.556 23.0972 114.459 20.75 114.459V117.459ZM28 110.209V71.7089H25V110.209H28ZM28 71.7089C28 67.7049 24.7541 64.4589 20.75 64.4589V67.4589C23.0972 67.4589 25 69.3617 25 71.7089H28ZM20.75 64.4589C18.4028 64.4589 16.5 62.5561 16.5 60.2089H13.5C13.5 64.213 16.7459 67.4589 20.75 67.4589V64.4589ZM16.5 60.2089V26.9589H13.5V60.2089H16.5ZM16.5 26.9589C16.5 26.75 16.5047 26.5424 16.5141 26.336L13.5172 26.2002C13.5058 26.4518 13.5 26.7047 13.5 26.9589H16.5ZM16.5141 26.336C16.6264 23.8589 17.4055 21.558 18.6765 19.6052L16.1622 17.9687C14.6079 20.3568 13.6544 23.1734 13.5172 26.2002L16.5141 26.336ZM18.4817 19.8459C20.9188 17.4012 24.2829 15.8872 28.0055 15.8769L27.9973 12.8769C23.4484 12.8895 19.332 14.7436 16.3571 17.728L18.4817 19.8459ZM28.0055 15.8769L72.0824 15.7557L72.0742 12.7557L27.9973 12.8769L28.0055 15.8769ZM71.6017 15.6779C73.2881 16.2431 74.5 17.8364 74.5 19.7089H77.5C77.5 16.5084 75.4271 13.796 72.5549 12.8334L71.6017 15.6779ZM74.5 19.7089C74.5 23.713 77.7459 26.9589 81.75 26.9589V23.9589C79.4028 23.9589 77.5 22.0561 77.5 19.7089H74.5ZM81.75 26.9589H120.25V23.9589H81.75V26.9589ZM120.25 26.9589C124.254 26.9589 127.5 23.713 127.5 19.7089H124.5C124.5 22.0561 122.597 23.9589 120.25 23.9589V26.9589ZM127.5 19.7089C127.5 17.6806 128.922 15.981 130.825 15.5595L130.177 12.6305C126.929 13.3497 124.5 16.2438 124.5 19.7089H127.5ZM130.505 15.595L165.005 15.5001L164.997 12.5001L130.497 12.595L130.505 15.595ZM165.005 15.5001C168.278 15.491 171.279 16.646 173.622 18.5767L175.53 16.2616C172.668 13.9028 168.995 12.4891 164.997 12.5001L165.005 15.5001ZM173.419 18.3738C175.345 20.7076 176.5 23.6963 176.5 26.9589H179.5C179.5 22.9743 178.086 19.316 175.733 16.4646L173.419 18.3738ZM176.5 26.9589V69.2089H179.5V26.9589H176.5ZM176.5 69.2089C176.5 71.5561 174.597 73.4589 172.25 73.4589V76.4589C176.254 76.4589 179.5 73.213 179.5 69.2089H176.5ZM172.25 73.4589C168.246 73.4589 165 76.7049 165 80.7089H168C168 78.3617 169.903 76.4589 172.25 76.4589V73.4589ZM165 80.7089V119.209H168V80.7089H165ZM165 119.209C165 123.213 168.246 126.459 172.25 126.459V123.459C169.903 123.459 168 121.556 168 119.209H165ZM172.25 126.459C174.597 126.459 176.5 128.362 176.5 130.709H179.5C179.5 126.705 176.254 123.459 172.25 123.459V126.459ZM176.5 130.709V163.959H179.5V130.709H176.5ZM176.5 163.959C176.5 167.222 175.344 170.211 173.418 172.546L175.732 174.455C178.085 171.603 179.5 167.944 179.5 163.959H176.5ZM173.418 172.545L173.403 172.563L175.716 174.474L175.731 174.456L173.418 172.545ZM173.603 172.363C171.267 174.298 168.271 175.459 165 175.459V178.459C168.995 178.459 172.662 177.037 175.516 174.674L173.603 172.363ZM165 175.459H121.844V178.459H165V175.459ZM122.192 175.5C120.327 175.055 118.939 173.378 118.934 171.377L115.934 171.386C115.943 174.803 118.314 177.659 121.496 178.418L122.192 175.5ZM118.934 171.377C118.923 167.373 115.668 164.136 111.664 164.147L111.672 167.147C114.019 167.141 115.927 169.038 115.934 171.386L118.934 171.377ZM111.664 164.147L73.1639 164.253L73.1721 167.253L111.672 167.147L111.664 164.147ZM73.1639 164.253C69.1598 164.264 65.9228 167.519 65.9338 171.523L68.9338 171.515C68.9274 169.168 70.8249 167.26 73.1721 167.253L73.1639 164.253ZM65.9338 171.523C65.9389 173.376 64.7563 174.96 63.0981 175.544L64.096 178.374C66.9193 177.378 68.9425 174.683 68.9338 171.515L65.9338 171.523Z" fill="#51473D" mask="url(#path-6-inside-1)"/>
<path d="M57.2852 87.6698H67.9251C69.7646 87.6698 71.2559 89.1611 71.2559 91.0006H57.2852V87.6698Z" fill="#51473D"/>
<path d="M67.5469 87.6698C69.5939 87.6698 71.2534 89.3293 71.2534 91.3763V93.9558C71.2534 96.0029 69.5939 97.6623 67.5469 97.6623V87.6698Z" fill="#51473D"/>
<rect x="57" y="93.7763" width="10.5493" height="3.33085" fill="#51473D"/>
<rect x="57" y="93.7763" width="3.42141" height="9.71497" fill="#51473D"/>
<path d="M64.6992 96.0449L68.6909 94.8866L70.9718 103.491H67.2653L64.6992 96.0449Z" fill="#51473D"/>
<path d="M73.2539 87.3924H76.5328L81.95 95.9971L79.0988 97.6625L73.2539 87.3924Z" fill="#51473D"/>
<path d="M87.3672 87.67H84.0883L79.2413 96.2747L81.5223 97.9401L87.3672 87.67Z" fill="#51473D"/>
<rect x="78.8125" y="93.7765" width="3.42141" height="9.71497" fill="#51473D"/>
<rect x="89.7891" y="87.3922" width="13.6856" height="3.33085" fill="#51473D"/>
<rect x="89.7891" y="103.491" width="3.33085" height="13.6856" transform="rotate(-90 89.7891 103.491)" fill="#51473D"/>
<path d="M94.2091 101.271L89.7898 100.16L99.4833 90.0291L103.475 90.7231L94.2091 101.271Z" fill="#51473D"/>
<rect x="106.613" y="87.3923" width="13.4005" height="3.33085" fill="#51473D"/>
<rect x="106.613" y="93.4989" width="13.4005" height="3.33085" fill="#51473D"/>
<rect x="106.613" y="103.492" width="9.99254" height="3.42141" transform="rotate(-90 106.613 103.492)" fill="#51473D"/>
<rect x="106.613" y="100.161" width="13.4005" height="3.33085" fill="#51473D"/>
<path d="M122.863 103.491V87.3921H126.285V103.491H122.863Z" fill="#51473D"/>
<path d="M132.841 103.491L123.861 90.4454L126.283 87.3922L136.065 101.239L132.841 103.491Z" fill="#51473D"/>
<path d="M132.844 103.491V87.3921H136.265V103.491H132.844Z" fill="#51473D"/>
<path d="M135.356 112.1V107.213C125.833 110.269 110.11 113.106 96.8474 113.68C86.4046 114.133 78.2289 114.359 72.1078 113.824C36.6052 110.72 44.7328 96.9137 53.2343 90.3987V88.5304C45.5838 91.9795 39.7159 98.0155 41.2431 104.052C52.2141 132.076 137.145 112.1 135.356 112.1Z" fill="#51473D"/>
<path d="M137.912 104.339V100.89C147.858 97.297 148.879 94.7101 148.879 90.9735C148.624 87.6681 144.798 84.9162 143.013 83.5004C137.504 79.1315 119.463 78.2308 111.132 78.3267C87.9223 78.6141 76.4452 82.3507 65.9883 85.0812V83.5004C95.8288 74.0152 120.823 75.8835 129.24 76.7458C137.657 77.6081 155 81.3447 155 90.9735C155 98.6766 143.608 103.093 137.912 104.339Z" fill="#51473D"/>
<path d="M53.36 69.25C53.36 69.25 54.0467 69.28 55.42 69.34L55.48 71.16H55.16L54.82 69.85C54.46 69.6967 54.0333 69.62 53.54 69.62C52.7333 69.62 52.0633 69.8867 51.53 70.42C51.0033 70.9467 50.74 71.7167 50.74 72.73C50.74 73.7433 50.9967 74.4933 51.51 74.98C52.03 75.46 52.6933 75.7 53.5 75.7C54.04 75.7 54.5233 75.62 54.95 75.46L55.32 74.31L55.6 74.32L55.54 75.82C54.7733 75.98 54.1133 76.06 53.56 76.06C53.0133 76.06 52.56 76.03 52.2 75.97C51.8467 75.91 51.5 75.8033 51.16 75.65C50.82 75.4967 50.53 75.3 50.29 75.06C50.0567 74.82 49.8667 74.51 49.72 74.13C49.58 73.7433 49.51 73.2733 49.51 72.72C49.51 72.1667 49.6167 71.6567 49.83 71.19C50.05 70.7167 50.3467 70.3433 50.72 70.07C51.46 69.5233 52.34 69.25 53.36 69.25ZM61.5701 69.32H63.5901V69.56L62.8901 69.79V76H62.3401L57.7601 70.51V75.51L58.5901 75.76V76H56.5301V75.76L57.3301 75.51V69.65L56.4601 69.55V69.32H58.1001L62.3401 74.45V69.79L61.5701 69.56V69.32ZM68.2686 69.65C67.9086 69.5233 67.5386 69.46 67.1586 69.46C66.7786 69.46 66.4453 69.57 66.1586 69.79C65.8719 70.0033 65.7286 70.3233 65.7286 70.75C65.7286 71.1633 65.9053 71.48 66.2586 71.7C66.4519 71.82 66.6086 71.9067 66.7286 71.96C66.8553 72.0133 67.0353 72.0833 67.2686 72.17C67.5086 72.2567 67.6719 72.32 67.7586 72.36C67.8453 72.3933 67.9719 72.45 68.1386 72.53C68.3119 72.6033 68.4386 72.67 68.5186 72.73C68.6053 72.79 68.7086 72.8733 68.8286 72.98C68.9486 73.0867 69.0386 73.1933 69.0986 73.3C69.2453 73.5733 69.3186 73.87 69.3186 74.19C69.3186 74.7567 69.0886 75.22 68.6286 75.58C68.1686 75.94 67.5719 76.12 66.8386 76.12C66.2786 76.12 65.7553 76.0267 65.2686 75.84C65.0286 75.7533 64.8319 75.6333 64.6786 75.48C64.5253 75.3267 64.4486 75.15 64.4486 74.95C64.4486 74.6233 64.6853 74.4 65.1586 74.28C65.2319 74.68 65.3719 75.0033 65.5786 75.25C65.7853 75.4967 65.9986 75.66 66.2186 75.74C66.4453 75.82 66.7186 75.86 67.0386 75.86C67.3653 75.86 67.6719 75.7567 67.9586 75.55C68.2453 75.3367 68.3886 74.99 68.3886 74.51C68.3886 74.1433 68.2219 73.8433 67.8886 73.61C67.6219 73.43 67.2919 73.26 66.8986 73.1C66.5119 72.94 66.2519 72.8333 66.1186 72.78C65.9853 72.72 65.8119 72.63 65.5986 72.51C65.3919 72.3833 65.2386 72.26 65.1386 72.14C64.8786 71.8267 64.7486 71.4667 64.7486 71.06C64.7486 70.4333 64.9719 69.96 65.4186 69.64C65.8653 69.32 66.4819 69.16 67.2686 69.16C67.7419 69.16 68.2919 69.2133 68.9186 69.32V70.79H68.6086L68.2686 69.65Z" fill="#51473D"/>
</svg>
