<svg width="195" height="190" viewBox="0 0 195 190" fill="none" xmlns="http://www.w3.org/2000/svg">
<rect width="195" height="190" rx="5" fill="#43734D"/>
<path d="M29.5 134H108.5V172.5M100.5 172.5V142H29.5M29.5 150.5H91.5V172.5M65.5 109.5V64M65.5 18.5V34.5M65.5 64H142.5M65.5 64V34.5M152 7.5V114.5M152 177V156M82.5 109.5H108.5M186.5 109.5H115M152 120.5H186.5V88H1.5V95H193M152 120.5V114.5M152 120.5V156M152 114.5H186.5M152 156H129.5V181.5H19V172.5H75.5M75.5 172.5V161H15.5V34.5H65.5M75.5 172.5V187.5H186.5V153H193V5M108.5 109.5V7.5M108.5 109.5H115M115 7.5V109.5M136 145.5V120.5H100.5V82.5H166V181.5H182V172.5V28H15.5V21H172V11H15.5H4.5V181.5M193 99.5H1.5M1.5 51H193M50.5 2V187.5M55.5 187.5V2M60.5 2V187.5" stroke="#2E4934" stroke-width="1.75"/>
<line x1="28.875" y1="61" x2="28.875" y2="157" stroke="#2E4934" stroke-width="1.75"/>
<path d="M28 110.5H82.5V75.5" stroke="#2E4934" stroke-width="1.75"/>
<rect x="8.75" y="9.75" width="175.5" height="171.5" rx="14.25" fill="#F1DEBF" stroke="#51473D" stroke-width="1.5"/>
<mask id="path-6-inside-1" fill="white">
<path fill-rule="evenodd" clip-rule="evenodd" d="M63.597 176.959H28C24.3671 176.959 21.0359 175.667 18.4404 173.519C16.2915 170.923 15 167.592 15 163.959V121.709C15 118.533 17.5744 115.959 20.75 115.959C23.9256 115.959 26.5 113.385 26.5 110.209V71.7089C26.5 68.5333 23.9256 65.9589 20.75 65.9589C17.5744 65.9589 15 63.3846 15 60.2089V26.9589C15 26.7274 15.0052 26.4971 15.0156 26.2681C15.1404 23.5161 16.0067 20.9574 17.4194 18.787C20.1254 16.0724 23.8656 14.3883 28.0014 14.3769L72.0783 14.2557C74.3576 15.0195 76 17.1724 76 19.7089C76 22.8846 78.5744 25.4589 81.75 25.4589H120.25C123.426 25.4589 126 22.8846 126 19.7089C126 16.9622 127.926 14.6654 130.501 14.095L165.001 14.0001C168.637 13.9901 171.974 15.2744 174.576 17.4192C176.715 20.0118 178 23.3353 178 26.9589V69.2089C178 72.3846 175.426 74.9589 172.25 74.9589C169.074 74.9589 166.5 77.5333 166.5 80.7089V119.209C166.5 122.385 169.074 124.959 172.25 124.959C175.426 124.959 178 127.533 178 130.709V163.959C178 167.583 176.715 170.907 174.575 173.5L174.56 173.519C171.964 175.667 168.633 176.959 165 176.959H121.844C119.321 176.357 117.441 174.091 117.434 171.382C117.425 168.206 114.843 165.639 111.668 165.647L73.168 165.753C69.9924 165.762 67.4251 168.343 67.4338 171.519C67.4407 174.029 65.8378 176.169 63.597 176.959Z"/>
</mask>
<path fill-rule="evenodd" clip-rule="evenodd" d="M63.597 176.959H28C24.3671 176.959 21.0359 175.667 18.4404 173.519C16.2915 170.923 15 167.592 15 163.959V121.709C15 118.533 17.5744 115.959 20.75 115.959C23.9256 115.959 26.5 113.385 26.5 110.209V71.7089C26.5 68.5333 23.9256 65.9589 20.75 65.9589C17.5744 65.9589 15 63.3846 15 60.2089V26.9589C15 26.7274 15.0052 26.4971 15.0156 26.2681C15.1404 23.5161 16.0067 20.9574 17.4194 18.787C20.1254 16.0724 23.8656 14.3883 28.0014 14.3769L72.0783 14.2557C74.3576 15.0195 76 17.1724 76 19.7089C76 22.8846 78.5744 25.4589 81.75 25.4589H120.25C123.426 25.4589 126 22.8846 126 19.7089C126 16.9622 127.926 14.6654 130.501 14.095L165.001 14.0001C168.637 13.9901 171.974 15.2744 174.576 17.4192C176.715 20.0118 178 23.3353 178 26.9589V69.2089C178 72.3846 175.426 74.9589 172.25 74.9589C169.074 74.9589 166.5 77.5333 166.5 80.7089V119.209C166.5 122.385 169.074 124.959 172.25 124.959C175.426 124.959 178 127.533 178 130.709V163.959C178 167.583 176.715 170.907 174.575 173.5L174.56 173.519C171.964 175.667 168.633 176.959 165 176.959H121.844C119.321 176.357 117.441 174.091 117.434 171.382C117.425 168.206 114.843 165.639 111.668 165.647L73.168 165.753C69.9924 165.762 67.4251 168.343 67.4338 171.519C67.4407 174.029 65.8378 176.169 63.597 176.959Z" fill="#F8EBD8"/>
<path d="M63.597 176.959V178.459H63.8538L64.096 178.374L63.597 176.959ZM18.4404 173.519L17.285 174.475L17.375 174.584L17.4838 174.674L18.4404 173.519ZM15.0156 26.2681L13.5172 26.2002V26.2002L15.0156 26.2681ZM17.4194 18.787L16.3571 17.728L16.2472 17.8382L16.1622 17.9687L17.4194 18.787ZM28.0014 14.3769L28.0055 15.8769L28.0014 14.3769ZM72.0783 14.2557L72.5549 12.8334L72.3209 12.755L72.0742 12.7557L72.0783 14.2557ZM130.501 14.095L130.497 12.595L130.335 12.5954L130.177 12.6305L130.501 14.095ZM165.001 14.0001L164.997 12.5001L165.001 14.0001ZM174.576 17.4192L175.733 16.4646L175.641 16.3533L175.53 16.2616L174.576 17.4192ZM174.575 173.5L175.731 174.456L175.732 174.455L174.575 173.5ZM174.56 173.519L175.516 174.674L175.626 174.583L175.716 174.474L174.56 173.519ZM121.844 176.959L121.496 178.418L121.668 178.459H121.844V176.959ZM117.434 171.382L115.934 171.386L117.434 171.382ZM111.668 165.647L111.664 164.147H111.664L111.668 165.647ZM73.168 165.753L73.1639 164.253H73.1639L73.168 165.753ZM67.4338 171.519L68.9338 171.515L67.4338 171.519ZM63.597 175.459H28V178.459H63.597V175.459ZM28 175.459C24.7291 175.459 21.7334 174.298 19.3969 172.363L17.4838 174.674C20.3384 177.037 24.0052 178.459 28 178.459V175.459ZM19.5958 172.562C17.6613 170.226 16.5 167.23 16.5 163.959H13.5C13.5 167.954 14.9216 171.621 17.285 174.475L19.5958 172.562ZM16.5 163.959V121.709H13.5V163.959H16.5ZM16.5 121.709C16.5 119.362 18.4028 117.459 20.75 117.459V114.459C16.7459 114.459 13.5 117.705 13.5 121.709H16.5ZM20.75 117.459C24.7541 117.459 28 114.213 28 110.209H25C25 112.556 23.0972 114.459 20.75 114.459V117.459ZM28 110.209V71.7089H25V110.209H28ZM28 71.7089C28 67.7049 24.7541 64.4589 20.75 64.4589V67.4589C23.0972 67.4589 25 69.3617 25 71.7089H28ZM20.75 64.4589C18.4028 64.4589 16.5 62.5561 16.5 60.2089H13.5C13.5 64.213 16.7459 67.4589 20.75 67.4589V64.4589ZM16.5 60.2089V26.9589H13.5V60.2089H16.5ZM16.5 26.9589C16.5 26.75 16.5047 26.5424 16.5141 26.336L13.5172 26.2002C13.5058 26.4518 13.5 26.7047 13.5 26.9589H16.5ZM16.5141 26.336C16.6264 23.8589 17.4055 21.558 18.6765 19.6052L16.1622 17.9687C14.6079 20.3568 13.6544 23.1734 13.5172 26.2002L16.5141 26.336ZM18.4817 19.8459C20.9188 17.4012 24.2829 15.8872 28.0055 15.8769L27.9973 12.8769C23.4484 12.8895 19.332 14.7436 16.3571 17.728L18.4817 19.8459ZM28.0055 15.8769L72.0824 15.7557L72.0742 12.7557L27.9973 12.8769L28.0055 15.8769ZM71.6017 15.6779C73.2881 16.2431 74.5 17.8364 74.5 19.7089H77.5C77.5 16.5084 75.4271 13.796 72.5549 12.8334L71.6017 15.6779ZM74.5 19.7089C74.5 23.713 77.7459 26.9589 81.75 26.9589V23.9589C79.4028 23.9589 77.5 22.0561 77.5 19.7089H74.5ZM81.75 26.9589H120.25V23.9589H81.75V26.9589ZM120.25 26.9589C124.254 26.9589 127.5 23.713 127.5 19.7089H124.5C124.5 22.0561 122.597 23.9589 120.25 23.9589V26.9589ZM127.5 19.7089C127.5 17.6806 128.922 15.981 130.825 15.5595L130.177 12.6305C126.929 13.3497 124.5 16.2438 124.5 19.7089H127.5ZM130.505 15.595L165.005 15.5001L164.997 12.5001L130.497 12.595L130.505 15.595ZM165.005 15.5001C168.278 15.491 171.279 16.646 173.622 18.5767L175.53 16.2616C172.668 13.9028 168.995 12.4891 164.997 12.5001L165.005 15.5001ZM173.419 18.3738C175.345 20.7076 176.5 23.6963 176.5 26.9589H179.5C179.5 22.9743 178.086 19.316 175.733 16.4646L173.419 18.3738ZM176.5 26.9589V69.2089H179.5V26.9589H176.5ZM176.5 69.2089C176.5 71.5561 174.597 73.4589 172.25 73.4589V76.4589C176.254 76.4589 179.5 73.213 179.5 69.2089H176.5ZM172.25 73.4589C168.246 73.4589 165 76.7049 165 80.7089H168C168 78.3617 169.903 76.4589 172.25 76.4589V73.4589ZM165 80.7089V119.209H168V80.7089H165ZM165 119.209C165 123.213 168.246 126.459 172.25 126.459V123.459C169.903 123.459 168 121.556 168 119.209H165ZM172.25 126.459C174.597 126.459 176.5 128.362 176.5 130.709H179.5C179.5 126.705 176.254 123.459 172.25 123.459V126.459ZM176.5 130.709V163.959H179.5V130.709H176.5ZM176.5 163.959C176.5 167.222 175.344 170.211 173.418 172.546L175.732 174.455C178.085 171.603 179.5 167.944 179.5 163.959H176.5ZM173.418 172.545L173.403 172.563L175.716 174.474L175.731 174.456L173.418 172.545ZM173.603 172.363C171.267 174.298 168.271 175.459 165 175.459V178.459C168.995 178.459 172.662 177.037 175.516 174.674L173.603 172.363ZM165 175.459H121.844V178.459H165V175.459ZM122.192 175.5C120.327 175.055 118.939 173.378 118.934 171.377L115.934 171.386C115.943 174.803 118.314 177.659 121.496 178.418L122.192 175.5ZM118.934 171.377C118.923 167.373 115.668 164.136 111.664 164.147L111.672 167.147C114.019 167.141 115.927 169.038 115.934 171.386L118.934 171.377ZM111.664 164.147L73.1639 164.253L73.1721 167.253L111.672 167.147L111.664 164.147ZM73.1639 164.253C69.1598 164.264 65.9228 167.519 65.9338 171.523L68.9338 171.515C68.9274 169.168 70.8249 167.26 73.1721 167.253L73.1639 164.253ZM65.9338 171.523C65.9389 173.376 64.7563 174.96 63.0981 175.544L64.096 178.374C66.9193 177.378 68.9425 174.683 68.9338 171.515L65.9338 171.523Z" fill="#51473D" mask="url(#path-6-inside-1)"/>
<path d="M57.2852 87.6698H67.9251C69.7646 87.6698 71.2559 89.1611 71.2559 91.0006H57.2852V87.6698Z" fill="#51473D"/>
<path d="M67.5469 87.6698C69.5939 87.6698 71.2534 89.3293 71.2534 91.3763V93.9558C71.2534 96.0029 69.5939 97.6623 67.5469 97.6623V87.6698Z" fill="#51473D"/>
<rect x="57" y="93.7763" width="10.5493" height="3.33085" fill="#51473D"/>
<rect x="57" y="93.7763" width="3.42141" height="9.71497" fill="#51473D"/>
<path d="M64.6992 96.0449L68.6909 94.8866L70.9718 103.491H67.2653L64.6992 96.0449Z" fill="#51473D"/>
<path d="M73.2539 87.3924H76.5328L81.95 95.9971L79.0988 97.6625L73.2539 87.3924Z" fill="#51473D"/>
<path d="M87.3672 87.67H84.0883L79.2413 96.2747L81.5223 97.9401L87.3672 87.67Z" fill="#51473D"/>
<rect x="78.8125" y="93.7765" width="3.42141" height="9.71497" fill="#51473D"/>
<rect x="89.7891" y="87.3922" width="13.6856" height="3.33085" fill="#51473D"/>
<rect x="89.7891" y="103.491" width="3.33085" height="13.6856" transform="rotate(-90 89.7891 103.491)" fill="#51473D"/>
<path d="M94.2091 101.271L89.7898 100.16L99.4833 90.0291L103.475 90.7231L94.2091 101.271Z" fill="#51473D"/>
<rect x="106.613" y="87.3923" width="13.4005" height="3.33085" fill="#51473D"/>
<rect x="106.613" y="93.4989" width="13.4005" height="3.33085" fill="#51473D"/>
<rect x="106.613" y="103.492" width="9.99254" height="3.42141" transform="rotate(-90 106.613 103.492)" fill="#51473D"/>
<rect x="106.613" y="100.161" width="13.4005" height="3.33085" fill="#51473D"/>
<path d="M122.863 103.491V87.3921H126.285V103.491H122.863Z" fill="#51473D"/>
<path d="M132.841 103.491L123.861 90.4454L126.283 87.3922L136.065 101.239L132.841 103.491Z" fill="#51473D"/>
<path d="M132.844 103.491V87.3921H136.265V103.491H132.844Z" fill="#51473D"/>
<path d="M135.356 112.1V107.213C125.833 110.269 110.11 113.106 96.8474 113.68C86.4046 114.133 78.2289 114.359 72.1078 113.824C36.6052 110.72 44.7328 96.9137 53.2343 90.3987V88.5304C45.5838 91.9795 39.7159 98.0155 41.2431 104.052C52.2141 132.076 137.145 112.1 135.356 112.1Z" fill="#51473D"/>
<path d="M137.912 104.339V100.89C147.858 97.297 148.879 94.7101 148.879 90.9735C148.624 87.6681 144.798 84.9162 143.013 83.5004C137.504 79.1315 119.463 78.2308 111.132 78.3267C87.9223 78.6141 76.4452 82.3507 65.9883 85.0812V83.5004C95.8288 74.0152 120.823 75.8835 129.24 76.7458C137.657 77.6081 155 81.3447 155 90.9735C155 98.6766 143.608 103.093 137.912 104.339Z" fill="#51473D"/>
<path d="M53.36 69.25C53.36 69.25 54.0467 69.28 55.42 69.34L55.48 71.16H55.16L54.82 69.85C54.46 69.6967 54.0333 69.62 53.54 69.62C52.7333 69.62 52.0633 69.8867 51.53 70.42C51.0033 70.9467 50.74 71.7167 50.74 72.73C50.74 73.7433 50.9967 74.4933 51.51 74.98C52.03 75.46 52.6933 75.7 53.5 75.7C54.04 75.7 54.5233 75.62 54.95 75.46L55.32 74.31L55.6 74.32L55.54 75.82C54.7733 75.98 54.1133 76.06 53.56 76.06C53.0133 76.06 52.56 76.03 52.2 75.97C51.8467 75.91 51.5 75.8033 51.16 75.65C50.82 75.4967 50.53 75.3 50.29 75.06C50.0567 74.82 49.8667 74.51 49.72 74.13C49.58 73.7433 49.51 73.2733 49.51 72.72C49.51 72.1667 49.6167 71.6567 49.83 71.19C50.05 70.7167 50.3467 70.3433 50.72 70.07C51.46 69.5233 52.34 69.25 53.36 69.25ZM61.5701 69.32H63.5901V69.56L62.8901 69.79V76H62.3401L57.7601 70.51V75.51L58.5901 75.76V76H56.5301V75.76L57.3301 75.51V69.65L56.4601 69.55V69.32H58.1001L62.3401 74.45V69.79L61.5701 69.56V69.32ZM68.2686 69.65C67.9086 69.5233 67.5386 69.46 67.1586 69.46C66.7786 69.46 66.4453 69.57 66.1586 69.79C65.8719 70.0033 65.7286 70.3233 65.7286 70.75C65.7286 71.1633 65.9053 71.48 66.2586 71.7C66.4519 71.82 66.6086 71.9067 66.7286 71.96C66.8553 72.0133 67.0353 72.0833 67.2686 72.17C67.5086 72.2567 67.6719 72.32 67.7586 72.36C67.8453 72.3933 67.9719 72.45 68.1386 72.53C68.3119 72.6033 68.4386 72.67 68.5186 72.73C68.6053 72.79 68.7086 72.8733 68.8286 72.98C68.9486 73.0867 69.0386 73.1933 69.0986 73.3C69.2453 73.5733 69.3186 73.87 69.3186 74.19C69.3186 74.7567 69.0886 75.22 68.6286 75.58C68.1686 75.94 67.5719 76.12 66.8386 76.12C66.2786 76.12 65.7553 76.0267 65.2686 75.84C65.0286 75.7533 64.8319 75.6333 64.6786 75.48C64.5253 75.3267 64.4486 75.15 64.4486 74.95C64.4486 74.6233 64.6853 74.4 65.1586 74.28C65.2319 74.68 65.3719 75.0033 65.5786 75.25C65.7853 75.4967 65.9986 75.66 66.2186 75.74C66.4453 75.82 66.7186 75.86 67.0386 75.86C67.3653 75.86 67.6719 75.7567 67.9586 75.55C68.2453 75.3367 68.3886 74.99 68.3886 74.51C68.3886 74.1433 68.2219 73.8433 67.8886 73.61C67.6219 73.43 67.2919 73.26 66.8986 73.1C66.5119 72.94 66.2519 72.8333 66.1186 72.78C65.9853 72.72 65.8119 72.63 65.5986 72.51C65.3919 72.3833 65.2386 72.26 65.1386 72.14C64.8786 71.8267 64.7486 71.4667 64.7486 71.06C64.7486 70.4333 64.9719 69.96 65.4186 69.64C65.8653 69.32 66.4819 69.16 67.2686 69.16C67.7419 69.16 68.2919 69.2133 68.9186 69.32V70.79H68.6086L68.2686 69.65Z" fill="#51473D"/>
<rect x="37.5" y="64.5" width="54" height="54" fill="#F1DEBF" stroke="#51473D"/>
<rect x="39.5" y="62.5" width="54" height="54" fill="#F1DEBF" stroke="#51473D"/>
<path d="M60.99 93H58.29V92.79L59.07 92.67L58.19 90.37H55.94L55.1 92.5L55.99 92.76V93H53.9V92.76L54.66 92.5L57.12 86.32H57.61L60.22 92.67L60.99 92.76V93ZM58.04 90L57.06 87.57L56.08 90H58.04ZM61.1576 86.32H63.9276V86.56L63.0576 86.65V92.68L65.5776 92.65L66.0476 91.51H66.3076L66.1876 93H61.1576V92.76L62.0276 92.67V86.65L61.1576 86.56V86.32ZM68.414 90.6C68.414 91.3467 68.5573 91.8967 68.844 92.25C69.1373 92.5967 69.5973 92.77 70.224 92.77C70.8507 92.77 71.314 92.6033 71.614 92.27C71.9207 91.9367 72.074 91.37 72.074 90.57V86.71L71.334 86.61V86.32H73.314V86.63L72.504 86.71V90.66C72.504 91.16 72.434 91.5633 72.294 91.87C72.1607 92.17 72.0107 92.4 71.844 92.56C71.6773 92.72 71.4473 92.8533 71.154 92.96C70.8607 93.0667 70.5173 93.12 70.124 93.12C69.204 93.12 68.5173 92.9367 68.064 92.57C67.6173 92.1967 67.394 91.6067 67.394 90.8V86.65L66.604 86.58V86.32H69.314V86.58L68.414 86.65V90.6Z" fill="#51473D"/>
<rect x="104.5" y="84.5" width="54" height="54" fill="#F1DEBF" stroke="#51473D"/>
<rect x="106.5" y="82.5" width="54" height="54" fill="#F1DEBF" stroke="#51473D"/>
<path d="M112.36 102.25C112.36 102.25 113.047 102.28 114.42 102.34L114.48 104.16H114.16L113.82 102.85C113.46 102.697 113.033 102.62 112.54 102.62C111.733 102.62 111.063 102.887 110.53 103.42C110.003 103.947 109.74 104.717 109.74 105.73C109.74 106.743 109.997 107.493 110.51 107.98C111.03 108.46 111.693 108.7 112.5 108.7C113.04 108.7 113.523 108.62 113.95 108.46L114.32 107.31L114.6 107.32L114.54 108.82C113.773 108.98 113.113 109.06 112.56 109.06C112.013 109.06 111.56 109.03 111.2 108.97C110.847 108.91 110.5 108.803 110.16 108.65C109.82 108.497 109.53 108.3 109.29 108.06C109.057 107.82 108.867 107.51 108.72 107.13C108.58 106.743 108.51 106.273 108.51 105.72C108.51 105.167 108.617 104.657 108.83 104.19C109.05 103.717 109.347 103.343 109.72 103.07C110.46 102.523 111.34 102.25 112.36 102.25ZM122.29 105.64C122.29 106.64 121.987 107.47 121.38 108.13C120.773 108.783 119.96 109.11 118.94 109.11C117.92 109.11 117.103 108.783 116.49 108.13C115.883 107.47 115.58 106.64 115.58 105.64C115.58 104.64 115.883 103.813 116.49 103.16C117.103 102.5 117.92 102.17 118.94 102.17C119.96 102.17 120.773 102.5 121.38 103.16C121.987 103.813 122.29 104.64 122.29 105.64ZM118.95 108.8C120.363 108.8 121.07 107.747 121.07 105.64C121.07 104.627 120.907 103.847 120.58 103.3C120.26 102.753 119.713 102.48 118.94 102.48C118.167 102.48 117.617 102.753 117.29 103.3C116.963 103.84 116.8 104.62 116.8 105.64C116.8 107.747 117.517 108.8 118.95 108.8ZM128.197 102.32H130.217V102.56L129.517 102.79V109H128.967L124.387 103.51V108.51L125.217 108.76V109H123.157V108.76L123.957 108.51V102.65L123.087 102.55V102.32H124.727L128.967 107.45V102.79L128.197 102.56V102.32ZM136.736 103.84H136.436L136.096 102.69L134.326 102.67V108.67L135.256 108.76V109H132.366V108.76L133.296 108.67V102.67L131.526 102.69L131.186 103.84H130.896V102.33L133.816 102.31L136.736 102.33V103.84ZM139.205 105.48H139.705C140.899 105.48 141.495 104.98 141.495 103.98C141.495 103.487 141.379 103.13 141.145 102.91C140.912 102.683 140.539 102.57 140.025 102.57C139.825 102.57 139.552 102.583 139.205 102.61V105.48ZM139.185 102.3L140.325 102.27C141.839 102.27 142.595 102.84 142.595 103.98C142.595 104.473 142.425 104.88 142.085 105.2C141.752 105.513 141.319 105.67 140.785 105.67C140.739 105.67 140.655 105.663 140.535 105.65V105.67C141.249 105.77 141.739 106.003 142.005 106.37C142.279 106.73 142.415 107.283 142.415 108.03C142.415 108.497 142.502 108.767 142.675 108.84C142.755 108.893 142.865 108.92 143.005 108.92C143.152 108.92 143.339 108.877 143.565 108.79V109.04C143.212 109.167 142.889 109.23 142.595 109.23C141.942 109.23 141.539 108.95 141.385 108.39C141.345 108.243 141.322 108.037 141.315 107.77C141.315 107.503 141.305 107.267 141.285 107.06C141.265 106.853 141.219 106.647 141.145 106.44C140.979 105.993 140.519 105.77 139.765 105.77H139.205V108.71L139.975 108.78V109H137.425V108.79L138.175 108.71V102.63L137.305 102.53V102.27C137.732 102.29 138.189 102.3 138.675 102.3H139.185ZM150.63 105.64C150.63 106.64 150.327 107.47 149.72 108.13C149.113 108.783 148.3 109.11 147.28 109.11C146.26 109.11 145.443 108.783 144.83 108.13C144.223 107.47 143.92 106.64 143.92 105.64C143.92 104.64 144.223 103.813 144.83 103.16C145.443 102.5 146.26 102.17 147.28 102.17C148.3 102.17 149.113 102.5 149.72 103.16C150.327 103.813 150.63 104.64 150.63 105.64ZM147.29 108.8C148.703 108.8 149.41 107.747 149.41 105.64C149.41 104.627 149.247 103.847 148.92 103.3C148.6 102.753 148.053 102.48 147.28 102.48C146.507 102.48 145.957 102.753 145.63 103.3C145.303 103.84 145.14 104.62 145.14 105.64C145.14 107.747 145.857 108.8 147.29 108.8ZM151.437 102.32H154.207V102.56L153.337 102.65V108.68L155.857 108.65L156.327 107.51H156.587L156.467 109H151.437V108.76L152.307 108.67V102.65L151.437 102.56V102.32ZM110.08 118.6C110.08 119.347 110.223 119.897 110.51 120.25C110.803 120.597 111.263 120.77 111.89 120.77C112.517 120.77 112.98 120.603 113.28 120.27C113.587 119.937 113.74 119.37 113.74 118.57V114.71L113 114.61V114.32H114.98V114.63L114.17 114.71V118.66C114.17 119.16 114.1 119.563 113.96 119.87C113.827 120.17 113.677 120.4 113.51 120.56C113.343 120.72 113.113 120.853 112.82 120.96C112.527 121.067 112.183 121.12 111.79 121.12C110.87 121.12 110.183 120.937 109.73 120.57C109.283 120.197 109.06 119.607 109.06 118.8V114.65L108.27 114.58V114.32H110.98V114.58L110.08 114.65V118.6ZM120.746 114.32H122.766V114.56L122.066 114.79V121H121.516L116.936 115.51V120.51L117.766 120.76V121H115.706V120.76L116.506 120.51V114.65L115.636 114.55V114.32H117.276L121.516 119.45V114.79L120.746 114.56V114.32ZM126.394 121H123.624V120.76L124.494 120.67V114.65L123.624 114.56V114.32H126.394V114.56L125.524 114.65V120.67L126.394 120.76V121ZM132.839 115.84H132.539L132.199 114.69L130.429 114.67V120.67L131.359 120.76V121H128.469V120.76L129.399 120.67V114.67L127.629 114.69L127.289 115.84H126.999V114.33L129.919 114.31L132.839 114.33V115.84Z" fill="#51473D"/>
<rect x="104.5" y="51.5" width="54" height="21" fill="#F1DEBF" stroke="#51473D"/>
<rect x="106.5" y="49.5" width="54" height="21" fill="#F1DEBF" stroke="#51473D"/>
<path d="M109.26 59.48H109.76C110.953 59.48 111.55 58.98 111.55 57.98C111.55 57.4867 111.433 57.13 111.2 56.91C110.967 56.6833 110.593 56.57 110.08 56.57C109.88 56.57 109.607 56.5833 109.26 56.61V59.48ZM109.24 56.3L110.38 56.27C111.893 56.27 112.65 56.84 112.65 57.98C112.65 58.4733 112.48 58.88 112.14 59.2C111.807 59.5133 111.373 59.67 110.84 59.67C110.793 59.67 110.71 59.6633 110.59 59.65V59.67C111.303 59.77 111.793 60.0033 112.06 60.37C112.333 60.73 112.47 61.2833 112.47 62.03C112.47 62.4967 112.557 62.7667 112.73 62.84C112.81 62.8933 112.92 62.92 113.06 62.92C113.207 62.92 113.393 62.8767 113.62 62.79V63.04C113.267 63.1667 112.943 63.23 112.65 63.23C111.997 63.23 111.593 62.95 111.44 62.39C111.4 62.2433 111.377 62.0367 111.37 61.77C111.37 61.5033 111.36 61.2667 111.34 61.06C111.32 60.8533 111.273 60.6467 111.2 60.44C111.033 59.9933 110.573 59.77 109.82 59.77H109.26V62.71L110.03 62.78V63H107.48V62.79L108.23 62.71V56.63L107.36 56.53V56.27C107.787 56.29 108.243 56.3 108.73 56.3H109.24ZM113.972 63V62.76L114.842 62.67V56.65L113.972 56.54V56.32H118.762L118.772 57.74H118.512L118.172 56.68L115.872 56.65V59.34H117.892L118.202 58.6H118.402V60.46H118.192L117.892 59.7H115.872V62.68L118.472 62.65L118.942 61.51H119.202L119.082 63H113.972ZM126.109 62.82C125.469 62.98 124.735 63.06 123.909 63.06C122.522 63.06 121.502 62.7267 120.849 62.06C120.609 61.82 120.415 61.51 120.269 61.13C120.129 60.7433 120.059 60.2733 120.059 59.72C120.059 59.1667 120.165 58.6567 120.379 58.19C120.599 57.7167 120.895 57.3433 121.269 57.07C122.009 56.5233 122.889 56.25 123.909 56.25L125.969 56.34L126.029 58.16H125.709L125.369 56.85C125.009 56.6967 124.582 56.62 124.089 56.62C123.282 56.62 122.612 56.8867 122.079 57.42C121.552 57.9467 121.289 58.7167 121.289 59.73C121.289 60.7433 121.545 61.4933 122.059 61.98C122.579 62.46 123.242 62.7 124.049 62.7C124.442 62.7 124.802 62.66 125.129 62.58V60.45L124.299 60.36V60.12H126.709V60.36L126.109 60.45V62.82ZM130.18 63H127.41V62.76L128.28 62.67V56.65L127.41 56.56V56.32H130.18V56.56L129.31 56.65V62.67L130.18 62.76V63ZM134.784 56.65C134.424 56.5233 134.054 56.46 133.674 56.46C133.294 56.46 132.961 56.57 132.674 56.79C132.388 57.0033 132.244 57.3233 132.244 57.75C132.244 58.1633 132.421 58.48 132.774 58.7C132.968 58.82 133.124 58.9067 133.244 58.96C133.371 59.0133 133.551 59.0833 133.784 59.17C134.024 59.2567 134.188 59.32 134.274 59.36C134.361 59.3933 134.488 59.45 134.654 59.53C134.828 59.6033 134.954 59.67 135.034 59.73C135.121 59.79 135.224 59.8733 135.344 59.98C135.464 60.0867 135.554 60.1933 135.614 60.3C135.761 60.5733 135.834 60.87 135.834 61.19C135.834 61.7567 135.604 62.22 135.144 62.58C134.684 62.94 134.088 63.12 133.354 63.12C132.794 63.12 132.271 63.0267 131.784 62.84C131.544 62.7533 131.348 62.6333 131.194 62.48C131.041 62.3267 130.964 62.15 130.964 61.95C130.964 61.6233 131.201 61.4 131.674 61.28C131.748 61.68 131.888 62.0033 132.094 62.25C132.301 62.4967 132.514 62.66 132.734 62.74C132.961 62.82 133.234 62.86 133.554 62.86C133.881 62.86 134.188 62.7567 134.474 62.55C134.761 62.3367 134.904 61.99 134.904 61.51C134.904 61.1433 134.738 60.8433 134.404 60.61C134.138 60.43 133.808 60.26 133.414 60.1C133.028 59.94 132.768 59.8333 132.634 59.78C132.501 59.72 132.328 59.63 132.114 59.51C131.908 59.3833 131.754 59.26 131.654 59.14C131.394 58.8267 131.264 58.4667 131.264 58.06C131.264 57.4333 131.488 56.96 131.934 56.64C132.381 56.32 132.998 56.16 133.784 56.16C134.258 56.16 134.808 56.2133 135.434 56.32V57.79H135.124L134.784 56.65ZM142.318 57.84H142.018L141.678 56.69L139.908 56.67V62.67L140.838 62.76V63H137.948V62.76L138.878 62.67V56.67L137.108 56.69L136.768 57.84H136.478V56.33L139.398 56.31L142.318 56.33V57.84ZM142.917 63V62.76L143.787 62.67V56.65L142.917 56.54V56.32H147.707L147.717 57.74H147.457L147.117 56.68L144.817 56.65V59.34H146.837L147.147 58.6H147.347V60.46H147.137L146.837 59.7H144.817V62.68L147.417 62.65L147.887 61.51H148.147L148.027 63H142.917ZM150.754 59.48H151.254C152.447 59.48 153.044 58.98 153.044 57.98C153.044 57.4867 152.927 57.13 152.694 56.91C152.461 56.6833 152.087 56.57 151.574 56.57C151.374 56.57 151.101 56.5833 150.754 56.61V59.48ZM150.734 56.3L151.874 56.27C153.387 56.27 154.144 56.84 154.144 57.98C154.144 58.4733 153.974 58.88 153.634 59.2C153.301 59.5133 152.867 59.67 152.334 59.67C152.287 59.67 152.204 59.6633 152.084 59.65V59.67C152.797 59.77 153.287 60.0033 153.554 60.37C153.827 60.73 153.964 61.2833 153.964 62.03C153.964 62.4967 154.051 62.7667 154.224 62.84C154.304 62.8933 154.414 62.92 154.554 62.92C154.701 62.92 154.887 62.8767 155.114 62.79V63.04C154.761 63.1667 154.437 63.23 154.144 63.23C153.491 63.23 153.087 62.95 152.934 62.39C152.894 62.2433 152.871 62.0367 152.864 61.77C152.864 61.5033 152.854 61.2667 152.834 61.06C152.814 60.8533 152.767 60.6467 152.694 60.44C152.527 59.9933 152.067 59.77 151.314 59.77H150.754V62.71L151.524 62.78V63H148.974V62.79L149.724 62.71V56.63L148.854 56.53V56.27C149.281 56.29 149.737 56.3 150.224 56.3H150.734ZM159.286 56.65C158.926 56.5233 158.556 56.46 158.176 56.46C157.796 56.46 157.463 56.57 157.176 56.79C156.89 57.0033 156.746 57.3233 156.746 57.75C156.746 58.1633 156.923 58.48 157.276 58.7C157.47 58.82 157.626 58.9067 157.746 58.96C157.873 59.0133 158.053 59.0833 158.286 59.17C158.526 59.2567 158.69 59.32 158.776 59.36C158.863 59.3933 158.99 59.45 159.156 59.53C159.33 59.6033 159.456 59.67 159.536 59.73C159.623 59.79 159.726 59.8733 159.846 59.98C159.966 60.0867 160.056 60.1933 160.116 60.3C160.263 60.5733 160.336 60.87 160.336 61.19C160.336 61.7567 160.106 62.22 159.646 62.58C159.186 62.94 158.59 63.12 157.856 63.12C157.296 63.12 156.773 63.0267 156.286 62.84C156.046 62.7533 155.85 62.6333 155.696 62.48C155.543 62.3267 155.466 62.15 155.466 61.95C155.466 61.6233 155.703 61.4 156.176 61.28C156.25 61.68 156.39 62.0033 156.596 62.25C156.803 62.4967 157.016 62.66 157.236 62.74C157.463 62.82 157.736 62.86 158.056 62.86C158.383 62.86 158.69 62.7567 158.976 62.55C159.263 62.3367 159.406 61.99 159.406 61.51C159.406 61.1433 159.24 60.8433 158.906 60.61C158.64 60.43 158.31 60.26 157.916 60.1C157.53 59.94 157.27 59.8333 157.136 59.78C157.003 59.72 156.83 59.63 156.616 59.51C156.41 59.3833 156.256 59.26 156.156 59.14C155.896 58.8267 155.766 58.4667 155.766 58.06C155.766 57.4333 155.99 56.96 156.436 56.64C156.883 56.32 157.5 56.16 158.286 56.16C158.76 56.16 159.31 56.2133 159.936 56.32V57.79H159.626L159.286 56.65Z" fill="#51473D"/>
</svg>
