<svg width="16" height="17" viewBox="0 0 16 17" fill="none" xmlns="http://www.w3.org/2000/svg">
<path d="M7.999 0.997803C3.582 0.997803 0 4.67025 0 9.20056C0 12.824 2.292 15.898 5.472 16.9836C5.872 17.0592 6.018 16.8059 6.018 16.5884C6.018 16.3933 6.011 15.8776 6.007 15.1933C3.782 15.6886 3.312 14.0934 3.312 14.0934C2.949 13.1457 2.424 12.8934 2.424 12.8934C1.697 12.3848 2.478 12.3951 2.478 12.3951C3.281 12.4533 3.703 13.2407 3.703 13.2407C4.417 14.4937 5.576 14.1322 6.032 13.9218C6.104 13.3918 6.311 13.0303 6.54 12.825C4.764 12.6177 2.896 11.914 2.896 8.77163C2.896 7.87599 3.208 7.14374 3.72 6.5698C3.637 6.36248 3.363 5.52811 3.798 4.39962C3.798 4.39962 4.47 4.17903 5.998 5.24012C6.636 5.05833 7.32 4.96744 8.001 4.96438C8.68 4.96846 9.365 5.05833 10.004 5.24114C11.531 4.18005 12.202 4.40064 12.202 4.40064C12.638 5.53015 12.364 6.3635 12.282 6.57082C12.795 7.14476 13.104 7.87701 13.104 8.77265C13.104 11.9232 11.234 12.6167 9.452 12.8199C9.739 13.0732 9.995 13.5736 9.995 14.3385C9.995 15.4353 9.985 16.3198 9.985 16.5884C9.985 16.8079 10.129 17.0632 10.535 16.9826C13.71 15.8959 16 12.823 16 9.20056C16 4.67025 12.418 0.997803 7.999 0.997803Z" fill="#51473D"/>
</svg>
