<svg width="31" height="30" viewBox="0 0 31 30" fill="none" xmlns="http://www.w3.org/2000/svg">
<path d="M15.317 0C6.85903 0 0 6.88584 0 15.3802C0 22.1741 4.38886 27.9378 10.4781 29.9733C11.2441 30.115 11.5236 29.6401 11.5236 29.2323C11.5236 28.8665 11.5102 27.8995 11.5026 26.6166C7.24201 27.5453 6.34202 24.5543 6.34202 24.5543C5.64693 22.7773 4.64162 22.3043 4.64162 22.3043C3.24952 21.3507 4.74503 21.3699 4.74503 21.3699C6.28266 21.479 7.09073 22.9554 7.09073 22.9554C8.45794 25.3049 10.6773 24.627 11.5504 24.2326C11.6883 23.2388 12.0847 22.5609 12.5232 22.176C9.1224 21.7873 5.54544 20.468 5.54544 14.5759C5.54544 12.8966 6.14288 11.5236 7.12329 10.4475C6.96435 10.0588 6.43968 8.49433 7.27264 6.3784C7.27264 6.3784 8.55943 5.96479 11.4853 7.95434C12.707 7.61349 14.0168 7.44307 15.3208 7.43732C16.621 7.44498 17.9327 7.61349 19.1563 7.95625C22.0803 5.96671 23.3651 6.38032 23.3651 6.38032C24.2 8.49816 23.6753 10.0607 23.5183 10.4494C24.5007 11.5256 25.0923 12.8985 25.0923 14.5778C25.0923 20.4852 21.5116 21.7854 18.0993 22.1664C18.6488 22.6413 19.139 23.5796 19.139 25.0138C19.139 27.0704 19.1199 28.7287 19.1199 29.2323C19.1199 29.644 19.3956 30.1227 20.1731 29.9714C26.2528 27.934 30.6378 22.1722 30.6378 15.3802C30.6378 6.88584 23.7788 0 15.317 0Z" fill="#DBD2C3"/>
</svg>
