<svg width="16" height="16" viewBox="0 0 16 16" fill="none" xmlns="http://www.w3.org/2000/svg">
<g clip-path="url(#clip0)">
<path d="M15.8299 6.50198L8.24561 0.948949C8.09936 0.841887 7.90067 0.841887 7.75449 0.948949L0.170174 6.50198C-0.0150757 6.63764 -0.0553257 6.89776 0.0803306 7.08301C0.215987 7.26826 0.476143 7.30845 0.661362 7.17286L8.00002 1.79961L15.3387 7.17282C15.4127 7.22704 15.4987 7.25314 15.5839 7.25314C15.7119 7.25314 15.8382 7.19423 15.9197 7.08298C16.0554 6.89776 16.0151 6.63764 15.8299 6.50198Z" fill="#51473D"/>
<path d="M13.8178 7.26709C13.5882 7.26709 13.4021 7.45321 13.4021 7.68281V14.3H10.0764V10.6879C10.0764 9.54165 9.14381 8.60915 7.99763 8.60915C6.85144 8.60915 5.91888 9.54171 5.91888 10.6879V14.3H2.59316V7.68284C2.59316 7.45325 2.407 7.26712 2.17744 7.26712C1.94787 7.26712 1.76172 7.45325 1.76172 7.68284V14.7157C1.76172 14.9453 1.94787 15.1315 2.17744 15.1315H6.33459C6.55322 15.1315 6.73213 14.9626 6.74869 14.7481C6.74969 14.7384 6.75031 14.7278 6.75031 14.7157V10.6879C6.75031 10.0002 7.30984 9.44062 7.99763 9.44062C8.68541 9.44062 9.24494 10.0002 9.24494 10.6879V14.7157C9.24494 14.7277 9.24556 14.7382 9.24656 14.7477C9.26294 14.9623 9.44191 15.1315 9.66066 15.1315H13.8178C14.0474 15.1315 14.2335 14.9453 14.2335 14.7157V7.68284C14.2335 7.45321 14.0474 7.26709 13.8178 7.26709Z" fill="#51473D"/>
</g>
<defs>
<clipPath id="clip0">
<rect width="16" height="16" fill="white"/>
</clipPath>
</defs>
</svg>
