<svg width="24" height="16" viewBox="0 0 24 16" fill="none" xmlns="http://www.w3.org/2000/svg">
<path d="M11.7276 0.176898C11.8933 0.0693168 12.1067 0.0693167 12.2724 0.176898L20.9769 5.83069C21.3944 6.10184 21.2024 6.75 20.7046 6.75H3.29542C2.79762 6.75 2.6056 6.10184 3.02307 5.83069L11.7276 0.176898Z" fill="#51473D"/>
<path fill-rule="evenodd" clip-rule="evenodd" d="M6 4.34937C5.44772 4.34937 5 4.79708 5 5.34937V14.9999C5 15.5521 5.44772 15.9999 6 15.9999H10.6V11.6238C10.6 11.2096 10.9358 10.8738 11.35 10.8738H13.21C13.6242 10.8738 13.96 11.2096 13.96 11.6238V15.9999H18C18.5523 15.9999 19 15.5521 19 14.9999V5.34937C19 4.79708 18.5523 4.34937 18 4.34937H6Z" fill="#51473D"/>
</svg>
