<svg width="392" height="103" viewBox="0 0 392 103" fill="none" xmlns="http://www.w3.org/2000/svg">
<path d="M25.3 29.96V40.04C25.3 43.28 26.78 44.9 29.74 44.9C32.02 44.9 33.52 43.82 34.24 41.66C34.44 40.98 34.68 40.52 34.96 40.28C35.28 40.04 35.78 39.92 36.46 39.92H48.7C49.06 39.92 49.36 40.06 49.6 40.34C49.88 40.58 50.02 40.88 50.02 41.24C50.02 44.72 49.02 47.64 47.02 50C43.34 54.4 37.6 56.6 29.8 56.6C23.68 56.6 18.8 55.26 15.16 52.58C11.52 49.86 9.7 45.7 9.7 40.1V29.9C9.7 24.42 11.56 20.3 15.28 17.54C19 14.78 23.84 13.4 29.8 13.4C37.6 13.4 43.34 15.6 47.02 20C49.02 22.36 50.02 25.28 50.02 28.76C50.02 29.12 49.88 29.44 49.6 29.72C49.36 29.96 49.06 30.08 48.7 30.08H36.46C35.82 30.08 35.34 29.96 35.02 29.72C34.74 29.48 34.48 29.02 34.24 28.34C33.48 26.18 31.98 25.1 29.74 25.1C26.78 25.1 25.3 26.72 25.3 29.96ZM56.3842 17.84C60.0642 14.88 64.9242 13.4 70.9642 13.4C77.0042 13.4 81.8442 14.9 85.4842 17.9C89.1642 20.86 91.0042 25.04 91.0042 30.44V39.8C91.0042 45.28 89.1842 49.46 85.5442 52.34C81.9442 55.18 77.0842 56.6 70.9642 56.6C64.8442 56.6 59.9642 55.18 56.3242 52.34C52.7242 49.46 50.9242 45.28 50.9242 39.8V30.44C50.9242 25 52.7442 20.8 56.3842 17.84ZM67.7242 43.7C68.5242 44.5 69.6042 44.9 70.9642 44.9C72.3242 44.9 73.4042 44.5 74.2042 43.7C75.0042 42.9 75.4042 41.68 75.4042 40.04V29.96C75.4042 28.36 75.0042 27.16 74.2042 26.36C73.4042 25.52 72.3242 25.1 70.9642 25.1C69.6042 25.1 68.5242 25.52 67.7242 26.36C66.9242 27.16 66.5242 28.36 66.5242 29.96V40.04C66.5242 41.68 66.9242 42.9 67.7242 43.7ZM127.653 14H137.133C137.573 14 137.953 14.16 138.273 14.48C138.593 14.8 138.753 15.18 138.753 15.62V54.38C138.753 54.82 138.593 55.2 138.273 55.52C137.953 55.84 137.573 56 137.133 56H126.273C125.833 56 125.453 55.84 125.133 55.52C124.813 55.2 124.653 54.82 124.653 54.38V37.94L120.693 44.42C120.053 45.42 119.313 45.92 118.473 45.92H114.273C113.433 45.92 112.693 45.42 112.053 44.42L108.093 37.94V54.38C108.093 54.82 107.933 55.2 107.613 55.52C107.293 55.84 106.913 56 106.473 56H95.613C95.173 56 94.793 55.84 94.473 55.52C94.153 55.2 93.993 54.82 93.993 54.38V15.62C93.993 15.18 94.153 14.8 94.473 14.48C94.793 14.16 95.173 14 95.613 14H105.093C106.213 14 107.073 14.54 107.673 15.62L116.373 30.02L125.073 15.62C125.673 14.54 126.533 14 127.653 14ZM144.572 14H162.452C168.212 14 172.712 15.24 175.952 17.72C179.192 20.2 180.812 23.86 180.812 28.7C180.812 33.54 179.192 37.12 175.952 39.44C172.752 41.76 168.252 42.92 162.452 42.92H158.552V54.38C158.552 54.82 158.392 55.2 158.072 55.52C157.752 55.84 157.372 56 156.932 56H144.572C144.132 56 143.752 55.84 143.432 55.52C143.112 55.2 142.952 54.82 142.952 54.38V15.62C142.952 15.18 143.112 14.8 143.432 14.48C143.752 14.16 144.132 14 144.572 14ZM158.252 25.16V31.82H162.452C163.172 31.82 163.812 31.56 164.372 31.04C164.932 30.48 165.212 29.7 165.212 28.7C165.212 27.7 164.992 26.86 164.552 26.18C164.112 25.5 163.412 25.16 162.452 25.16H158.252ZM207.787 14H219.547C219.987 14 220.367 14.16 220.687 14.48C221.007 14.8 221.167 15.18 221.167 15.62V39.74C221.167 45.34 219.427 49.56 215.947 52.4C212.467 55.2 207.727 56.6 201.727 56.6C195.767 56.6 191.027 55.2 187.507 52.4C184.027 49.6 182.287 45.38 182.287 39.74V15.62C182.287 15.18 182.447 14.8 182.767 14.48C183.087 14.16 183.467 14 183.907 14H195.667C196.107 14 196.487 14.16 196.807 14.48C197.127 14.8 197.287 15.18 197.287 15.62V39.92C197.287 43 198.767 44.54 201.727 44.54C204.687 44.54 206.167 43 206.167 39.92V15.62C206.167 15.18 206.327 14.8 206.647 14.48C206.967 14.16 207.347 14 207.787 14ZM224.275 14H259.435C259.875 14 260.255 14.16 260.575 14.48C260.895 14.8 261.055 15.18 261.055 15.62V25.28C261.055 25.72 260.895 26.1 260.575 26.42C260.255 26.74 259.875 26.9 259.435 26.9H249.475V54.38C249.475 54.82 249.315 55.2 248.995 55.52C248.675 55.84 248.295 56 247.855 56H235.855C235.415 56 235.035 55.84 234.715 55.52C234.395 55.2 234.235 54.82 234.235 54.38V26.9H224.275C223.835 26.9 223.455 26.74 223.135 26.42C222.815 26.1 222.655 25.72 222.655 25.28V15.62C222.655 15.18 222.815 14.8 223.135 14.48C223.455 14.16 223.835 14 224.275 14ZM277.567 44.3H296.047C296.487 44.3 296.867 44.46 297.187 44.78C297.507 45.1 297.667 45.48 297.667 45.92V54.38C297.667 54.82 297.507 55.2 297.187 55.52C296.867 55.84 296.487 56 296.047 56H264.787C264.347 56 263.967 55.84 263.647 55.52C263.327 55.2 263.167 54.82 263.167 54.38V15.62C263.167 15.18 263.327 14.8 263.647 14.48C263.967 14.16 264.347 14 264.787 14H295.567C296.007 14 296.387 14.16 296.707 14.48C297.027 14.8 297.187 15.18 297.187 15.62V24.08C297.187 24.52 297.027 24.9 296.707 25.22C296.387 25.54 296.007 25.7 295.567 25.7H277.567V29.48H294.247C294.687 29.48 295.067 29.64 295.387 29.96C295.707 30.28 295.867 30.66 295.867 31.1V38.9C295.867 39.34 295.707 39.72 295.387 40.04C295.067 40.36 294.687 40.52 294.247 40.52H277.567V44.3ZM339.926 54.02C340.046 54.26 340.106 54.52 340.106 54.8C340.106 55.08 339.966 55.36 339.686 55.64C339.446 55.88 339.146 56 338.786 56H326.486C325.246 56 324.386 55.46 323.906 54.38L318.746 42.92H316.286V54.38C316.286 54.82 316.126 55.2 315.806 55.52C315.486 55.84 315.106 56 314.666 56H302.906C302.466 56 302.086 55.84 301.766 55.52C301.446 55.2 301.286 54.82 301.286 54.38V15.62C301.286 15.18 301.446 14.8 301.766 14.48C302.086 14.16 302.466 14 302.906 14H320.666C326.426 14 330.926 15.3 334.166 17.9C337.406 20.46 339.026 24.16 339.026 29C339.026 33.8 336.866 37.58 332.546 40.34L339.926 54.02ZM316.286 25.16V31.52H320.666C321.546 31.52 322.226 31.24 322.706 30.68C323.186 30.08 323.426 29.34 323.426 28.46C323.426 27.58 323.186 26.82 322.706 26.18C322.266 25.5 321.586 25.16 320.666 25.16H316.286ZM357.448 30.608C357.448 28.208 358.424 26.16 360.376 24.464C362.36 22.736 365.176 21.872 368.824 21.872C372.504 21.872 375.304 22.736 377.224 24.464C379.144 26.16 380.104 28.192 380.104 30.56C380.104 32.32 379.592 33.888 378.568 35.264C377.576 36.608 376.04 37.888 373.96 39.104L377.56 42.848C378.36 42.016 379.144 40.704 379.912 38.912C380.04 38.592 380.36 38.432 380.872 38.432H388.12C388.376 38.432 388.584 38.512 388.744 38.672C388.904 38.832 388.984 39.04 388.984 39.296C388.984 40.224 388.328 41.68 387.016 43.664C385.736 45.648 384.488 47.28 383.272 48.56L388.984 54.512C389.176 54.704 389.272 54.928 389.272 55.184C389.272 55.408 389.176 55.6 388.984 55.76C388.824 55.92 388.632 56 388.408 56H378.616C378.232 56 377.832 55.84 377.416 55.52L376.12 54.368C373.752 55.904 370.648 56.672 366.808 56.672C362.968 56.672 359.88 55.792 357.544 54.032C355.208 52.24 354.04 49.68 354.04 46.352C354.04 42.608 356.12 39.568 360.28 37.232C358.392 35.216 357.448 33.008 357.448 30.608ZM364.504 45.68C364.504 46.576 364.792 47.28 365.368 47.792C365.976 48.304 366.776 48.56 367.768 48.56C368.76 48.56 369.576 48.368 370.216 47.984L365.992 43.616C365 44.096 364.504 44.784 364.504 45.68ZM370.888 30.944C370.888 30.432 370.712 30.016 370.36 29.696C370.04 29.376 369.624 29.216 369.112 29.216C368.632 29.216 368.216 29.392 367.864 29.744C367.512 30.064 367.336 30.544 367.336 31.184C367.336 31.792 367.768 32.496 368.632 33.296C370.136 32.624 370.888 31.84 370.888 30.944Z" fill="#78BEFF"/>
<path d="M18.3 33.96V44.04C18.3 47.28 19.78 48.9 22.74 48.9C25.02 48.9 26.52 47.82 27.24 45.66C27.44 44.98 27.68 44.52 27.96 44.28C28.28 44.04 28.78 43.92 29.46 43.92H41.7C42.06 43.92 42.36 44.06 42.6 44.34C42.88 44.58 43.02 44.88 43.02 45.24C43.02 48.72 42.02 51.64 40.02 54C36.34 58.4 30.6 60.6 22.8 60.6C16.68 60.6 11.8 59.26 8.16 56.58C4.52 53.86 2.7 49.7 2.7 44.1V33.9C2.7 28.42 4.56 24.3 8.28 21.54C12 18.78 16.84 17.4 22.8 17.4C30.6 17.4 36.34 19.6 40.02 24C42.02 26.36 43.02 29.28 43.02 32.76C43.02 33.12 42.88 33.44 42.6 33.72C42.36 33.96 42.06 34.08 41.7 34.08H29.46C28.82 34.08 28.34 33.96 28.02 33.72C27.74 33.48 27.48 33.02 27.24 32.34C26.48 30.18 24.98 29.1 22.74 29.1C19.78 29.1 18.3 30.72 18.3 33.96ZM49.3842 21.84C53.0642 18.88 57.9242 17.4 63.9642 17.4C70.0042 17.4 74.8442 18.9 78.4842 21.9C82.1642 24.86 84.0042 29.04 84.0042 34.44V43.8C84.0042 49.28 82.1842 53.46 78.5442 56.34C74.9442 59.18 70.0842 60.6 63.9642 60.6C57.8442 60.6 52.9642 59.18 49.3242 56.34C45.7242 53.46 43.9242 49.28 43.9242 43.8V34.44C43.9242 29 45.7442 24.8 49.3842 21.84ZM60.7242 47.7C61.5242 48.5 62.6042 48.9 63.9642 48.9C65.3242 48.9 66.4042 48.5 67.2042 47.7C68.0042 46.9 68.4042 45.68 68.4042 44.04V33.96C68.4042 32.36 68.0042 31.16 67.2042 30.36C66.4042 29.52 65.3242 29.1 63.9642 29.1C62.6042 29.1 61.5242 29.52 60.7242 30.36C59.9242 31.16 59.5242 32.36 59.5242 33.96V44.04C59.5242 45.68 59.9242 46.9 60.7242 47.7ZM120.653 18H130.133C130.573 18 130.953 18.16 131.273 18.48C131.593 18.8 131.753 19.18 131.753 19.62V58.38C131.753 58.82 131.593 59.2 131.273 59.52C130.953 59.84 130.573 60 130.133 60H119.273C118.833 60 118.453 59.84 118.133 59.52C117.813 59.2 117.653 58.82 117.653 58.38V41.94L113.693 48.42C113.053 49.42 112.313 49.92 111.473 49.92H107.273C106.433 49.92 105.693 49.42 105.053 48.42L101.093 41.94V58.38C101.093 58.82 100.933 59.2 100.613 59.52C100.293 59.84 99.913 60 99.473 60H88.613C88.173 60 87.793 59.84 87.473 59.52C87.153 59.2 86.993 58.82 86.993 58.38V19.62C86.993 19.18 87.153 18.8 87.473 18.48C87.793 18.16 88.173 18 88.613 18H98.093C99.213 18 100.073 18.54 100.673 19.62L109.373 34.02L118.073 19.62C118.673 18.54 119.533 18 120.653 18ZM137.572 18H155.452C161.212 18 165.712 19.24 168.952 21.72C172.192 24.2 173.812 27.86 173.812 32.7C173.812 37.54 172.192 41.12 168.952 43.44C165.752 45.76 161.252 46.92 155.452 46.92H151.552V58.38C151.552 58.82 151.392 59.2 151.072 59.52C150.752 59.84 150.372 60 149.932 60H137.572C137.132 60 136.752 59.84 136.432 59.52C136.112 59.2 135.952 58.82 135.952 58.38V19.62C135.952 19.18 136.112 18.8 136.432 18.48C136.752 18.16 137.132 18 137.572 18ZM151.252 29.16V35.82H155.452C156.172 35.82 156.812 35.56 157.372 35.04C157.932 34.48 158.212 33.7 158.212 32.7C158.212 31.7 157.992 30.86 157.552 30.18C157.112 29.5 156.412 29.16 155.452 29.16H151.252ZM200.787 18H212.547C212.987 18 213.367 18.16 213.687 18.48C214.007 18.8 214.167 19.18 214.167 19.62V43.74C214.167 49.34 212.427 53.56 208.947 56.4C205.467 59.2 200.727 60.6 194.727 60.6C188.767 60.6 184.027 59.2 180.507 56.4C177.027 53.6 175.287 49.38 175.287 43.74V19.62C175.287 19.18 175.447 18.8 175.767 18.48C176.087 18.16 176.467 18 176.907 18H188.667C189.107 18 189.487 18.16 189.807 18.48C190.127 18.8 190.287 19.18 190.287 19.62V43.92C190.287 47 191.767 48.54 194.727 48.54C197.687 48.54 199.167 47 199.167 43.92V19.62C199.167 19.18 199.327 18.8 199.647 18.48C199.967 18.16 200.347 18 200.787 18ZM217.275 18H252.435C252.875 18 253.255 18.16 253.575 18.48C253.895 18.8 254.055 19.18 254.055 19.62V29.28C254.055 29.72 253.895 30.1 253.575 30.42C253.255 30.74 252.875 30.9 252.435 30.9H242.475V58.38C242.475 58.82 242.315 59.2 241.995 59.52C241.675 59.84 241.295 60 240.855 60H228.855C228.415 60 228.035 59.84 227.715 59.52C227.395 59.2 227.235 58.82 227.235 58.38V30.9H217.275C216.835 30.9 216.455 30.74 216.135 30.42C215.815 30.1 215.655 29.72 215.655 29.28V19.62C215.655 19.18 215.815 18.8 216.135 18.48C216.455 18.16 216.835 18 217.275 18ZM270.567 48.3H289.047C289.487 48.3 289.867 48.46 290.187 48.78C290.507 49.1 290.667 49.48 290.667 49.92V58.38C290.667 58.82 290.507 59.2 290.187 59.52C289.867 59.84 289.487 60 289.047 60H257.787C257.347 60 256.967 59.84 256.647 59.52C256.327 59.2 256.167 58.82 256.167 58.38V19.62C256.167 19.18 256.327 18.8 256.647 18.48C256.967 18.16 257.347 18 257.787 18H288.567C289.007 18 289.387 18.16 289.707 18.48C290.027 18.8 290.187 19.18 290.187 19.62V28.08C290.187 28.52 290.027 28.9 289.707 29.22C289.387 29.54 289.007 29.7 288.567 29.7H270.567V33.48H287.247C287.687 33.48 288.067 33.64 288.387 33.96C288.707 34.28 288.867 34.66 288.867 35.1V42.9C288.867 43.34 288.707 43.72 288.387 44.04C288.067 44.36 287.687 44.52 287.247 44.52H270.567V48.3ZM332.926 58.02C333.046 58.26 333.106 58.52 333.106 58.8C333.106 59.08 332.966 59.36 332.686 59.64C332.446 59.88 332.146 60 331.786 60H319.486C318.246 60 317.386 59.46 316.906 58.38L311.746 46.92H309.286V58.38C309.286 58.82 309.126 59.2 308.806 59.52C308.486 59.84 308.106 60 307.666 60H295.906C295.466 60 295.086 59.84 294.766 59.52C294.446 59.2 294.286 58.82 294.286 58.38V19.62C294.286 19.18 294.446 18.8 294.766 18.48C295.086 18.16 295.466 18 295.906 18H313.666C319.426 18 323.926 19.3 327.166 21.9C330.406 24.46 332.026 28.16 332.026 33C332.026 37.8 329.866 41.58 325.546 44.34L332.926 58.02ZM309.286 29.16V35.52H313.666C314.546 35.52 315.226 35.24 315.706 34.68C316.186 34.08 316.426 33.34 316.426 32.46C316.426 31.58 316.186 30.82 315.706 30.18C315.266 29.5 314.586 29.16 313.666 29.16H309.286ZM350.448 34.608C350.448 32.208 351.424 30.16 353.376 28.464C355.36 26.736 358.176 25.872 361.824 25.872C365.504 25.872 368.304 26.736 370.224 28.464C372.144 30.16 373.104 32.192 373.104 34.56C373.104 36.32 372.592 37.888 371.568 39.264C370.576 40.608 369.04 41.888 366.96 43.104L370.56 46.848C371.36 46.016 372.144 44.704 372.912 42.912C373.04 42.592 373.36 42.432 373.872 42.432H381.12C381.376 42.432 381.584 42.512 381.744 42.672C381.904 42.832 381.984 43.04 381.984 43.296C381.984 44.224 381.328 45.68 380.016 47.664C378.736 49.648 377.488 51.28 376.272 52.56L381.984 58.512C382.176 58.704 382.272 58.928 382.272 59.184C382.272 59.408 382.176 59.6 381.984 59.76C381.824 59.92 381.632 60 381.408 60H371.616C371.232 60 370.832 59.84 370.416 59.52L369.12 58.368C366.752 59.904 363.648 60.672 359.808 60.672C355.968 60.672 352.88 59.792 350.544 58.032C348.208 56.24 347.04 53.68 347.04 50.352C347.04 46.608 349.12 43.568 353.28 41.232C351.392 39.216 350.448 37.008 350.448 34.608ZM357.504 49.68C357.504 50.576 357.792 51.28 358.368 51.792C358.976 52.304 359.776 52.56 360.768 52.56C361.76 52.56 362.576 52.368 363.216 51.984L358.992 47.616C358 48.096 357.504 48.784 357.504 49.68ZM363.888 34.944C363.888 34.432 363.712 34.016 363.36 33.696C363.04 33.376 362.624 33.216 362.112 33.216C361.632 33.216 361.216 33.392 360.864 33.744C360.512 34.064 360.336 34.544 360.336 35.184C360.336 35.792 360.768 36.496 361.632 37.296C363.136 36.624 363.888 35.84 363.888 34.944Z" fill="#FFD439"/>
<path d="M22.3 30.96V41.04C22.3 44.28 23.78 45.9 26.74 45.9C29.02 45.9 30.52 44.82 31.24 42.66C31.44 41.98 31.68 41.52 31.96 41.28C32.28 41.04 32.78 40.92 33.46 40.92H45.7C46.06 40.92 46.36 41.06 46.6 41.34C46.88 41.58 47.02 41.88 47.02 42.24C47.02 45.72 46.02 48.64 44.02 51C40.34 55.4 34.6 57.6 26.8 57.6C20.68 57.6 15.8 56.26 12.16 53.58C8.52 50.86 6.7 46.7 6.7 41.1V30.9C6.7 25.42 8.56 21.3 12.28 18.54C16 15.78 20.84 14.4 26.8 14.4C34.6 14.4 40.34 16.6 44.02 21C46.02 23.36 47.02 26.28 47.02 29.76C47.02 30.12 46.88 30.44 46.6 30.72C46.36 30.96 46.06 31.08 45.7 31.08H33.46C32.82 31.08 32.34 30.96 32.02 30.72C31.74 30.48 31.48 30.02 31.24 29.34C30.48 27.18 28.98 26.1 26.74 26.1C23.78 26.1 22.3 27.72 22.3 30.96ZM53.3842 18.84C57.0642 15.88 61.9242 14.4 67.9642 14.4C74.0042 14.4 78.8442 15.9 82.4842 18.9C86.1642 21.86 88.0042 26.04 88.0042 31.44V40.8C88.0042 46.28 86.1842 50.46 82.5442 53.34C78.9442 56.18 74.0842 57.6 67.9642 57.6C61.8442 57.6 56.9642 56.18 53.3242 53.34C49.7242 50.46 47.9242 46.28 47.9242 40.8V31.44C47.9242 26 49.7442 21.8 53.3842 18.84ZM64.7242 44.7C65.5242 45.5 66.6042 45.9 67.9642 45.9C69.3242 45.9 70.4042 45.5 71.2042 44.7C72.0042 43.9 72.4042 42.68 72.4042 41.04V30.96C72.4042 29.36 72.0042 28.16 71.2042 27.36C70.4042 26.52 69.3242 26.1 67.9642 26.1C66.6042 26.1 65.5242 26.52 64.7242 27.36C63.9242 28.16 63.5242 29.36 63.5242 30.96V41.04C63.5242 42.68 63.9242 43.9 64.7242 44.7ZM124.653 15H134.133C134.573 15 134.953 15.16 135.273 15.48C135.593 15.8 135.753 16.18 135.753 16.62V55.38C135.753 55.82 135.593 56.2 135.273 56.52C134.953 56.84 134.573 57 134.133 57H123.273C122.833 57 122.453 56.84 122.133 56.52C121.813 56.2 121.653 55.82 121.653 55.38V38.94L117.693 45.42C117.053 46.42 116.313 46.92 115.473 46.92H111.273C110.433 46.92 109.693 46.42 109.053 45.42L105.093 38.94V55.38C105.093 55.82 104.933 56.2 104.613 56.52C104.293 56.84 103.913 57 103.473 57H92.613C92.173 57 91.793 56.84 91.473 56.52C91.153 56.2 90.993 55.82 90.993 55.38V16.62C90.993 16.18 91.153 15.8 91.473 15.48C91.793 15.16 92.173 15 92.613 15H102.093C103.213 15 104.073 15.54 104.673 16.62L113.373 31.02L122.073 16.62C122.673 15.54 123.533 15 124.653 15ZM141.572 15H159.452C165.212 15 169.712 16.24 172.952 18.72C176.192 21.2 177.812 24.86 177.812 29.7C177.812 34.54 176.192 38.12 172.952 40.44C169.752 42.76 165.252 43.92 159.452 43.92H155.552V55.38C155.552 55.82 155.392 56.2 155.072 56.52C154.752 56.84 154.372 57 153.932 57H141.572C141.132 57 140.752 56.84 140.432 56.52C140.112 56.2 139.952 55.82 139.952 55.38V16.62C139.952 16.18 140.112 15.8 140.432 15.48C140.752 15.16 141.132 15 141.572 15ZM155.252 26.16V32.82H159.452C160.172 32.82 160.812 32.56 161.372 32.04C161.932 31.48 162.212 30.7 162.212 29.7C162.212 28.7 161.992 27.86 161.552 27.18C161.112 26.5 160.412 26.16 159.452 26.16H155.252ZM204.787 15H216.547C216.987 15 217.367 15.16 217.687 15.48C218.007 15.8 218.167 16.18 218.167 16.62V40.74C218.167 46.34 216.427 50.56 212.947 53.4C209.467 56.2 204.727 57.6 198.727 57.6C192.767 57.6 188.027 56.2 184.507 53.4C181.027 50.6 179.287 46.38 179.287 40.74V16.62C179.287 16.18 179.447 15.8 179.767 15.48C180.087 15.16 180.467 15 180.907 15H192.667C193.107 15 193.487 15.16 193.807 15.48C194.127 15.8 194.287 16.18 194.287 16.62V40.92C194.287 44 195.767 45.54 198.727 45.54C201.687 45.54 203.167 44 203.167 40.92V16.62C203.167 16.18 203.327 15.8 203.647 15.48C203.967 15.16 204.347 15 204.787 15ZM221.275 15H256.435C256.875 15 257.255 15.16 257.575 15.48C257.895 15.8 258.055 16.18 258.055 16.62V26.28C258.055 26.72 257.895 27.1 257.575 27.42C257.255 27.74 256.875 27.9 256.435 27.9H246.475V55.38C246.475 55.82 246.315 56.2 245.995 56.52C245.675 56.84 245.295 57 244.855 57H232.855C232.415 57 232.035 56.84 231.715 56.52C231.395 56.2 231.235 55.82 231.235 55.38V27.9H221.275C220.835 27.9 220.455 27.74 220.135 27.42C219.815 27.1 219.655 26.72 219.655 26.28V16.62C219.655 16.18 219.815 15.8 220.135 15.48C220.455 15.16 220.835 15 221.275 15ZM274.567 45.3H293.047C293.487 45.3 293.867 45.46 294.187 45.78C294.507 46.1 294.667 46.48 294.667 46.92V55.38C294.667 55.82 294.507 56.2 294.187 56.52C293.867 56.84 293.487 57 293.047 57H261.787C261.347 57 260.967 56.84 260.647 56.52C260.327 56.2 260.167 55.82 260.167 55.38V16.62C260.167 16.18 260.327 15.8 260.647 15.48C260.967 15.16 261.347 15 261.787 15H292.567C293.007 15 293.387 15.16 293.707 15.48C294.027 15.8 294.187 16.18 294.187 16.62V25.08C294.187 25.52 294.027 25.9 293.707 26.22C293.387 26.54 293.007 26.7 292.567 26.7H274.567V30.48H291.247C291.687 30.48 292.067 30.64 292.387 30.96C292.707 31.28 292.867 31.66 292.867 32.1V39.9C292.867 40.34 292.707 40.72 292.387 41.04C292.067 41.36 291.687 41.52 291.247 41.52H274.567V45.3ZM336.926 55.02C337.046 55.26 337.106 55.52 337.106 55.8C337.106 56.08 336.966 56.36 336.686 56.64C336.446 56.88 336.146 57 335.786 57H323.486C322.246 57 321.386 56.46 320.906 55.38L315.746 43.92H313.286V55.38C313.286 55.82 313.126 56.2 312.806 56.52C312.486 56.84 312.106 57 311.666 57H299.906C299.466 57 299.086 56.84 298.766 56.52C298.446 56.2 298.286 55.82 298.286 55.38V16.62C298.286 16.18 298.446 15.8 298.766 15.48C299.086 15.16 299.466 15 299.906 15H317.666C323.426 15 327.926 16.3 331.166 18.9C334.406 21.46 336.026 25.16 336.026 30C336.026 34.8 333.866 38.58 329.546 41.34L336.926 55.02ZM313.286 26.16V32.52H317.666C318.546 32.52 319.226 32.24 319.706 31.68C320.186 31.08 320.426 30.34 320.426 29.46C320.426 28.58 320.186 27.82 319.706 27.18C319.266 26.5 318.586 26.16 317.666 26.16H313.286ZM354.448 31.608C354.448 29.208 355.424 27.16 357.376 25.464C359.36 23.736 362.176 22.872 365.824 22.872C369.504 22.872 372.304 23.736 374.224 25.464C376.144 27.16 377.104 29.192 377.104 31.56C377.104 33.32 376.592 34.888 375.568 36.264C374.576 37.608 373.04 38.888 370.96 40.104L374.56 43.848C375.36 43.016 376.144 41.704 376.912 39.912C377.04 39.592 377.36 39.432 377.872 39.432H385.12C385.376 39.432 385.584 39.512 385.744 39.672C385.904 39.832 385.984 40.04 385.984 40.296C385.984 41.224 385.328 42.68 384.016 44.664C382.736 46.648 381.488 48.28 380.272 49.56L385.984 55.512C386.176 55.704 386.272 55.928 386.272 56.184C386.272 56.408 386.176 56.6 385.984 56.76C385.824 56.92 385.632 57 385.408 57H375.616C375.232 57 374.832 56.84 374.416 56.52L373.12 55.368C370.752 56.904 367.648 57.672 363.808 57.672C359.968 57.672 356.88 56.792 354.544 55.032C352.208 53.24 351.04 50.68 351.04 47.352C351.04 43.608 353.12 40.568 357.28 38.232C355.392 36.216 354.448 34.008 354.448 31.608ZM361.504 46.68C361.504 47.576 361.792 48.28 362.368 48.792C362.976 49.304 363.776 49.56 364.768 49.56C365.76 49.56 366.576 49.368 367.216 48.984L362.992 44.616C362 45.096 361.504 45.784 361.504 46.68ZM367.888 31.944C367.888 31.432 367.712 31.016 367.36 30.696C367.04 30.376 366.624 30.216 366.112 30.216C365.632 30.216 365.216 30.392 364.864 30.744C364.512 31.064 364.336 31.544 364.336 32.184C364.336 32.792 364.768 33.496 365.632 34.296C367.136 33.624 367.888 32.84 367.888 31.944Z" fill="#FF6565"/>
<path d="M29.24 43.66L30.1887 43.9762L30.1943 43.9593L30.1994 43.9422L29.24 43.66ZM29.96 42.28L29.36 41.48L29.3339 41.4995L29.3092 41.5207L29.96 42.28ZM44.6 42.34L43.8407 42.9908L43.8908 43.0492L43.9492 43.0993L44.6 42.34ZM42.02 52L41.2571 51.3535L41.2529 51.3584L42.02 52ZM10.16 54.58L9.56139 55.3811L9.5671 55.3853L10.16 54.58ZM10.28 19.54L10.8758 20.3431L10.28 19.54ZM42.02 22L41.2529 22.6416L41.2571 22.6465L42.02 22ZM44.6 31.72L43.8929 31.0129L44.6 31.72ZM30.02 31.72L29.3692 32.4793L29.3939 32.5005L29.42 32.52L30.02 31.72ZM29.24 30.34L28.2967 30.6719L28.297 30.6728L29.24 30.34ZM19.3 31.96V42.04H21.3V31.96H19.3ZM19.3 42.04C19.3 43.7929 19.6984 45.2941 20.6717 46.3595C21.6606 47.442 23.0814 47.9 24.74 47.9V45.9C23.4386 45.9 22.6394 45.548 22.1483 45.0105C21.6416 44.4559 21.3 43.5271 21.3 42.04H19.3ZM24.74 47.9C26.04 47.9 27.2028 47.5902 28.1593 46.9015C29.1159 46.2128 29.7779 45.2086 30.1887 43.9762L28.2913 43.3438C27.9821 44.2714 27.5341 44.8872 26.9907 45.2785C26.4472 45.6698 25.72 45.9 24.74 45.9V47.9ZM30.1994 43.9422C30.3871 43.3039 30.5604 43.0824 30.6108 43.0393L29.3092 41.5207C28.7996 41.9576 28.4929 42.6561 28.2806 43.3778L30.1994 43.9422ZM30.56 43.08C30.6226 43.033 30.8597 42.92 31.46 42.92V40.92C30.7003 40.92 29.9374 41.047 29.36 41.48L30.56 43.08ZM31.46 42.92H43.7V40.92H31.46V42.92ZM43.7 42.92C43.7468 42.92 43.7658 42.9282 43.7721 42.9312C43.7791 42.9344 43.8028 42.9465 43.8407 42.9908L45.3593 41.6892C44.9346 41.1938 44.36 40.92 43.7 40.92V42.92ZM43.9492 43.0993C43.9935 43.1372 44.0056 43.1609 44.0088 43.1679C44.0118 43.1742 44.02 43.1932 44.02 43.24H46.02C46.02 42.58 45.7462 42.0054 45.2508 41.5807L43.9492 43.0993ZM44.02 43.24C44.02 46.5147 43.0848 49.1968 41.2571 51.3535L42.7829 52.6465C44.9552 50.0832 46.02 46.9253 46.02 43.24H44.02ZM41.2529 51.3584C37.8249 55.4571 32.4164 57.6 24.8 57.6V59.6C32.7836 59.6 38.8551 57.3429 42.7871 52.6416L41.2529 51.3584ZM24.8 57.6C18.8189 57.6 14.1695 56.2903 10.7529 53.7747L9.5671 55.3853C13.4305 58.2297 18.5411 59.6 24.8 59.6V57.6ZM10.7586 53.7789C7.43022 51.2918 5.7 47.4664 5.7 42.1H3.7C3.7 47.9336 5.60978 52.4282 9.56141 55.3811L10.7586 53.7789ZM5.7 42.1V31.9H3.7V42.1H5.7ZM5.7 31.9C5.7 26.671 7.45852 22.8785 10.8758 20.3431L9.68415 18.7369C5.66148 21.7215 3.7 26.169 3.7 31.9H5.7ZM10.8758 20.3431C14.3797 17.7434 18.9928 16.4 24.8 16.4V14.4C18.6872 14.4 13.6203 15.8166 9.68415 18.7369L10.8758 20.3431ZM24.8 16.4C32.4164 16.4 37.8249 18.5429 41.2529 22.6416L42.7871 21.3584C38.8551 16.6571 32.7836 14.4 24.8 14.4V16.4ZM41.2571 22.6465C43.0848 24.8032 44.02 27.4853 44.02 30.76H46.02C46.02 27.0747 44.9552 23.9168 42.7829 21.3535L41.2571 22.6465ZM44.02 30.76C44.02 30.827 44.006 30.8998 43.8929 31.0129L45.3071 32.4271C45.7541 31.9802 46.02 31.413 46.02 30.76H44.02ZM43.8929 31.0129C43.8527 31.0531 43.8126 31.08 43.7 31.08V33.08C44.3074 33.08 44.8673 32.8669 45.3071 32.4271L43.8929 31.0129ZM43.7 31.08H31.46V33.08H43.7V31.08ZM31.46 31.08C30.9162 31.08 30.6906 30.973 30.62 30.92L29.42 32.52C29.9894 32.947 30.7238 33.08 31.46 33.08V31.08ZM30.6708 30.9607C30.5996 30.8997 30.4106 30.6521 30.183 30.0072L28.297 30.6728C28.5494 31.3879 28.8804 32.0603 29.3692 32.4793L30.6708 30.9607ZM30.1833 30.0081C29.7518 28.7818 29.0811 27.7838 28.1293 27.0985C27.1757 26.4119 26.0244 26.1 24.74 26.1V28.1C25.6956 28.1 26.4143 28.3281 26.9607 28.7215C27.5089 29.1162 27.9682 29.7382 28.2967 30.6719L30.1833 30.0081ZM24.74 26.1C23.0814 26.1 21.6606 26.558 20.6717 27.6405C19.6984 28.7059 19.3 30.2071 19.3 31.96H21.3C21.3 30.4729 21.6416 29.5441 22.1483 28.9895C22.6394 28.452 23.4386 28.1 24.74 28.1V26.1ZM51.3842 19.84L50.7575 19.0608L50.7533 19.0641L51.3842 19.84ZM80.4842 19.9L79.8482 20.6717L79.8575 20.6792L80.4842 19.9ZM80.5442 54.34L81.1636 55.1251L81.1647 55.1242L80.5442 54.34ZM51.3242 54.34L50.6995 55.1209L50.7091 55.1284L51.3242 54.34ZM62.7242 45.7L63.4313 44.9929L62.7242 45.7ZM69.2042 45.7L69.9113 46.4071L69.2042 45.7ZM69.2042 28.36L68.4801 29.0497L68.4885 29.0585L68.4971 29.0671L69.2042 28.36ZM62.7242 28.36L63.4313 29.0671L63.4399 29.0585L63.4484 29.0497L62.7242 28.36ZM52.011 20.6192C55.4688 17.8379 60.0876 16.4 65.9642 16.4V14.4C59.7609 14.4 54.6597 15.9221 50.7575 19.0608L52.011 20.6192ZM65.9642 16.4C71.8385 16.4 76.4326 17.8566 79.8482 20.6717L81.1202 19.1283C77.2559 15.9434 72.17 14.4 65.9642 14.4V16.4ZM79.8575 20.6792C83.2658 23.4207 85.0042 27.2939 85.0042 32.44H87.0042C87.0042 26.7861 85.0626 22.2993 81.111 19.1208L79.8575 20.6792ZM85.0042 32.44V41.8H87.0042V32.44H85.0042ZM85.0042 41.8C85.0042 47.0361 83.2794 50.9007 79.9237 53.5558L81.1647 55.1242C85.089 52.0193 87.0042 47.5239 87.0042 41.8H85.0042ZM79.9249 53.5549C76.5524 56.2154 71.9346 57.6 65.9642 57.6V59.6C72.2338 59.6 77.336 58.1446 81.1636 55.1251L79.9249 53.5549ZM65.9642 57.6C59.9946 57.6 55.3539 56.2157 51.9394 53.5516L50.7091 55.1284C54.5745 58.1443 59.6939 59.6 65.9642 59.6V57.6ZM51.9489 53.5591C48.6319 50.9055 46.9242 47.0401 46.9242 41.8H44.9242C44.9242 47.5199 46.8166 52.0145 50.6995 55.1209L51.9489 53.5591ZM46.9242 41.8V32.44H44.9242V41.8H46.9242ZM46.9242 32.44C46.9242 27.2472 48.6474 23.3545 52.0151 20.6159L50.7533 19.0641C46.841 22.2455 44.9242 26.7528 44.9242 32.44H46.9242ZM62.0171 46.4071C63.0416 47.4316 64.3963 47.9 65.9642 47.9V45.9C64.8121 45.9 64.0068 45.5684 63.4313 44.9929L62.0171 46.4071ZM65.9642 47.9C67.5321 47.9 68.8868 47.4316 69.9113 46.4071L68.4971 44.9929C67.9216 45.5684 67.1163 45.9 65.9642 45.9V47.9ZM69.9113 46.4071C70.9691 45.3493 71.4042 43.8258 71.4042 42.04H69.4042C69.4042 43.5342 69.0393 44.4507 68.4971 44.9929L69.9113 46.4071ZM71.4042 42.04V31.96H69.4042V42.04H71.4042ZM71.4042 31.96C71.4042 30.2059 70.965 28.7066 69.9113 27.6529L68.4971 29.0671C69.0434 29.6134 69.4042 30.5141 69.4042 31.96H71.4042ZM69.9284 27.6703C68.907 26.5979 67.5466 26.1 65.9642 26.1V28.1C67.1018 28.1 67.9015 28.4421 68.4801 29.0497L69.9284 27.6703ZM65.9642 26.1C64.3818 26.1 63.0215 26.5979 62.0001 27.6703L63.4484 29.0497C64.027 28.4421 64.8266 28.1 65.9642 28.1V26.1ZM62.0171 27.6529C60.9634 28.7066 60.5242 30.2059 60.5242 31.96H62.5242C62.5242 30.5141 62.885 29.6134 63.4313 29.0671L62.0171 27.6529ZM60.5242 31.96V42.04H62.5242V31.96H60.5242ZM60.5242 42.04C60.5242 43.8258 60.9593 45.3493 62.0171 46.4071L63.4313 44.9929C62.8891 44.4507 62.5242 43.5342 62.5242 42.04H60.5242ZM133.273 57.52L132.566 56.8129L133.273 57.52ZM120.133 57.52L120.84 56.8129V56.8129L120.133 57.52ZM119.653 39.94H120.653V36.3859L118.8 39.4185L119.653 39.94ZM115.693 46.42L116.535 46.9591L116.541 46.9503L116.546 46.9414L115.693 46.42ZM107.053 46.42L106.2 46.9414L106.205 46.9503L106.211 46.9591L107.053 46.42ZM103.093 39.94L103.946 39.4185L102.093 36.3859V39.94H103.093ZM102.613 57.52L103.32 58.2271H103.32L102.613 57.52ZM89.473 57.52L90.1801 56.8129L89.473 57.52ZM89.473 16.48L90.1801 17.1871L89.473 16.48ZM102.673 17.62L101.799 18.1056L101.808 18.1215L101.817 18.1371L102.673 17.62ZM111.373 32.02L110.517 32.5371L111.373 33.9538L112.229 32.5371L111.373 32.02ZM120.073 17.62L120.929 18.1371L120.938 18.1215L120.947 18.1056L120.073 17.62ZM122.653 17H132.133V15H122.653V17ZM132.133 17C132.299 17 132.427 17.0487 132.566 17.1871L133.98 15.7729C133.479 15.2713 132.847 15 132.133 15V17ZM132.566 17.1871C132.704 17.3256 132.753 17.4536 132.753 17.62H134.753C134.753 16.9064 134.482 16.2744 133.98 15.7729L132.566 17.1871ZM132.753 17.62V56.38H134.753V17.62H132.753ZM132.753 56.38C132.753 56.5464 132.704 56.6744 132.566 56.8129L133.98 58.2271C134.482 57.7256 134.753 57.0936 134.753 56.38H132.753ZM132.566 56.8129C132.427 56.9513 132.299 57 132.133 57V59C132.847 59 133.479 58.7287 133.98 58.2271L132.566 56.8129ZM132.133 57H121.273V59H132.133V57ZM121.273 57C121.107 57 120.979 56.9513 120.84 56.8129L119.426 58.2271C119.927 58.7287 120.559 59 121.273 59V57ZM120.84 56.8129C120.702 56.6744 120.653 56.5464 120.653 56.38H118.653C118.653 57.0936 118.924 57.7256 119.426 58.2271L120.84 56.8129ZM120.653 56.38V39.94H118.653V56.38H120.653ZM118.8 39.4185L114.84 45.8985L116.546 46.9414L120.506 40.4614L118.8 39.4185ZM114.851 45.8809C114.312 46.7234 113.842 46.92 113.473 46.92V48.92C114.784 48.92 115.794 48.1166 116.535 46.9591L114.851 45.8809ZM113.473 46.92H109.273V48.92H113.473V46.92ZM109.273 46.92C108.904 46.92 108.434 46.7234 107.895 45.8809L106.211 46.9591C106.951 48.1166 107.962 48.92 109.273 48.92V46.92ZM107.906 45.8985L103.946 39.4185L102.24 40.4614L106.2 46.9414L107.906 45.8985ZM102.093 39.94V56.38H104.093V39.94H102.093ZM102.093 56.38C102.093 56.5464 102.044 56.6744 101.906 56.8129L103.32 58.2271C103.822 57.7256 104.093 57.0936 104.093 56.38H102.093ZM101.906 56.8129C101.767 56.9513 101.639 57 101.473 57V59C102.187 59 102.819 58.7287 103.32 58.2271L101.906 56.8129ZM101.473 57H90.613V59H101.473V57ZM90.613 57C90.4465 57 90.3185 56.9513 90.1801 56.8129L88.7659 58.2271C89.2674 58.7287 89.8994 59 90.613 59V57ZM90.1801 56.8129C90.0416 56.6744 89.993 56.5464 89.993 56.38H87.993C87.993 57.0936 88.2643 57.7256 88.7659 58.2271L90.1801 56.8129ZM89.993 56.38V17.62H87.993V56.38H89.993ZM89.993 17.62C89.993 17.4536 90.0416 17.3256 90.1801 17.1871L88.7659 15.7729C88.2643 16.2744 87.993 16.9064 87.993 17.62H89.993ZM90.1801 17.1871C90.3185 17.0487 90.4465 17 90.613 17V15C89.8994 15 89.2674 15.2713 88.7659 15.7729L90.1801 17.1871ZM90.613 17H100.093V15H90.613V17ZM100.093 17C100.806 17 101.353 17.3032 101.799 18.1056L103.547 17.1344C102.793 15.7768 101.62 15 100.093 15V17ZM101.817 18.1371L110.517 32.5371L112.229 31.5029L103.529 17.1029L101.817 18.1371ZM112.229 32.5371L120.929 18.1371L119.217 17.1029L110.517 31.5029L112.229 32.5371ZM120.947 18.1056C121.393 17.3032 121.94 17 122.653 17V15C121.126 15 119.953 15.7768 119.199 17.1344L120.947 18.1056ZM170.952 19.72L170.344 20.5141L170.952 19.72ZM170.952 41.44L170.369 40.6269L170.365 40.6304L170.952 41.44ZM153.552 44.92V43.92H152.552V44.92H153.552ZM153.072 57.52L152.364 56.8129L153.072 57.52ZM138.432 57.52L139.139 56.8129L138.432 57.52ZM138.432 16.48L139.139 17.1871L138.432 16.48ZM153.252 27.16V26.16H152.252V27.16H153.252ZM153.252 33.82H152.252V34.82H153.252V33.82ZM159.372 33.04L160.052 33.7728L160.066 33.7602L160.079 33.7471L159.372 33.04ZM159.552 28.18L158.712 28.7232V28.7233L159.552 28.18ZM139.572 17H157.452V15H139.572V17ZM157.452 17C163.08 17 167.337 18.2128 170.344 20.5141L171.559 18.9259C168.086 16.2672 163.343 15 157.452 15V17ZM170.344 20.5141C173.289 22.7685 174.812 26.1061 174.812 30.7H176.812C176.812 25.6139 175.094 21.6315 171.559 18.9259L170.344 20.5141ZM174.812 30.7C174.812 35.2956 173.289 38.536 170.369 40.6269L171.534 42.2531C175.094 39.704 176.812 35.7844 176.812 30.7H174.812ZM170.365 40.6304C167.398 42.781 163.135 43.92 157.452 43.92V45.92C163.368 45.92 168.105 44.739 171.539 42.2496L170.365 40.6304ZM157.452 43.92H153.552V45.92H157.452V43.92ZM152.552 44.92V56.38H154.552V44.92H152.552ZM152.552 56.38C152.552 56.5464 152.503 56.6744 152.364 56.8129L153.779 58.2271C154.28 57.7256 154.552 57.0936 154.552 56.38H152.552ZM152.364 56.8129C152.226 56.9513 152.098 57 151.932 57V59C152.645 59 153.277 58.7287 153.779 58.2271L152.364 56.8129ZM151.932 57H139.572V59H151.932V57ZM139.572 57C139.405 57 139.277 56.9513 139.139 56.8129L137.724 58.2271C138.226 58.7287 138.858 59 139.572 59V57ZM139.139 56.8129C139 56.6744 138.952 56.5464 138.952 56.38H136.952C136.952 57.0936 137.223 57.7256 137.724 58.2271L139.139 56.8129ZM138.952 56.38V17.62H136.952V56.38H138.952ZM138.952 17.62C138.952 17.4536 139 17.3256 139.139 17.1871L137.724 15.7729C137.223 16.2744 136.952 16.9064 136.952 17.62H138.952ZM139.139 17.1871C139.277 17.0487 139.405 17 139.572 17V15C138.858 15 138.226 15.2713 137.724 15.7729L139.139 17.1871ZM152.252 27.16V33.82H154.252V27.16H152.252ZM153.252 34.82H157.452V32.82H153.252V34.82ZM157.452 34.82C158.44 34.82 159.32 34.453 160.052 33.7728L158.691 32.3072C158.304 32.667 157.903 32.82 157.452 32.82V34.82ZM160.079 33.7471C160.872 32.9534 161.212 31.8919 161.212 30.7H159.212C159.212 31.5081 158.991 32.0066 158.664 32.3329L160.079 33.7471ZM161.212 30.7C161.212 29.5526 160.958 28.5129 160.391 27.6367L158.712 28.7233C159.025 29.2071 159.212 29.8474 159.212 30.7H161.212ZM160.391 27.6367C159.73 26.6157 158.678 26.16 157.452 26.16V28.16C158.145 28.16 158.493 28.3843 158.712 28.7232L160.391 27.6367ZM157.452 26.16H153.252V28.16H157.452V26.16ZM215.687 16.48L216.394 15.7729L216.394 15.7729L215.687 16.48ZM210.947 54.4L211.574 55.1791L211.579 55.1748L210.947 54.4ZM182.507 54.4L181.88 55.1791L181.884 55.1826L182.507 54.4ZM177.767 16.48L177.06 15.7729L177.767 16.48ZM191.807 16.48L192.514 15.7729V15.7729L191.807 16.48ZM201.647 16.48L202.354 17.1871V17.1871L201.647 16.48ZM202.787 17H214.547V15H202.787V17ZM214.547 17C214.713 17 214.841 17.0487 214.98 17.1871L216.394 15.7729C215.892 15.2713 215.26 15 214.547 15V17ZM214.98 17.1871C215.118 17.3256 215.167 17.4536 215.167 17.62H217.167C217.167 16.9064 216.895 16.2744 216.394 15.7729L214.98 17.1871ZM215.167 17.62V41.74H217.167V17.62H215.167ZM215.167 41.74C215.167 47.1207 213.505 51.0211 210.314 53.6252L211.579 55.1748C215.348 52.0989 217.167 47.5593 217.167 41.74H215.167ZM210.32 53.6209C207.07 56.2356 202.577 57.6 196.727 57.6V59.6C202.877 59.6 207.863 58.1644 211.574 55.1791L210.32 53.6209ZM196.727 57.6C190.919 57.6 186.422 56.2368 183.129 53.6174L181.884 55.1826C185.631 58.1632 190.614 59.6 196.727 59.6V57.6ZM183.134 53.6209C179.95 51.0592 178.287 47.164 178.287 41.74H176.287C176.287 47.596 178.104 52.1408 181.88 55.1791L183.134 53.6209ZM178.287 41.74V17.62H176.287V41.74H178.287ZM178.287 17.62C178.287 17.4536 178.335 17.3256 178.474 17.1871L177.06 15.7729C176.558 16.2744 176.287 16.9064 176.287 17.62H178.287ZM178.474 17.1871C178.612 17.0487 178.74 17 178.907 17V15C178.193 15 177.561 15.2713 177.06 15.7729L178.474 17.1871ZM178.907 17H190.667V15H178.907V17ZM190.667 17C190.833 17 190.961 17.0487 191.1 17.1871L192.514 15.7729C192.012 15.2713 191.38 15 190.667 15V17ZM191.1 17.1871C191.238 17.3256 191.287 17.4536 191.287 17.62H193.287C193.287 16.9064 193.015 16.2744 192.514 15.7729L191.1 17.1871ZM191.287 17.62V41.92H193.287V17.62H191.287ZM191.287 41.92C191.287 43.6044 191.691 45.0531 192.676 46.0779C193.668 47.1101 195.082 47.54 196.727 47.54V45.54C195.411 45.54 194.606 45.1999 194.118 44.6921C193.623 44.1769 193.287 43.3156 193.287 41.92H191.287ZM196.727 47.54C198.371 47.54 199.786 47.1101 200.778 46.0779C201.763 45.0531 202.167 43.6044 202.167 41.92H200.167C200.167 43.3156 199.831 44.1769 199.336 44.6921C198.848 45.1999 198.042 45.54 196.727 45.54V47.54ZM202.167 41.92V17.62H200.167V41.92H202.167ZM202.167 17.62C202.167 17.4536 202.215 17.3256 202.354 17.1871L200.94 15.7729C200.438 16.2744 200.167 16.9064 200.167 17.62H202.167ZM202.354 17.1871C202.492 17.0487 202.62 17 202.787 17V15C202.073 15 201.441 15.2713 200.94 15.7729L202.354 17.1871ZM255.575 16.48L256.283 15.7729V15.7729L255.575 16.48ZM255.575 28.42L256.283 29.1271V29.1271L255.575 28.42ZM244.475 28.9V27.9H243.475V28.9H244.475ZM243.995 57.52L243.288 56.8129L243.995 57.52ZM229.235 28.9H230.235V27.9H229.235V28.9ZM219.275 17H254.435V15H219.275V17ZM254.435 17C254.602 17 254.73 17.0487 254.868 17.1871L256.283 15.7729C255.781 15.2713 255.149 15 254.435 15V17ZM254.868 17.1871C255.007 17.3256 255.055 17.4536 255.055 17.62H257.055C257.055 16.9064 256.784 16.2744 256.283 15.7729L254.868 17.1871ZM255.055 17.62V27.28H257.055V17.62H255.055ZM255.055 27.28C255.055 27.4464 255.007 27.5744 254.868 27.7129L256.283 29.1271C256.784 28.6255 257.055 27.9936 257.055 27.28H255.055ZM254.868 27.7129C254.73 27.8513 254.602 27.9 254.435 27.9V29.9C255.149 29.9 255.781 29.6287 256.283 29.1271L254.868 27.7129ZM254.435 27.9H244.475V29.9H254.435V27.9ZM243.475 28.9V56.38H245.475V28.9H243.475ZM243.475 56.38C243.475 56.5464 243.427 56.6744 243.288 56.8129L244.703 58.2271C245.204 57.7256 245.475 57.0936 245.475 56.38H243.475ZM243.288 56.8129C243.15 56.9513 243.022 57 242.855 57V59C243.569 59 244.201 58.7287 244.703 58.2271L243.288 56.8129ZM242.855 57H230.855V59H242.855V57ZM230.855 57C230.689 57 230.561 56.9513 230.423 56.8129L229.008 58.2271C229.51 58.7287 230.142 59 230.855 59V57ZM230.423 56.8129C230.284 56.6744 230.235 56.5464 230.235 56.38H228.235C228.235 57.0936 228.507 57.7256 229.008 58.2271L230.423 56.8129ZM230.235 56.38V28.9H228.235V56.38H230.235ZM229.235 27.9H219.275V29.9H229.235V27.9ZM219.275 27.9C219.109 27.9 218.981 27.8513 218.843 27.7129L217.428 29.1271C217.93 29.6287 218.562 29.9 219.275 29.9V27.9ZM218.843 27.7129C218.704 27.5744 218.655 27.4464 218.655 27.28H216.655C216.655 27.9936 216.927 28.6256 217.428 29.1271L218.843 27.7129ZM218.655 27.28V17.62H216.655V27.28H218.655ZM218.655 17.62C218.655 17.4536 218.704 17.3256 218.843 17.1871L217.428 15.7729C216.927 16.2744 216.655 16.9064 216.655 17.62H218.655ZM218.843 17.1871C218.981 17.0487 219.109 17 219.275 17V15C218.562 15 217.93 15.2713 217.428 15.7729L218.843 17.1871ZM272.567 46.3H271.567V47.3H272.567V46.3ZM292.187 57.52L291.48 56.8129L292.187 57.52ZM258.647 57.52L259.354 56.8129L258.647 57.52ZM258.647 16.48L259.354 17.1871L258.647 16.48ZM291.707 16.48L291 17.1871V17.1871L291.707 16.48ZM291.707 27.22L291 26.5129V26.5129L291.707 27.22ZM272.567 27.7V26.7H271.567V27.7H272.567ZM272.567 31.48H271.567V32.48H272.567V31.48ZM290.387 31.96L291.094 31.2529V31.2529L290.387 31.96ZM290.387 42.04L291.094 42.7471V42.7471L290.387 42.04ZM272.567 42.52V41.52H271.567V42.52H272.567ZM272.567 47.3H291.047V45.3H272.567V47.3ZM291.047 47.3C291.214 47.3 291.342 47.3487 291.48 47.4871L292.894 46.0729C292.393 45.5713 291.761 45.3 291.047 45.3V47.3ZM291.48 47.4871C291.619 47.6256 291.667 47.7536 291.667 47.92H293.667C293.667 47.2064 293.396 46.5744 292.894 46.0729L291.48 47.4871ZM291.667 47.92V56.38H293.667V47.92H291.667ZM291.667 56.38C291.667 56.5464 291.619 56.6744 291.48 56.8129L292.894 58.2271C293.396 57.7256 293.667 57.0936 293.667 56.38H291.667ZM291.48 56.8129C291.342 56.9513 291.214 57 291.047 57V59C291.761 59 292.393 58.7287 292.894 58.2271L291.48 56.8129ZM291.047 57H259.787V59H291.047V57ZM259.787 57C259.621 57 259.493 56.9513 259.354 56.8129L257.94 58.2271C258.442 58.7287 259.074 59 259.787 59V57ZM259.354 56.8129C259.216 56.6744 259.167 56.5464 259.167 56.38H257.167C257.167 57.0936 257.439 57.7256 257.94 58.2271L259.354 56.8129ZM259.167 56.38V17.62H257.167V56.38H259.167ZM259.167 17.62C259.167 17.4536 259.216 17.3256 259.354 17.1871L257.94 15.7729C257.439 16.2744 257.167 16.9064 257.167 17.62H259.167ZM259.354 17.1871C259.493 17.0487 259.621 17 259.787 17V15C259.074 15 258.442 15.2713 257.94 15.7729L259.354 17.1871ZM259.787 17H290.567V15H259.787V17ZM290.567 17C290.734 17 290.862 17.0487 291 17.1871L292.414 15.7729C291.913 15.2713 291.281 15 290.567 15V17ZM291 17.1871C291.139 17.3256 291.187 17.4536 291.187 17.62H293.187C293.187 16.9064 292.916 16.2744 292.414 15.7729L291 17.1871ZM291.187 17.62V26.08H293.187V17.62H291.187ZM291.187 26.08C291.187 26.2464 291.139 26.3744 291 26.5129L292.414 27.9271C292.916 27.4256 293.187 26.7936 293.187 26.08H291.187ZM291 26.5129C290.862 26.6513 290.734 26.7 290.567 26.7V28.7C291.281 28.7 291.913 28.4287 292.414 27.9271L291 26.5129ZM290.567 26.7H272.567V28.7H290.567V26.7ZM271.567 27.7V31.48H273.567V27.7H271.567ZM272.567 32.48H289.247V30.48H272.567V32.48ZM289.247 32.48C289.414 32.48 289.542 32.5287 289.68 32.6671L291.094 31.2529C290.593 30.7513 289.961 30.48 289.247 30.48V32.48ZM289.68 32.6671C289.819 32.8056 289.867 32.9336 289.867 33.1H291.867C291.867 32.3864 291.596 31.7544 291.094 31.2529L289.68 32.6671ZM289.867 33.1V40.9H291.867V33.1H289.867ZM289.867 40.9C289.867 41.0664 289.819 41.1944 289.68 41.3329L291.094 42.7471C291.596 42.2456 291.867 41.6136 291.867 40.9H289.867ZM289.68 41.3329C289.542 41.4713 289.414 41.52 289.247 41.52V43.52C289.961 43.52 290.593 43.2487 291.094 42.7471L289.68 41.3329ZM289.247 41.52H272.567V43.52H289.247V41.52ZM271.567 42.52V46.3H273.567V42.52H271.567ZM334.926 56.02L335.82 55.5728L335.813 55.5589L335.806 55.5452L334.926 56.02ZM334.686 57.64L335.393 58.3471L334.686 57.64ZM318.906 56.38L319.82 55.9739L319.818 55.9694L318.906 56.38ZM313.746 44.92L314.658 44.5094L314.392 43.92H313.746V44.92ZM311.286 44.92V43.92H310.286V44.92H311.286ZM310.806 57.52L310.099 56.8129L310.806 57.52ZM296.766 57.52L297.473 56.8129L296.766 57.52ZM296.766 16.48L297.473 17.1871L296.766 16.48ZM329.166 19.9L328.54 20.6799L328.546 20.6846L329.166 19.9ZM327.546 42.34L327.008 41.4973L326.225 41.9974L326.666 42.8148L327.546 42.34ZM311.286 27.16V26.16H310.286V27.16H311.286ZM311.286 33.52H310.286V34.52H311.286V33.52ZM317.706 32.68L318.465 33.3308L318.476 33.3179L318.487 33.3047L317.706 32.68ZM317.706 28.18L316.866 28.7233L316.885 28.7523L316.906 28.78L317.706 28.18ZM334.031 56.4672C334.079 56.5623 334.106 56.6683 334.106 56.8H336.106C336.106 56.3717 336.013 55.9577 335.82 55.5728L334.031 56.4672ZM334.106 56.8C334.106 56.7672 334.115 56.7551 334.107 56.7728C334.095 56.7951 334.062 56.8497 333.979 56.9329L335.393 58.3471C335.782 57.9581 336.106 57.4388 336.106 56.8H334.106ZM333.979 56.9329C333.939 56.9731 333.899 57 333.786 57V59C334.393 59 334.953 58.7869 335.393 58.3471L333.979 56.9329ZM333.786 57H321.486V59H333.786V57ZM321.486 57C321.012 57 320.681 56.898 320.443 56.7481C320.207 56.6003 319.993 56.3628 319.82 55.9739L317.992 56.7861C318.299 57.4772 318.755 58.0497 319.379 58.4419C320 58.832 320.72 59 321.486 59V57ZM319.818 55.9694L314.658 44.5094L312.834 45.3306L317.994 56.7906L319.818 55.9694ZM313.746 43.92H311.286V45.92H313.746V43.92ZM310.286 44.92V56.38H312.286V44.92H310.286ZM310.286 56.38C310.286 56.5464 310.237 56.6744 310.099 56.8129L311.513 58.2271C312.015 57.7256 312.286 57.0936 312.286 56.38H310.286ZM310.099 56.8129C309.96 56.9513 309.832 57 309.666 57V59C310.379 59 311.011 58.7287 311.513 58.2271L310.099 56.8129ZM309.666 57H297.906V59H309.666V57ZM297.906 57C297.74 57 297.611 56.9513 297.473 56.8129L296.059 58.2271C296.56 58.7287 297.192 59 297.906 59V57ZM297.473 56.8129C297.335 56.6744 297.286 56.5464 297.286 56.38H295.286C295.286 57.0936 295.557 57.7256 296.059 58.2271L297.473 56.8129ZM297.286 56.38V17.62H295.286V56.38H297.286ZM297.286 17.62C297.286 17.4536 297.335 17.3256 297.473 17.1871L296.059 15.7729C295.557 16.2744 295.286 16.9064 295.286 17.62H297.286ZM297.473 17.1871C297.611 17.0487 297.74 17 297.906 17V15C297.192 15 296.56 15.2713 296.059 15.7729L297.473 17.1871ZM297.906 17H315.666V15H297.906V17ZM315.666 17C321.285 17 325.535 18.2686 328.54 20.6799L329.792 19.1201C326.317 16.3314 321.567 15 315.666 15V17ZM328.546 20.6846C331.503 23.0212 333.026 26.4068 333.026 31H335.026C335.026 25.9132 333.309 21.8988 329.786 19.1154L328.546 20.6846ZM333.026 31C333.026 35.4318 331.063 38.9061 327.008 41.4973L328.084 43.1827C332.668 40.2539 335.026 36.1682 335.026 31H333.026ZM326.666 42.8148L334.046 56.4948L335.806 55.5452L328.426 41.8652L326.666 42.8148ZM310.286 27.16V33.52H312.286V27.16H310.286ZM311.286 34.52H315.666V32.52H311.286V34.52ZM315.666 34.52C316.776 34.52 317.758 34.1555 318.465 33.3308L316.947 32.0292C316.694 32.3245 316.316 32.52 315.666 32.52V34.52ZM318.487 33.3047C319.129 32.5021 319.426 31.5324 319.426 30.46H317.426C317.426 31.1476 317.243 31.6579 316.925 32.0553L318.487 33.3047ZM319.426 30.46C319.426 29.3865 319.129 28.4105 318.506 27.58L316.906 28.78C317.243 29.2295 317.426 29.7735 317.426 30.46H319.426ZM318.546 27.6367C317.894 26.6293 316.871 26.16 315.666 26.16V28.16C316.301 28.16 316.638 28.3707 316.866 28.7233L318.546 27.6367ZM315.666 26.16H311.286V28.16H315.666V26.16ZM355.376 26.464L356.031 27.2189L356.032 27.2181L355.376 26.464ZM372.224 26.464L371.555 27.2073L371.561 27.2135L372.224 26.464ZM373.568 37.264L372.765 36.667L372.763 36.6701L373.568 37.264ZM368.96 41.104L368.455 40.2407L367.358 40.8817L368.239 41.7971L368.96 41.104ZM372.56 44.848L371.839 45.5411L372.56 46.2908L373.28 45.5411L372.56 44.848ZM374.912 40.912L375.831 41.3059L375.835 41.2947L375.84 41.2834L374.912 40.912ZM383.744 40.672L384.451 39.9649L383.744 40.672ZM382.016 45.664L381.181 45.1124L381.175 45.1219L382.016 45.664ZM378.272 50.56L377.547 49.8713L376.889 50.5635L377.55 51.2524L378.272 50.56ZM383.984 56.512L383.262 57.2044L383.269 57.2118L383.276 57.2191L383.984 56.512ZM383.984 57.76L383.343 56.9918L383.309 57.0208L383.276 57.0529L383.984 57.76ZM372.416 57.52L371.751 58.2674L371.778 58.291L371.806 58.3126L372.416 57.52ZM371.12 56.368L371.784 55.6206L371.215 55.1145L370.575 55.529L371.12 56.368ZM352.544 56.032L351.935 56.8255L351.942 56.8307L352.544 56.032ZM355.28 39.232L355.769 40.1039L356.881 39.4794L356.009 38.5484L355.28 39.232ZM360.368 49.792L359.703 50.5394L359.713 50.5483L359.723 50.5569L360.368 49.792ZM365.216 49.984L365.73 50.8415L366.81 50.1938L365.934 49.2888L365.216 49.984ZM360.992 45.616L361.71 44.9208L361.207 44.4007L360.556 44.7158L360.992 45.616ZM365.36 31.696L364.652 32.4031L364.669 32.4199L364.687 32.4359L365.36 31.696ZM362.864 31.744L363.536 32.4839L363.554 32.4679L363.571 32.4511L362.864 31.744ZM363.632 35.296L362.952 36.0298L363.437 36.4784L364.039 36.209L363.632 35.296ZM353.448 32.608C353.448 30.522 354.279 28.7416 356.031 27.2189L354.72 25.7091C352.568 27.5784 351.448 29.894 351.448 32.608H353.448ZM356.032 27.2181C357.775 25.7007 360.324 24.872 363.824 24.872V22.872C360.027 22.872 356.945 23.7713 354.719 25.7099L356.032 27.2181ZM363.824 24.872C367.361 24.872 369.883 25.703 371.555 27.2073L372.893 25.7207C370.724 23.769 367.646 22.872 363.824 22.872V24.872ZM371.561 27.2135C373.286 28.7372 374.104 30.5041 374.104 32.56H376.104C376.104 29.8799 375.001 27.5828 372.886 25.7145L371.561 27.2135ZM374.104 32.56C374.104 34.1109 373.657 35.4683 372.765 36.667L374.37 37.861C375.526 36.3077 376.104 34.5291 376.104 32.56H374.104ZM372.763 36.6701C371.879 37.8678 370.465 39.0653 368.455 40.2407L369.464 41.9673C371.614 40.7107 373.272 39.3482 374.372 37.8579L372.763 36.6701ZM368.239 41.7971L371.839 45.5411L373.28 44.1549L369.68 40.4109L368.239 41.7971ZM373.28 45.5411C374.202 44.5824 375.043 43.1432 375.831 41.3059L373.992 40.5181C373.244 42.2648 372.517 43.4496 371.839 44.1549L373.28 45.5411ZM375.84 41.2834C375.828 41.3126 375.807 41.3493 375.775 41.3843C375.742 41.4188 375.712 41.438 375.695 41.4464C375.68 41.454 375.682 41.4498 375.712 41.444C375.743 41.4381 375.794 41.432 375.872 41.432V39.432C375.182 39.432 374.334 39.664 373.983 40.5406L375.84 41.2834ZM375.872 41.432H383.12V39.432H375.872V41.432ZM383.12 41.432C383.143 41.432 383.135 41.4354 383.109 41.4253C383.096 41.4205 383.082 41.4136 383.068 41.4046C383.055 41.3957 383.044 41.3866 383.036 41.3791L384.451 39.9649C384.078 39.5921 383.603 39.432 383.12 39.432V41.432ZM383.036 41.3791C383.029 41.3716 383.02 41.361 383.011 41.3473C383.002 41.3335 382.995 41.3196 382.99 41.307C382.98 41.2807 382.984 41.2727 382.984 41.296H384.984C384.984 40.8128 384.823 40.3377 384.451 39.9649L383.036 41.3791ZM382.984 41.296C382.984 41.5511 382.886 41.9943 382.58 42.6732C382.282 43.3348 381.821 44.1458 381.181 45.1124L382.85 46.2156C383.522 45.1982 384.045 44.2892 384.403 43.4948C384.753 42.7177 384.984 41.9689 384.984 41.296H382.984ZM381.175 45.1219C379.918 47.0698 378.708 48.6486 377.547 49.8713L378.997 51.2487C380.267 49.9114 381.553 48.2262 382.856 46.2061L381.175 45.1219ZM377.55 51.2524L383.262 57.2044L384.705 55.8196L378.993 49.8676L377.55 51.2524ZM383.276 57.2191C383.285 57.2278 383.288 57.232 383.287 57.2312C383.287 57.2303 383.284 57.2257 383.28 57.2179C383.277 57.21 383.274 57.2017 383.273 57.1941C383.271 57.1867 383.272 57.1828 383.272 57.184H385.272C385.272 56.6454 385.058 56.1718 384.691 55.8049L383.276 57.2191ZM383.272 57.184C383.272 57.1477 383.281 57.0977 383.305 57.0488C383.328 57.0028 383.351 56.9857 383.343 56.9918L384.624 58.5282C385.014 58.203 385.272 57.7415 385.272 57.184H383.272ZM383.276 57.0529C383.281 57.0487 383.3 57.0314 383.335 57.0169C383.37 57.0023 383.398 57 383.408 57V59C383.9 59 384.345 58.8125 384.691 58.4671L383.276 57.0529ZM383.408 57H373.616V59H383.408V57ZM373.616 57C373.52 57 373.33 56.9616 373.025 56.7274L371.806 58.3126C372.333 58.7184 372.943 59 373.616 59V57ZM373.08 56.7726L371.784 55.6206L370.455 57.1154L371.751 58.2674L373.08 56.7726ZM370.575 55.529C368.418 56.9284 365.522 57.672 361.808 57.672V59.672C365.773 59.672 369.085 58.8796 371.664 57.207L370.575 55.529ZM361.808 57.672C358.117 57.672 355.261 56.827 353.145 55.2333L351.942 56.8307C354.499 58.757 357.818 59.672 361.808 59.672V57.672ZM353.152 55.2386C351.097 53.6623 350.04 51.4153 350.04 48.352H348.04C348.04 51.9447 349.318 54.8177 351.935 56.8254L353.152 55.2386ZM350.04 48.352C350.04 45.0718 351.824 42.3194 355.769 40.1039L354.79 38.3601C350.415 40.8166 348.04 44.1442 348.04 48.352H350.04ZM356.009 38.5484C354.267 36.6877 353.448 34.7158 353.448 32.608H351.448C351.448 35.3002 352.516 37.7443 354.55 39.9156L356.009 38.5484ZM358.504 47.68C358.504 48.8105 358.878 49.8061 359.703 50.5394L361.032 49.0446C360.705 48.7539 360.504 48.3415 360.504 47.68H358.504ZM359.723 50.5569C360.553 51.2555 361.6 51.56 362.768 51.56V49.56C361.951 49.56 361.398 49.3525 361.012 49.0271L359.723 50.5569ZM362.768 51.56C363.883 51.56 364.892 51.3446 365.73 50.8415L364.701 49.1265C364.26 49.3914 363.636 49.56 362.768 49.56V51.56ZM365.934 49.2888L361.71 44.9208L360.273 46.3112L364.497 50.6792L365.934 49.2888ZM360.556 44.7158C359.954 45.0072 359.434 45.3942 359.064 45.9072C358.686 46.4314 358.504 47.0347 358.504 47.68H360.504C360.504 47.4293 360.569 47.2406 360.687 47.0768C360.813 46.9018 361.037 46.7048 361.427 46.5162L360.556 44.7158ZM366.888 32.944C366.888 32.1744 366.61 31.4812 366.032 30.9561L364.687 32.4359C364.813 32.5508 364.888 32.6896 364.888 32.944H366.888ZM366.067 30.9889C365.534 30.4561 364.851 30.216 364.112 30.216V32.216C364.396 32.216 364.545 32.2959 364.652 32.4031L366.067 30.9889ZM364.112 30.216C363.356 30.216 362.688 30.5051 362.156 31.0369L363.571 32.4511C363.743 32.2789 363.908 32.216 364.112 32.216V30.216ZM362.191 31.0041C361.565 31.5726 361.336 32.364 361.336 33.184H363.336C363.336 32.724 363.458 32.5554 363.536 32.4839L362.191 31.0041ZM361.336 33.184C361.336 34.2395 362.054 35.1986 362.952 36.0298L364.311 34.5622C363.481 33.7934 363.336 33.3445 363.336 33.184H361.336ZM364.039 36.209C365.591 35.5159 366.888 34.4897 366.888 32.944H364.888C364.888 33.1903 364.68 33.7321 363.224 34.383L364.039 36.209Z" fill="#51473D"/>
<path d="M295.848 88.328C297.128 88.328 298.232 87.976 299.16 87.272C300.12 86.568 300.6 85.384 300.6 83.72C300.6 82.6 300.088 81.672 299.064 80.936C298.072 80.2 296.824 79.544 295.32 78.968C293.816 78.36 292.792 77.944 292.248 77.72C291.736 77.464 291.048 77.064 290.184 76.52C288.616 75.464 287.832 73.944 287.832 71.96C287.832 69.976 288.616 68.328 290.184 67.016C291.752 65.704 294.04 65.048 297.048 65.048C298.968 65.048 300.6 65.48 301.944 66.344C303.32 67.176 304.008 68.184 304.008 69.368C304.008 70.552 303.56 71.368 302.664 71.816C302.184 72.04 301.704 72.152 301.224 72.152C300.776 72.152 300.328 72.056 299.88 71.864C300.008 71.288 300.072 70.664 300.072 69.992C300.072 69.32 299.912 68.648 299.592 67.976C299.048 66.824 298.008 66.248 296.472 66.248C294.936 66.248 293.768 66.664 292.968 67.496C292.168 68.328 291.768 69.416 291.768 70.76C291.768 72.136 292.344 73.16 293.496 73.832C294.36 74.376 295.432 74.872 296.712 75.32C297.992 75.768 298.856 76.088 299.304 76.28C299.784 76.44 300.408 76.728 301.176 77.144C301.944 77.56 302.52 77.992 302.904 78.44C303.896 79.528 304.392 81 304.392 82.856C304.392 84.712 303.56 86.296 301.896 87.608C300.232 88.888 298.2 89.528 295.8 89.528C293.4 89.528 291.288 89.16 289.464 88.424C287.672 87.688 286.776 86.616 286.776 85.208C286.776 83.896 287.752 83.032 289.704 82.616C290.28 86.424 292.328 88.328 295.848 88.328ZM320.385 84.008C320.385 84.104 320.369 84.216 320.337 84.344C319.825 85.912 318.961 87.176 317.745 88.136C316.561 89.064 315.169 89.528 313.569 89.528C311.969 89.528 310.625 89.08 309.537 88.184C308.481 87.256 307.953 85.464 307.953 82.808C307.953 82.072 308.033 76.744 308.193 66.824H304.881V65.576H308.241L308.289 58.52H312.993L312.849 65.576H319.713V66.824H312.849C312.689 77.16 312.609 83.208 312.609 84.968C312.609 87.112 313.313 88.184 314.721 88.184C315.585 88.184 316.481 87.688 317.409 86.696C318.369 85.704 319.041 84.584 319.425 83.336C320.065 83.336 320.385 83.56 320.385 84.008ZM330.048 89.576C324.928 89.576 322.368 87.112 322.368 82.184C322.368 78.568 322.48 73.544 322.704 67.112L318.864 66.92V65.816L327.408 65.288C327.184 73.736 327.072 79.48 327.072 82.52C327.072 84.344 327.408 85.704 328.08 86.6C328.752 87.496 329.872 87.944 331.44 87.944C333.04 87.944 334.544 87.064 335.952 85.304C337.36 83.512 338.064 81.944 338.064 80.6V67.112L334.08 66.92V65.816L342.768 65.288V87.512L346.848 87.704L346.896 88.808L338.256 89.384L338.592 84.2H338.016C336.352 87.784 333.696 89.576 330.048 89.576ZM349.363 66.824H346.003V65.576H349.363V64.856C349.363 60.6 350.259 57.4 352.051 55.256C353.843 53.112 356.403 52.04 359.731 52.04C361.715 52.04 363.363 52.424 364.675 53.192C366.019 53.928 366.691 54.936 366.691 56.216C366.691 57.464 366.259 58.376 365.395 58.952C364.883 59.304 364.371 59.48 363.859 59.48C363.379 59.48 362.915 59.384 362.467 59.192C362.659 58.296 362.755 57.432 362.755 56.6C362.755 55.768 362.467 55.032 361.891 54.392C361.315 53.752 360.515 53.432 359.491 53.432C358.467 53.432 357.587 53.72 356.851 54.296C356.147 54.84 355.619 55.496 355.267 56.264C354.915 57 354.643 57.992 354.451 59.24C354.195 60.904 354.067 63.016 354.067 65.576H361.315V66.824H354.067V87.608L359.443 87.848L359.491 89H346.147L346.099 87.848L349.363 87.656V66.824ZM364.061 66.824H360.701V65.576H364.061V64.856C364.061 60.6 364.957 57.4 366.749 55.256C368.541 53.112 371.101 52.04 374.429 52.04C376.413 52.04 378.061 52.424 379.373 53.192C380.717 53.928 381.389 54.936 381.389 56.216C381.389 57.464 380.957 58.376 380.093 58.952C379.581 59.304 379.069 59.48 378.557 59.48C378.077 59.48 377.613 59.384 377.165 59.192C377.357 58.296 377.453 57.432 377.453 56.6C377.453 55.768 377.165 55.032 376.589 54.392C376.013 53.752 375.213 53.432 374.189 53.432C373.165 53.432 372.285 53.72 371.549 54.296C370.845 54.84 370.317 55.496 369.965 56.264C369.613 57 369.341 57.992 369.149 59.24C368.893 60.904 368.765 63.016 368.765 65.576H376.013V66.824H368.765V87.608L374.141 87.848L374.189 89H360.845L360.797 87.848L364.061 87.656V66.824Z" fill="#51473D"/>
</svg>
