<svg width="354" height="46" viewBox="0 0 354 46" fill="none" xmlns="http://www.w3.org/2000/svg">
<path d="M16.54 23.848V28.552C16.54 30.064 17.2307 30.82 18.612 30.82C19.676 30.82 20.376 30.316 20.712 29.308C20.8053 28.9907 20.9173 28.776 21.048 28.664C21.1973 28.552 21.4307 28.496 21.748 28.496H27.46C27.628 28.496 27.768 28.5613 27.88 28.692C28.0107 28.804 28.076 28.944 28.076 29.112C28.076 30.736 27.6093 32.0987 26.676 33.2C24.9587 35.2533 22.28 36.28 18.64 36.28C15.784 36.28 13.5067 35.6547 11.808 34.404C10.1093 33.1347 9.26 31.1933 9.26 28.58V23.82C9.26 21.2627 10.128 19.34 11.864 18.052C13.6 16.764 15.8587 16.12 18.64 16.12C22.28 16.12 24.9587 17.1467 26.676 19.2C27.6093 20.3013 28.076 21.664 28.076 23.288C28.076 23.456 28.0107 23.6053 27.88 23.736C27.768 23.848 27.628 23.904 27.46 23.904H21.748C21.4493 23.904 21.2253 23.848 21.076 23.736C20.9453 23.624 20.824 23.4093 20.712 23.092C20.3573 22.084 19.6573 21.58 18.612 21.58C17.2307 21.58 16.54 22.336 16.54 23.848ZM31.046 18.192C32.7633 16.8107 35.0313 16.12 37.85 16.12C40.6686 16.12 42.9273 16.82 44.626 18.22C46.3433 19.6013 47.202 21.552 47.202 24.072V28.44C47.202 30.9973 46.3526 32.948 44.654 34.292C42.974 35.6173 40.706 36.28 37.85 36.28C34.994 36.28 32.7166 35.6173 31.018 34.292C29.338 32.948 28.498 30.9973 28.498 28.44V24.072C28.498 21.5333 29.3473 19.5733 31.046 18.192ZM36.338 30.26C36.7113 30.6333 37.2153 30.82 37.85 30.82C38.4846 30.82 38.9886 30.6333 39.362 30.26C39.7353 29.8867 39.922 29.3173 39.922 28.552V23.848C39.922 23.1013 39.7353 22.5413 39.362 22.168C38.9886 21.776 38.4846 21.58 37.85 21.58C37.2153 21.58 36.7113 21.776 36.338 22.168C35.9646 22.5413 35.778 23.1013 35.778 23.848V28.552C35.778 29.3173 35.9646 29.8867 36.338 30.26ZM64.3047 16.4H68.7287C68.9341 16.4 69.1114 16.4747 69.2607 16.624C69.4101 16.7733 69.4847 16.9507 69.4847 17.156V35.244C69.4847 35.4493 69.4101 35.6267 69.2607 35.776C69.1114 35.9253 68.9341 36 68.7287 36H63.6607C63.4554 36 63.2781 35.9253 63.1287 35.776C62.9794 35.6267 62.9047 35.4493 62.9047 35.244V27.572L61.0567 30.596C60.7581 31.0627 60.4127 31.296 60.0207 31.296H58.0607C57.6687 31.296 57.3234 31.0627 57.0247 30.596L55.1767 27.572V35.244C55.1767 35.4493 55.1021 35.6267 54.9527 35.776C54.8034 35.9253 54.6261 36 54.4207 36H49.3527C49.1474 36 48.9701 35.9253 48.8207 35.776C48.6714 35.6267 48.5967 35.4493 48.5967 35.244V17.156C48.5967 16.9507 48.6714 16.7733 48.8207 16.624C48.9701 16.4747 49.1474 16.4 49.3527 16.4H53.7767C54.2994 16.4 54.7007 16.652 54.9807 17.156L59.0407 23.876L63.1007 17.156C63.3807 16.652 63.7821 16.4 64.3047 16.4ZM72.2001 16.4H80.5441C83.2321 16.4 85.3321 16.9787 86.8441 18.136C88.3561 19.2933 89.1121 21.0013 89.1121 23.26C89.1121 25.5187 88.3561 27.1893 86.8441 28.272C85.3507 29.3547 83.2507 29.896 80.5441 29.896H78.7241V35.244C78.7241 35.4493 78.6494 35.6267 78.5001 35.776C78.3507 35.9253 78.1734 36 77.9681 36H72.2001C71.9947 36 71.8174 35.9253 71.6681 35.776C71.5187 35.6267 71.4441 35.4493 71.4441 35.244V17.156C71.4441 16.9507 71.5187 16.7733 71.6681 16.624C71.8174 16.4747 71.9947 16.4 72.2001 16.4ZM78.5841 21.608V24.716H80.5441C80.8801 24.716 81.1787 24.5947 81.4401 24.352C81.7014 24.0907 81.8321 23.7267 81.8321 23.26C81.8321 22.7933 81.7294 22.4013 81.5241 22.084C81.3187 21.7667 80.9921 21.608 80.5441 21.608H78.5841ZM101.7 16.4H107.188C107.394 16.4 107.571 16.4747 107.72 16.624C107.87 16.7733 107.944 16.9507 107.944 17.156V28.412C107.944 31.0253 107.132 32.9947 105.508 34.32C103.884 35.6267 101.672 36.28 98.8725 36.28C96.0911 36.28 93.8791 35.6267 92.2365 34.32C90.6125 33.0133 89.8005 31.044 89.8005 28.412V17.156C89.8005 16.9507 89.8751 16.7733 90.0245 16.624C90.1738 16.4747 90.3511 16.4 90.5565 16.4H96.0445C96.2498 16.4 96.4271 16.4747 96.5765 16.624C96.7258 16.7733 96.8005 16.9507 96.8005 17.156V28.496C96.8005 29.9333 97.4911 30.652 98.8725 30.652C100.254 30.652 100.944 29.9333 100.944 28.496V17.156C100.944 16.9507 101.019 16.7733 101.168 16.624C101.318 16.4747 101.495 16.4 101.7 16.4ZM109.395 16.4H125.803C126.009 16.4 126.186 16.4747 126.335 16.624C126.485 16.7733 126.559 16.9507 126.559 17.156V21.664C126.559 21.8693 126.485 22.0467 126.335 22.196C126.186 22.3453 126.009 22.42 125.803 22.42H121.155V35.244C121.155 35.4493 121.081 35.6267 120.931 35.776C120.782 35.9253 120.605 36 120.399 36H114.799C114.594 36 114.417 35.9253 114.267 35.776C114.118 35.6267 114.043 35.4493 114.043 35.244V22.42H109.395C109.19 22.42 109.013 22.3453 108.863 22.196C108.714 22.0467 108.639 21.8693 108.639 21.664V17.156C108.639 16.9507 108.714 16.7733 108.863 16.624C109.013 16.4747 109.19 16.4 109.395 16.4ZM134.265 30.54H142.889C143.094 30.54 143.271 30.6147 143.421 30.764C143.57 30.9133 143.645 31.0907 143.645 31.296V35.244C143.645 35.4493 143.57 35.6267 143.421 35.776C143.271 35.9253 143.094 36 142.889 36H128.301C128.095 36 127.918 35.9253 127.769 35.776C127.619 35.6267 127.545 35.4493 127.545 35.244V17.156C127.545 16.9507 127.619 16.7733 127.769 16.624C127.918 16.4747 128.095 16.4 128.301 16.4H142.665C142.87 16.4 143.047 16.4747 143.197 16.624C143.346 16.7733 143.421 16.9507 143.421 17.156V21.104C143.421 21.3093 143.346 21.4867 143.197 21.636C143.047 21.7853 142.87 21.86 142.665 21.86H134.265V23.624H142.049C142.254 23.624 142.431 23.6987 142.581 23.848C142.73 23.9973 142.805 24.1747 142.805 24.38V28.02C142.805 28.2253 142.73 28.4027 142.581 28.552C142.431 28.7013 142.254 28.776 142.049 28.776H134.265V30.54ZM163.365 35.076C163.421 35.188 163.449 35.3093 163.449 35.44C163.449 35.5707 163.384 35.7013 163.253 35.832C163.141 35.944 163.001 36 162.833 36H157.093C156.515 36 156.113 35.748 155.889 35.244L153.481 29.896H152.333V35.244C152.333 35.4493 152.259 35.6267 152.109 35.776C151.96 35.9253 151.783 36 151.577 36H146.089C145.884 36 145.707 35.9253 145.557 35.776C145.408 35.6267 145.333 35.4493 145.333 35.244V17.156C145.333 16.9507 145.408 16.7733 145.557 16.624C145.707 16.4747 145.884 16.4 146.089 16.4H154.377C157.065 16.4 159.165 17.0067 160.677 18.22C162.189 19.4147 162.945 21.1413 162.945 23.4C162.945 25.64 161.937 27.404 159.921 28.692L163.365 35.076ZM152.333 21.608V24.576H154.377C154.788 24.576 155.105 24.4453 155.329 24.184C155.553 23.904 155.665 23.5587 155.665 23.148C155.665 22.7373 155.553 22.3827 155.329 22.084C155.124 21.7667 154.807 21.608 154.377 21.608H152.333ZM172.64 23.304C172.64 22.104 173.128 21.08 174.104 20.232C175.096 19.368 176.504 18.936 178.328 18.936C180.168 18.936 181.568 19.368 182.528 20.232C183.488 21.08 183.968 22.096 183.968 23.28C183.968 24.16 183.712 24.944 183.2 25.632C182.704 26.304 181.936 26.944 180.896 27.552L182.696 29.424C183.096 29.008 183.488 28.352 183.872 27.456C183.936 27.296 184.096 27.216 184.352 27.216H187.976C188.104 27.216 188.208 27.256 188.288 27.336C188.368 27.416 188.408 27.52 188.408 27.648C188.408 28.112 188.08 28.84 187.424 29.832C186.784 30.824 186.16 31.64 185.552 32.28L188.408 35.256C188.504 35.352 188.552 35.464 188.552 35.592C188.552 35.704 188.504 35.8 188.408 35.88C188.328 35.96 188.232 36 188.12 36H183.224C183.032 36 182.832 35.92 182.624 35.76L181.976 35.184C180.792 35.952 179.24 36.336 177.32 36.336C175.4 36.336 173.856 35.896 172.688 35.016C171.52 34.12 170.936 32.84 170.936 31.176C170.936 29.304 171.976 27.784 174.056 26.616C173.112 25.608 172.64 24.504 172.64 23.304ZM176.168 30.84C176.168 31.288 176.312 31.64 176.6 31.896C176.904 32.152 177.304 32.28 177.8 32.28C178.296 32.28 178.704 32.184 179.024 31.992L176.912 29.808C176.416 30.048 176.168 30.392 176.168 30.84ZM179.36 23.472C179.36 23.216 179.272 23.008 179.096 22.848C178.936 22.688 178.728 22.608 178.472 22.608C178.232 22.608 178.024 22.696 177.848 22.872C177.672 23.032 177.584 23.272 177.584 23.592C177.584 23.896 177.8 24.248 178.232 24.648C178.984 24.312 179.36 23.92 179.36 23.472ZM204.526 36H200.522C200.168 36 199.869 35.8973 199.626 35.692C199.402 35.468 199.272 35.216 199.234 34.936L196.658 17.1V17.016C196.658 16.848 196.714 16.708 196.826 16.596C196.957 16.4653 197.106 16.4 197.274 16.4H202.482C203.098 16.4 203.434 16.652 203.49 17.156L204.442 25.052L205.59 21.552C205.777 21.0107 206.094 20.74 206.542 20.74H209.398C209.846 20.74 210.164 21.0107 210.35 21.552L211.498 25.024L212.45 17.156C212.506 16.652 212.842 16.4 213.458 16.4H218.666C218.834 16.4 218.974 16.4653 219.086 16.596C219.217 16.708 219.282 16.848 219.282 17.016V17.1L216.706 34.936C216.669 35.216 216.529 35.468 216.286 35.692C216.062 35.8973 215.773 36 215.418 36H211.414C210.836 36 210.453 35.748 210.266 35.244L207.97 29.504L205.674 35.244C205.488 35.748 205.105 36 204.526 36ZM227.12 30.54H235.744C235.95 30.54 236.127 30.6147 236.276 30.764C236.426 30.9133 236.5 31.0907 236.5 31.296V35.244C236.5 35.4493 236.426 35.6267 236.276 35.776C236.127 35.9253 235.95 36 235.744 36H221.156C220.951 36 220.774 35.9253 220.624 35.776C220.475 35.6267 220.4 35.4493 220.4 35.244V17.156C220.4 16.9507 220.475 16.7733 220.624 16.624C220.774 16.4747 220.951 16.4 221.156 16.4H235.52C235.726 16.4 235.903 16.4747 236.052 16.624C236.202 16.7733 236.276 16.9507 236.276 17.156V21.104C236.276 21.3093 236.202 21.4867 236.052 21.636C235.903 21.7853 235.726 21.86 235.52 21.86H227.12V23.624H234.904C235.11 23.624 235.287 23.6987 235.436 23.848C235.586 23.9973 235.66 24.1747 235.66 24.38V28.02C235.66 28.2253 235.586 28.4027 235.436 28.552C235.287 28.7013 235.11 28.776 234.904 28.776H227.12V30.54ZM248.381 23.4C248.587 23.1573 248.689 22.868 248.689 22.532C248.689 22.196 248.587 21.8973 248.381 21.636C248.195 21.356 247.915 21.216 247.541 21.216H245.189V23.764H247.541C247.915 23.764 248.195 23.6427 248.381 23.4ZM245.189 28.44V31.184H247.793C248.223 31.184 248.54 31.044 248.745 30.764C248.969 30.4653 249.081 30.1387 249.081 29.784V29.756C249.081 29.4013 248.96 29.0933 248.717 28.832C248.493 28.5707 248.185 28.44 247.793 28.44H245.189ZM248.521 36H238.945C238.74 36 238.563 35.9253 238.413 35.776C238.264 35.6267 238.189 35.4493 238.189 35.244V17.156C238.189 16.9507 238.264 16.7733 238.413 16.624C238.563 16.4747 238.74 16.4 238.945 16.4H248.241C250.892 16.4 252.843 16.8853 254.093 17.856C255.363 18.808 255.997 20.2547 255.997 22.196V22.28C255.997 23.0827 255.764 23.8013 255.297 24.436C254.831 25.052 254.317 25.5 253.757 25.78C254.504 26.0787 255.129 26.6107 255.633 27.376C256.156 28.1227 256.417 28.944 256.417 29.84C256.417 33.9467 253.785 36 248.521 36ZM263.61 22.56C263.61 20.656 264.394 19.1067 265.962 17.912C267.549 16.7173 269.621 16.12 272.178 16.12C274.754 16.12 276.854 16.7453 278.478 17.996C280.121 19.2467 280.942 20.5533 280.942 21.916C280.942 22.084 280.877 22.2333 280.746 22.364C280.634 22.476 280.504 22.532 280.354 22.532H274.754C274.325 22.532 273.933 22.3733 273.578 22.056C273.224 21.7387 272.748 21.58 272.15 21.58C271.254 21.58 270.806 21.8413 270.806 22.364C270.806 22.644 271.021 22.8773 271.45 23.064C271.898 23.2507 272.72 23.4187 273.914 23.568C276.696 23.9227 278.674 24.576 279.85 25.528C281.045 26.4613 281.642 27.8893 281.642 29.812C281.642 31.716 280.765 33.2747 279.01 34.488C277.274 35.6827 274.997 36.28 272.178 36.28C269.36 36.28 267.148 35.7013 265.542 34.544C263.937 33.3867 263.134 31.9773 263.134 30.316C263.134 30.148 263.19 30.008 263.302 29.896C263.433 29.7653 263.582 29.7 263.75 29.7H269.07C269.462 29.7 269.892 29.8867 270.358 30.26C270.844 30.6333 271.506 30.82 272.346 30.82C273.746 30.82 274.446 30.5587 274.446 30.036C274.446 29.7 274.194 29.448 273.69 29.28C273.186 29.0933 272.234 28.9067 270.834 28.72C266.018 28.0853 263.61 26.032 263.61 22.56ZM282.39 16.4H298.798C299.003 16.4 299.181 16.4747 299.33 16.624C299.479 16.7733 299.554 16.9507 299.554 17.156V21.664C299.554 21.8693 299.479 22.0467 299.33 22.196C299.181 22.3453 299.003 22.42 298.798 22.42H294.15V35.244C294.15 35.4493 294.075 35.6267 293.926 35.776C293.777 35.9253 293.599 36 293.394 36H287.794C287.589 36 287.411 35.9253 287.262 35.776C287.113 35.6267 287.038 35.4493 287.038 35.244V22.42H282.39C282.185 22.42 282.007 22.3453 281.858 22.196C281.709 22.0467 281.634 21.8693 281.634 21.664V17.156C281.634 16.9507 281.709 16.7733 281.858 16.624C282.007 16.4747 282.185 16.4 282.39 16.4ZM312.16 16.4H317.648C317.853 16.4 318.03 16.4747 318.18 16.624C318.329 16.7733 318.404 16.9507 318.404 17.156V28.412C318.404 31.0253 317.592 32.9947 315.968 34.32C314.344 35.6267 312.132 36.28 309.332 36.28C306.55 36.28 304.338 35.6267 302.696 34.32C301.072 33.0133 300.26 31.044 300.26 28.412V17.156C300.26 16.9507 300.334 16.7733 300.484 16.624C300.633 16.4747 300.81 16.4 301.016 16.4H306.504C306.709 16.4 306.886 16.4747 307.036 16.624C307.185 16.7733 307.26 16.9507 307.26 17.156V28.496C307.26 29.9333 307.95 30.652 309.332 30.652C310.713 30.652 311.404 29.9333 311.404 28.496V17.156C311.404 16.9507 311.478 16.7733 311.628 16.624C311.777 16.4747 311.954 16.4 312.16 16.4ZM320.834 16.4H334.946C335.152 16.4 335.329 16.4747 335.478 16.624C335.628 16.7733 335.702 16.9507 335.702 17.156V21.412C335.702 21.6173 335.628 21.7947 335.478 21.944C335.329 22.0933 335.152 22.168 334.946 22.168H326.938V24.24H334.386C334.592 24.24 334.769 24.3147 334.918 24.464C335.068 24.6133 335.142 24.7907 335.142 24.996V29.224C335.142 29.4293 335.068 29.6067 334.918 29.756C334.769 29.9053 334.592 29.98 334.386 29.98H326.938V35.244C326.938 35.4493 326.864 35.6267 326.714 35.776C326.565 35.9253 326.388 36 326.182 36H320.834C320.629 36 320.452 35.9253 320.302 35.776C320.153 35.6267 320.078 35.4493 320.078 35.244V17.156C320.078 16.9507 320.153 16.7733 320.302 16.624C320.452 16.4747 320.629 16.4 320.834 16.4ZM337.721 16.4H351.833C352.038 16.4 352.215 16.4747 352.365 16.624C352.514 16.7733 352.589 16.9507 352.589 17.156V21.412C352.589 21.6173 352.514 21.7947 352.365 21.944C352.215 22.0933 352.038 22.168 351.833 22.168H343.825V24.24H351.273C351.478 24.24 351.655 24.3147 351.805 24.464C351.954 24.6133 352.029 24.7907 352.029 24.996V29.224C352.029 29.4293 351.954 29.6067 351.805 29.756C351.655 29.9053 351.478 29.98 351.273 29.98H343.825V35.244C343.825 35.4493 343.75 35.6267 343.601 35.776C343.451 35.9253 343.274 36 343.069 36H337.721C337.515 36 337.338 35.9253 337.189 35.776C337.039 35.6267 336.965 35.4493 336.965 35.244V17.156C336.965 16.9507 337.039 16.7733 337.189 16.624C337.338 16.4747 337.515 16.4 337.721 16.4Z" fill="#4AA5FA"/>
<path d="M14.54 21.848V26.552C14.54 28.064 15.2307 28.82 16.612 28.82C17.676 28.82 18.376 28.316 18.712 27.308C18.8053 26.9907 18.9173 26.776 19.048 26.664C19.1973 26.552 19.4307 26.496 19.748 26.496H25.46C25.628 26.496 25.768 26.5613 25.88 26.692C26.0107 26.804 26.076 26.944 26.076 27.112C26.076 28.736 25.6093 30.0987 24.676 31.2C22.9587 33.2533 20.28 34.28 16.64 34.28C13.784 34.28 11.5067 33.6547 9.808 32.404C8.10933 31.1347 7.26 29.1933 7.26 26.58V21.82C7.26 19.2627 8.128 17.34 9.864 16.052C11.6 14.764 13.8587 14.12 16.64 14.12C20.28 14.12 22.9587 15.1467 24.676 17.2C25.6093 18.3013 26.076 19.664 26.076 21.288C26.076 21.456 26.0107 21.6053 25.88 21.736C25.768 21.848 25.628 21.904 25.46 21.904H19.748C19.4493 21.904 19.2253 21.848 19.076 21.736C18.9453 21.624 18.824 21.4093 18.712 21.092C18.3573 20.084 17.6573 19.58 16.612 19.58C15.2307 19.58 14.54 20.336 14.54 21.848ZM29.046 16.192C30.7633 14.8107 33.0313 14.12 35.85 14.12C38.6686 14.12 40.9273 14.82 42.626 16.22C44.3433 17.6013 45.202 19.552 45.202 22.072V26.44C45.202 28.9973 44.3526 30.948 42.654 32.292C40.974 33.6173 38.706 34.28 35.85 34.28C32.994 34.28 30.7166 33.6173 29.018 32.292C27.338 30.948 26.498 28.9973 26.498 26.44V22.072C26.498 19.5333 27.3473 17.5733 29.046 16.192ZM34.338 28.26C34.7113 28.6333 35.2153 28.82 35.85 28.82C36.4846 28.82 36.9886 28.6333 37.362 28.26C37.7353 27.8867 37.922 27.3173 37.922 26.552V21.848C37.922 21.1013 37.7353 20.5413 37.362 20.168C36.9886 19.776 36.4846 19.58 35.85 19.58C35.2153 19.58 34.7113 19.776 34.338 20.168C33.9646 20.5413 33.778 21.1013 33.778 21.848V26.552C33.778 27.3173 33.9646 27.8867 34.338 28.26ZM62.3047 14.4H66.7287C66.9341 14.4 67.1114 14.4747 67.2607 14.624C67.4101 14.7733 67.4847 14.9507 67.4847 15.156V33.244C67.4847 33.4493 67.4101 33.6267 67.2607 33.776C67.1114 33.9253 66.9341 34 66.7287 34H61.6607C61.4554 34 61.2781 33.9253 61.1287 33.776C60.9794 33.6267 60.9047 33.4493 60.9047 33.244V25.572L59.0567 28.596C58.7581 29.0627 58.4127 29.296 58.0207 29.296H56.0607C55.6687 29.296 55.3234 29.0627 55.0247 28.596L53.1767 25.572V33.244C53.1767 33.4493 53.1021 33.6267 52.9527 33.776C52.8034 33.9253 52.6261 34 52.4207 34H47.3527C47.1474 34 46.9701 33.9253 46.8207 33.776C46.6714 33.6267 46.5967 33.4493 46.5967 33.244V15.156C46.5967 14.9507 46.6714 14.7733 46.8207 14.624C46.9701 14.4747 47.1474 14.4 47.3527 14.4H51.7767C52.2994 14.4 52.7007 14.652 52.9807 15.156L57.0407 21.876L61.1007 15.156C61.3807 14.652 61.7821 14.4 62.3047 14.4ZM70.2001 14.4H78.5441C81.2321 14.4 83.3321 14.9787 84.8441 16.136C86.3561 17.2933 87.1121 19.0013 87.1121 21.26C87.1121 23.5187 86.3561 25.1893 84.8441 26.272C83.3507 27.3547 81.2507 27.896 78.5441 27.896H76.7241V33.244C76.7241 33.4493 76.6494 33.6267 76.5001 33.776C76.3507 33.9253 76.1734 34 75.9681 34H70.2001C69.9947 34 69.8174 33.9253 69.6681 33.776C69.5187 33.6267 69.4441 33.4493 69.4441 33.244V15.156C69.4441 14.9507 69.5187 14.7733 69.6681 14.624C69.8174 14.4747 69.9947 14.4 70.2001 14.4ZM76.5841 19.608V22.716H78.5441C78.8801 22.716 79.1787 22.5947 79.4401 22.352C79.7014 22.0907 79.8321 21.7267 79.8321 21.26C79.8321 20.7933 79.7294 20.4013 79.5241 20.084C79.3187 19.7667 78.9921 19.608 78.5441 19.608H76.5841ZM99.7005 14.4H105.188C105.394 14.4 105.571 14.4747 105.72 14.624C105.87 14.7733 105.944 14.9507 105.944 15.156V26.412C105.944 29.0253 105.132 30.9947 103.508 32.32C101.884 33.6267 99.6725 34.28 96.8725 34.28C94.0911 34.28 91.8791 33.6267 90.2365 32.32C88.6125 31.0133 87.8005 29.044 87.8005 26.412V15.156C87.8005 14.9507 87.8751 14.7733 88.0245 14.624C88.1738 14.4747 88.3511 14.4 88.5565 14.4H94.0445C94.2498 14.4 94.4271 14.4747 94.5765 14.624C94.7258 14.7733 94.8005 14.9507 94.8005 15.156V26.496C94.8005 27.9333 95.4911 28.652 96.8725 28.652C98.2538 28.652 98.9445 27.9333 98.9445 26.496V15.156C98.9445 14.9507 99.0191 14.7733 99.1685 14.624C99.3178 14.4747 99.4951 14.4 99.7005 14.4ZM107.395 14.4H123.803C124.009 14.4 124.186 14.4747 124.335 14.624C124.485 14.7733 124.559 14.9507 124.559 15.156V19.664C124.559 19.8693 124.485 20.0467 124.335 20.196C124.186 20.3453 124.009 20.42 123.803 20.42H119.155V33.244C119.155 33.4493 119.081 33.6267 118.931 33.776C118.782 33.9253 118.605 34 118.399 34H112.799C112.594 34 112.417 33.9253 112.267 33.776C112.118 33.6267 112.043 33.4493 112.043 33.244V20.42H107.395C107.19 20.42 107.013 20.3453 106.863 20.196C106.714 20.0467 106.639 19.8693 106.639 19.664V15.156C106.639 14.9507 106.714 14.7733 106.863 14.624C107.013 14.4747 107.19 14.4 107.395 14.4ZM132.265 28.54H140.889C141.094 28.54 141.271 28.6147 141.421 28.764C141.57 28.9133 141.645 29.0907 141.645 29.296V33.244C141.645 33.4493 141.57 33.6267 141.421 33.776C141.271 33.9253 141.094 34 140.889 34H126.301C126.095 34 125.918 33.9253 125.769 33.776C125.619 33.6267 125.545 33.4493 125.545 33.244V15.156C125.545 14.9507 125.619 14.7733 125.769 14.624C125.918 14.4747 126.095 14.4 126.301 14.4H140.665C140.87 14.4 141.047 14.4747 141.197 14.624C141.346 14.7733 141.421 14.9507 141.421 15.156V19.104C141.421 19.3093 141.346 19.4867 141.197 19.636C141.047 19.7853 140.87 19.86 140.665 19.86H132.265V21.624H140.049C140.254 21.624 140.431 21.6987 140.581 21.848C140.73 21.9973 140.805 22.1747 140.805 22.38V26.02C140.805 26.2253 140.73 26.4027 140.581 26.552C140.431 26.7013 140.254 26.776 140.049 26.776H132.265V28.54ZM161.365 33.076C161.421 33.188 161.449 33.3093 161.449 33.44C161.449 33.5707 161.384 33.7013 161.253 33.832C161.141 33.944 161.001 34 160.833 34H155.093C154.515 34 154.113 33.748 153.889 33.244L151.481 27.896H150.333V33.244C150.333 33.4493 150.259 33.6267 150.109 33.776C149.96 33.9253 149.783 34 149.577 34H144.089C143.884 34 143.707 33.9253 143.557 33.776C143.408 33.6267 143.333 33.4493 143.333 33.244V15.156C143.333 14.9507 143.408 14.7733 143.557 14.624C143.707 14.4747 143.884 14.4 144.089 14.4H152.377C155.065 14.4 157.165 15.0067 158.677 16.22C160.189 17.4147 160.945 19.1413 160.945 21.4C160.945 23.64 159.937 25.404 157.921 26.692L161.365 33.076ZM150.333 19.608V22.576H152.377C152.788 22.576 153.105 22.4453 153.329 22.184C153.553 21.904 153.665 21.5587 153.665 21.148C153.665 20.7373 153.553 20.3827 153.329 20.084C153.124 19.7667 152.807 19.608 152.377 19.608H150.333ZM170.64 21.304C170.64 20.104 171.128 19.08 172.104 18.232C173.096 17.368 174.504 16.936 176.328 16.936C178.168 16.936 179.568 17.368 180.528 18.232C181.488 19.08 181.968 20.096 181.968 21.28C181.968 22.16 181.712 22.944 181.2 23.632C180.704 24.304 179.936 24.944 178.896 25.552L180.696 27.424C181.096 27.008 181.488 26.352 181.872 25.456C181.936 25.296 182.096 25.216 182.352 25.216H185.976C186.104 25.216 186.208 25.256 186.288 25.336C186.368 25.416 186.408 25.52 186.408 25.648C186.408 26.112 186.08 26.84 185.424 27.832C184.784 28.824 184.16 29.64 183.552 30.28L186.408 33.256C186.504 33.352 186.552 33.464 186.552 33.592C186.552 33.704 186.504 33.8 186.408 33.88C186.328 33.96 186.232 34 186.12 34H181.224C181.032 34 180.832 33.92 180.624 33.76L179.976 33.184C178.792 33.952 177.24 34.336 175.32 34.336C173.4 34.336 171.856 33.896 170.688 33.016C169.52 32.12 168.936 30.84 168.936 29.176C168.936 27.304 169.976 25.784 172.056 24.616C171.112 23.608 170.64 22.504 170.64 21.304ZM174.168 28.84C174.168 29.288 174.312 29.64 174.6 29.896C174.904 30.152 175.304 30.28 175.8 30.28C176.296 30.28 176.704 30.184 177.024 29.992L174.912 27.808C174.416 28.048 174.168 28.392 174.168 28.84ZM177.36 21.472C177.36 21.216 177.272 21.008 177.096 20.848C176.936 20.688 176.728 20.608 176.472 20.608C176.232 20.608 176.024 20.696 175.848 20.872C175.672 21.032 175.584 21.272 175.584 21.592C175.584 21.896 175.8 22.248 176.232 22.648C176.984 22.312 177.36 21.92 177.36 21.472ZM202.526 34H198.522C198.168 34 197.869 33.8973 197.626 33.692C197.402 33.468 197.272 33.216 197.234 32.936L194.658 15.1V15.016C194.658 14.848 194.714 14.708 194.826 14.596C194.957 14.4653 195.106 14.4 195.274 14.4H200.482C201.098 14.4 201.434 14.652 201.49 15.156L202.442 23.052L203.59 19.552C203.777 19.0107 204.094 18.74 204.542 18.74H207.398C207.846 18.74 208.164 19.0107 208.35 19.552L209.498 23.024L210.45 15.156C210.506 14.652 210.842 14.4 211.458 14.4H216.666C216.834 14.4 216.974 14.4653 217.086 14.596C217.217 14.708 217.282 14.848 217.282 15.016V15.1L214.706 32.936C214.669 33.216 214.529 33.468 214.286 33.692C214.062 33.8973 213.773 34 213.418 34H209.414C208.836 34 208.453 33.748 208.266 33.244L205.97 27.504L203.674 33.244C203.488 33.748 203.105 34 202.526 34ZM225.12 28.54H233.744C233.95 28.54 234.127 28.6147 234.276 28.764C234.426 28.9133 234.5 29.0907 234.5 29.296V33.244C234.5 33.4493 234.426 33.6267 234.276 33.776C234.127 33.9253 233.95 34 233.744 34H219.156C218.951 34 218.774 33.9253 218.624 33.776C218.475 33.6267 218.4 33.4493 218.4 33.244V15.156C218.4 14.9507 218.475 14.7733 218.624 14.624C218.774 14.4747 218.951 14.4 219.156 14.4H233.52C233.726 14.4 233.903 14.4747 234.052 14.624C234.202 14.7733 234.276 14.9507 234.276 15.156V19.104C234.276 19.3093 234.202 19.4867 234.052 19.636C233.903 19.7853 233.726 19.86 233.52 19.86H225.12V21.624H232.904C233.11 21.624 233.287 21.6987 233.436 21.848C233.586 21.9973 233.66 22.1747 233.66 22.38V26.02C233.66 26.2253 233.586 26.4027 233.436 26.552C233.287 26.7013 233.11 26.776 232.904 26.776H225.12V28.54ZM246.381 21.4C246.587 21.1573 246.689 20.868 246.689 20.532C246.689 20.196 246.587 19.8973 246.381 19.636C246.195 19.356 245.915 19.216 245.541 19.216H243.189V21.764H245.541C245.915 21.764 246.195 21.6427 246.381 21.4ZM243.189 26.44V29.184H245.793C246.223 29.184 246.54 29.044 246.745 28.764C246.969 28.4653 247.081 28.1387 247.081 27.784V27.756C247.081 27.4013 246.96 27.0933 246.717 26.832C246.493 26.5707 246.185 26.44 245.793 26.44H243.189ZM246.521 34H236.945C236.74 34 236.563 33.9253 236.413 33.776C236.264 33.6267 236.189 33.4493 236.189 33.244V15.156C236.189 14.9507 236.264 14.7733 236.413 14.624C236.563 14.4747 236.74 14.4 236.945 14.4H246.241C248.892 14.4 250.843 14.8853 252.093 15.856C253.363 16.808 253.997 18.2547 253.997 20.196V20.28C253.997 21.0827 253.764 21.8013 253.297 22.436C252.831 23.052 252.317 23.5 251.757 23.78C252.504 24.0787 253.129 24.6107 253.633 25.376C254.156 26.1227 254.417 26.944 254.417 27.84C254.417 31.9467 251.785 34 246.521 34ZM261.61 20.56C261.61 18.656 262.394 17.1067 263.962 15.912C265.549 14.7173 267.621 14.12 270.178 14.12C272.754 14.12 274.854 14.7453 276.478 15.996C278.121 17.2467 278.942 18.5533 278.942 19.916C278.942 20.084 278.877 20.2333 278.746 20.364C278.634 20.476 278.504 20.532 278.354 20.532H272.754C272.325 20.532 271.933 20.3733 271.578 20.056C271.224 19.7387 270.748 19.58 270.15 19.58C269.254 19.58 268.806 19.8413 268.806 20.364C268.806 20.644 269.021 20.8773 269.45 21.064C269.898 21.2507 270.72 21.4187 271.914 21.568C274.696 21.9227 276.674 22.576 277.85 23.528C279.045 24.4613 279.642 25.8893 279.642 27.812C279.642 29.716 278.765 31.2747 277.01 32.488C275.274 33.6827 272.997 34.28 270.178 34.28C267.36 34.28 265.148 33.7013 263.542 32.544C261.937 31.3867 261.134 29.9773 261.134 28.316C261.134 28.148 261.19 28.008 261.302 27.896C261.433 27.7653 261.582 27.7 261.75 27.7H267.07C267.462 27.7 267.892 27.8867 268.358 28.26C268.844 28.6333 269.506 28.82 270.346 28.82C271.746 28.82 272.446 28.5587 272.446 28.036C272.446 27.7 272.194 27.448 271.69 27.28C271.186 27.0933 270.234 26.9067 268.834 26.72C264.018 26.0853 261.61 24.032 261.61 20.56ZM280.39 14.4H296.798C297.003 14.4 297.181 14.4747 297.33 14.624C297.479 14.7733 297.554 14.9507 297.554 15.156V19.664C297.554 19.8693 297.479 20.0467 297.33 20.196C297.181 20.3453 297.003 20.42 296.798 20.42H292.15V33.244C292.15 33.4493 292.075 33.6267 291.926 33.776C291.777 33.9253 291.599 34 291.394 34H285.794C285.589 34 285.411 33.9253 285.262 33.776C285.113 33.6267 285.038 33.4493 285.038 33.244V20.42H280.39C280.185 20.42 280.007 20.3453 279.858 20.196C279.709 20.0467 279.634 19.8693 279.634 19.664V15.156C279.634 14.9507 279.709 14.7733 279.858 14.624C280.007 14.4747 280.185 14.4 280.39 14.4ZM310.16 14.4H315.648C315.853 14.4 316.03 14.4747 316.18 14.624C316.329 14.7733 316.404 14.9507 316.404 15.156V26.412C316.404 29.0253 315.592 30.9947 313.968 32.32C312.344 33.6267 310.132 34.28 307.332 34.28C304.55 34.28 302.338 33.6267 300.696 32.32C299.072 31.0133 298.26 29.044 298.26 26.412V15.156C298.26 14.9507 298.334 14.7733 298.484 14.624C298.633 14.4747 298.81 14.4 299.016 14.4H304.504C304.709 14.4 304.886 14.4747 305.036 14.624C305.185 14.7733 305.26 14.9507 305.26 15.156V26.496C305.26 27.9333 305.95 28.652 307.332 28.652C308.713 28.652 309.404 27.9333 309.404 26.496V15.156C309.404 14.9507 309.478 14.7733 309.628 14.624C309.777 14.4747 309.954 14.4 310.16 14.4ZM318.834 14.4H332.946C333.152 14.4 333.329 14.4747 333.478 14.624C333.628 14.7733 333.702 14.9507 333.702 15.156V19.412C333.702 19.6173 333.628 19.7947 333.478 19.944C333.329 20.0933 333.152 20.168 332.946 20.168H324.938V22.24H332.386C332.592 22.24 332.769 22.3147 332.918 22.464C333.068 22.6133 333.142 22.7907 333.142 22.996V27.224C333.142 27.4293 333.068 27.6067 332.918 27.756C332.769 27.9053 332.592 27.98 332.386 27.98H324.938V33.244C324.938 33.4493 324.864 33.6267 324.714 33.776C324.565 33.9253 324.388 34 324.182 34H318.834C318.629 34 318.452 33.9253 318.302 33.776C318.153 33.6267 318.078 33.4493 318.078 33.244V15.156C318.078 14.9507 318.153 14.7733 318.302 14.624C318.452 14.4747 318.629 14.4 318.834 14.4ZM335.721 14.4H349.833C350.038 14.4 350.215 14.4747 350.365 14.624C350.514 14.7733 350.589 14.9507 350.589 15.156V19.412C350.589 19.6173 350.514 19.7947 350.365 19.944C350.215 20.0933 350.038 20.168 349.833 20.168H341.825V22.24H349.273C349.478 22.24 349.655 22.3147 349.805 22.464C349.954 22.6133 350.029 22.7907 350.029 22.996V27.224C350.029 27.4293 349.954 27.6067 349.805 27.756C349.655 27.9053 349.478 27.98 349.273 27.98H341.825V33.244C341.825 33.4493 341.75 33.6267 341.601 33.776C341.451 33.9253 341.274 34 341.069 34H335.721C335.515 34 335.338 33.9253 335.189 33.776C335.039 33.6267 334.965 33.4493 334.965 33.244V15.156C334.965 14.9507 335.039 14.7733 335.189 14.624C335.338 14.4747 335.515 14.4 335.721 14.4Z" fill="#73CA86"/>
<path d="M12.54 19.848V24.552C12.54 26.064 13.2307 26.82 14.612 26.82C15.676 26.82 16.376 26.316 16.712 25.308C16.8053 24.9907 16.9173 24.776 17.048 24.664C17.1973 24.552 17.4307 24.496 17.748 24.496H23.46C23.628 24.496 23.768 24.5613 23.88 24.692C24.0107 24.804 24.076 24.944 24.076 25.112C24.076 26.736 23.6093 28.0987 22.676 29.2C20.9587 31.2533 18.28 32.28 14.64 32.28C11.784 32.28 9.50667 31.6547 7.808 30.404C6.10933 29.1347 5.26 27.1933 5.26 24.58V19.82C5.26 17.2627 6.128 15.34 7.864 14.052C9.6 12.764 11.8587 12.12 14.64 12.12C18.28 12.12 20.9587 13.1467 22.676 15.2C23.6093 16.3013 24.076 17.664 24.076 19.288C24.076 19.456 24.0107 19.6053 23.88 19.736C23.768 19.848 23.628 19.904 23.46 19.904H17.748C17.4493 19.904 17.2253 19.848 17.076 19.736C16.9453 19.624 16.824 19.4093 16.712 19.092C16.3573 18.084 15.6573 17.58 14.612 17.58C13.2307 17.58 12.54 18.336 12.54 19.848ZM27.046 14.192C28.7633 12.8107 31.0313 12.12 33.85 12.12C36.6686 12.12 38.9273 12.82 40.626 14.22C42.3433 15.6013 43.202 17.552 43.202 20.072V24.44C43.202 26.9973 42.3526 28.948 40.654 30.292C38.974 31.6173 36.706 32.28 33.85 32.28C30.994 32.28 28.7166 31.6173 27.018 30.292C25.338 28.948 24.498 26.9973 24.498 24.44V20.072C24.498 17.5333 25.3473 15.5733 27.046 14.192ZM32.338 26.26C32.7113 26.6333 33.2153 26.82 33.85 26.82C34.4846 26.82 34.9886 26.6333 35.362 26.26C35.7353 25.8867 35.922 25.3173 35.922 24.552V19.848C35.922 19.1013 35.7353 18.5413 35.362 18.168C34.9886 17.776 34.4846 17.58 33.85 17.58C33.2153 17.58 32.7113 17.776 32.338 18.168C31.9646 18.5413 31.778 19.1013 31.778 19.848V24.552C31.778 25.3173 31.9646 25.8867 32.338 26.26ZM60.3047 12.4H64.7287C64.9341 12.4 65.1114 12.4747 65.2607 12.624C65.4101 12.7733 65.4847 12.9507 65.4847 13.156V31.244C65.4847 31.4493 65.4101 31.6267 65.2607 31.776C65.1114 31.9253 64.9341 32 64.7287 32H59.6607C59.4554 32 59.2781 31.9253 59.1287 31.776C58.9794 31.6267 58.9047 31.4493 58.9047 31.244V23.572L57.0567 26.596C56.7581 27.0627 56.4127 27.296 56.0207 27.296H54.0607C53.6687 27.296 53.3234 27.0627 53.0247 26.596L51.1767 23.572V31.244C51.1767 31.4493 51.1021 31.6267 50.9527 31.776C50.8034 31.9253 50.6261 32 50.4207 32H45.3527C45.1474 32 44.9701 31.9253 44.8207 31.776C44.6714 31.6267 44.5967 31.4493 44.5967 31.244V13.156C44.5967 12.9507 44.6714 12.7733 44.8207 12.624C44.9701 12.4747 45.1474 12.4 45.3527 12.4H49.7767C50.2994 12.4 50.7007 12.652 50.9807 13.156L55.0407 19.876L59.1007 13.156C59.3807 12.652 59.7821 12.4 60.3047 12.4ZM68.2001 12.4H76.5441C79.2321 12.4 81.3321 12.9787 82.8441 14.136C84.3561 15.2933 85.1121 17.0013 85.1121 19.26C85.1121 21.5187 84.3561 23.1893 82.8441 24.272C81.3507 25.3547 79.2507 25.896 76.5441 25.896H74.7241V31.244C74.7241 31.4493 74.6494 31.6267 74.5001 31.776C74.3507 31.9253 74.1734 32 73.9681 32H68.2001C67.9947 32 67.8174 31.9253 67.6681 31.776C67.5187 31.6267 67.4441 31.4493 67.4441 31.244V13.156C67.4441 12.9507 67.5187 12.7733 67.6681 12.624C67.8174 12.4747 67.9947 12.4 68.2001 12.4ZM74.5841 17.608V20.716H76.5441C76.8801 20.716 77.1787 20.5947 77.4401 20.352C77.7014 20.0907 77.8321 19.7267 77.8321 19.26C77.8321 18.7933 77.7294 18.4013 77.5241 18.084C77.3187 17.7667 76.9921 17.608 76.5441 17.608H74.5841ZM97.7005 12.4H103.188C103.394 12.4 103.571 12.4747 103.72 12.624C103.87 12.7733 103.944 12.9507 103.944 13.156V24.412C103.944 27.0253 103.132 28.9947 101.508 30.32C99.8845 31.6267 97.6725 32.28 94.8725 32.28C92.0911 32.28 89.8791 31.6267 88.2365 30.32C86.6125 29.0133 85.8005 27.044 85.8005 24.412V13.156C85.8005 12.9507 85.8751 12.7733 86.0245 12.624C86.1738 12.4747 86.3511 12.4 86.5565 12.4H92.0445C92.2498 12.4 92.4271 12.4747 92.5765 12.624C92.7258 12.7733 92.8005 12.9507 92.8005 13.156V24.496C92.8005 25.9333 93.4911 26.652 94.8725 26.652C96.2538 26.652 96.9445 25.9333 96.9445 24.496V13.156C96.9445 12.9507 97.0191 12.7733 97.1685 12.624C97.3178 12.4747 97.4951 12.4 97.7005 12.4ZM105.395 12.4H121.803C122.009 12.4 122.186 12.4747 122.335 12.624C122.485 12.7733 122.559 12.9507 122.559 13.156V17.664C122.559 17.8693 122.485 18.0467 122.335 18.196C122.186 18.3453 122.009 18.42 121.803 18.42H117.155V31.244C117.155 31.4493 117.081 31.6267 116.931 31.776C116.782 31.9253 116.605 32 116.399 32H110.799C110.594 32 110.417 31.9253 110.267 31.776C110.118 31.6267 110.043 31.4493 110.043 31.244V18.42H105.395C105.19 18.42 105.013 18.3453 104.863 18.196C104.714 18.0467 104.639 17.8693 104.639 17.664V13.156C104.639 12.9507 104.714 12.7733 104.863 12.624C105.013 12.4747 105.19 12.4 105.395 12.4ZM130.265 26.54H138.889C139.094 26.54 139.271 26.6147 139.421 26.764C139.57 26.9133 139.645 27.0907 139.645 27.296V31.244C139.645 31.4493 139.57 31.6267 139.421 31.776C139.271 31.9253 139.094 32 138.889 32H124.301C124.095 32 123.918 31.9253 123.769 31.776C123.619 31.6267 123.545 31.4493 123.545 31.244V13.156C123.545 12.9507 123.619 12.7733 123.769 12.624C123.918 12.4747 124.095 12.4 124.301 12.4H138.665C138.87 12.4 139.047 12.4747 139.197 12.624C139.346 12.7733 139.421 12.9507 139.421 13.156V17.104C139.421 17.3093 139.346 17.4867 139.197 17.636C139.047 17.7853 138.87 17.86 138.665 17.86H130.265V19.624H138.049C138.254 19.624 138.431 19.6987 138.581 19.848C138.73 19.9973 138.805 20.1747 138.805 20.38V24.02C138.805 24.2253 138.73 24.4027 138.581 24.552C138.431 24.7013 138.254 24.776 138.049 24.776H130.265V26.54ZM159.365 31.076C159.421 31.188 159.449 31.3093 159.449 31.44C159.449 31.5707 159.384 31.7013 159.253 31.832C159.141 31.944 159.001 32 158.833 32H153.093C152.515 32 152.113 31.748 151.889 31.244L149.481 25.896H148.333V31.244C148.333 31.4493 148.259 31.6267 148.109 31.776C147.96 31.9253 147.783 32 147.577 32H142.089C141.884 32 141.707 31.9253 141.557 31.776C141.408 31.6267 141.333 31.4493 141.333 31.244V13.156C141.333 12.9507 141.408 12.7733 141.557 12.624C141.707 12.4747 141.884 12.4 142.089 12.4H150.377C153.065 12.4 155.165 13.0067 156.677 14.22C158.189 15.4147 158.945 17.1413 158.945 19.4C158.945 21.64 157.937 23.404 155.921 24.692L159.365 31.076ZM148.333 17.608V20.576H150.377C150.788 20.576 151.105 20.4453 151.329 20.184C151.553 19.904 151.665 19.5587 151.665 19.148C151.665 18.7373 151.553 18.3827 151.329 18.084C151.124 17.7667 150.807 17.608 150.377 17.608H148.333ZM168.64 19.304C168.64 18.104 169.128 17.08 170.104 16.232C171.096 15.368 172.504 14.936 174.328 14.936C176.168 14.936 177.568 15.368 178.528 16.232C179.488 17.08 179.968 18.096 179.968 19.28C179.968 20.16 179.712 20.944 179.2 21.632C178.704 22.304 177.936 22.944 176.896 23.552L178.696 25.424C179.096 25.008 179.488 24.352 179.872 23.456C179.936 23.296 180.096 23.216 180.352 23.216H183.976C184.104 23.216 184.208 23.256 184.288 23.336C184.368 23.416 184.408 23.52 184.408 23.648C184.408 24.112 184.08 24.84 183.424 25.832C182.784 26.824 182.16 27.64 181.552 28.28L184.408 31.256C184.504 31.352 184.552 31.464 184.552 31.592C184.552 31.704 184.504 31.8 184.408 31.88C184.328 31.96 184.232 32 184.12 32H179.224C179.032 32 178.832 31.92 178.624 31.76L177.976 31.184C176.792 31.952 175.24 32.336 173.32 32.336C171.4 32.336 169.856 31.896 168.688 31.016C167.52 30.12 166.936 28.84 166.936 27.176C166.936 25.304 167.976 23.784 170.056 22.616C169.112 21.608 168.64 20.504 168.64 19.304ZM172.168 26.84C172.168 27.288 172.312 27.64 172.6 27.896C172.904 28.152 173.304 28.28 173.8 28.28C174.296 28.28 174.704 28.184 175.024 27.992L172.912 25.808C172.416 26.048 172.168 26.392 172.168 26.84ZM175.36 19.472C175.36 19.216 175.272 19.008 175.096 18.848C174.936 18.688 174.728 18.608 174.472 18.608C174.232 18.608 174.024 18.696 173.848 18.872C173.672 19.032 173.584 19.272 173.584 19.592C173.584 19.896 173.8 20.248 174.232 20.648C174.984 20.312 175.36 19.92 175.36 19.472ZM200.526 32H196.522C196.168 32 195.869 31.8973 195.626 31.692C195.402 31.468 195.272 31.216 195.234 30.936L192.658 13.1V13.016C192.658 12.848 192.714 12.708 192.826 12.596C192.957 12.4653 193.106 12.4 193.274 12.4H198.482C199.098 12.4 199.434 12.652 199.49 13.156L200.442 21.052L201.59 17.552C201.777 17.0107 202.094 16.74 202.542 16.74H205.398C205.846 16.74 206.164 17.0107 206.35 17.552L207.498 21.024L208.45 13.156C208.506 12.652 208.842 12.4 209.458 12.4H214.666C214.834 12.4 214.974 12.4653 215.086 12.596C215.217 12.708 215.282 12.848 215.282 13.016V13.1L212.706 30.936C212.669 31.216 212.529 31.468 212.286 31.692C212.062 31.8973 211.773 32 211.418 32H207.414C206.836 32 206.453 31.748 206.266 31.244L203.97 25.504L201.674 31.244C201.488 31.748 201.105 32 200.526 32ZM223.12 26.54H231.744C231.95 26.54 232.127 26.6147 232.276 26.764C232.426 26.9133 232.5 27.0907 232.5 27.296V31.244C232.5 31.4493 232.426 31.6267 232.276 31.776C232.127 31.9253 231.95 32 231.744 32H217.156C216.951 32 216.774 31.9253 216.624 31.776C216.475 31.6267 216.4 31.4493 216.4 31.244V13.156C216.4 12.9507 216.475 12.7733 216.624 12.624C216.774 12.4747 216.951 12.4 217.156 12.4H231.52C231.726 12.4 231.903 12.4747 232.052 12.624C232.202 12.7733 232.276 12.9507 232.276 13.156V17.104C232.276 17.3093 232.202 17.4867 232.052 17.636C231.903 17.7853 231.726 17.86 231.52 17.86H223.12V19.624H230.904C231.11 19.624 231.287 19.6987 231.436 19.848C231.586 19.9973 231.66 20.1747 231.66 20.38V24.02C231.66 24.2253 231.586 24.4027 231.436 24.552C231.287 24.7013 231.11 24.776 230.904 24.776H223.12V26.54ZM244.381 19.4C244.587 19.1573 244.689 18.868 244.689 18.532C244.689 18.196 244.587 17.8973 244.381 17.636C244.195 17.356 243.915 17.216 243.541 17.216H241.189V19.764H243.541C243.915 19.764 244.195 19.6427 244.381 19.4ZM241.189 24.44V27.184H243.793C244.223 27.184 244.54 27.044 244.745 26.764C244.969 26.4653 245.081 26.1387 245.081 25.784V25.756C245.081 25.4013 244.96 25.0933 244.717 24.832C244.493 24.5707 244.185 24.44 243.793 24.44H241.189ZM244.521 32H234.945C234.74 32 234.563 31.9253 234.413 31.776C234.264 31.6267 234.189 31.4493 234.189 31.244V13.156C234.189 12.9507 234.264 12.7733 234.413 12.624C234.563 12.4747 234.74 12.4 234.945 12.4H244.241C246.892 12.4 248.843 12.8853 250.093 13.856C251.363 14.808 251.997 16.2547 251.997 18.196V18.28C251.997 19.0827 251.764 19.8013 251.297 20.436C250.831 21.052 250.317 21.5 249.757 21.78C250.504 22.0787 251.129 22.6107 251.633 23.376C252.156 24.1227 252.417 24.944 252.417 25.84C252.417 29.9467 249.785 32 244.521 32ZM259.61 18.56C259.61 16.656 260.394 15.1067 261.962 13.912C263.549 12.7173 265.621 12.12 268.178 12.12C270.754 12.12 272.854 12.7453 274.478 13.996C276.121 15.2467 276.942 16.5533 276.942 17.916C276.942 18.084 276.877 18.2333 276.746 18.364C276.634 18.476 276.504 18.532 276.354 18.532H270.754C270.325 18.532 269.933 18.3733 269.578 18.056C269.224 17.7387 268.748 17.58 268.15 17.58C267.254 17.58 266.806 17.8413 266.806 18.364C266.806 18.644 267.021 18.8773 267.45 19.064C267.898 19.2507 268.72 19.4187 269.914 19.568C272.696 19.9227 274.674 20.576 275.85 21.528C277.045 22.4613 277.642 23.8893 277.642 25.812C277.642 27.716 276.765 29.2747 275.01 30.488C273.274 31.6827 270.997 32.28 268.178 32.28C265.36 32.28 263.148 31.7013 261.542 30.544C259.937 29.3867 259.134 27.9773 259.134 26.316C259.134 26.148 259.19 26.008 259.302 25.896C259.433 25.7653 259.582 25.7 259.75 25.7H265.07C265.462 25.7 265.892 25.8867 266.358 26.26C266.844 26.6333 267.506 26.82 268.346 26.82C269.746 26.82 270.446 26.5587 270.446 26.036C270.446 25.7 270.194 25.448 269.69 25.28C269.186 25.0933 268.234 24.9067 266.834 24.72C262.018 24.0853 259.61 22.032 259.61 18.56ZM278.39 12.4H294.798C295.003 12.4 295.181 12.4747 295.33 12.624C295.479 12.7733 295.554 12.9507 295.554 13.156V17.664C295.554 17.8693 295.479 18.0467 295.33 18.196C295.181 18.3453 295.003 18.42 294.798 18.42H290.15V31.244C290.15 31.4493 290.075 31.6267 289.926 31.776C289.777 31.9253 289.599 32 289.394 32H283.794C283.589 32 283.411 31.9253 283.262 31.776C283.113 31.6267 283.038 31.4493 283.038 31.244V18.42H278.39C278.185 18.42 278.007 18.3453 277.858 18.196C277.709 18.0467 277.634 17.8693 277.634 17.664V13.156C277.634 12.9507 277.709 12.7733 277.858 12.624C278.007 12.4747 278.185 12.4 278.39 12.4ZM308.16 12.4H313.648C313.853 12.4 314.03 12.4747 314.18 12.624C314.329 12.7733 314.404 12.9507 314.404 13.156V24.412C314.404 27.0253 313.592 28.9947 311.968 30.32C310.344 31.6267 308.132 32.28 305.332 32.28C302.55 32.28 300.338 31.6267 298.696 30.32C297.072 29.0133 296.26 27.044 296.26 24.412V13.156C296.26 12.9507 296.334 12.7733 296.484 12.624C296.633 12.4747 296.81 12.4 297.016 12.4H302.504C302.709 12.4 302.886 12.4747 303.036 12.624C303.185 12.7733 303.26 12.9507 303.26 13.156V24.496C303.26 25.9333 303.95 26.652 305.332 26.652C306.713 26.652 307.404 25.9333 307.404 24.496V13.156C307.404 12.9507 307.478 12.7733 307.628 12.624C307.777 12.4747 307.954 12.4 308.16 12.4ZM316.834 12.4H330.946C331.152 12.4 331.329 12.4747 331.478 12.624C331.628 12.7733 331.702 12.9507 331.702 13.156V17.412C331.702 17.6173 331.628 17.7947 331.478 17.944C331.329 18.0933 331.152 18.168 330.946 18.168H322.938V20.24H330.386C330.592 20.24 330.769 20.3147 330.918 20.464C331.068 20.6133 331.142 20.7907 331.142 20.996V25.224C331.142 25.4293 331.068 25.6067 330.918 25.756C330.769 25.9053 330.592 25.98 330.386 25.98H322.938V31.244C322.938 31.4493 322.864 31.6267 322.714 31.776C322.565 31.9253 322.388 32 322.182 32H316.834C316.629 32 316.452 31.9253 316.302 31.776C316.153 31.6267 316.078 31.4493 316.078 31.244V13.156C316.078 12.9507 316.153 12.7733 316.302 12.624C316.452 12.4747 316.629 12.4 316.834 12.4ZM333.721 12.4H347.833C348.038 12.4 348.215 12.4747 348.365 12.624C348.514 12.7733 348.589 12.9507 348.589 13.156V17.412C348.589 17.6173 348.514 17.7947 348.365 17.944C348.215 18.0933 348.038 18.168 347.833 18.168H339.825V20.24H347.273C347.478 20.24 347.655 20.3147 347.805 20.464C347.954 20.6133 348.029 20.7907 348.029 20.996V25.224C348.029 25.4293 347.954 25.6067 347.805 25.756C347.655 25.9053 347.478 25.98 347.273 25.98H339.825V31.244C339.825 31.4493 339.75 31.6267 339.601 31.776C339.451 31.9253 339.274 32 339.069 32H333.721C333.515 32 333.338 31.9253 333.189 31.776C333.039 31.6267 332.965 31.4493 332.965 31.244V13.156C332.965 12.9507 333.039 12.7733 333.189 12.624C333.338 12.4747 333.515 12.4 333.721 12.4Z" fill="#FFD439"/>
<path d="M12.54 17.848V22.552C12.54 24.064 13.2307 24.82 14.612 24.82C15.676 24.82 16.376 24.316 16.712 23.308C16.8053 22.9907 16.9173 22.776 17.048 22.664C17.1973 22.552 17.4307 22.496 17.748 22.496H23.46C23.628 22.496 23.768 22.5613 23.88 22.692C24.0107 22.804 24.076 22.944 24.076 23.112C24.076 24.736 23.6093 26.0987 22.676 27.2C20.9587 29.2533 18.28 30.28 14.64 30.28C11.784 30.28 9.50667 29.6547 7.808 28.404C6.10933 27.1347 5.26 25.1933 5.26 22.58V17.82C5.26 15.2627 6.128 13.34 7.864 12.052C9.6 10.764 11.8587 10.12 14.64 10.12C18.28 10.12 20.9587 11.1467 22.676 13.2C23.6093 14.3013 24.076 15.664 24.076 17.288C24.076 17.456 24.0107 17.6053 23.88 17.736C23.768 17.848 23.628 17.904 23.46 17.904H17.748C17.4493 17.904 17.2253 17.848 17.076 17.736C16.9453 17.624 16.824 17.4093 16.712 17.092C16.3573 16.084 15.6573 15.58 14.612 15.58C13.2307 15.58 12.54 16.336 12.54 17.848ZM27.046 12.192C28.7633 10.8107 31.0313 10.12 33.85 10.12C36.6686 10.12 38.9273 10.82 40.626 12.22C42.3433 13.6013 43.202 15.552 43.202 18.072V22.44C43.202 24.9973 42.3526 26.948 40.654 28.292C38.974 29.6173 36.706 30.28 33.85 30.28C30.994 30.28 28.7166 29.6173 27.018 28.292C25.338 26.948 24.498 24.9973 24.498 22.44V18.072C24.498 15.5333 25.3473 13.5733 27.046 12.192ZM32.338 24.26C32.7113 24.6333 33.2153 24.82 33.85 24.82C34.4846 24.82 34.9886 24.6333 35.362 24.26C35.7353 23.8867 35.922 23.3173 35.922 22.552V17.848C35.922 17.1013 35.7353 16.5413 35.362 16.168C34.9886 15.776 34.4846 15.58 33.85 15.58C33.2153 15.58 32.7113 15.776 32.338 16.168C31.9646 16.5413 31.778 17.1013 31.778 17.848V22.552C31.778 23.3173 31.9646 23.8867 32.338 24.26ZM60.3047 10.4H64.7287C64.9341 10.4 65.1114 10.4747 65.2607 10.624C65.4101 10.7733 65.4847 10.9507 65.4847 11.156V29.244C65.4847 29.4493 65.4101 29.6267 65.2607 29.776C65.1114 29.9253 64.9341 30 64.7287 30H59.6607C59.4554 30 59.2781 29.9253 59.1287 29.776C58.9794 29.6267 58.9047 29.4493 58.9047 29.244V21.572L57.0567 24.596C56.7581 25.0627 56.4127 25.296 56.0207 25.296H54.0607C53.6687 25.296 53.3234 25.0627 53.0247 24.596L51.1767 21.572V29.244C51.1767 29.4493 51.1021 29.6267 50.9527 29.776C50.8034 29.9253 50.6261 30 50.4207 30H45.3527C45.1474 30 44.9701 29.9253 44.8207 29.776C44.6714 29.6267 44.5967 29.4493 44.5967 29.244V11.156C44.5967 10.9507 44.6714 10.7733 44.8207 10.624C44.9701 10.4747 45.1474 10.4 45.3527 10.4H49.7767C50.2994 10.4 50.7007 10.652 50.9807 11.156L55.0407 17.876L59.1007 11.156C59.3807 10.652 59.7821 10.4 60.3047 10.4ZM68.2001 10.4H76.5441C79.2321 10.4 81.3321 10.9787 82.8441 12.136C84.3561 13.2933 85.1121 15.0013 85.1121 17.26C85.1121 19.5187 84.3561 21.1893 82.8441 22.272C81.3507 23.3547 79.2507 23.896 76.5441 23.896H74.7241V29.244C74.7241 29.4493 74.6494 29.6267 74.5001 29.776C74.3507 29.9253 74.1734 30 73.9681 30H68.2001C67.9947 30 67.8174 29.9253 67.6681 29.776C67.5187 29.6267 67.4441 29.4493 67.4441 29.244V11.156C67.4441 10.9507 67.5187 10.7733 67.6681 10.624C67.8174 10.4747 67.9947 10.4 68.2001 10.4ZM74.5841 15.608V18.716H76.5441C76.8801 18.716 77.1787 18.5947 77.4401 18.352C77.7014 18.0907 77.8321 17.7267 77.8321 17.26C77.8321 16.7933 77.7294 16.4013 77.5241 16.084C77.3187 15.7667 76.9921 15.608 76.5441 15.608H74.5841ZM97.7005 10.4H103.188C103.394 10.4 103.571 10.4747 103.72 10.624C103.87 10.7733 103.944 10.9507 103.944 11.156V22.412C103.944 25.0253 103.132 26.9947 101.508 28.32C99.8845 29.6267 97.6725 30.28 94.8725 30.28C92.0911 30.28 89.8791 29.6267 88.2365 28.32C86.6125 27.0133 85.8005 25.044 85.8005 22.412V11.156C85.8005 10.9507 85.8751 10.7733 86.0245 10.624C86.1738 10.4747 86.3511 10.4 86.5565 10.4H92.0445C92.2498 10.4 92.4271 10.4747 92.5765 10.624C92.7258 10.7733 92.8005 10.9507 92.8005 11.156V22.496C92.8005 23.9333 93.4911 24.652 94.8725 24.652C96.2538 24.652 96.9445 23.9333 96.9445 22.496V11.156C96.9445 10.9507 97.0191 10.7733 97.1685 10.624C97.3178 10.4747 97.4951 10.4 97.7005 10.4ZM105.395 10.4H121.803C122.009 10.4 122.186 10.4747 122.335 10.624C122.485 10.7733 122.559 10.9507 122.559 11.156V15.664C122.559 15.8693 122.485 16.0467 122.335 16.196C122.186 16.3453 122.009 16.42 121.803 16.42H117.155V29.244C117.155 29.4493 117.081 29.6267 116.931 29.776C116.782 29.9253 116.605 30 116.399 30H110.799C110.594 30 110.417 29.9253 110.267 29.776C110.118 29.6267 110.043 29.4493 110.043 29.244V16.42H105.395C105.19 16.42 105.013 16.3453 104.863 16.196C104.714 16.0467 104.639 15.8693 104.639 15.664V11.156C104.639 10.9507 104.714 10.7733 104.863 10.624C105.013 10.4747 105.19 10.4 105.395 10.4ZM130.265 24.54H138.889C139.094 24.54 139.271 24.6147 139.421 24.764C139.57 24.9133 139.645 25.0907 139.645 25.296V29.244C139.645 29.4493 139.57 29.6267 139.421 29.776C139.271 29.9253 139.094 30 138.889 30H124.301C124.095 30 123.918 29.9253 123.769 29.776C123.619 29.6267 123.545 29.4493 123.545 29.244V11.156C123.545 10.9507 123.619 10.7733 123.769 10.624C123.918 10.4747 124.095 10.4 124.301 10.4H138.665C138.87 10.4 139.047 10.4747 139.197 10.624C139.346 10.7733 139.421 10.9507 139.421 11.156V15.104C139.421 15.3093 139.346 15.4867 139.197 15.636C139.047 15.7853 138.87 15.86 138.665 15.86H130.265V17.624H138.049C138.254 17.624 138.431 17.6987 138.581 17.848C138.73 17.9973 138.805 18.1747 138.805 18.38V22.02C138.805 22.2253 138.73 22.4027 138.581 22.552C138.431 22.7013 138.254 22.776 138.049 22.776H130.265V24.54ZM159.365 29.076C159.421 29.188 159.449 29.3093 159.449 29.44C159.449 29.5707 159.384 29.7013 159.253 29.832C159.141 29.944 159.001 30 158.833 30H153.093C152.515 30 152.113 29.748 151.889 29.244L149.481 23.896H148.333V29.244C148.333 29.4493 148.259 29.6267 148.109 29.776C147.96 29.9253 147.783 30 147.577 30H142.089C141.884 30 141.707 29.9253 141.557 29.776C141.408 29.6267 141.333 29.4493 141.333 29.244V11.156C141.333 10.9507 141.408 10.7733 141.557 10.624C141.707 10.4747 141.884 10.4 142.089 10.4H150.377C153.065 10.4 155.165 11.0067 156.677 12.22C158.189 13.4147 158.945 15.1413 158.945 17.4C158.945 19.64 157.937 21.404 155.921 22.692L159.365 29.076ZM148.333 15.608V18.576H150.377C150.788 18.576 151.105 18.4453 151.329 18.184C151.553 17.904 151.665 17.5587 151.665 17.148C151.665 16.7373 151.553 16.3827 151.329 16.084C151.124 15.7667 150.807 15.608 150.377 15.608H148.333ZM167.72 17.304C167.72 16.104 168.208 15.08 169.184 14.232C170.176 13.368 171.584 12.936 173.408 12.936C175.248 12.936 176.648 13.368 177.608 14.232C178.568 15.08 179.048 16.096 179.048 17.28C179.048 18.16 178.792 18.944 178.28 19.632C177.784 20.304 177.016 20.944 175.976 21.552L177.776 23.424C178.176 23.008 178.568 22.352 178.952 21.456C179.016 21.296 179.176 21.216 179.432 21.216H183.056C183.184 21.216 183.288 21.256 183.368 21.336C183.448 21.416 183.488 21.52 183.488 21.648C183.488 22.112 183.16 22.84 182.504 23.832C181.864 24.824 181.24 25.64 180.632 26.28L183.488 29.256C183.584 29.352 183.632 29.464 183.632 29.592C183.632 29.704 183.584 29.8 183.488 29.88C183.408 29.96 183.312 30 183.2 30H178.304C178.112 30 177.912 29.92 177.704 29.76L177.056 29.184C175.872 29.952 174.32 30.336 172.4 30.336C170.48 30.336 168.936 29.896 167.768 29.016C166.6 28.12 166.016 26.84 166.016 25.176C166.016 23.304 167.056 21.784 169.136 20.616C168.192 19.608 167.72 18.504 167.72 17.304ZM171.248 24.84C171.248 25.288 171.392 25.64 171.68 25.896C171.984 26.152 172.384 26.28 172.88 26.28C173.376 26.28 173.784 26.184 174.104 25.992L171.992 23.808C171.496 24.048 171.248 24.392 171.248 24.84ZM174.44 17.472C174.44 17.216 174.352 17.008 174.176 16.848C174.016 16.688 173.808 16.608 173.552 16.608C173.312 16.608 173.104 16.696 172.928 16.872C172.752 17.032 172.664 17.272 172.664 17.592C172.664 17.896 172.88 18.248 173.312 18.648C174.064 18.312 174.44 17.92 174.44 17.472ZM198.686 30H194.682C194.327 30 194.029 29.8973 193.786 29.692C193.562 29.468 193.431 29.216 193.394 28.936L190.818 11.1V11.016C190.818 10.848 190.874 10.708 190.986 10.596C191.117 10.4653 191.266 10.4 191.434 10.4H196.642C197.258 10.4 197.594 10.652 197.65 11.156L198.602 19.052L199.75 15.552C199.937 15.0107 200.254 14.74 200.702 14.74H203.558C204.006 14.74 204.323 15.0107 204.51 15.552L205.658 19.024L206.61 11.156C206.666 10.652 207.002 10.4 207.618 10.4H212.826C212.994 10.4 213.134 10.4653 213.246 10.596C213.377 10.708 213.442 10.848 213.442 11.016V11.1L210.866 28.936C210.829 29.216 210.689 29.468 210.446 29.692C210.222 29.8973 209.933 30 209.578 30H205.574C204.995 30 204.613 29.748 204.426 29.244L202.13 23.504L199.834 29.244C199.647 29.748 199.265 30 198.686 30ZM221.28 24.54H229.904C230.109 24.54 230.287 24.6147 230.436 24.764C230.585 24.9133 230.66 25.0907 230.66 25.296V29.244C230.66 29.4493 230.585 29.6267 230.436 29.776C230.287 29.9253 230.109 30 229.904 30H215.316C215.111 30 214.933 29.9253 214.784 29.776C214.635 29.6267 214.56 29.4493 214.56 29.244V11.156C214.56 10.9507 214.635 10.7733 214.784 10.624C214.933 10.4747 215.111 10.4 215.316 10.4H229.68C229.885 10.4 230.063 10.4747 230.212 10.624C230.361 10.7733 230.436 10.9507 230.436 11.156V15.104C230.436 15.3093 230.361 15.4867 230.212 15.636C230.063 15.7853 229.885 15.86 229.68 15.86H221.28V17.624H229.064C229.269 17.624 229.447 17.6987 229.596 17.848C229.745 17.9973 229.82 18.1747 229.82 18.38V22.02C229.82 22.2253 229.745 22.4027 229.596 22.552C229.447 22.7013 229.269 22.776 229.064 22.776H221.28V24.54ZM242.541 17.4C242.746 17.1573 242.849 16.868 242.849 16.532C242.849 16.196 242.746 15.8973 242.541 15.636C242.354 15.356 242.074 15.216 241.701 15.216H239.349V17.764H241.701C242.074 17.764 242.354 17.6427 242.541 17.4ZM239.349 22.44V25.184H241.953C242.382 25.184 242.7 25.044 242.905 24.764C243.129 24.4653 243.241 24.1387 243.241 23.784V23.756C243.241 23.4013 243.12 23.0933 242.877 22.832C242.653 22.5707 242.345 22.44 241.953 22.44H239.349ZM242.681 30H233.105C232.9 30 232.722 29.9253 232.573 29.776C232.424 29.6267 232.349 29.4493 232.349 29.244V11.156C232.349 10.9507 232.424 10.7733 232.573 10.624C232.722 10.4747 232.9 10.4 233.105 10.4H242.401C245.052 10.4 247.002 10.8853 248.253 11.856C249.522 12.808 250.157 14.2547 250.157 16.196V16.28C250.157 17.0827 249.924 17.8013 249.457 18.436C248.99 19.052 248.477 19.5 247.917 19.78C248.664 20.0787 249.289 20.6107 249.793 21.376C250.316 22.1227 250.577 22.944 250.577 23.84C250.577 27.9467 247.945 30 242.681 30ZM257.77 16.56C257.77 14.656 258.554 13.1067 260.122 11.912C261.709 10.7173 263.781 10.12 266.338 10.12C268.914 10.12 271.014 10.7453 272.638 11.996C274.281 13.2467 275.102 14.5533 275.102 15.916C275.102 16.084 275.037 16.2333 274.906 16.364C274.794 16.476 274.663 16.532 274.514 16.532H268.914C268.485 16.532 268.093 16.3733 267.738 16.056C267.383 15.7387 266.907 15.58 266.31 15.58C265.414 15.58 264.966 15.8413 264.966 16.364C264.966 16.644 265.181 16.8773 265.61 17.064C266.058 17.2507 266.879 17.4187 268.074 17.568C270.855 17.9227 272.834 18.576 274.01 19.528C275.205 20.4613 275.802 21.8893 275.802 23.812C275.802 25.716 274.925 27.2747 273.17 28.488C271.434 29.6827 269.157 30.28 266.338 30.28C263.519 30.28 261.307 29.7013 259.702 28.544C258.097 27.3867 257.294 25.9773 257.294 24.316C257.294 24.148 257.35 24.008 257.462 23.896C257.593 23.7653 257.742 23.7 257.91 23.7H263.23C263.622 23.7 264.051 23.8867 264.518 24.26C265.003 24.6333 265.666 24.82 266.506 24.82C267.906 24.82 268.606 24.5587 268.606 24.036C268.606 23.7 268.354 23.448 267.85 23.28C267.346 23.0933 266.394 22.9067 264.994 22.72C260.178 22.0853 257.77 20.032 257.77 16.56ZM276.55 10.4H292.958C293.163 10.4 293.34 10.4747 293.49 10.624C293.639 10.7733 293.714 10.9507 293.714 11.156V15.664C293.714 15.8693 293.639 16.0467 293.49 16.196C293.34 16.3453 293.163 16.42 292.958 16.42H288.31V29.244C288.31 29.4493 288.235 29.6267 288.086 29.776C287.936 29.9253 287.759 30 287.554 30H281.954C281.748 30 281.571 29.9253 281.422 29.776C281.272 29.6267 281.198 29.4493 281.198 29.244V16.42H276.55C276.344 16.42 276.167 16.3453 276.018 16.196C275.868 16.0467 275.794 15.8693 275.794 15.664V11.156C275.794 10.9507 275.868 10.7733 276.018 10.624C276.167 10.4747 276.344 10.4 276.55 10.4ZM306.319 10.4H311.807C312.013 10.4 312.19 10.4747 312.339 10.624C312.489 10.7733 312.563 10.9507 312.563 11.156V22.412C312.563 25.0253 311.751 26.9947 310.127 28.32C308.503 29.6267 306.291 30.28 303.491 30.28C300.71 30.28 298.498 29.6267 296.855 28.32C295.231 27.0133 294.419 25.044 294.419 22.412V11.156C294.419 10.9507 294.494 10.7733 294.643 10.624C294.793 10.4747 294.97 10.4 295.175 10.4H300.663C300.869 10.4 301.046 10.4747 301.195 10.624C301.345 10.7733 301.419 10.9507 301.419 11.156V22.496C301.419 23.9333 302.11 24.652 303.491 24.652C304.873 24.652 305.563 23.9333 305.563 22.496V11.156C305.563 10.9507 305.638 10.7733 305.787 10.624C305.937 10.4747 306.114 10.4 306.319 10.4ZM314.994 10.4H329.106C329.311 10.4 329.489 10.4747 329.638 10.624C329.787 10.7733 329.862 10.9507 329.862 11.156V15.412C329.862 15.6173 329.787 15.7947 329.638 15.944C329.489 16.0933 329.311 16.168 329.106 16.168H321.098V18.24H328.546C328.751 18.24 328.929 18.3147 329.078 18.464C329.227 18.6133 329.302 18.7907 329.302 18.996V23.224C329.302 23.4293 329.227 23.6067 329.078 23.756C328.929 23.9053 328.751 23.98 328.546 23.98H321.098V29.244C321.098 29.4493 321.023 29.6267 320.874 29.776C320.725 29.9253 320.547 30 320.342 30H314.994C314.789 30 314.611 29.9253 314.462 29.776C314.313 29.6267 314.238 29.4493 314.238 29.244V11.156C314.238 10.9507 314.313 10.7733 314.462 10.624C314.611 10.4747 314.789 10.4 314.994 10.4ZM331.88 10.4H345.992C346.198 10.4 346.375 10.4747 346.524 10.624C346.674 10.7733 346.748 10.9507 346.748 11.156V15.412C346.748 15.6173 346.674 15.7947 346.524 15.944C346.375 16.0933 346.198 16.168 345.992 16.168H337.984V18.24H345.432C345.638 18.24 345.815 18.3147 345.964 18.464C346.114 18.6133 346.188 18.7907 346.188 18.996V23.224C346.188 23.4293 346.114 23.6067 345.964 23.756C345.815 23.9053 345.638 23.98 345.432 23.98H337.984V29.244C337.984 29.4493 337.91 29.6267 337.76 29.776C337.611 29.9253 337.434 30 337.228 30H331.88C331.675 30 331.498 29.9253 331.348 29.776C331.199 29.6267 331.124 29.4493 331.124 29.244V11.156C331.124 10.9507 331.199 10.7733 331.348 10.624C331.498 10.4747 331.675 10.4 331.88 10.4Z" fill="#FF9330"/>
<path d="M10.54 15.848V20.552C10.54 22.064 11.2307 22.82 12.612 22.82C13.676 22.82 14.376 22.316 14.712 21.308C14.8053 20.9907 14.9173 20.776 15.048 20.664C15.1973 20.552 15.4307 20.496 15.748 20.496H21.46C21.628 20.496 21.768 20.5613 21.88 20.692C22.0107 20.804 22.076 20.944 22.076 21.112C22.076 22.736 21.6093 24.0987 20.676 25.2C18.9587 27.2533 16.28 28.28 12.64 28.28C9.784 28.28 7.50667 27.6547 5.808 26.404C4.10933 25.1347 3.26 23.1933 3.26 20.58V15.82C3.26 13.2627 4.128 11.34 5.864 10.052C7.6 8.764 9.85867 8.12 12.64 8.12C16.28 8.12 18.9587 9.14667 20.676 11.2C21.6093 12.3013 22.076 13.664 22.076 15.288C22.076 15.456 22.0107 15.6053 21.88 15.736C21.768 15.848 21.628 15.904 21.46 15.904H15.748C15.4493 15.904 15.2253 15.848 15.076 15.736C14.9453 15.624 14.824 15.4093 14.712 15.092C14.3573 14.084 13.6573 13.58 12.612 13.58C11.2307 13.58 10.54 14.336 10.54 15.848ZM25.046 10.192C26.7633 8.81067 29.0313 8.12 31.85 8.12C34.6686 8.12 36.9273 8.82 38.626 10.22C40.3433 11.6013 41.202 13.552 41.202 16.072V20.44C41.202 22.9973 40.3526 24.948 38.654 26.292C36.974 27.6173 34.706 28.28 31.85 28.28C28.994 28.28 26.7166 27.6173 25.018 26.292C23.338 24.948 22.498 22.9973 22.498 20.44V16.072C22.498 13.5333 23.3473 11.5733 25.046 10.192ZM30.338 22.26C30.7113 22.6333 31.2153 22.82 31.85 22.82C32.4846 22.82 32.9886 22.6333 33.362 22.26C33.7353 21.8867 33.922 21.3173 33.922 20.552V15.848C33.922 15.1013 33.7353 14.5413 33.362 14.168C32.9886 13.776 32.4846 13.58 31.85 13.58C31.2153 13.58 30.7113 13.776 30.338 14.168C29.9646 14.5413 29.778 15.1013 29.778 15.848V20.552C29.778 21.3173 29.9646 21.8867 30.338 22.26ZM58.3047 8.4H62.7287C62.9341 8.4 63.1114 8.47467 63.2607 8.624C63.4101 8.77333 63.4847 8.95067 63.4847 9.156V27.244C63.4847 27.4493 63.4101 27.6267 63.2607 27.776C63.1114 27.9253 62.9341 28 62.7287 28H57.6607C57.4554 28 57.2781 27.9253 57.1287 27.776C56.9794 27.6267 56.9047 27.4493 56.9047 27.244V19.572L55.0567 22.596C54.7581 23.0627 54.4127 23.296 54.0207 23.296H52.0607C51.6687 23.296 51.3234 23.0627 51.0247 22.596L49.1767 19.572V27.244C49.1767 27.4493 49.1021 27.6267 48.9527 27.776C48.8034 27.9253 48.6261 28 48.4207 28H43.3527C43.1474 28 42.9701 27.9253 42.8207 27.776C42.6714 27.6267 42.5967 27.4493 42.5967 27.244V9.156C42.5967 8.95067 42.6714 8.77333 42.8207 8.624C42.9701 8.47467 43.1474 8.4 43.3527 8.4H47.7767C48.2994 8.4 48.7007 8.652 48.9807 9.156L53.0407 15.876L57.1007 9.156C57.3807 8.652 57.7821 8.4 58.3047 8.4ZM66.2001 8.4H74.5441C77.2321 8.4 79.3321 8.97867 80.8441 10.136C82.3561 11.2933 83.1121 13.0013 83.1121 15.26C83.1121 17.5187 82.3561 19.1893 80.8441 20.272C79.3507 21.3547 77.2507 21.896 74.5441 21.896H72.7241V27.244C72.7241 27.4493 72.6494 27.6267 72.5001 27.776C72.3507 27.9253 72.1734 28 71.9681 28H66.2001C65.9947 28 65.8174 27.9253 65.6681 27.776C65.5187 27.6267 65.4441 27.4493 65.4441 27.244V9.156C65.4441 8.95067 65.5187 8.77333 65.6681 8.624C65.8174 8.47467 65.9947 8.4 66.2001 8.4ZM72.5841 13.608V16.716H74.5441C74.8801 16.716 75.1787 16.5947 75.4401 16.352C75.7014 16.0907 75.8321 15.7267 75.8321 15.26C75.8321 14.7933 75.7294 14.4013 75.5241 14.084C75.3187 13.7667 74.9921 13.608 74.5441 13.608H72.5841ZM95.7005 8.4H101.188C101.394 8.4 101.571 8.47467 101.72 8.624C101.87 8.77333 101.944 8.95067 101.944 9.156V20.412C101.944 23.0253 101.132 24.9947 99.5085 26.32C97.8845 27.6267 95.6725 28.28 92.8725 28.28C90.0911 28.28 87.8791 27.6267 86.2365 26.32C84.6125 25.0133 83.8005 23.044 83.8005 20.412V9.156C83.8005 8.95067 83.8751 8.77333 84.0245 8.624C84.1738 8.47467 84.3511 8.4 84.5565 8.4H90.0445C90.2498 8.4 90.4271 8.47467 90.5765 8.624C90.7258 8.77333 90.8005 8.95067 90.8005 9.156V20.496C90.8005 21.9333 91.4911 22.652 92.8725 22.652C94.2538 22.652 94.9445 21.9333 94.9445 20.496V9.156C94.9445 8.95067 95.0191 8.77333 95.1685 8.624C95.3178 8.47467 95.4951 8.4 95.7005 8.4ZM103.395 8.4H119.803C120.009 8.4 120.186 8.47467 120.335 8.624C120.485 8.77333 120.559 8.95067 120.559 9.156V13.664C120.559 13.8693 120.485 14.0467 120.335 14.196C120.186 14.3453 120.009 14.42 119.803 14.42H115.155V27.244C115.155 27.4493 115.081 27.6267 114.931 27.776C114.782 27.9253 114.605 28 114.399 28H108.799C108.594 28 108.417 27.9253 108.267 27.776C108.118 27.6267 108.043 27.4493 108.043 27.244V14.42H103.395C103.19 14.42 103.013 14.3453 102.863 14.196C102.714 14.0467 102.639 13.8693 102.639 13.664V9.156C102.639 8.95067 102.714 8.77333 102.863 8.624C103.013 8.47467 103.19 8.4 103.395 8.4ZM128.265 22.54H136.889C137.094 22.54 137.271 22.6147 137.421 22.764C137.57 22.9133 137.645 23.0907 137.645 23.296V27.244C137.645 27.4493 137.57 27.6267 137.421 27.776C137.271 27.9253 137.094 28 136.889 28H122.301C122.095 28 121.918 27.9253 121.769 27.776C121.619 27.6267 121.545 27.4493 121.545 27.244V9.156C121.545 8.95067 121.619 8.77333 121.769 8.624C121.918 8.47467 122.095 8.4 122.301 8.4H136.665C136.87 8.4 137.047 8.47467 137.197 8.624C137.346 8.77333 137.421 8.95067 137.421 9.156V13.104C137.421 13.3093 137.346 13.4867 137.197 13.636C137.047 13.7853 136.87 13.86 136.665 13.86H128.265V15.624H136.049C136.254 15.624 136.431 15.6987 136.581 15.848C136.73 15.9973 136.805 16.1747 136.805 16.38V20.02C136.805 20.2253 136.73 20.4027 136.581 20.552C136.431 20.7013 136.254 20.776 136.049 20.776H128.265V22.54ZM157.365 27.076C157.421 27.188 157.449 27.3093 157.449 27.44C157.449 27.5707 157.384 27.7013 157.253 27.832C157.141 27.944 157.001 28 156.833 28H151.093C150.515 28 150.113 27.748 149.889 27.244L147.481 21.896H146.333V27.244C146.333 27.4493 146.259 27.6267 146.109 27.776C145.96 27.9253 145.783 28 145.577 28H140.089C139.884 28 139.707 27.9253 139.557 27.776C139.408 27.6267 139.333 27.4493 139.333 27.244V9.156C139.333 8.95067 139.408 8.77333 139.557 8.624C139.707 8.47467 139.884 8.4 140.089 8.4H148.377C151.065 8.4 153.165 9.00667 154.677 10.22C156.189 11.4147 156.945 13.1413 156.945 15.4C156.945 17.64 155.937 19.404 153.921 20.692L157.365 27.076ZM146.333 13.608V16.576H148.377C148.788 16.576 149.105 16.4453 149.329 16.184C149.553 15.904 149.665 15.5587 149.665 15.148C149.665 14.7373 149.553 14.3827 149.329 14.084C149.124 13.7667 148.807 13.608 148.377 13.608H146.333ZM165.72 15.304C165.72 14.104 166.208 13.08 167.184 12.232C168.176 11.368 169.584 10.936 171.408 10.936C173.248 10.936 174.648 11.368 175.608 12.232C176.568 13.08 177.048 14.096 177.048 15.28C177.048 16.16 176.792 16.944 176.28 17.632C175.784 18.304 175.016 18.944 173.976 19.552L175.776 21.424C176.176 21.008 176.568 20.352 176.952 19.456C177.016 19.296 177.176 19.216 177.432 19.216H181.056C181.184 19.216 181.288 19.256 181.368 19.336C181.448 19.416 181.488 19.52 181.488 19.648C181.488 20.112 181.16 20.84 180.504 21.832C179.864 22.824 179.24 23.64 178.632 24.28L181.488 27.256C181.584 27.352 181.632 27.464 181.632 27.592C181.632 27.704 181.584 27.8 181.488 27.88C181.408 27.96 181.312 28 181.2 28H176.304C176.112 28 175.912 27.92 175.704 27.76L175.056 27.184C173.872 27.952 172.32 28.336 170.4 28.336C168.48 28.336 166.936 27.896 165.768 27.016C164.6 26.12 164.016 24.84 164.016 23.176C164.016 21.304 165.056 19.784 167.136 18.616C166.192 17.608 165.72 16.504 165.72 15.304ZM169.248 22.84C169.248 23.288 169.392 23.64 169.68 23.896C169.984 24.152 170.384 24.28 170.88 24.28C171.376 24.28 171.784 24.184 172.104 23.992L169.992 21.808C169.496 22.048 169.248 22.392 169.248 22.84ZM172.44 15.472C172.44 15.216 172.352 15.008 172.176 14.848C172.016 14.688 171.808 14.608 171.552 14.608C171.312 14.608 171.104 14.696 170.928 14.872C170.752 15.032 170.664 15.272 170.664 15.592C170.664 15.896 170.88 16.248 171.312 16.648C172.064 16.312 172.44 15.92 172.44 15.472ZM196.686 28H192.682C192.327 28 192.029 27.8973 191.786 27.692C191.562 27.468 191.431 27.216 191.394 26.936L188.818 9.1V9.016C188.818 8.848 188.874 8.708 188.986 8.596C189.117 8.46533 189.266 8.4 189.434 8.4H194.642C195.258 8.4 195.594 8.652 195.65 9.156L196.602 17.052L197.75 13.552C197.937 13.0107 198.254 12.74 198.702 12.74H201.558C202.006 12.74 202.323 13.0107 202.51 13.552L203.658 17.024L204.61 9.156C204.666 8.652 205.002 8.4 205.618 8.4H210.826C210.994 8.4 211.134 8.46533 211.246 8.596C211.377 8.708 211.442 8.848 211.442 9.016V9.1L208.866 26.936C208.829 27.216 208.689 27.468 208.446 27.692C208.222 27.8973 207.933 28 207.578 28H203.574C202.995 28 202.613 27.748 202.426 27.244L200.13 21.504L197.834 27.244C197.647 27.748 197.265 28 196.686 28ZM219.28 22.54H227.904C228.109 22.54 228.287 22.6147 228.436 22.764C228.585 22.9133 228.66 23.0907 228.66 23.296V27.244C228.66 27.4493 228.585 27.6267 228.436 27.776C228.287 27.9253 228.109 28 227.904 28H213.316C213.111 28 212.933 27.9253 212.784 27.776C212.635 27.6267 212.56 27.4493 212.56 27.244V9.156C212.56 8.95067 212.635 8.77333 212.784 8.624C212.933 8.47467 213.111 8.4 213.316 8.4H227.68C227.885 8.4 228.063 8.47467 228.212 8.624C228.361 8.77333 228.436 8.95067 228.436 9.156V13.104C228.436 13.3093 228.361 13.4867 228.212 13.636C228.063 13.7853 227.885 13.86 227.68 13.86H219.28V15.624H227.064C227.269 15.624 227.447 15.6987 227.596 15.848C227.745 15.9973 227.82 16.1747 227.82 16.38V20.02C227.82 20.2253 227.745 20.4027 227.596 20.552C227.447 20.7013 227.269 20.776 227.064 20.776H219.28V22.54ZM240.541 15.4C240.746 15.1573 240.849 14.868 240.849 14.532C240.849 14.196 240.746 13.8973 240.541 13.636C240.354 13.356 240.074 13.216 239.701 13.216H237.349V15.764H239.701C240.074 15.764 240.354 15.6427 240.541 15.4ZM237.349 20.44V23.184H239.953C240.382 23.184 240.7 23.044 240.905 22.764C241.129 22.4653 241.241 22.1387 241.241 21.784V21.756C241.241 21.4013 241.12 21.0933 240.877 20.832C240.653 20.5707 240.345 20.44 239.953 20.44H237.349ZM240.681 28H231.105C230.9 28 230.722 27.9253 230.573 27.776C230.424 27.6267 230.349 27.4493 230.349 27.244V9.156C230.349 8.95067 230.424 8.77333 230.573 8.624C230.722 8.47467 230.9 8.4 231.105 8.4H240.401C243.052 8.4 245.002 8.88533 246.253 9.856C247.522 10.808 248.157 12.2547 248.157 14.196V14.28C248.157 15.0827 247.924 15.8013 247.457 16.436C246.99 17.052 246.477 17.5 245.917 17.78C246.664 18.0787 247.289 18.6107 247.793 19.376C248.316 20.1227 248.577 20.944 248.577 21.84C248.577 25.9467 245.945 28 240.681 28ZM255.77 14.56C255.77 12.656 256.554 11.1067 258.122 9.912C259.709 8.71733 261.781 8.12 264.338 8.12C266.914 8.12 269.014 8.74533 270.638 9.996C272.281 11.2467 273.102 12.5533 273.102 13.916C273.102 14.084 273.037 14.2333 272.906 14.364C272.794 14.476 272.663 14.532 272.514 14.532H266.914C266.485 14.532 266.093 14.3733 265.738 14.056C265.383 13.7387 264.907 13.58 264.31 13.58C263.414 13.58 262.966 13.8413 262.966 14.364C262.966 14.644 263.181 14.8773 263.61 15.064C264.058 15.2507 264.879 15.4187 266.074 15.568C268.855 15.9227 270.834 16.576 272.01 17.528C273.205 18.4613 273.802 19.8893 273.802 21.812C273.802 23.716 272.925 25.2747 271.17 26.488C269.434 27.6827 267.157 28.28 264.338 28.28C261.519 28.28 259.307 27.7013 257.702 26.544C256.097 25.3867 255.294 23.9773 255.294 22.316C255.294 22.148 255.35 22.008 255.462 21.896C255.593 21.7653 255.742 21.7 255.91 21.7H261.23C261.622 21.7 262.051 21.8867 262.518 22.26C263.003 22.6333 263.666 22.82 264.506 22.82C265.906 22.82 266.606 22.5587 266.606 22.036C266.606 21.7 266.354 21.448 265.85 21.28C265.346 21.0933 264.394 20.9067 262.994 20.72C258.178 20.0853 255.77 18.032 255.77 14.56ZM274.55 8.4H290.958C291.163 8.4 291.34 8.47467 291.49 8.624C291.639 8.77333 291.714 8.95067 291.714 9.156V13.664C291.714 13.8693 291.639 14.0467 291.49 14.196C291.34 14.3453 291.163 14.42 290.958 14.42H286.31V27.244C286.31 27.4493 286.235 27.6267 286.086 27.776C285.936 27.9253 285.759 28 285.554 28H279.954C279.748 28 279.571 27.9253 279.422 27.776C279.272 27.6267 279.198 27.4493 279.198 27.244V14.42H274.55C274.344 14.42 274.167 14.3453 274.018 14.196C273.868 14.0467 273.794 13.8693 273.794 13.664V9.156C273.794 8.95067 273.868 8.77333 274.018 8.624C274.167 8.47467 274.344 8.4 274.55 8.4ZM304.319 8.4H309.807C310.013 8.4 310.19 8.47467 310.339 8.624C310.489 8.77333 310.563 8.95067 310.563 9.156V20.412C310.563 23.0253 309.751 24.9947 308.127 26.32C306.503 27.6267 304.291 28.28 301.491 28.28C298.71 28.28 296.498 27.6267 294.855 26.32C293.231 25.0133 292.419 23.044 292.419 20.412V9.156C292.419 8.95067 292.494 8.77333 292.643 8.624C292.793 8.47467 292.97 8.4 293.175 8.4H298.663C298.869 8.4 299.046 8.47467 299.195 8.624C299.345 8.77333 299.419 8.95067 299.419 9.156V20.496C299.419 21.9333 300.11 22.652 301.491 22.652C302.873 22.652 303.563 21.9333 303.563 20.496V9.156C303.563 8.95067 303.638 8.77333 303.787 8.624C303.937 8.47467 304.114 8.4 304.319 8.4ZM312.994 8.4H327.106C327.311 8.4 327.489 8.47467 327.638 8.624C327.787 8.77333 327.862 8.95067 327.862 9.156V13.412C327.862 13.6173 327.787 13.7947 327.638 13.944C327.489 14.0933 327.311 14.168 327.106 14.168H319.098V16.24H326.546C326.751 16.24 326.929 16.3147 327.078 16.464C327.227 16.6133 327.302 16.7907 327.302 16.996V21.224C327.302 21.4293 327.227 21.6067 327.078 21.756C326.929 21.9053 326.751 21.98 326.546 21.98H319.098V27.244C319.098 27.4493 319.023 27.6267 318.874 27.776C318.725 27.9253 318.547 28 318.342 28H312.994C312.789 28 312.611 27.9253 312.462 27.776C312.313 27.6267 312.238 27.4493 312.238 27.244V9.156C312.238 8.95067 312.313 8.77333 312.462 8.624C312.611 8.47467 312.789 8.4 312.994 8.4ZM329.88 8.4H343.992C344.198 8.4 344.375 8.47467 344.524 8.624C344.674 8.77333 344.748 8.95067 344.748 9.156V13.412C344.748 13.6173 344.674 13.7947 344.524 13.944C344.375 14.0933 344.198 14.168 343.992 14.168H335.984V16.24H343.432C343.638 16.24 343.815 16.3147 343.964 16.464C344.114 16.6133 344.188 16.7907 344.188 16.996V21.224C344.188 21.4293 344.114 21.6067 343.964 21.756C343.815 21.9053 343.638 21.98 343.432 21.98H335.984V27.244C335.984 27.4493 335.91 27.6267 335.76 27.776C335.611 27.9253 335.434 28 335.228 28H329.88C329.675 28 329.498 27.9253 329.348 27.776C329.199 27.6267 329.124 27.4493 329.124 27.244V9.156C329.124 8.95067 329.199 8.77333 329.348 8.624C329.498 8.47467 329.675 8.4 329.88 8.4Z" fill="#FF6565"/>
<path d="M8.54 13.848V18.552C8.54 20.064 9.23067 20.82 10.612 20.82C11.676 20.82 12.376 20.316 12.712 19.308C12.8053 18.9907 12.9173 18.776 13.048 18.664C13.1973 18.552 13.4307 18.496 13.748 18.496H19.46C19.628 18.496 19.768 18.5613 19.88 18.692C20.0107 18.804 20.076 18.944 20.076 19.112C20.076 20.736 19.6093 22.0987 18.676 23.2C16.9587 25.2533 14.28 26.28 10.64 26.28C7.784 26.28 5.50667 25.6547 3.808 24.404C2.10933 23.1347 1.26 21.1933 1.26 18.58V13.82C1.26 11.2627 2.128 9.34 3.864 8.052C5.6 6.764 7.85867 6.12 10.64 6.12C14.28 6.12 16.9587 7.14667 18.676 9.2C19.6093 10.3013 20.076 11.664 20.076 13.288C20.076 13.456 20.0107 13.6053 19.88 13.736C19.768 13.848 19.628 13.904 19.46 13.904H13.748C13.4493 13.904 13.2253 13.848 13.076 13.736C12.9453 13.624 12.824 13.4093 12.712 13.092C12.3573 12.084 11.6573 11.58 10.612 11.58C9.23067 11.58 8.54 12.336 8.54 13.848ZM23.046 8.192C24.7633 6.81067 27.0313 6.12 29.85 6.12C32.6686 6.12 34.9273 6.82 36.626 8.22C38.3433 9.60133 39.202 11.552 39.202 14.072V18.44C39.202 20.9973 38.3526 22.948 36.654 24.292C34.974 25.6173 32.706 26.28 29.85 26.28C26.994 26.28 24.7166 25.6173 23.018 24.292C21.338 22.948 20.498 20.9973 20.498 18.44V14.072C20.498 11.5333 21.3473 9.57333 23.046 8.192ZM28.338 20.26C28.7113 20.6333 29.2153 20.82 29.85 20.82C30.4846 20.82 30.9886 20.6333 31.362 20.26C31.7353 19.8867 31.922 19.3173 31.922 18.552V13.848C31.922 13.1013 31.7353 12.5413 31.362 12.168C30.9886 11.776 30.4846 11.58 29.85 11.58C29.2153 11.58 28.7113 11.776 28.338 12.168C27.9646 12.5413 27.778 13.1013 27.778 13.848V18.552C27.778 19.3173 27.9646 19.8867 28.338 20.26ZM56.3047 6.4H60.7287C60.9341 6.4 61.1114 6.47467 61.2607 6.624C61.4101 6.77333 61.4847 6.95067 61.4847 7.156V25.244C61.4847 25.4493 61.4101 25.6267 61.2607 25.776C61.1114 25.9253 60.9341 26 60.7287 26H55.6607C55.4554 26 55.2781 25.9253 55.1287 25.776C54.9794 25.6267 54.9047 25.4493 54.9047 25.244V17.572L53.0567 20.596C52.7581 21.0627 52.4127 21.296 52.0207 21.296H50.0607C49.6687 21.296 49.3234 21.0627 49.0247 20.596L47.1767 17.572V25.244C47.1767 25.4493 47.1021 25.6267 46.9527 25.776C46.8034 25.9253 46.6261 26 46.4207 26H41.3527C41.1474 26 40.9701 25.9253 40.8207 25.776C40.6714 25.6267 40.5967 25.4493 40.5967 25.244V7.156C40.5967 6.95067 40.6714 6.77333 40.8207 6.624C40.9701 6.47467 41.1474 6.4 41.3527 6.4H45.7767C46.2994 6.4 46.7007 6.652 46.9807 7.156L51.0407 13.876L55.1007 7.156C55.3807 6.652 55.7821 6.4 56.3047 6.4ZM64.2001 6.4H72.5441C75.2321 6.4 77.3321 6.97867 78.8441 8.136C80.3561 9.29333 81.1121 11.0013 81.1121 13.26C81.1121 15.5187 80.3561 17.1893 78.8441 18.272C77.3507 19.3547 75.2507 19.896 72.5441 19.896H70.7241V25.244C70.7241 25.4493 70.6494 25.6267 70.5001 25.776C70.3507 25.9253 70.1734 26 69.9681 26H64.2001C63.9947 26 63.8174 25.9253 63.6681 25.776C63.5187 25.6267 63.4441 25.4493 63.4441 25.244V7.156C63.4441 6.95067 63.5187 6.77333 63.6681 6.624C63.8174 6.47467 63.9947 6.4 64.2001 6.4ZM70.5841 11.608V14.716H72.5441C72.8801 14.716 73.1787 14.5947 73.4401 14.352C73.7014 14.0907 73.8321 13.7267 73.8321 13.26C73.8321 12.7933 73.7294 12.4013 73.5241 12.084C73.3187 11.7667 72.9921 11.608 72.5441 11.608H70.5841ZM93.7005 6.4H99.1885C99.3938 6.4 99.5711 6.47467 99.7205 6.624C99.8698 6.77333 99.9445 6.95067 99.9445 7.156V18.412C99.9445 21.0253 99.1325 22.9947 97.5085 24.32C95.8845 25.6267 93.6725 26.28 90.8725 26.28C88.0911 26.28 85.8791 25.6267 84.2365 24.32C82.6125 23.0133 81.8005 21.044 81.8005 18.412V7.156C81.8005 6.95067 81.8751 6.77333 82.0245 6.624C82.1738 6.47467 82.3511 6.4 82.5565 6.4H88.0445C88.2498 6.4 88.4271 6.47467 88.5765 6.624C88.7258 6.77333 88.8005 6.95067 88.8005 7.156V18.496C88.8005 19.9333 89.4911 20.652 90.8725 20.652C92.2538 20.652 92.9445 19.9333 92.9445 18.496V7.156C92.9445 6.95067 93.0191 6.77333 93.1685 6.624C93.3178 6.47467 93.4951 6.4 93.7005 6.4ZM101.395 6.4H117.803C118.009 6.4 118.186 6.47467 118.335 6.624C118.485 6.77333 118.559 6.95067 118.559 7.156V11.664C118.559 11.8693 118.485 12.0467 118.335 12.196C118.186 12.3453 118.009 12.42 117.803 12.42H113.155V25.244C113.155 25.4493 113.081 25.6267 112.931 25.776C112.782 25.9253 112.605 26 112.399 26H106.799C106.594 26 106.417 25.9253 106.267 25.776C106.118 25.6267 106.043 25.4493 106.043 25.244V12.42H101.395C101.19 12.42 101.013 12.3453 100.863 12.196C100.714 12.0467 100.639 11.8693 100.639 11.664V7.156C100.639 6.95067 100.714 6.77333 100.863 6.624C101.013 6.47467 101.19 6.4 101.395 6.4ZM126.265 20.54H134.889C135.094 20.54 135.271 20.6147 135.421 20.764C135.57 20.9133 135.645 21.0907 135.645 21.296V25.244C135.645 25.4493 135.57 25.6267 135.421 25.776C135.271 25.9253 135.094 26 134.889 26H120.301C120.095 26 119.918 25.9253 119.769 25.776C119.619 25.6267 119.545 25.4493 119.545 25.244V7.156C119.545 6.95067 119.619 6.77333 119.769 6.624C119.918 6.47467 120.095 6.4 120.301 6.4H134.665C134.87 6.4 135.047 6.47467 135.197 6.624C135.346 6.77333 135.421 6.95067 135.421 7.156V11.104C135.421 11.3093 135.346 11.4867 135.197 11.636C135.047 11.7853 134.87 11.86 134.665 11.86H126.265V13.624H134.049C134.254 13.624 134.431 13.6987 134.581 13.848C134.73 13.9973 134.805 14.1747 134.805 14.38V18.02C134.805 18.2253 134.73 18.4027 134.581 18.552C134.431 18.7013 134.254 18.776 134.049 18.776H126.265V20.54ZM155.365 25.076C155.421 25.188 155.449 25.3093 155.449 25.44C155.449 25.5707 155.384 25.7013 155.253 25.832C155.141 25.944 155.001 26 154.833 26H149.093C148.515 26 148.113 25.748 147.889 25.244L145.481 19.896H144.333V25.244C144.333 25.4493 144.259 25.6267 144.109 25.776C143.96 25.9253 143.783 26 143.577 26H138.089C137.884 26 137.707 25.9253 137.557 25.776C137.408 25.6267 137.333 25.4493 137.333 25.244V7.156C137.333 6.95067 137.408 6.77333 137.557 6.624C137.707 6.47467 137.884 6.4 138.089 6.4H146.377C149.065 6.4 151.165 7.00667 152.677 8.22C154.189 9.41467 154.945 11.1413 154.945 13.4C154.945 15.64 153.937 17.404 151.921 18.692L155.365 25.076ZM144.333 11.608V14.576H146.377C146.788 14.576 147.105 14.4453 147.329 14.184C147.553 13.904 147.665 13.5587 147.665 13.148C147.665 12.7373 147.553 12.3827 147.329 12.084C147.124 11.7667 146.807 11.608 146.377 11.608H144.333ZM163.72 13.304C163.72 12.104 164.208 11.08 165.184 10.232C166.176 9.368 167.584 8.936 169.408 8.936C171.248 8.936 172.648 9.368 173.608 10.232C174.568 11.08 175.048 12.096 175.048 13.28C175.048 14.16 174.792 14.944 174.28 15.632C173.784 16.304 173.016 16.944 171.976 17.552L173.776 19.424C174.176 19.008 174.568 18.352 174.952 17.456C175.016 17.296 175.176 17.216 175.432 17.216H179.056C179.184 17.216 179.288 17.256 179.368 17.336C179.448 17.416 179.488 17.52 179.488 17.648C179.488 18.112 179.16 18.84 178.504 19.832C177.864 20.824 177.24 21.64 176.632 22.28L179.488 25.256C179.584 25.352 179.632 25.464 179.632 25.592C179.632 25.704 179.584 25.8 179.488 25.88C179.408 25.96 179.312 26 179.2 26H174.304C174.112 26 173.912 25.92 173.704 25.76L173.056 25.184C171.872 25.952 170.32 26.336 168.4 26.336C166.48 26.336 164.936 25.896 163.768 25.016C162.6 24.12 162.016 22.84 162.016 21.176C162.016 19.304 163.056 17.784 165.136 16.616C164.192 15.608 163.72 14.504 163.72 13.304ZM167.248 20.84C167.248 21.288 167.392 21.64 167.68 21.896C167.984 22.152 168.384 22.28 168.88 22.28C169.376 22.28 169.784 22.184 170.104 21.992L167.992 19.808C167.496 20.048 167.248 20.392 167.248 20.84ZM170.44 13.472C170.44 13.216 170.352 13.008 170.176 12.848C170.016 12.688 169.808 12.608 169.552 12.608C169.312 12.608 169.104 12.696 168.928 12.872C168.752 13.032 168.664 13.272 168.664 13.592C168.664 13.896 168.88 14.248 169.312 14.648C170.064 14.312 170.44 13.92 170.44 13.472ZM194.686 26H190.682C190.327 26 190.029 25.8973 189.786 25.692C189.562 25.468 189.431 25.216 189.394 24.936L186.818 7.1V7.016C186.818 6.848 186.874 6.708 186.986 6.596C187.117 6.46533 187.266 6.4 187.434 6.4H192.642C193.258 6.4 193.594 6.652 193.65 7.156L194.602 15.052L195.75 11.552C195.937 11.0107 196.254 10.74 196.702 10.74H199.558C200.006 10.74 200.323 11.0107 200.51 11.552L201.658 15.024L202.61 7.156C202.666 6.652 203.002 6.4 203.618 6.4H208.826C208.994 6.4 209.134 6.46533 209.246 6.596C209.377 6.708 209.442 6.848 209.442 7.016V7.1L206.866 24.936C206.829 25.216 206.689 25.468 206.446 25.692C206.222 25.8973 205.933 26 205.578 26H201.574C200.995 26 200.613 25.748 200.426 25.244L198.13 19.504L195.834 25.244C195.647 25.748 195.265 26 194.686 26ZM217.28 20.54H225.904C226.109 20.54 226.287 20.6147 226.436 20.764C226.585 20.9133 226.66 21.0907 226.66 21.296V25.244C226.66 25.4493 226.585 25.6267 226.436 25.776C226.287 25.9253 226.109 26 225.904 26H211.316C211.111 26 210.933 25.9253 210.784 25.776C210.635 25.6267 210.56 25.4493 210.56 25.244V7.156C210.56 6.95067 210.635 6.77333 210.784 6.624C210.933 6.47467 211.111 6.4 211.316 6.4H225.68C225.885 6.4 226.063 6.47467 226.212 6.624C226.361 6.77333 226.436 6.95067 226.436 7.156V11.104C226.436 11.3093 226.361 11.4867 226.212 11.636C226.063 11.7853 225.885 11.86 225.68 11.86H217.28V13.624H225.064C225.269 13.624 225.447 13.6987 225.596 13.848C225.745 13.9973 225.82 14.1747 225.82 14.38V18.02C225.82 18.2253 225.745 18.4027 225.596 18.552C225.447 18.7013 225.269 18.776 225.064 18.776H217.28V20.54ZM238.541 13.4C238.746 13.1573 238.849 12.868 238.849 12.532C238.849 12.196 238.746 11.8973 238.541 11.636C238.354 11.356 238.074 11.216 237.701 11.216H235.349V13.764H237.701C238.074 13.764 238.354 13.6427 238.541 13.4ZM235.349 18.44V21.184H237.953C238.382 21.184 238.7 21.044 238.905 20.764C239.129 20.4653 239.241 20.1387 239.241 19.784V19.756C239.241 19.4013 239.12 19.0933 238.877 18.832C238.653 18.5707 238.345 18.44 237.953 18.44H235.349ZM238.681 26H229.105C228.9 26 228.722 25.9253 228.573 25.776C228.424 25.6267 228.349 25.4493 228.349 25.244V7.156C228.349 6.95067 228.424 6.77333 228.573 6.624C228.722 6.47467 228.9 6.4 229.105 6.4H238.401C241.052 6.4 243.002 6.88533 244.253 7.856C245.522 8.808 246.157 10.2547 246.157 12.196V12.28C246.157 13.0827 245.924 13.8013 245.457 14.436C244.99 15.052 244.477 15.5 243.917 15.78C244.664 16.0787 245.289 16.6107 245.793 17.376C246.316 18.1227 246.577 18.944 246.577 19.84C246.577 23.9467 243.945 26 238.681 26ZM253.77 12.56C253.77 10.656 254.554 9.10667 256.122 7.912C257.709 6.71733 259.781 6.12 262.338 6.12C264.914 6.12 267.014 6.74533 268.638 7.996C270.281 9.24667 271.102 10.5533 271.102 11.916C271.102 12.084 271.037 12.2333 270.906 12.364C270.794 12.476 270.663 12.532 270.514 12.532H264.914C264.485 12.532 264.093 12.3733 263.738 12.056C263.383 11.7387 262.907 11.58 262.31 11.58C261.414 11.58 260.966 11.8413 260.966 12.364C260.966 12.644 261.181 12.8773 261.61 13.064C262.058 13.2507 262.879 13.4187 264.074 13.568C266.855 13.9227 268.834 14.576 270.01 15.528C271.205 16.4613 271.802 17.8893 271.802 19.812C271.802 21.716 270.925 23.2747 269.17 24.488C267.434 25.6827 265.157 26.28 262.338 26.28C259.519 26.28 257.307 25.7013 255.702 24.544C254.097 23.3867 253.294 21.9773 253.294 20.316C253.294 20.148 253.35 20.008 253.462 19.896C253.593 19.7653 253.742 19.7 253.91 19.7H259.23C259.622 19.7 260.051 19.8867 260.518 20.26C261.003 20.6333 261.666 20.82 262.506 20.82C263.906 20.82 264.606 20.5587 264.606 20.036C264.606 19.7 264.354 19.448 263.85 19.28C263.346 19.0933 262.394 18.9067 260.994 18.72C256.178 18.0853 253.77 16.032 253.77 12.56ZM272.55 6.4H288.958C289.163 6.4 289.34 6.47467 289.49 6.624C289.639 6.77333 289.714 6.95067 289.714 7.156V11.664C289.714 11.8693 289.639 12.0467 289.49 12.196C289.34 12.3453 289.163 12.42 288.958 12.42H284.31V25.244C284.31 25.4493 284.235 25.6267 284.086 25.776C283.936 25.9253 283.759 26 283.554 26H277.954C277.748 26 277.571 25.9253 277.422 25.776C277.272 25.6267 277.198 25.4493 277.198 25.244V12.42H272.55C272.344 12.42 272.167 12.3453 272.018 12.196C271.868 12.0467 271.794 11.8693 271.794 11.664V7.156C271.794 6.95067 271.868 6.77333 272.018 6.624C272.167 6.47467 272.344 6.4 272.55 6.4ZM302.319 6.4H307.807C308.013 6.4 308.19 6.47467 308.339 6.624C308.489 6.77333 308.563 6.95067 308.563 7.156V18.412C308.563 21.0253 307.751 22.9947 306.127 24.32C304.503 25.6267 302.291 26.28 299.491 26.28C296.71 26.28 294.498 25.6267 292.855 24.32C291.231 23.0133 290.419 21.044 290.419 18.412V7.156C290.419 6.95067 290.494 6.77333 290.643 6.624C290.793 6.47467 290.97 6.4 291.175 6.4H296.663C296.869 6.4 297.046 6.47467 297.195 6.624C297.345 6.77333 297.419 6.95067 297.419 7.156V18.496C297.419 19.9333 298.11 20.652 299.491 20.652C300.873 20.652 301.563 19.9333 301.563 18.496V7.156C301.563 6.95067 301.638 6.77333 301.787 6.624C301.937 6.47467 302.114 6.4 302.319 6.4ZM310.994 6.4H325.106C325.311 6.4 325.489 6.47467 325.638 6.624C325.787 6.77333 325.862 6.95067 325.862 7.156V11.412C325.862 11.6173 325.787 11.7947 325.638 11.944C325.489 12.0933 325.311 12.168 325.106 12.168H317.098V14.24H324.546C324.751 14.24 324.929 14.3147 325.078 14.464C325.227 14.6133 325.302 14.7907 325.302 14.996V19.224C325.302 19.4293 325.227 19.6067 325.078 19.756C324.929 19.9053 324.751 19.98 324.546 19.98H317.098V25.244C317.098 25.4493 317.023 25.6267 316.874 25.776C316.725 25.9253 316.547 26 316.342 26H310.994C310.789 26 310.611 25.9253 310.462 25.776C310.313 25.6267 310.238 25.4493 310.238 25.244V7.156C310.238 6.95067 310.313 6.77333 310.462 6.624C310.611 6.47467 310.789 6.4 310.994 6.4ZM327.88 6.4H341.992C342.198 6.4 342.375 6.47467 342.524 6.624C342.674 6.77333 342.748 6.95067 342.748 7.156V11.412C342.748 11.6173 342.674 11.7947 342.524 11.944C342.375 12.0933 342.198 12.168 341.992 12.168H333.984V14.24H341.432C341.638 14.24 341.815 14.3147 341.964 14.464C342.114 14.6133 342.188 14.7907 342.188 14.996V19.224C342.188 19.4293 342.114 19.6067 341.964 19.756C341.815 19.9053 341.638 19.98 341.432 19.98H333.984V25.244C333.984 25.4493 333.91 25.6267 333.76 25.776C333.611 25.9253 333.434 26 333.228 26H327.88C327.675 26 327.498 25.9253 327.348 25.776C327.199 25.6267 327.124 25.4493 327.124 25.244V7.156C327.124 6.95067 327.199 6.77333 327.348 6.624C327.498 6.47467 327.675 6.4 327.88 6.4Z" fill="#F8EBD8"/>
</svg>
