<svg width="394" height="103" viewBox="0 0 394 103" fill="none" xmlns="http://www.w3.org/2000/svg">
<path d="M27.3 29.96V40.04C27.3 43.28 28.78 44.9 31.74 44.9C34.02 44.9 35.52 43.82 36.24 41.66C36.44 40.98 36.68 40.52 36.96 40.28C37.28 40.04 37.78 39.92 38.46 39.92H50.7C51.06 39.92 51.36 40.06 51.6 40.34C51.88 40.58 52.02 40.88 52.02 41.24C52.02 44.72 51.02 47.64 49.02 50C45.34 54.4 39.6 56.6 31.8 56.6C25.68 56.6 20.8 55.26 17.16 52.58C13.52 49.86 11.7 45.7 11.7 40.1V29.9C11.7 24.42 13.56 20.3 17.28 17.54C21 14.78 25.84 13.4 31.8 13.4C39.6 13.4 45.34 15.6 49.02 20C51.02 22.36 52.02 25.28 52.02 28.76C52.02 29.12 51.88 29.44 51.6 29.72C51.36 29.96 51.06 30.08 50.7 30.08H38.46C37.82 30.08 37.34 29.96 37.02 29.72C36.74 29.48 36.48 29.02 36.24 28.34C35.48 26.18 33.98 25.1 31.74 25.1C28.78 25.1 27.3 26.72 27.3 29.96ZM58.3842 17.84C62.0642 14.88 66.9242 13.4 72.9642 13.4C79.0042 13.4 83.8442 14.9 87.4842 17.9C91.1642 20.86 93.0042 25.04 93.0042 30.44V39.8C93.0042 45.28 91.1842 49.46 87.5442 52.34C83.9442 55.18 79.0842 56.6 72.9642 56.6C66.8442 56.6 61.9642 55.18 58.3242 52.34C54.7242 49.46 52.9242 45.28 52.9242 39.8V30.44C52.9242 25 54.7442 20.8 58.3842 17.84ZM69.7242 43.7C70.5242 44.5 71.6042 44.9 72.9642 44.9C74.3242 44.9 75.4042 44.5 76.2042 43.7C77.0042 42.9 77.4042 41.68 77.4042 40.04V29.96C77.4042 28.36 77.0042 27.16 76.2042 26.36C75.4042 25.52 74.3242 25.1 72.9642 25.1C71.6042 25.1 70.5242 25.52 69.7242 26.36C68.9242 27.16 68.5242 28.36 68.5242 29.96V40.04C68.5242 41.68 68.9242 42.9 69.7242 43.7ZM129.653 14H139.133C139.573 14 139.953 14.16 140.273 14.48C140.593 14.8 140.753 15.18 140.753 15.62V54.38C140.753 54.82 140.593 55.2 140.273 55.52C139.953 55.84 139.573 56 139.133 56H128.273C127.833 56 127.453 55.84 127.133 55.52C126.813 55.2 126.653 54.82 126.653 54.38V37.94L122.693 44.42C122.053 45.42 121.313 45.92 120.473 45.92H116.273C115.433 45.92 114.693 45.42 114.053 44.42L110.093 37.94V54.38C110.093 54.82 109.933 55.2 109.613 55.52C109.293 55.84 108.913 56 108.473 56H97.613C97.173 56 96.793 55.84 96.473 55.52C96.153 55.2 95.993 54.82 95.993 54.38V15.62C95.993 15.18 96.153 14.8 96.473 14.48C96.793 14.16 97.173 14 97.613 14H107.093C108.213 14 109.073 14.54 109.673 15.62L118.373 30.02L127.073 15.62C127.673 14.54 128.533 14 129.653 14ZM146.572 14H164.452C170.212 14 174.712 15.24 177.952 17.72C181.192 20.2 182.812 23.86 182.812 28.7C182.812 33.54 181.192 37.12 177.952 39.44C174.752 41.76 170.252 42.92 164.452 42.92H160.552V54.38C160.552 54.82 160.392 55.2 160.072 55.52C159.752 55.84 159.372 56 158.932 56H146.572C146.132 56 145.752 55.84 145.432 55.52C145.112 55.2 144.952 54.82 144.952 54.38V15.62C144.952 15.18 145.112 14.8 145.432 14.48C145.752 14.16 146.132 14 146.572 14ZM160.252 25.16V31.82H164.452C165.172 31.82 165.812 31.56 166.372 31.04C166.932 30.48 167.212 29.7 167.212 28.7C167.212 27.7 166.992 26.86 166.552 26.18C166.112 25.5 165.412 25.16 164.452 25.16H160.252ZM209.787 14H221.547C221.987 14 222.367 14.16 222.687 14.48C223.007 14.8 223.167 15.18 223.167 15.62V39.74C223.167 45.34 221.427 49.56 217.947 52.4C214.467 55.2 209.727 56.6 203.727 56.6C197.767 56.6 193.027 55.2 189.507 52.4C186.027 49.6 184.287 45.38 184.287 39.74V15.62C184.287 15.18 184.447 14.8 184.767 14.48C185.087 14.16 185.467 14 185.907 14H197.667C198.107 14 198.487 14.16 198.807 14.48C199.127 14.8 199.287 15.18 199.287 15.62V39.92C199.287 43 200.767 44.54 203.727 44.54C206.687 44.54 208.167 43 208.167 39.92V15.62C208.167 15.18 208.327 14.8 208.647 14.48C208.967 14.16 209.347 14 209.787 14ZM226.275 14H261.435C261.875 14 262.255 14.16 262.575 14.48C262.895 14.8 263.055 15.18 263.055 15.62V25.28C263.055 25.72 262.895 26.1 262.575 26.42C262.255 26.74 261.875 26.9 261.435 26.9H251.475V54.38C251.475 54.82 251.315 55.2 250.995 55.52C250.675 55.84 250.295 56 249.855 56H237.855C237.415 56 237.035 55.84 236.715 55.52C236.395 55.2 236.235 54.82 236.235 54.38V26.9H226.275C225.835 26.9 225.455 26.74 225.135 26.42C224.815 26.1 224.655 25.72 224.655 25.28V15.62C224.655 15.18 224.815 14.8 225.135 14.48C225.455 14.16 225.835 14 226.275 14ZM279.567 44.3H298.047C298.487 44.3 298.867 44.46 299.187 44.78C299.507 45.1 299.667 45.48 299.667 45.92V54.38C299.667 54.82 299.507 55.2 299.187 55.52C298.867 55.84 298.487 56 298.047 56H266.787C266.347 56 265.967 55.84 265.647 55.52C265.327 55.2 265.167 54.82 265.167 54.38V15.62C265.167 15.18 265.327 14.8 265.647 14.48C265.967 14.16 266.347 14 266.787 14H297.567C298.007 14 298.387 14.16 298.707 14.48C299.027 14.8 299.187 15.18 299.187 15.62V24.08C299.187 24.52 299.027 24.9 298.707 25.22C298.387 25.54 298.007 25.7 297.567 25.7H279.567V29.48H296.247C296.687 29.48 297.067 29.64 297.387 29.96C297.707 30.28 297.867 30.66 297.867 31.1V38.9C297.867 39.34 297.707 39.72 297.387 40.04C297.067 40.36 296.687 40.52 296.247 40.52H279.567V44.3ZM341.926 54.02C342.046 54.26 342.106 54.52 342.106 54.8C342.106 55.08 341.966 55.36 341.686 55.64C341.446 55.88 341.146 56 340.786 56H328.486C327.246 56 326.386 55.46 325.906 54.38L320.746 42.92H318.286V54.38C318.286 54.82 318.126 55.2 317.806 55.52C317.486 55.84 317.106 56 316.666 56H304.906C304.466 56 304.086 55.84 303.766 55.52C303.446 55.2 303.286 54.82 303.286 54.38V15.62C303.286 15.18 303.446 14.8 303.766 14.48C304.086 14.16 304.466 14 304.906 14H322.666C328.426 14 332.926 15.3 336.166 17.9C339.406 20.46 341.026 24.16 341.026 29C341.026 33.8 338.866 37.58 334.546 40.34L341.926 54.02ZM318.286 25.16V31.52H322.666C323.546 31.52 324.226 31.24 324.706 30.68C325.186 30.08 325.426 29.34 325.426 28.46C325.426 27.58 325.186 26.82 324.706 26.18C324.266 25.5 323.586 25.16 322.666 25.16H318.286ZM359.448 30.608C359.448 28.208 360.424 26.16 362.376 24.464C364.36 22.736 367.176 21.872 370.824 21.872C374.504 21.872 377.304 22.736 379.224 24.464C381.144 26.16 382.104 28.192 382.104 30.56C382.104 32.32 381.592 33.888 380.568 35.264C379.576 36.608 378.04 37.888 375.96 39.104L379.56 42.848C380.36 42.016 381.144 40.704 381.912 38.912C382.04 38.592 382.36 38.432 382.872 38.432H390.12C390.376 38.432 390.584 38.512 390.744 38.672C390.904 38.832 390.984 39.04 390.984 39.296C390.984 40.224 390.328 41.68 389.016 43.664C387.736 45.648 386.488 47.28 385.272 48.56L390.984 54.512C391.176 54.704 391.272 54.928 391.272 55.184C391.272 55.408 391.176 55.6 390.984 55.76C390.824 55.92 390.632 56 390.408 56H380.616C380.232 56 379.832 55.84 379.416 55.52L378.12 54.368C375.752 55.904 372.648 56.672 368.808 56.672C364.968 56.672 361.88 55.792 359.544 54.032C357.208 52.24 356.04 49.68 356.04 46.352C356.04 42.608 358.12 39.568 362.28 37.232C360.392 35.216 359.448 33.008 359.448 30.608ZM366.504 45.68C366.504 46.576 366.792 47.28 367.368 47.792C367.976 48.304 368.776 48.56 369.768 48.56C370.76 48.56 371.576 48.368 372.216 47.984L367.992 43.616C367 44.096 366.504 44.784 366.504 45.68ZM372.888 30.944C372.888 30.432 372.712 30.016 372.36 29.696C372.04 29.376 371.624 29.216 371.112 29.216C370.632 29.216 370.216 29.392 369.864 29.744C369.512 30.064 369.336 30.544 369.336 31.184C369.336 31.792 369.768 32.496 370.632 33.296C372.136 32.624 372.888 31.84 372.888 30.944Z" fill="#78BEFF"/>
<path d="M18.3 33.96V44.04C18.3 47.28 19.78 48.9 22.74 48.9C25.02 48.9 26.52 47.82 27.24 45.66C27.44 44.98 27.68 44.52 27.96 44.28C28.28 44.04 28.78 43.92 29.46 43.92H41.7C42.06 43.92 42.36 44.06 42.6 44.34C42.88 44.58 43.02 44.88 43.02 45.24C43.02 48.72 42.02 51.64 40.02 54C36.34 58.4 30.6 60.6 22.8 60.6C16.68 60.6 11.8 59.26 8.16 56.58C4.52 53.86 2.7 49.7 2.7 44.1V33.9C2.7 28.42 4.56 24.3 8.28 21.54C12 18.78 16.84 17.4 22.8 17.4C30.6 17.4 36.34 19.6 40.02 24C42.02 26.36 43.02 29.28 43.02 32.76C43.02 33.12 42.88 33.44 42.6 33.72C42.36 33.96 42.06 34.08 41.7 34.08H29.46C28.82 34.08 28.34 33.96 28.02 33.72C27.74 33.48 27.48 33.02 27.24 32.34C26.48 30.18 24.98 29.1 22.74 29.1C19.78 29.1 18.3 30.72 18.3 33.96ZM49.3842 21.84C53.0642 18.88 57.9242 17.4 63.9642 17.4C70.0042 17.4 74.8442 18.9 78.4842 21.9C82.1642 24.86 84.0042 29.04 84.0042 34.44V43.8C84.0042 49.28 82.1842 53.46 78.5442 56.34C74.9442 59.18 70.0842 60.6 63.9642 60.6C57.8442 60.6 52.9642 59.18 49.3242 56.34C45.7242 53.46 43.9242 49.28 43.9242 43.8V34.44C43.9242 29 45.7442 24.8 49.3842 21.84ZM60.7242 47.7C61.5242 48.5 62.6042 48.9 63.9642 48.9C65.3242 48.9 66.4042 48.5 67.2042 47.7C68.0042 46.9 68.4042 45.68 68.4042 44.04V33.96C68.4042 32.36 68.0042 31.16 67.2042 30.36C66.4042 29.52 65.3242 29.1 63.9642 29.1C62.6042 29.1 61.5242 29.52 60.7242 30.36C59.9242 31.16 59.5242 32.36 59.5242 33.96V44.04C59.5242 45.68 59.9242 46.9 60.7242 47.7ZM120.653 18H130.133C130.573 18 130.953 18.16 131.273 18.48C131.593 18.8 131.753 19.18 131.753 19.62V58.38C131.753 58.82 131.593 59.2 131.273 59.52C130.953 59.84 130.573 60 130.133 60H119.273C118.833 60 118.453 59.84 118.133 59.52C117.813 59.2 117.653 58.82 117.653 58.38V41.94L113.693 48.42C113.053 49.42 112.313 49.92 111.473 49.92H107.273C106.433 49.92 105.693 49.42 105.053 48.42L101.093 41.94V58.38C101.093 58.82 100.933 59.2 100.613 59.52C100.293 59.84 99.913 60 99.473 60H88.613C88.173 60 87.793 59.84 87.473 59.52C87.153 59.2 86.993 58.82 86.993 58.38V19.62C86.993 19.18 87.153 18.8 87.473 18.48C87.793 18.16 88.173 18 88.613 18H98.093C99.213 18 100.073 18.54 100.673 19.62L109.373 34.02L118.073 19.62C118.673 18.54 119.533 18 120.653 18ZM137.572 18H155.452C161.212 18 165.712 19.24 168.952 21.72C172.192 24.2 173.812 27.86 173.812 32.7C173.812 37.54 172.192 41.12 168.952 43.44C165.752 45.76 161.252 46.92 155.452 46.92H151.552V58.38C151.552 58.82 151.392 59.2 151.072 59.52C150.752 59.84 150.372 60 149.932 60H137.572C137.132 60 136.752 59.84 136.432 59.52C136.112 59.2 135.952 58.82 135.952 58.38V19.62C135.952 19.18 136.112 18.8 136.432 18.48C136.752 18.16 137.132 18 137.572 18ZM151.252 29.16V35.82H155.452C156.172 35.82 156.812 35.56 157.372 35.04C157.932 34.48 158.212 33.7 158.212 32.7C158.212 31.7 157.992 30.86 157.552 30.18C157.112 29.5 156.412 29.16 155.452 29.16H151.252ZM200.787 18H212.547C212.987 18 213.367 18.16 213.687 18.48C214.007 18.8 214.167 19.18 214.167 19.62V43.74C214.167 49.34 212.427 53.56 208.947 56.4C205.467 59.2 200.727 60.6 194.727 60.6C188.767 60.6 184.027 59.2 180.507 56.4C177.027 53.6 175.287 49.38 175.287 43.74V19.62C175.287 19.18 175.447 18.8 175.767 18.48C176.087 18.16 176.467 18 176.907 18H188.667C189.107 18 189.487 18.16 189.807 18.48C190.127 18.8 190.287 19.18 190.287 19.62V43.92C190.287 47 191.767 48.54 194.727 48.54C197.687 48.54 199.167 47 199.167 43.92V19.62C199.167 19.18 199.327 18.8 199.647 18.48C199.967 18.16 200.347 18 200.787 18ZM217.275 18H252.435C252.875 18 253.255 18.16 253.575 18.48C253.895 18.8 254.055 19.18 254.055 19.62V29.28C254.055 29.72 253.895 30.1 253.575 30.42C253.255 30.74 252.875 30.9 252.435 30.9H242.475V58.38C242.475 58.82 242.315 59.2 241.995 59.52C241.675 59.84 241.295 60 240.855 60H228.855C228.415 60 228.035 59.84 227.715 59.52C227.395 59.2 227.235 58.82 227.235 58.38V30.9H217.275C216.835 30.9 216.455 30.74 216.135 30.42C215.815 30.1 215.655 29.72 215.655 29.28V19.62C215.655 19.18 215.815 18.8 216.135 18.48C216.455 18.16 216.835 18 217.275 18ZM270.567 48.3H289.047C289.487 48.3 289.867 48.46 290.187 48.78C290.507 49.1 290.667 49.48 290.667 49.92V58.38C290.667 58.82 290.507 59.2 290.187 59.52C289.867 59.84 289.487 60 289.047 60H257.787C257.347 60 256.967 59.84 256.647 59.52C256.327 59.2 256.167 58.82 256.167 58.38V19.62C256.167 19.18 256.327 18.8 256.647 18.48C256.967 18.16 257.347 18 257.787 18H288.567C289.007 18 289.387 18.16 289.707 18.48C290.027 18.8 290.187 19.18 290.187 19.62V28.08C290.187 28.52 290.027 28.9 289.707 29.22C289.387 29.54 289.007 29.7 288.567 29.7H270.567V33.48H287.247C287.687 33.48 288.067 33.64 288.387 33.96C288.707 34.28 288.867 34.66 288.867 35.1V42.9C288.867 43.34 288.707 43.72 288.387 44.04C288.067 44.36 287.687 44.52 287.247 44.52H270.567V48.3ZM332.926 58.02C333.046 58.26 333.106 58.52 333.106 58.8C333.106 59.08 332.966 59.36 332.686 59.64C332.446 59.88 332.146 60 331.786 60H319.486C318.246 60 317.386 59.46 316.906 58.38L311.746 46.92H309.286V58.38C309.286 58.82 309.126 59.2 308.806 59.52C308.486 59.84 308.106 60 307.666 60H295.906C295.466 60 295.086 59.84 294.766 59.52C294.446 59.2 294.286 58.82 294.286 58.38V19.62C294.286 19.18 294.446 18.8 294.766 18.48C295.086 18.16 295.466 18 295.906 18H313.666C319.426 18 323.926 19.3 327.166 21.9C330.406 24.46 332.026 28.16 332.026 33C332.026 37.8 329.866 41.58 325.546 44.34L332.926 58.02ZM309.286 29.16V35.52H313.666C314.546 35.52 315.226 35.24 315.706 34.68C316.186 34.08 316.426 33.34 316.426 32.46C316.426 31.58 316.186 30.82 315.706 30.18C315.266 29.5 314.586 29.16 313.666 29.16H309.286ZM350.448 34.608C350.448 32.208 351.424 30.16 353.376 28.464C355.36 26.736 358.176 25.872 361.824 25.872C365.504 25.872 368.304 26.736 370.224 28.464C372.144 30.16 373.104 32.192 373.104 34.56C373.104 36.32 372.592 37.888 371.568 39.264C370.576 40.608 369.04 41.888 366.96 43.104L370.56 46.848C371.36 46.016 372.144 44.704 372.912 42.912C373.04 42.592 373.36 42.432 373.872 42.432H381.12C381.376 42.432 381.584 42.512 381.744 42.672C381.904 42.832 381.984 43.04 381.984 43.296C381.984 44.224 381.328 45.68 380.016 47.664C378.736 49.648 377.488 51.28 376.272 52.56L381.984 58.512C382.176 58.704 382.272 58.928 382.272 59.184C382.272 59.408 382.176 59.6 381.984 59.76C381.824 59.92 381.632 60 381.408 60H371.616C371.232 60 370.832 59.84 370.416 59.52L369.12 58.368C366.752 59.904 363.648 60.672 359.808 60.672C355.968 60.672 352.88 59.792 350.544 58.032C348.208 56.24 347.04 53.68 347.04 50.352C347.04 46.608 349.12 43.568 353.28 41.232C351.392 39.216 350.448 37.008 350.448 34.608ZM357.504 49.68C357.504 50.576 357.792 51.28 358.368 51.792C358.976 52.304 359.776 52.56 360.768 52.56C361.76 52.56 362.576 52.368 363.216 51.984L358.992 47.616C358 48.096 357.504 48.784 357.504 49.68ZM363.888 34.944C363.888 34.432 363.712 34.016 363.36 33.696C363.04 33.376 362.624 33.216 362.112 33.216C361.632 33.216 361.216 33.392 360.864 33.744C360.512 34.064 360.336 34.544 360.336 35.184C360.336 35.792 360.768 36.496 361.632 37.296C363.136 36.624 363.888 35.84 363.888 34.944Z" fill="#FFD439"/>
<path d="M21.3 30.96V41.04C21.3 44.28 22.78 45.9 25.74 45.9C28.02 45.9 29.52 44.82 30.24 42.66C30.44 41.98 30.68 41.52 30.96 41.28C31.28 41.04 31.78 40.92 32.46 40.92H44.7C45.06 40.92 45.36 41.06 45.6 41.34C45.88 41.58 46.02 41.88 46.02 42.24C46.02 45.72 45.02 48.64 43.02 51C39.34 55.4 33.6 57.6 25.8 57.6C19.68 57.6 14.8 56.26 11.16 53.58C7.52 50.86 5.7 46.7 5.7 41.1V30.9C5.7 25.42 7.56 21.3 11.28 18.54C15 15.78 19.84 14.4 25.8 14.4C33.6 14.4 39.34 16.6 43.02 21C45.02 23.36 46.02 26.28 46.02 29.76C46.02 30.12 45.88 30.44 45.6 30.72C45.36 30.96 45.06 31.08 44.7 31.08H32.46C31.82 31.08 31.34 30.96 31.02 30.72C30.74 30.48 30.48 30.02 30.24 29.34C29.48 27.18 27.98 26.1 25.74 26.1C22.78 26.1 21.3 27.72 21.3 30.96ZM52.3842 18.84C56.0642 15.88 60.9242 14.4 66.9642 14.4C73.0042 14.4 77.8442 15.9 81.4842 18.9C85.1642 21.86 87.0042 26.04 87.0042 31.44V40.8C87.0042 46.28 85.1842 50.46 81.5442 53.34C77.9442 56.18 73.0842 57.6 66.9642 57.6C60.8442 57.6 55.9642 56.18 52.3242 53.34C48.7242 50.46 46.9242 46.28 46.9242 40.8V31.44C46.9242 26 48.7442 21.8 52.3842 18.84ZM63.7242 44.7C64.5242 45.5 65.6042 45.9 66.9642 45.9C68.3242 45.9 69.4042 45.5 70.2042 44.7C71.0042 43.9 71.4042 42.68 71.4042 41.04V30.96C71.4042 29.36 71.0042 28.16 70.2042 27.36C69.4042 26.52 68.3242 26.1 66.9642 26.1C65.6042 26.1 64.5242 26.52 63.7242 27.36C62.9242 28.16 62.5242 29.36 62.5242 30.96V41.04C62.5242 42.68 62.9242 43.9 63.7242 44.7ZM123.653 15H133.133C133.573 15 133.953 15.16 134.273 15.48C134.593 15.8 134.753 16.18 134.753 16.62V55.38C134.753 55.82 134.593 56.2 134.273 56.52C133.953 56.84 133.573 57 133.133 57H122.273C121.833 57 121.453 56.84 121.133 56.52C120.813 56.2 120.653 55.82 120.653 55.38V38.94L116.693 45.42C116.053 46.42 115.313 46.92 114.473 46.92H110.273C109.433 46.92 108.693 46.42 108.053 45.42L104.093 38.94V55.38C104.093 55.82 103.933 56.2 103.613 56.52C103.293 56.84 102.913 57 102.473 57H91.613C91.173 57 90.793 56.84 90.473 56.52C90.153 56.2 89.993 55.82 89.993 55.38V16.62C89.993 16.18 90.153 15.8 90.473 15.48C90.793 15.16 91.173 15 91.613 15H101.093C102.213 15 103.073 15.54 103.673 16.62L112.373 31.02L121.073 16.62C121.673 15.54 122.533 15 123.653 15ZM140.572 15H158.452C164.212 15 168.712 16.24 171.952 18.72C175.192 21.2 176.812 24.86 176.812 29.7C176.812 34.54 175.192 38.12 171.952 40.44C168.752 42.76 164.252 43.92 158.452 43.92H154.552V55.38C154.552 55.82 154.392 56.2 154.072 56.52C153.752 56.84 153.372 57 152.932 57H140.572C140.132 57 139.752 56.84 139.432 56.52C139.112 56.2 138.952 55.82 138.952 55.38V16.62C138.952 16.18 139.112 15.8 139.432 15.48C139.752 15.16 140.132 15 140.572 15ZM154.252 26.16V32.82H158.452C159.172 32.82 159.812 32.56 160.372 32.04C160.932 31.48 161.212 30.7 161.212 29.7C161.212 28.7 160.992 27.86 160.552 27.18C160.112 26.5 159.412 26.16 158.452 26.16H154.252ZM203.787 15H215.547C215.987 15 216.367 15.16 216.687 15.48C217.007 15.8 217.167 16.18 217.167 16.62V40.74C217.167 46.34 215.427 50.56 211.947 53.4C208.467 56.2 203.727 57.6 197.727 57.6C191.767 57.6 187.027 56.2 183.507 53.4C180.027 50.6 178.287 46.38 178.287 40.74V16.62C178.287 16.18 178.447 15.8 178.767 15.48C179.087 15.16 179.467 15 179.907 15H191.667C192.107 15 192.487 15.16 192.807 15.48C193.127 15.8 193.287 16.18 193.287 16.62V40.92C193.287 44 194.767 45.54 197.727 45.54C200.687 45.54 202.167 44 202.167 40.92V16.62C202.167 16.18 202.327 15.8 202.647 15.48C202.967 15.16 203.347 15 203.787 15ZM220.275 15H255.435C255.875 15 256.255 15.16 256.575 15.48C256.895 15.8 257.055 16.18 257.055 16.62V26.28C257.055 26.72 256.895 27.1 256.575 27.42C256.255 27.74 255.875 27.9 255.435 27.9H245.475V55.38C245.475 55.82 245.315 56.2 244.995 56.52C244.675 56.84 244.295 57 243.855 57H231.855C231.415 57 231.035 56.84 230.715 56.52C230.395 56.2 230.235 55.82 230.235 55.38V27.9H220.275C219.835 27.9 219.455 27.74 219.135 27.42C218.815 27.1 218.655 26.72 218.655 26.28V16.62C218.655 16.18 218.815 15.8 219.135 15.48C219.455 15.16 219.835 15 220.275 15ZM273.567 45.3H292.047C292.487 45.3 292.867 45.46 293.187 45.78C293.507 46.1 293.667 46.48 293.667 46.92V55.38C293.667 55.82 293.507 56.2 293.187 56.52C292.867 56.84 292.487 57 292.047 57H260.787C260.347 57 259.967 56.84 259.647 56.52C259.327 56.2 259.167 55.82 259.167 55.38V16.62C259.167 16.18 259.327 15.8 259.647 15.48C259.967 15.16 260.347 15 260.787 15H291.567C292.007 15 292.387 15.16 292.707 15.48C293.027 15.8 293.187 16.18 293.187 16.62V25.08C293.187 25.52 293.027 25.9 292.707 26.22C292.387 26.54 292.007 26.7 291.567 26.7H273.567V30.48H290.247C290.687 30.48 291.067 30.64 291.387 30.96C291.707 31.28 291.867 31.66 291.867 32.1V39.9C291.867 40.34 291.707 40.72 291.387 41.04C291.067 41.36 290.687 41.52 290.247 41.52H273.567V45.3ZM335.926 55.02C336.046 55.26 336.106 55.52 336.106 55.8C336.106 56.08 335.966 56.36 335.686 56.64C335.446 56.88 335.146 57 334.786 57H322.486C321.246 57 320.386 56.46 319.906 55.38L314.746 43.92H312.286V55.38C312.286 55.82 312.126 56.2 311.806 56.52C311.486 56.84 311.106 57 310.666 57H298.906C298.466 57 298.086 56.84 297.766 56.52C297.446 56.2 297.286 55.82 297.286 55.38V16.62C297.286 16.18 297.446 15.8 297.766 15.48C298.086 15.16 298.466 15 298.906 15H316.666C322.426 15 326.926 16.3 330.166 18.9C333.406 21.46 335.026 25.16 335.026 30C335.026 34.8 332.866 38.58 328.546 41.34L335.926 55.02ZM312.286 26.16V32.52H316.666C317.546 32.52 318.226 32.24 318.706 31.68C319.186 31.08 319.426 30.34 319.426 29.46C319.426 28.58 319.186 27.82 318.706 27.18C318.266 26.5 317.586 26.16 316.666 26.16H312.286ZM353.448 31.608C353.448 29.208 354.424 27.16 356.376 25.464C358.36 23.736 361.176 22.872 364.824 22.872C368.504 22.872 371.304 23.736 373.224 25.464C375.144 27.16 376.104 29.192 376.104 31.56C376.104 33.32 375.592 34.888 374.568 36.264C373.576 37.608 372.04 38.888 369.96 40.104L373.56 43.848C374.36 43.016 375.144 41.704 375.912 39.912C376.04 39.592 376.36 39.432 376.872 39.432H384.12C384.376 39.432 384.584 39.512 384.744 39.672C384.904 39.832 384.984 40.04 384.984 40.296C384.984 41.224 384.328 42.68 383.016 44.664C381.736 46.648 380.488 48.28 379.272 49.56L384.984 55.512C385.176 55.704 385.272 55.928 385.272 56.184C385.272 56.408 385.176 56.6 384.984 56.76C384.824 56.92 384.632 57 384.408 57H374.616C374.232 57 373.832 56.84 373.416 56.52L372.12 55.368C369.752 56.904 366.648 57.672 362.808 57.672C358.968 57.672 355.88 56.792 353.544 55.032C351.208 53.24 350.04 50.68 350.04 47.352C350.04 43.608 352.12 40.568 356.28 38.232C354.392 36.216 353.448 34.008 353.448 31.608ZM360.504 46.68C360.504 47.576 360.792 48.28 361.368 48.792C361.976 49.304 362.776 49.56 363.768 49.56C364.76 49.56 365.576 49.368 366.216 48.984L361.992 44.616C361 45.096 360.504 45.784 360.504 46.68ZM366.888 31.944C366.888 31.432 366.712 31.016 366.36 30.696C366.04 30.376 365.624 30.216 365.112 30.216C364.632 30.216 364.216 30.392 363.864 30.744C363.512 31.064 363.336 31.544 363.336 32.184C363.336 32.792 363.768 33.496 364.632 34.296C366.136 33.624 366.888 32.84 366.888 31.944Z" fill="#FF6565"/>
<path d="M32.24 43.66L33.1887 43.9762L33.1943 43.9593L33.1994 43.9422L32.24 43.66ZM32.96 42.28L32.36 41.48L32.3339 41.4995L32.3092 41.5207L32.96 42.28ZM47.6 42.34L46.8407 42.9908L46.8908 43.0492L46.9492 43.0993L47.6 42.34ZM45.02 52L44.2571 51.3535L44.2529 51.3584L45.02 52ZM13.16 54.58L12.5614 55.3811L12.5671 55.3853L13.16 54.58ZM13.28 19.54L13.8758 20.3431L13.8758 20.3431L13.28 19.54ZM45.02 22L44.2529 22.6416L44.2571 22.6465L45.02 22ZM47.6 31.72L46.8929 31.0129L46.8929 31.0129L47.6 31.72ZM33.02 31.72L32.3692 32.4793L32.3939 32.5005L32.42 32.52L33.02 31.72ZM32.24 30.34L31.2967 30.6719L31.297 30.6728L32.24 30.34ZM22.3 31.96V42.04H24.3V31.96H22.3ZM22.3 42.04C22.3 43.7929 22.6984 45.2941 23.6717 46.3595C24.6606 47.442 26.0814 47.9 27.74 47.9V45.9C26.4386 45.9 25.6394 45.548 25.1483 45.0105C24.6416 44.4559 24.3 43.5271 24.3 42.04H22.3ZM27.74 47.9C29.04 47.9 30.2028 47.5902 31.1593 46.9015C32.1159 46.2128 32.7779 45.2086 33.1887 43.9762L31.2913 43.3438C30.9821 44.2714 30.5341 44.8872 29.9907 45.2785C29.4472 45.6698 28.72 45.9 27.74 45.9V47.9ZM33.1994 43.9422C33.3871 43.3039 33.5604 43.0824 33.6108 43.0393L32.3092 41.5207C31.7996 41.9576 31.4929 42.6561 31.2806 43.3778L33.1994 43.9422ZM33.56 43.08C33.6226 43.033 33.8597 42.92 34.46 42.92V40.92C33.7003 40.92 32.9374 41.047 32.36 41.48L33.56 43.08ZM34.46 42.92H46.7V40.92H34.46V42.92ZM46.7 42.92C46.7468 42.92 46.7658 42.9282 46.7721 42.9312C46.7791 42.9344 46.8028 42.9465 46.8407 42.9908L48.3593 41.6892C47.9346 41.1938 47.36 40.92 46.7 40.92V42.92ZM46.9492 43.0993C46.9935 43.1372 47.0056 43.1609 47.0088 43.1679C47.0118 43.1742 47.02 43.1932 47.02 43.24H49.02C49.02 42.58 48.7462 42.0054 48.2508 41.5807L46.9492 43.0993ZM47.02 43.24C47.02 46.5147 46.0848 49.1968 44.2571 51.3535L45.7829 52.6465C47.9552 50.0832 49.02 46.9253 49.02 43.24H47.02ZM44.2529 51.3584C40.8249 55.4571 35.4164 57.6 27.8 57.6V59.6C35.7836 59.6 41.8551 57.3429 45.7871 52.6416L44.2529 51.3584ZM27.8 57.6C21.8189 57.6 17.1695 56.2903 13.7529 53.7747L12.5671 55.3853C16.4305 58.2297 21.5411 59.6 27.8 59.6V57.6ZM13.7586 53.7789C10.4302 51.2918 8.7 47.4664 8.7 42.1H6.7C6.7 47.9336 8.60978 52.4282 12.5614 55.3811L13.7586 53.7789ZM8.7 42.1V31.9H6.7V42.1H8.7ZM8.7 31.9C8.7 26.671 10.4585 22.8785 13.8758 20.3431L12.6842 18.7369C8.66148 21.7215 6.7 26.169 6.7 31.9H8.7ZM13.8758 20.3431C17.3797 17.7434 21.9928 16.4 27.8 16.4V14.4C21.6872 14.4 16.6203 15.8166 12.6842 18.7369L13.8758 20.3431ZM27.8 16.4C35.4164 16.4 40.8249 18.5429 44.2529 22.6416L45.7871 21.3584C41.8551 16.6571 35.7836 14.4 27.8 14.4V16.4ZM44.2571 22.6465C46.0848 24.8032 47.02 27.4853 47.02 30.76H49.02C49.02 27.0747 47.9552 23.9168 45.7829 21.3535L44.2571 22.6465ZM47.02 30.76C47.02 30.827 47.0059 30.8998 46.8929 31.0129L48.3071 32.4271C48.7541 31.9802 49.02 31.413 49.02 30.76H47.02ZM46.8929 31.0129C46.8527 31.0531 46.8126 31.08 46.7 31.08V33.08C47.3074 33.08 47.8673 32.8669 48.3071 32.4271L46.8929 31.0129ZM46.7 31.08H34.46V33.08H46.7V31.08ZM34.46 31.08C33.9162 31.08 33.6906 30.973 33.62 30.92L32.42 32.52C32.9894 32.947 33.7238 33.08 34.46 33.08V31.08ZM33.6708 30.9607C33.5996 30.8997 33.4106 30.6521 33.183 30.0072L31.297 30.6728C31.5494 31.3879 31.8804 32.0603 32.3692 32.4793L33.6708 30.9607ZM33.1833 30.0081C32.7518 28.7818 32.0811 27.7838 31.1293 27.0985C30.1757 26.4119 29.0244 26.1 27.74 26.1V28.1C28.6956 28.1 29.4143 28.3281 29.9607 28.7215C30.5089 29.1162 30.9682 29.7382 31.2967 30.6719L33.1833 30.0081ZM27.74 26.1C26.0814 26.1 24.6606 26.558 23.6717 27.6405C22.6984 28.7059 22.3 30.2071 22.3 31.96H24.3C24.3 30.4729 24.6416 29.5441 25.1483 28.9895C25.6394 28.452 26.4386 28.1 27.74 28.1V26.1ZM54.3842 19.84L53.7575 19.0608L53.7533 19.0641L54.3842 19.84ZM83.4842 19.9L82.8482 20.6717L82.8575 20.6792L83.4842 19.9ZM83.5442 54.34L84.1636 55.1251L84.1647 55.1242L83.5442 54.34ZM54.3242 54.34L53.6995 55.1209L53.7091 55.1284L54.3242 54.34ZM65.7242 45.7L66.4313 44.9929L66.4313 44.9929L65.7242 45.7ZM72.2042 45.7L72.9113 46.4071L72.9113 46.4071L72.2042 45.7ZM72.2042 28.36L71.4801 29.0497L71.4885 29.0585L71.4971 29.0671L72.2042 28.36ZM65.7242 28.36L66.4313 29.0671L66.4399 29.0585L66.4484 29.0497L65.7242 28.36ZM55.011 20.6192C58.4688 17.8379 63.0876 16.4 68.9642 16.4V14.4C62.7609 14.4 57.6597 15.9221 53.7575 19.0608L55.011 20.6192ZM68.9642 16.4C74.8385 16.4 79.4326 17.8566 82.8482 20.6717L84.1202 19.1283C80.2559 15.9434 75.17 14.4 68.9642 14.4V16.4ZM82.8575 20.6792C86.2658 23.4207 88.0042 27.2939 88.0042 32.44H90.0042C90.0042 26.7861 88.0626 22.2993 84.111 19.1208L82.8575 20.6792ZM88.0042 32.44V41.8H90.0042V32.44H88.0042ZM88.0042 41.8C88.0042 47.0361 86.2794 50.9007 82.9237 53.5558L84.1647 55.1242C88.089 52.0193 90.0042 47.5239 90.0042 41.8H88.0042ZM82.9249 53.5549C79.5524 56.2154 74.9346 57.6 68.9642 57.6V59.6C75.2338 59.6 80.336 58.1446 84.1636 55.1251L82.9249 53.5549ZM68.9642 57.6C62.9946 57.6 58.3539 56.2157 54.9394 53.5516L53.7091 55.1284C57.5745 58.1443 62.6939 59.6 68.9642 59.6V57.6ZM54.9489 53.5591C51.6319 50.9055 49.9242 47.0401 49.9242 41.8H47.9242C47.9242 47.5199 49.8166 52.0145 53.6995 55.1209L54.9489 53.5591ZM49.9242 41.8V32.44H47.9242V41.8H49.9242ZM49.9242 32.44C49.9242 27.2472 51.6474 23.3544 55.0151 20.6159L53.7533 19.0641C49.841 22.2455 47.9242 26.7528 47.9242 32.44H49.9242ZM65.0171 46.4071C66.0416 47.4316 67.3963 47.9 68.9642 47.9V45.9C67.8121 45.9 67.0068 45.5684 66.4313 44.9929L65.0171 46.4071ZM68.9642 47.9C70.5321 47.9 71.8868 47.4316 72.9113 46.4071L71.4971 44.9929C70.9216 45.5684 70.1163 45.9 68.9642 45.9V47.9ZM72.9113 46.4071C73.9691 45.3493 74.4042 43.8258 74.4042 42.04H72.4042C72.4042 43.5342 72.0393 44.4507 71.4971 44.9929L72.9113 46.4071ZM74.4042 42.04V31.96H72.4042V42.04H74.4042ZM74.4042 31.96C74.4042 30.2059 73.965 28.7066 72.9113 27.6529L71.4971 29.0671C72.0434 29.6134 72.4042 30.5141 72.4042 31.96H74.4042ZM72.9284 27.6703C71.907 26.5979 70.5466 26.1 68.9642 26.1V28.1C70.1018 28.1 70.9015 28.4421 71.4801 29.0497L72.9284 27.6703ZM68.9642 26.1C67.3818 26.1 66.0215 26.5979 65.0001 27.6703L66.4484 29.0497C67.027 28.4421 67.8266 28.1 68.9642 28.1V26.1ZM65.0171 27.6529C63.9634 28.7066 63.5242 30.2059 63.5242 31.96H65.5242C65.5242 30.5141 65.885 29.6134 66.4313 29.0671L65.0171 27.6529ZM63.5242 31.96V42.04H65.5242V31.96H63.5242ZM63.5242 42.04C63.5242 43.8258 63.9593 45.3493 65.0171 46.4071L66.4313 44.9929C65.8891 44.4507 65.5242 43.5342 65.5242 42.04H63.5242ZM136.273 57.52L135.566 56.8129L136.273 57.52ZM123.133 57.52L123.84 56.8129L123.84 56.8129L123.133 57.52ZM122.653 39.94H123.653V36.3859L121.8 39.4185L122.653 39.94ZM118.693 46.42L119.535 46.9591L119.541 46.9503L119.546 46.9414L118.693 46.42ZM110.053 46.42L109.2 46.9414L109.205 46.9503L109.211 46.9591L110.053 46.42ZM106.093 39.94L106.946 39.4185L105.093 36.3859V39.94H106.093ZM105.613 57.52L106.32 58.2271L106.32 58.2271L105.613 57.52ZM92.473 57.52L93.1801 56.8129L93.1801 56.8129L92.473 57.52ZM92.473 16.48L93.1801 17.1871L93.1801 17.1871L92.473 16.48ZM105.673 17.62L104.799 18.1056L104.808 18.1215L104.817 18.1371L105.673 17.62ZM114.373 32.02L113.517 32.5371L114.373 33.9538L115.229 32.5371L114.373 32.02ZM123.073 17.62L123.929 18.1371L123.938 18.1215L123.947 18.1056L123.073 17.62ZM125.653 17H135.133V15H125.653V17ZM135.133 17C135.299 17 135.427 17.0487 135.566 17.1871L136.98 15.7729C136.479 15.2713 135.847 15 135.133 15V17ZM135.566 17.1871C135.704 17.3256 135.753 17.4536 135.753 17.62H137.753C137.753 16.9064 137.482 16.2744 136.98 15.7729L135.566 17.1871ZM135.753 17.62V56.38H137.753V17.62H135.753ZM135.753 56.38C135.753 56.5464 135.704 56.6744 135.566 56.8129L136.98 58.2271C137.482 57.7256 137.753 57.0936 137.753 56.38H135.753ZM135.566 56.8129C135.427 56.9513 135.299 57 135.133 57V59C135.847 59 136.479 58.7287 136.98 58.2271L135.566 56.8129ZM135.133 57H124.273V59H135.133V57ZM124.273 57C124.107 57 123.979 56.9513 123.84 56.8129L122.426 58.2271C122.927 58.7287 123.559 59 124.273 59V57ZM123.84 56.8129C123.702 56.6744 123.653 56.5464 123.653 56.38H121.653C121.653 57.0936 121.924 57.7256 122.426 58.2271L123.84 56.8129ZM123.653 56.38V39.94H121.653V56.38H123.653ZM121.8 39.4185L117.84 45.8985L119.546 46.9414L123.506 40.4614L121.8 39.4185ZM117.851 45.8809C117.312 46.7234 116.842 46.92 116.473 46.92V48.92C117.784 48.92 118.794 48.1166 119.535 46.9591L117.851 45.8809ZM116.473 46.92H112.273V48.92H116.473V46.92ZM112.273 46.92C111.904 46.92 111.434 46.7234 110.895 45.8809L109.211 46.9591C109.952 48.1166 110.962 48.92 112.273 48.92V46.92ZM110.906 45.8985L106.946 39.4185L105.24 40.4614L109.2 46.9414L110.906 45.8985ZM105.093 39.94V56.38H107.093V39.94H105.093ZM105.093 56.38C105.093 56.5464 105.044 56.6744 104.906 56.8129L106.32 58.2271C106.822 57.7256 107.093 57.0936 107.093 56.38H105.093ZM104.906 56.8129C104.767 56.9513 104.639 57 104.473 57V59C105.187 59 105.819 58.7287 106.32 58.2271L104.906 56.8129ZM104.473 57H93.613V59H104.473V57ZM93.613 57C93.4465 57 93.3185 56.9513 93.1801 56.8129L91.7659 58.2271C92.2674 58.7287 92.8994 59 93.613 59V57ZM93.1801 56.8129C93.0416 56.6744 92.993 56.5464 92.993 56.38H90.993C90.993 57.0936 91.2643 57.7256 91.7659 58.2271L93.1801 56.8129ZM92.993 56.38V17.62H90.993V56.38H92.993ZM92.993 17.62C92.993 17.4536 93.0416 17.3256 93.1801 17.1871L91.7659 15.7729C91.2643 16.2744 90.993 16.9064 90.993 17.62H92.993ZM93.1801 17.1871C93.3185 17.0487 93.4465 17 93.613 17V15C92.8994 15 92.2674 15.2713 91.7659 15.7729L93.1801 17.1871ZM93.613 17H103.093V15H93.613V17ZM103.093 17C103.806 17 104.353 17.3032 104.799 18.1056L106.547 17.1344C105.793 15.7768 104.62 15 103.093 15V17ZM104.817 18.1371L113.517 32.5371L115.229 31.5029L106.529 17.1029L104.817 18.1371ZM115.229 32.5371L123.929 18.1371L122.217 17.1029L113.517 31.5029L115.229 32.5371ZM123.947 18.1056C124.393 17.3032 124.94 17 125.653 17V15C124.126 15 122.953 15.7768 122.199 17.1344L123.947 18.1056ZM173.952 19.72L173.344 20.5141L173.344 20.5141L173.952 19.72ZM173.952 41.44L173.369 40.6269L173.365 40.6304L173.952 41.44ZM156.552 44.92V43.92H155.552V44.92H156.552ZM156.072 57.52L155.364 56.8129L155.364 56.8129L156.072 57.52ZM141.432 57.52L142.139 56.8129L142.139 56.8129L141.432 57.52ZM141.432 16.48L142.139 17.1871L142.139 17.1871L141.432 16.48ZM156.252 27.16V26.16H155.252V27.16H156.252ZM156.252 33.82H155.252V34.82H156.252V33.82ZM162.372 33.04L163.052 33.7728L163.066 33.7602L163.079 33.7471L162.372 33.04ZM162.552 28.18L161.712 28.7233L161.712 28.7233L162.552 28.18ZM142.572 17H160.452V15H142.572V17ZM160.452 17C166.08 17 170.337 18.2128 173.344 20.5141L174.559 18.9259C171.086 16.2672 166.343 15 160.452 15V17ZM173.344 20.5141C176.289 22.7685 177.812 26.1061 177.812 30.7H179.812C179.812 25.6139 178.094 21.6315 174.559 18.9259L173.344 20.5141ZM177.812 30.7C177.812 35.2956 176.289 38.536 173.369 40.6269L174.534 42.2531C178.094 39.704 179.812 35.7844 179.812 30.7H177.812ZM173.365 40.6304C170.398 42.781 166.135 43.92 160.452 43.92V45.92C166.368 45.92 171.105 44.739 174.539 42.2496L173.365 40.6304ZM160.452 43.92H156.552V45.92H160.452V43.92ZM155.552 44.92V56.38H157.552V44.92H155.552ZM155.552 56.38C155.552 56.5464 155.503 56.6744 155.364 56.8129L156.779 58.2271C157.28 57.7256 157.552 57.0936 157.552 56.38H155.552ZM155.364 56.8129C155.226 56.9513 155.098 57 154.932 57V59C155.645 59 156.277 58.7287 156.779 58.2271L155.364 56.8129ZM154.932 57H142.572V59H154.932V57ZM142.572 57C142.405 57 142.277 56.9513 142.139 56.8129L140.724 58.2271C141.226 58.7287 141.858 59 142.572 59V57ZM142.139 56.8129C142 56.6744 141.952 56.5464 141.952 56.38H139.952C139.952 57.0936 140.223 57.7256 140.724 58.2271L142.139 56.8129ZM141.952 56.38V17.62H139.952V56.38H141.952ZM141.952 17.62C141.952 17.4536 142 17.3256 142.139 17.1871L140.724 15.7729C140.223 16.2744 139.952 16.9064 139.952 17.62H141.952ZM142.139 17.1871C142.277 17.0487 142.405 17 142.572 17V15C141.858 15 141.226 15.2713 140.724 15.7729L142.139 17.1871ZM155.252 27.16V33.82H157.252V27.16H155.252ZM156.252 34.82H160.452V32.82H156.252V34.82ZM160.452 34.82C161.44 34.82 162.32 34.453 163.052 33.7728L161.691 32.3072C161.304 32.667 160.903 32.82 160.452 32.82V34.82ZM163.079 33.7471C163.872 32.9534 164.212 31.8919 164.212 30.7H162.212C162.212 31.5081 161.991 32.0066 161.664 32.3329L163.079 33.7471ZM164.212 30.7C164.212 29.5526 163.958 28.5129 163.391 27.6367L161.712 28.7233C162.025 29.2071 162.212 29.8474 162.212 30.7H164.212ZM163.391 27.6367C162.73 26.6157 161.678 26.16 160.452 26.16V28.16C161.145 28.16 161.493 28.3843 161.712 28.7233L163.391 27.6367ZM160.452 26.16H156.252V28.16H160.452V26.16ZM218.687 16.48L219.394 15.7729L219.394 15.7729L218.687 16.48ZM213.947 54.4L214.574 55.1791L214.579 55.1747L213.947 54.4ZM185.507 54.4L184.88 55.1791L184.884 55.1826L185.507 54.4ZM180.767 16.48L180.06 15.7729L180.06 15.7729L180.767 16.48ZM194.807 16.48L195.514 15.7729L195.514 15.7729L194.807 16.48ZM204.647 16.48L205.354 17.1871L205.354 17.1871L204.647 16.48ZM205.787 17H217.547V15H205.787V17ZM217.547 17C217.713 17 217.841 17.0487 217.98 17.1871L219.394 15.7729C218.892 15.2713 218.26 15 217.547 15V17ZM217.98 17.1871C218.118 17.3256 218.167 17.4536 218.167 17.62H220.167C220.167 16.9064 219.895 16.2744 219.394 15.7729L217.98 17.1871ZM218.167 17.62V41.74H220.167V17.62H218.167ZM218.167 41.74C218.167 47.1207 216.505 51.0211 213.314 53.6252L214.579 55.1747C218.348 52.0989 220.167 47.5593 220.167 41.74H218.167ZM213.32 53.6209C210.07 56.2356 205.577 57.6 199.727 57.6V59.6C205.877 59.6 210.863 58.1644 214.574 55.1791L213.32 53.6209ZM199.727 57.6C193.919 57.6 189.422 56.2368 186.129 53.6174L184.884 55.1826C188.631 58.1632 193.614 59.6 199.727 59.6V57.6ZM186.134 53.6209C182.95 51.0592 181.287 47.164 181.287 41.74H179.287C179.287 47.596 181.104 52.1408 184.88 55.1791L186.134 53.6209ZM181.287 41.74V17.62H179.287V41.74H181.287ZM181.287 17.62C181.287 17.4536 181.335 17.3256 181.474 17.1871L180.06 15.7729C179.558 16.2744 179.287 16.9064 179.287 17.62H181.287ZM181.474 17.1871C181.612 17.0487 181.74 17 181.907 17V15C181.193 15 180.561 15.2713 180.06 15.7729L181.474 17.1871ZM181.907 17H193.667V15H181.907V17ZM193.667 17C193.833 17 193.961 17.0487 194.1 17.1871L195.514 15.7729C195.012 15.2713 194.38 15 193.667 15V17ZM194.1 17.1871C194.238 17.3256 194.287 17.4536 194.287 17.62H196.287C196.287 16.9064 196.015 16.2744 195.514 15.7729L194.1 17.1871ZM194.287 17.62V41.92H196.287V17.62H194.287ZM194.287 41.92C194.287 43.6044 194.691 45.0531 195.676 46.0779C196.668 47.1101 198.082 47.54 199.727 47.54V45.54C198.411 45.54 197.606 45.1999 197.118 44.6921C196.623 44.1769 196.287 43.3156 196.287 41.92H194.287ZM199.727 47.54C201.371 47.54 202.786 47.1101 203.778 46.0779C204.763 45.0531 205.167 43.6044 205.167 41.92H203.167C203.167 43.3156 202.831 44.1769 202.336 44.6921C201.848 45.1999 201.042 45.54 199.727 45.54V47.54ZM205.167 41.92V17.62H203.167V41.92H205.167ZM205.167 17.62C205.167 17.4536 205.215 17.3256 205.354 17.1871L203.94 15.7729C203.438 16.2744 203.167 16.9064 203.167 17.62H205.167ZM205.354 17.1871C205.492 17.0487 205.62 17 205.787 17V15C205.073 15 204.441 15.2713 203.94 15.7729L205.354 17.1871ZM258.575 16.48L259.283 15.7729L259.283 15.7729L258.575 16.48ZM258.575 28.42L259.283 29.1271L259.283 29.1271L258.575 28.42ZM247.475 28.9V27.9H246.475V28.9H247.475ZM246.995 57.52L246.288 56.8129L246.288 56.8129L246.995 57.52ZM232.235 28.9H233.235V27.9H232.235V28.9ZM222.275 17H257.435V15H222.275V17ZM257.435 17C257.602 17 257.73 17.0487 257.868 17.1871L259.283 15.7729C258.781 15.2713 258.149 15 257.435 15V17ZM257.868 17.1871C258.007 17.3256 258.055 17.4536 258.055 17.62H260.055C260.055 16.9064 259.784 16.2744 259.283 15.7729L257.868 17.1871ZM258.055 17.62V27.28H260.055V17.62H258.055ZM258.055 27.28C258.055 27.4464 258.007 27.5744 257.868 27.7129L259.283 29.1271C259.784 28.6255 260.055 27.9936 260.055 27.28H258.055ZM257.868 27.7129C257.73 27.8513 257.602 27.9 257.435 27.9V29.9C258.149 29.9 258.781 29.6287 259.283 29.1271L257.868 27.7129ZM257.435 27.9H247.475V29.9H257.435V27.9ZM246.475 28.9V56.38H248.475V28.9H246.475ZM246.475 56.38C246.475 56.5464 246.427 56.6744 246.288 56.8129L247.703 58.2271C248.204 57.7256 248.475 57.0936 248.475 56.38H246.475ZM246.288 56.8129C246.15 56.9513 246.022 57 245.855 57V59C246.569 59 247.201 58.7287 247.703 58.2271L246.288 56.8129ZM245.855 57H233.855V59H245.855V57ZM233.855 57C233.689 57 233.561 56.9513 233.423 56.8129L232.008 58.2271C232.51 58.7287 233.142 59 233.855 59V57ZM233.423 56.8129C233.284 56.6744 233.235 56.5464 233.235 56.38H231.235C231.235 57.0936 231.507 57.7256 232.008 58.2271L233.423 56.8129ZM233.235 56.38V28.9H231.235V56.38H233.235ZM232.235 27.9H222.275V29.9H232.235V27.9ZM222.275 27.9C222.109 27.9 221.981 27.8513 221.843 27.7129L220.428 29.1271C220.93 29.6287 221.562 29.9 222.275 29.9V27.9ZM221.843 27.7129C221.704 27.5744 221.655 27.4464 221.655 27.28H219.655C219.655 27.9936 219.927 28.6256 220.428 29.1271L221.843 27.7129ZM221.655 27.28V17.62H219.655V27.28H221.655ZM221.655 17.62C221.655 17.4536 221.704 17.3256 221.843 17.1871L220.428 15.7729C219.927 16.2744 219.655 16.9064 219.655 17.62H221.655ZM221.843 17.1871C221.981 17.0487 222.109 17 222.275 17V15C221.562 15 220.93 15.2713 220.428 15.7729L221.843 17.1871ZM275.567 46.3H274.567V47.3H275.567V46.3ZM295.187 57.52L294.48 56.8129L295.187 57.52ZM261.647 57.52L262.354 56.8129L262.354 56.8129L261.647 57.52ZM261.647 16.48L262.354 17.1871L262.354 17.1871L261.647 16.48ZM294.707 16.48L294 17.1871L294 17.1871L294.707 16.48ZM294.707 27.22L294 26.5129L294 26.5129L294.707 27.22ZM275.567 27.7V26.7H274.567V27.7H275.567ZM275.567 31.48H274.567V32.48H275.567V31.48ZM293.387 31.96L294.094 31.2529L294.094 31.2529L293.387 31.96ZM293.387 42.04L294.094 42.7471L294.094 42.7471L293.387 42.04ZM275.567 42.52V41.52H274.567V42.52H275.567ZM275.567 47.3H294.047V45.3H275.567V47.3ZM294.047 47.3C294.214 47.3 294.342 47.3487 294.48 47.4871L295.894 46.0729C295.393 45.5713 294.761 45.3 294.047 45.3V47.3ZM294.48 47.4871C294.619 47.6256 294.667 47.7536 294.667 47.92H296.667C296.667 47.2064 296.396 46.5744 295.894 46.0729L294.48 47.4871ZM294.667 47.92V56.38H296.667V47.92H294.667ZM294.667 56.38C294.667 56.5464 294.619 56.6744 294.48 56.8129L295.894 58.2271C296.396 57.7256 296.667 57.0936 296.667 56.38H294.667ZM294.48 56.8129C294.342 56.9513 294.214 57 294.047 57V59C294.761 59 295.393 58.7287 295.894 58.2271L294.48 56.8129ZM294.047 57H262.787V59H294.047V57ZM262.787 57C262.621 57 262.493 56.9513 262.354 56.8129L260.94 58.2271C261.442 58.7287 262.074 59 262.787 59V57ZM262.354 56.8129C262.216 56.6744 262.167 56.5464 262.167 56.38H260.167C260.167 57.0936 260.439 57.7256 260.94 58.2271L262.354 56.8129ZM262.167 56.38V17.62H260.167V56.38H262.167ZM262.167 17.62C262.167 17.4536 262.216 17.3256 262.354 17.1871L260.94 15.7729C260.439 16.2744 260.167 16.9064 260.167 17.62H262.167ZM262.354 17.1871C262.493 17.0487 262.621 17 262.787 17V15C262.074 15 261.442 15.2713 260.94 15.7729L262.354 17.1871ZM262.787 17H293.567V15H262.787V17ZM293.567 17C293.734 17 293.862 17.0487 294 17.1871L295.414 15.7729C294.913 15.2713 294.281 15 293.567 15V17ZM294 17.1871C294.139 17.3256 294.187 17.4536 294.187 17.62H296.187C296.187 16.9064 295.916 16.2744 295.414 15.7729L294 17.1871ZM294.187 17.62V26.08H296.187V17.62H294.187ZM294.187 26.08C294.187 26.2464 294.139 26.3744 294 26.5129L295.414 27.9271C295.916 27.4256 296.187 26.7936 296.187 26.08H294.187ZM294 26.5129C293.862 26.6513 293.734 26.7 293.567 26.7V28.7C294.281 28.7 294.913 28.4287 295.414 27.9271L294 26.5129ZM293.567 26.7H275.567V28.7H293.567V26.7ZM274.567 27.7V31.48H276.567V27.7H274.567ZM275.567 32.48H292.247V30.48H275.567V32.48ZM292.247 32.48C292.414 32.48 292.542 32.5287 292.68 32.6671L294.094 31.2529C293.593 30.7513 292.961 30.48 292.247 30.48V32.48ZM292.68 32.6671C292.819 32.8056 292.867 32.9336 292.867 33.1H294.867C294.867 32.3864 294.596 31.7544 294.094 31.2529L292.68 32.6671ZM292.867 33.1V40.9H294.867V33.1H292.867ZM292.867 40.9C292.867 41.0664 292.819 41.1944 292.68 41.3329L294.094 42.7471C294.596 42.2456 294.867 41.6136 294.867 40.9H292.867ZM292.68 41.3329C292.542 41.4713 292.414 41.52 292.247 41.52V43.52C292.961 43.52 293.593 43.2487 294.094 42.7471L292.68 41.3329ZM292.247 41.52H275.567V43.52H292.247V41.52ZM274.567 42.52V46.3H276.567V42.52H274.567ZM337.926 56.02L338.82 55.5728L338.813 55.5589L338.806 55.5452L337.926 56.02ZM337.686 57.64L338.393 58.3471L338.393 58.3471L337.686 57.64ZM321.906 56.38L322.82 55.9739L322.818 55.9694L321.906 56.38ZM316.746 44.92L317.658 44.5094L317.392 43.92H316.746V44.92ZM314.286 44.92V43.92H313.286V44.92H314.286ZM313.806 57.52L313.099 56.8129L313.099 56.8129L313.806 57.52ZM299.766 57.52L300.473 56.8129L300.473 56.8129L299.766 57.52ZM299.766 16.48L300.473 17.1871L300.473 17.1871L299.766 16.48ZM332.166 19.9L331.54 20.6799L331.546 20.6846L332.166 19.9ZM330.546 42.34L330.008 41.4973L329.225 41.9974L329.666 42.8148L330.546 42.34ZM314.286 27.16V26.16H313.286V27.16H314.286ZM314.286 33.52H313.286V34.52H314.286V33.52ZM320.706 32.68L321.465 33.3308L321.476 33.3179L321.487 33.3047L320.706 32.68ZM320.706 28.18L319.866 28.7233L319.885 28.7523L319.906 28.78L320.706 28.18ZM337.031 56.4672C337.079 56.5623 337.106 56.6683 337.106 56.8H339.106C339.106 56.3717 339.013 55.9577 338.82 55.5728L337.031 56.4672ZM337.106 56.8C337.106 56.7672 337.115 56.7551 337.106 56.7728C337.095 56.7951 337.062 56.8497 336.979 56.9329L338.393 58.3471C338.782 57.9581 339.106 57.4388 339.106 56.8H337.106ZM336.979 56.9329C336.939 56.9731 336.899 57 336.786 57V59C337.393 59 337.953 58.7869 338.393 58.3471L336.979 56.9329ZM336.786 57H324.486V59H336.786V57ZM324.486 57C324.012 57 323.681 56.898 323.443 56.7481C323.207 56.6003 322.993 56.3628 322.82 55.9739L320.992 56.7861C321.299 57.4772 321.755 58.0497 322.379 58.4419C323 58.832 323.72 59 324.486 59V57ZM322.818 55.9694L317.658 44.5094L315.834 45.3306L320.994 56.7906L322.818 55.9694ZM316.746 43.92H314.286V45.92H316.746V43.92ZM313.286 44.92V56.38H315.286V44.92H313.286ZM313.286 56.38C313.286 56.5464 313.237 56.6744 313.099 56.8129L314.513 58.2271C315.015 57.7256 315.286 57.0936 315.286 56.38H313.286ZM313.099 56.8129C312.96 56.9513 312.832 57 312.666 57V59C313.379 59 314.011 58.7287 314.513 58.2271L313.099 56.8129ZM312.666 57H300.906V59H312.666V57ZM300.906 57C300.739 57 300.611 56.9513 300.473 56.8129L299.059 58.2271C299.56 58.7287 300.192 59 300.906 59V57ZM300.473 56.8129C300.335 56.6744 300.286 56.5464 300.286 56.38H298.286C298.286 57.0936 298.557 57.7256 299.059 58.2271L300.473 56.8129ZM300.286 56.38V17.62H298.286V56.38H300.286ZM300.286 17.62C300.286 17.4536 300.335 17.3256 300.473 17.1871L299.059 15.7729C298.557 16.2744 298.286 16.9064 298.286 17.62H300.286ZM300.473 17.1871C300.611 17.0487 300.739 17 300.906 17V15C300.192 15 299.56 15.2713 299.059 15.7729L300.473 17.1871ZM300.906 17H318.666V15H300.906V17ZM318.666 17C324.285 17 328.535 18.2686 331.54 20.6799L332.792 19.1201C329.317 16.3314 324.567 15 318.666 15V17ZM331.546 20.6846C334.503 23.0212 336.026 26.4068 336.026 31H338.026C338.026 25.9132 336.309 21.8988 332.786 19.1154L331.546 20.6846ZM336.026 31C336.026 35.4318 334.063 38.9061 330.008 41.4973L331.084 43.1827C335.668 40.2539 338.026 36.1682 338.026 31H336.026ZM329.666 42.8148L337.046 56.4948L338.806 55.5452L331.426 41.8652L329.666 42.8148ZM313.286 27.16V33.52H315.286V27.16H313.286ZM314.286 34.52H318.666V32.52H314.286V34.52ZM318.666 34.52C319.776 34.52 320.758 34.1555 321.465 33.3308L319.947 32.0292C319.694 32.3245 319.316 32.52 318.666 32.52V34.52ZM321.487 33.3047C322.129 32.5021 322.426 31.5324 322.426 30.46H320.426C320.426 31.1476 320.243 31.6579 319.925 32.0553L321.487 33.3047ZM322.426 30.46C322.426 29.3865 322.129 28.4105 321.506 27.58L319.906 28.78C320.243 29.2295 320.426 29.7735 320.426 30.46H322.426ZM321.545 27.6367C320.894 26.6293 319.871 26.16 318.666 26.16V28.16C319.301 28.16 319.638 28.3707 319.866 28.7233L321.545 27.6367ZM318.666 26.16H314.286V28.16H318.666V26.16ZM358.376 26.464L359.031 27.2189L359.032 27.2181L358.376 26.464ZM375.224 26.464L374.555 27.2073L374.562 27.2135L375.224 26.464ZM376.568 37.264L375.765 36.667L375.763 36.6701L376.568 37.264ZM371.96 41.104L371.455 40.2407L370.358 40.8817L371.239 41.7971L371.96 41.104ZM375.56 44.848L374.839 45.5411L375.56 46.2908L376.28 45.5411L375.56 44.848ZM377.912 40.912L378.831 41.3059L378.835 41.2947L378.84 41.2834L377.912 40.912ZM386.744 40.672L387.451 39.9649L387.451 39.9649L386.744 40.672ZM385.016 45.664L384.181 45.1124L384.175 45.1219L385.016 45.664ZM381.272 50.56L380.547 49.8713L379.889 50.5635L380.55 51.2524L381.272 50.56ZM386.984 56.512L386.262 57.2044L386.269 57.2118L386.276 57.2191L386.984 56.512ZM386.984 57.76L386.343 56.9918L386.309 57.0208L386.276 57.0529L386.984 57.76ZM375.416 57.52L374.751 58.2674L374.778 58.291L374.806 58.3126L375.416 57.52ZM374.12 56.368L374.784 55.6206L374.214 55.1145L373.575 55.529L374.12 56.368ZM355.544 56.032L354.935 56.8255L354.942 56.8307L355.544 56.032ZM358.28 39.232L358.769 40.1039L359.881 39.4794L359.009 38.5484L358.28 39.232ZM363.368 49.792L362.703 50.5394L362.713 50.5483L362.723 50.5569L363.368 49.792ZM368.216 49.984L368.73 50.8415L369.81 50.1938L368.934 49.2888L368.216 49.984ZM363.992 45.616L364.71 44.9208L364.207 44.4007L363.556 44.7158L363.992 45.616ZM368.36 31.696L367.652 32.4031L367.669 32.4199L367.687 32.4359L368.36 31.696ZM365.864 31.744L366.536 32.4839L366.554 32.4679L366.571 32.4511L365.864 31.744ZM366.632 35.296L365.952 36.0298L366.437 36.4784L367.039 36.209L366.632 35.296ZM356.448 32.608C356.448 30.522 357.279 28.7416 359.031 27.2189L357.72 25.7091C355.568 27.5784 354.448 29.894 354.448 32.608H356.448ZM359.032 27.2181C360.775 25.7007 363.324 24.872 366.824 24.872V22.872C363.027 22.872 359.945 23.7713 357.719 25.7099L359.032 27.2181ZM366.824 24.872C370.361 24.872 372.883 25.703 374.555 27.2073L375.893 25.7207C373.724 23.769 370.646 22.872 366.824 22.872V24.872ZM374.562 27.2135C376.286 28.7372 377.104 30.5041 377.104 32.56H379.104C379.104 29.8799 378.001 27.5828 375.886 25.7145L374.562 27.2135ZM377.104 32.56C377.104 34.1109 376.657 35.4683 375.765 36.667L377.37 37.861C378.526 36.3077 379.104 34.5291 379.104 32.56H377.104ZM375.763 36.6701C374.879 37.8678 373.465 39.0653 371.455 40.2407L372.464 41.9673C374.614 40.7107 376.272 39.3482 377.372 37.8579L375.763 36.6701ZM371.239 41.7971L374.839 45.5411L376.28 44.1549L372.68 40.4109L371.239 41.7971ZM376.28 45.5411C377.202 44.5824 378.043 43.1432 378.831 41.3059L376.992 40.5181C376.244 42.2648 375.517 43.4496 374.839 44.1549L376.28 45.5411ZM378.84 41.2834C378.828 41.3126 378.807 41.3493 378.775 41.3843C378.742 41.4188 378.712 41.438 378.695 41.4464C378.68 41.454 378.682 41.4498 378.712 41.444C378.743 41.4381 378.794 41.432 378.872 41.432V39.432C378.182 39.432 377.334 39.664 376.983 40.5406L378.84 41.2834ZM378.872 41.432H386.12V39.432H378.872V41.432ZM386.12 41.432C386.143 41.432 386.135 41.4354 386.109 41.4253C386.096 41.4205 386.082 41.4136 386.068 41.4046C386.055 41.3957 386.044 41.3866 386.036 41.3791L387.451 39.9649C387.078 39.5921 386.603 39.432 386.12 39.432V41.432ZM386.036 41.3791C386.029 41.3716 386.02 41.361 386.011 41.3473C386.002 41.3335 385.995 41.3196 385.99 41.307C385.98 41.2807 385.984 41.2727 385.984 41.296H387.984C387.984 40.8128 387.823 40.3377 387.451 39.9649L386.036 41.3791ZM385.984 41.296C385.984 41.5511 385.886 41.9943 385.58 42.6732C385.282 43.3348 384.821 44.1458 384.181 45.1124L385.85 46.2156C386.522 45.1982 387.045 44.2892 387.403 43.4948C387.753 42.7177 387.984 41.9689 387.984 41.296H385.984ZM384.175 45.1219C382.919 47.0698 381.708 48.6486 380.547 49.8713L381.997 51.2487C383.267 49.9114 384.553 48.2262 385.856 46.2061L384.175 45.1219ZM380.55 51.2524L386.262 57.2044L387.705 55.8196L381.993 49.8676L380.55 51.2524ZM386.276 57.2191C386.285 57.2278 386.288 57.232 386.287 57.2312C386.287 57.2303 386.284 57.2257 386.28 57.2179C386.277 57.21 386.274 57.2017 386.273 57.1941C386.271 57.1867 386.272 57.1828 386.272 57.184H388.272C388.272 56.6454 388.058 56.1718 387.691 55.8049L386.276 57.2191ZM386.272 57.184C386.272 57.1477 386.281 57.0977 386.305 57.0488C386.328 57.0028 386.351 56.9857 386.343 56.9918L387.624 58.5282C388.014 58.203 388.272 57.7415 388.272 57.184H386.272ZM386.276 57.0529C386.281 57.0487 386.3 57.0314 386.335 57.0169C386.37 57.0023 386.398 57 386.408 57V59C386.9 59 387.345 58.8125 387.691 58.4671L386.276 57.0529ZM386.408 57H376.616V59H386.408V57ZM376.616 57C376.52 57 376.33 56.9616 376.025 56.7274L374.806 58.3126C375.333 58.7184 375.943 59 376.616 59V57ZM376.08 56.7726L374.784 55.6206L373.455 57.1154L374.751 58.2674L376.08 56.7726ZM373.575 55.529C371.418 56.9284 368.522 57.672 364.808 57.672V59.672C368.773 59.672 372.085 58.8796 374.664 57.207L373.575 55.529ZM364.808 57.672C361.117 57.672 358.261 56.827 356.145 55.2333L354.942 56.8307C357.499 58.757 360.818 59.672 364.808 59.672V57.672ZM356.152 55.2386C354.097 53.6623 353.04 51.4153 353.04 48.352H351.04C351.04 51.9447 352.318 54.8177 354.935 56.8254L356.152 55.2386ZM353.04 48.352C353.04 45.0718 354.824 42.3194 358.769 40.1039L357.79 38.3601C353.415 40.8166 351.04 44.1442 351.04 48.352H353.04ZM359.009 38.5484C357.267 36.6877 356.448 34.7158 356.448 32.608H354.448C354.448 35.3002 355.516 37.7443 357.55 39.9156L359.009 38.5484ZM361.504 47.68C361.504 48.8105 361.878 49.8061 362.703 50.5394L364.032 49.0446C363.705 48.7539 363.504 48.3415 363.504 47.68H361.504ZM362.723 50.5569C363.553 51.2555 364.6 51.56 365.768 51.56V49.56C364.951 49.56 364.398 49.3525 364.012 49.0271L362.723 50.5569ZM365.768 51.56C366.883 51.56 367.891 51.3446 368.73 50.8415L367.701 49.1265C367.26 49.3914 366.636 49.56 365.768 49.56V51.56ZM368.934 49.2888L364.71 44.9208L363.273 46.3112L367.497 50.6792L368.934 49.2888ZM363.556 44.7158C362.954 45.0072 362.434 45.3942 362.064 45.9072C361.686 46.4314 361.504 47.0347 361.504 47.68H363.504C363.504 47.4293 363.569 47.2406 363.687 47.0768C363.813 46.9018 364.037 46.7048 364.427 46.5162L363.556 44.7158ZM369.888 32.944C369.888 32.1744 369.61 31.4812 369.032 30.9561L367.687 32.4359C367.813 32.5508 367.888 32.6896 367.888 32.944H369.888ZM369.067 30.9889C368.534 30.4561 367.851 30.216 367.112 30.216V32.216C367.396 32.216 367.545 32.2959 367.652 32.4031L369.067 30.9889ZM367.112 30.216C366.356 30.216 365.688 30.5051 365.156 31.0369L366.571 32.4511C366.743 32.2789 366.908 32.216 367.112 32.216V30.216ZM365.191 31.0041C364.565 31.5726 364.336 32.364 364.336 33.184H366.336C366.336 32.724 366.458 32.5554 366.536 32.4839L365.191 31.0041ZM364.336 33.184C364.336 34.2395 365.054 35.1986 365.952 36.0298L367.311 34.5622C366.481 33.7934 366.336 33.3445 366.336 33.184H364.336ZM367.039 36.209C368.591 35.5159 369.888 34.4897 369.888 32.944H367.888C367.888 33.1903 367.68 33.7321 366.224 34.383L367.039 36.209Z" fill="#51473D"/>
<path d="M298.848 88.328C300.128 88.328 301.232 87.976 302.16 87.272C303.12 86.568 303.6 85.384 303.6 83.72C303.6 82.6 303.088 81.672 302.064 80.936C301.072 80.2 299.824 79.544 298.32 78.968C296.816 78.36 295.792 77.944 295.248 77.72C294.736 77.464 294.048 77.064 293.184 76.52C291.616 75.464 290.832 73.944 290.832 71.96C290.832 69.976 291.616 68.328 293.184 67.016C294.752 65.704 297.04 65.048 300.048 65.048C301.968 65.048 303.6 65.48 304.944 66.344C306.32 67.176 307.008 68.184 307.008 69.368C307.008 70.552 306.56 71.368 305.664 71.816C305.184 72.04 304.704 72.152 304.224 72.152C303.776 72.152 303.328 72.056 302.88 71.864C303.008 71.288 303.072 70.664 303.072 69.992C303.072 69.32 302.912 68.648 302.592 67.976C302.048 66.824 301.008 66.248 299.472 66.248C297.936 66.248 296.768 66.664 295.968 67.496C295.168 68.328 294.768 69.416 294.768 70.76C294.768 72.136 295.344 73.16 296.496 73.832C297.36 74.376 298.432 74.872 299.712 75.32C300.992 75.768 301.856 76.088 302.304 76.28C302.784 76.44 303.408 76.728 304.176 77.144C304.944 77.56 305.52 77.992 305.904 78.44C306.896 79.528 307.392 81 307.392 82.856C307.392 84.712 306.56 86.296 304.896 87.608C303.232 88.888 301.2 89.528 298.8 89.528C296.4 89.528 294.288 89.16 292.464 88.424C290.672 87.688 289.776 86.616 289.776 85.208C289.776 83.896 290.752 83.032 292.704 82.616C293.28 86.424 295.328 88.328 298.848 88.328ZM323.385 84.008C323.385 84.104 323.369 84.216 323.337 84.344C322.825 85.912 321.961 87.176 320.745 88.136C319.561 89.064 318.169 89.528 316.569 89.528C314.969 89.528 313.625 89.08 312.537 88.184C311.481 87.256 310.953 85.464 310.953 82.808C310.953 82.072 311.033 76.744 311.193 66.824H307.881V65.576H311.241L311.289 58.52H315.993L315.849 65.576H322.713V66.824H315.849C315.689 77.16 315.609 83.208 315.609 84.968C315.609 87.112 316.313 88.184 317.721 88.184C318.585 88.184 319.481 87.688 320.409 86.696C321.369 85.704 322.041 84.584 322.425 83.336C323.065 83.336 323.385 83.56 323.385 84.008ZM333.048 89.576C327.928 89.576 325.368 87.112 325.368 82.184C325.368 78.568 325.48 73.544 325.704 67.112L321.864 66.92V65.816L330.408 65.288C330.184 73.736 330.072 79.48 330.072 82.52C330.072 84.344 330.408 85.704 331.08 86.6C331.752 87.496 332.872 87.944 334.44 87.944C336.04 87.944 337.544 87.064 338.952 85.304C340.36 83.512 341.064 81.944 341.064 80.6V67.112L337.08 66.92V65.816L345.768 65.288V87.512L349.848 87.704L349.896 88.808L341.256 89.384L341.592 84.2H341.016C339.352 87.784 336.696 89.576 333.048 89.576ZM352.363 66.824H349.003V65.576H352.363V64.856C352.363 60.6 353.259 57.4 355.051 55.256C356.843 53.112 359.403 52.04 362.731 52.04C364.715 52.04 366.363 52.424 367.675 53.192C369.019 53.928 369.691 54.936 369.691 56.216C369.691 57.464 369.259 58.376 368.395 58.952C367.883 59.304 367.371 59.48 366.859 59.48C366.379 59.48 365.915 59.384 365.467 59.192C365.659 58.296 365.755 57.432 365.755 56.6C365.755 55.768 365.467 55.032 364.891 54.392C364.315 53.752 363.515 53.432 362.491 53.432C361.467 53.432 360.587 53.72 359.851 54.296C359.147 54.84 358.619 55.496 358.267 56.264C357.915 57 357.643 57.992 357.451 59.24C357.195 60.904 357.067 63.016 357.067 65.576H364.315V66.824H357.067V87.608L362.443 87.848L362.491 89H349.147L349.099 87.848L352.363 87.656V66.824ZM367.061 66.824H363.701V65.576H367.061V64.856C367.061 60.6 367.957 57.4 369.749 55.256C371.541 53.112 374.101 52.04 377.429 52.04C379.413 52.04 381.061 52.424 382.373 53.192C383.717 53.928 384.389 54.936 384.389 56.216C384.389 57.464 383.957 58.376 383.093 58.952C382.581 59.304 382.069 59.48 381.557 59.48C381.077 59.48 380.613 59.384 380.165 59.192C380.357 58.296 380.453 57.432 380.453 56.6C380.453 55.768 380.165 55.032 379.589 54.392C379.013 53.752 378.213 53.432 377.189 53.432C376.165 53.432 375.285 53.72 374.549 54.296C373.845 54.84 373.317 55.496 372.965 56.264C372.613 57 372.341 57.992 372.149 59.24C371.893 60.904 371.765 63.016 371.765 65.576H379.013V66.824H371.765V87.608L377.141 87.848L377.189 89H363.845L363.797 87.848L367.061 87.656V66.824Z" fill="#51473D"/>
</svg>
