<svg width="413" height="49" viewBox="0 0 413 49" fill="none" xmlns="http://www.w3.org/2000/svg">
<path d="M18.065 24.678V30.222C18.065 32.004 18.879 32.895 20.507 32.895C21.761 32.895 22.586 32.301 22.982 31.113C23.092 30.739 23.224 30.486 23.378 30.354C23.554 30.222 23.829 30.156 24.203 30.156H30.935C31.133 30.156 31.298 30.233 31.43 30.387C31.584 30.519 31.661 30.684 31.661 30.882C31.661 32.796 31.111 34.402 30.011 35.7C27.987 38.12 24.83 39.33 20.54 39.33C17.174 39.33 14.49 38.593 12.488 37.119C10.486 35.623 9.485 33.335 9.485 30.255V24.645C9.485 21.631 10.508 19.365 12.554 17.847C14.6 16.329 17.262 15.57 20.54 15.57C24.83 15.57 27.987 16.78 30.011 19.2C31.111 20.498 31.661 22.104 31.661 24.018C31.661 24.216 31.584 24.392 31.43 24.546C31.298 24.678 31.133 24.744 30.935 24.744H24.203C23.851 24.744 23.587 24.678 23.411 24.546C23.257 24.414 23.114 24.161 22.982 23.787C22.564 22.599 21.739 22.005 20.507 22.005C18.879 22.005 18.065 22.896 18.065 24.678ZM35.1613 18.012C37.1853 16.384 39.8583 15.57 43.1803 15.57C46.5023 15.57 49.1643 16.395 51.1663 18.045C53.1903 19.673 54.2023 21.972 54.2023 24.942V30.09C54.2023 33.104 53.2013 35.403 51.1993 36.987C49.2193 38.549 46.5463 39.33 43.1803 39.33C39.8143 39.33 37.1303 38.549 35.1283 36.987C33.1483 35.403 32.1583 33.104 32.1583 30.09V24.942C32.1583 21.95 33.1593 19.64 35.1613 18.012ZM41.3983 32.235C41.8383 32.675 42.4323 32.895 43.1803 32.895C43.9283 32.895 44.5223 32.675 44.9623 32.235C45.4023 31.795 45.6223 31.124 45.6223 30.222V24.678C45.6223 23.798 45.4023 23.138 44.9623 22.698C44.5223 22.236 43.9283 22.005 43.1803 22.005C42.4323 22.005 41.8383 22.236 41.3983 22.698C40.9583 23.138 40.7383 23.798 40.7383 24.678V30.222C40.7383 31.124 40.9583 31.795 41.3983 32.235ZM74.3591 15.9H79.5731C79.8151 15.9 80.0241 15.988 80.2001 16.164C80.3761 16.34 80.4641 16.549 80.4641 16.791V38.109C80.4641 38.351 80.3761 38.56 80.2001 38.736C80.0241 38.912 79.8151 39 79.5731 39H73.6001C73.3581 39 73.1491 38.912 72.9731 38.736C72.7971 38.56 72.7091 38.351 72.7091 38.109V29.067L70.5311 32.631C70.1791 33.181 69.7721 33.456 69.3101 33.456H67.0001C66.5381 33.456 66.1311 33.181 65.7791 32.631L63.6011 29.067V38.109C63.6011 38.351 63.5131 38.56 63.3371 38.736C63.1611 38.912 62.9521 39 62.7101 39H56.7371C56.4951 39 56.2861 38.912 56.1101 38.736C55.9341 38.56 55.8461 38.351 55.8461 38.109V16.791C55.8461 16.549 55.9341 16.34 56.1101 16.164C56.2861 15.988 56.4951 15.9 56.7371 15.9H61.9511C62.5671 15.9 63.0401 16.197 63.3701 16.791L68.1551 24.711L72.9401 16.791C73.2701 16.197 73.7431 15.9 74.3591 15.9ZM83.6644 15.9H93.4984C96.6664 15.9 99.1414 16.582 100.923 17.946C102.705 19.31 103.596 21.323 103.596 23.985C103.596 26.647 102.705 28.616 100.923 29.892C99.1634 31.168 96.6884 31.806 93.4984 31.806H91.3534V38.109C91.3534 38.351 91.2654 38.56 91.0894 38.736C90.9134 38.912 90.7044 39 90.4624 39H83.6644C83.4224 39 83.2134 38.912 83.0374 38.736C82.8614 38.56 82.7734 38.351 82.7734 38.109V16.791C82.7734 16.549 82.8614 16.34 83.0374 16.164C83.2134 15.988 83.4224 15.9 83.6644 15.9ZM91.1884 22.038V25.701H93.4984C93.8944 25.701 94.2464 25.558 94.5544 25.272C94.8624 24.964 95.0164 24.535 95.0164 23.985C95.0164 23.435 94.8954 22.973 94.6534 22.599C94.4114 22.225 94.0264 22.038 93.4984 22.038H91.1884ZM118.433 15.9H124.901C125.143 15.9 125.352 15.988 125.528 16.164C125.704 16.34 125.792 16.549 125.792 16.791V30.057C125.792 33.137 124.835 35.458 122.921 37.02C121.007 38.56 118.4 39.33 115.1 39.33C111.822 39.33 109.215 38.56 107.279 37.02C105.365 35.48 104.408 33.159 104.408 30.057V16.791C104.408 16.549 104.496 16.34 104.672 16.164C104.848 15.988 105.057 15.9 105.299 15.9H111.767C112.009 15.9 112.218 15.988 112.394 16.164C112.57 16.34 112.658 16.549 112.658 16.791V30.156C112.658 31.85 113.472 32.697 115.1 32.697C116.728 32.697 117.542 31.85 117.542 30.156V16.791C117.542 16.549 117.63 16.34 117.806 16.164C117.982 15.988 118.191 15.9 118.433 15.9ZM127.502 15.9H146.84C147.082 15.9 147.291 15.988 147.467 16.164C147.643 16.34 147.731 16.549 147.731 16.791V22.104C147.731 22.346 147.643 22.555 147.467 22.731C147.291 22.907 147.082 22.995 146.84 22.995H141.362V38.109C141.362 38.351 141.274 38.56 141.098 38.736C140.922 38.912 140.713 39 140.471 39H133.871C133.629 39 133.42 38.912 133.244 38.736C133.068 38.56 132.98 38.351 132.98 38.109V22.995H127.502C127.26 22.995 127.051 22.907 126.875 22.731C126.699 22.555 126.611 22.346 126.611 22.104V16.791C126.611 16.549 126.699 16.34 126.875 16.164C127.051 15.988 127.26 15.9 127.502 15.9ZM156.812 32.565H166.976C167.218 32.565 167.427 32.653 167.603 32.829C167.779 33.005 167.867 33.214 167.867 33.456V38.109C167.867 38.351 167.779 38.56 167.603 38.736C167.427 38.912 167.218 39 166.976 39H149.783C149.541 39 149.332 38.912 149.156 38.736C148.98 38.56 148.892 38.351 148.892 38.109V16.791C148.892 16.549 148.98 16.34 149.156 16.164C149.332 15.988 149.541 15.9 149.783 15.9H166.712C166.954 15.9 167.163 15.988 167.339 16.164C167.515 16.34 167.603 16.549 167.603 16.791V21.444C167.603 21.686 167.515 21.895 167.339 22.071C167.163 22.247 166.954 22.335 166.712 22.335H156.812V24.414H165.986C166.228 24.414 166.437 24.502 166.613 24.678C166.789 24.854 166.877 25.063 166.877 25.305V29.595C166.877 29.837 166.789 30.046 166.613 30.222C166.437 30.398 166.228 30.486 165.986 30.486H156.812V32.565ZM191.109 37.911C191.175 38.043 191.208 38.186 191.208 38.34C191.208 38.494 191.131 38.648 190.977 38.802C190.845 38.934 190.68 39 190.482 39H183.717C183.035 39 182.562 38.703 182.298 38.109L179.46 31.806H178.107V38.109C178.107 38.351 178.019 38.56 177.843 38.736C177.667 38.912 177.458 39 177.216 39H170.748C170.506 39 170.297 38.912 170.121 38.736C169.945 38.56 169.857 38.351 169.857 38.109V16.791C169.857 16.549 169.945 16.34 170.121 16.164C170.297 15.988 170.506 15.9 170.748 15.9H180.516C183.684 15.9 186.159 16.615 187.941 18.045C189.723 19.453 190.614 21.488 190.614 24.15C190.614 26.79 189.426 28.869 187.05 30.387L191.109 37.911ZM178.107 22.038V25.536H180.516C181 25.536 181.374 25.382 181.638 25.074C181.902 24.744 182.034 24.337 182.034 23.853C182.034 23.369 181.902 22.951 181.638 22.599C181.396 22.225 181.022 22.038 180.516 22.038H178.107ZM200.694 24.188C200.694 22.788 201.263 21.5933 202.402 20.604C203.559 19.596 205.202 19.092 207.33 19.092C209.476 19.092 211.11 19.596 212.23 20.604C213.35 21.5933 213.91 22.7787 213.91 24.16C213.91 25.1867 213.611 26.1013 213.014 26.904C212.435 27.688 211.539 28.4347 210.326 29.144L212.426 31.328C212.892 30.8427 213.35 30.0773 213.798 29.032C213.872 28.8453 214.059 28.752 214.358 28.752H218.586C218.735 28.752 218.856 28.7987 218.95 28.892C219.043 28.9853 219.09 29.1067 219.09 29.256C219.09 29.7973 218.707 30.6467 217.942 31.804C217.195 32.9613 216.467 33.9133 215.758 34.66L219.09 38.132C219.202 38.244 219.258 38.3747 219.258 38.524C219.258 38.6547 219.202 38.7667 219.09 38.86C218.996 38.9533 218.884 39 218.754 39H213.042C212.818 39 212.584 38.9067 212.342 38.72L211.586 38.048C210.204 38.944 208.394 39.392 206.154 39.392C203.914 39.392 202.112 38.8787 200.75 37.852C199.387 36.8067 198.706 35.3133 198.706 33.372C198.706 31.188 199.919 29.4147 202.346 28.052C201.244 26.876 200.694 25.588 200.694 24.188ZM204.81 32.98C204.81 33.5027 204.978 33.9133 205.314 34.212C205.668 34.5107 206.135 34.66 206.714 34.66C207.292 34.66 207.768 34.548 208.142 34.324L205.678 31.776C205.099 32.056 204.81 32.4573 204.81 32.98ZM208.534 24.384C208.534 24.0853 208.431 23.8427 208.226 23.656C208.039 23.4693 207.796 23.376 207.498 23.376C207.218 23.376 206.975 23.4787 206.77 23.684C206.564 23.8707 206.462 24.1507 206.462 24.524C206.462 24.8787 206.714 25.2893 207.218 25.756C208.095 25.364 208.534 24.9067 208.534 24.384ZM236.773 39H232.054C231.636 39 231.284 38.879 230.998 38.637C230.734 38.373 230.58 38.076 230.536 37.746L227.5 16.725V16.626C227.5 16.428 227.566 16.263 227.698 16.131C227.852 15.977 228.028 15.9 228.226 15.9H234.364C235.09 15.9 235.486 16.197 235.552 16.791L236.674 26.097L238.027 21.972C238.247 21.334 238.621 21.015 239.149 21.015H242.515C243.043 21.015 243.417 21.334 243.637 21.972L244.99 26.064L246.112 16.791C246.178 16.197 246.574 15.9 247.3 15.9H253.438C253.636 15.9 253.801 15.977 253.933 16.131C254.087 16.263 254.164 16.428 254.164 16.626V16.725L251.128 37.746C251.084 38.076 250.919 38.373 250.633 38.637C250.369 38.879 250.028 39 249.61 39H244.891C244.209 39 243.758 38.703 243.538 38.109L240.832 31.344L238.126 38.109C237.906 38.703 237.455 39 236.773 39ZM263.402 32.565H273.566C273.808 32.565 274.017 32.653 274.193 32.829C274.369 33.005 274.457 33.214 274.457 33.456V38.109C274.457 38.351 274.369 38.56 274.193 38.736C274.017 38.912 273.808 39 273.566 39H256.373C256.131 39 255.922 38.912 255.746 38.736C255.57 38.56 255.482 38.351 255.482 38.109V16.791C255.482 16.549 255.57 16.34 255.746 16.164C255.922 15.988 256.131 15.9 256.373 15.9H273.302C273.544 15.9 273.753 15.988 273.929 16.164C274.105 16.34 274.193 16.549 274.193 16.791V21.444C274.193 21.686 274.105 21.895 273.929 22.071C273.753 22.247 273.544 22.335 273.302 22.335H263.402V24.414H272.576C272.818 24.414 273.027 24.502 273.203 24.678C273.379 24.854 273.467 25.063 273.467 25.305V29.595C273.467 29.837 273.379 30.046 273.203 30.222C273.027 30.398 272.818 30.486 272.576 30.486H263.402V32.565ZM288.459 24.15C288.701 23.864 288.822 23.523 288.822 23.127C288.822 22.731 288.701 22.379 288.459 22.071C288.239 21.741 287.909 21.576 287.469 21.576H284.697V24.579H287.469C287.909 24.579 288.239 24.436 288.459 24.15ZM284.697 30.09V33.324H287.766C288.272 33.324 288.646 33.159 288.888 32.829C289.152 32.477 289.284 32.092 289.284 31.674V31.641C289.284 31.223 289.141 30.86 288.855 30.552C288.591 30.244 288.228 30.09 287.766 30.09H284.697ZM288.624 39H277.338C277.096 39 276.887 38.912 276.711 38.736C276.535 38.56 276.447 38.351 276.447 38.109V16.791C276.447 16.549 276.535 16.34 276.711 16.164C276.887 15.988 277.096 15.9 277.338 15.9H288.294C291.418 15.9 293.717 16.472 295.191 17.616C296.687 18.738 297.435 20.443 297.435 22.731V22.83C297.435 23.776 297.16 24.623 296.61 25.371C296.06 26.097 295.455 26.625 294.795 26.955C295.675 27.307 296.412 27.934 297.006 28.836C297.622 29.716 297.93 30.684 297.93 31.74C297.93 36.58 294.828 39 288.624 39ZM306.408 23.16C306.408 20.916 307.332 19.09 309.18 17.682C311.05 16.274 313.492 15.57 316.506 15.57C319.542 15.57 322.017 16.307 323.931 17.781C325.867 19.255 326.835 20.795 326.835 22.401C326.835 22.599 326.758 22.775 326.604 22.929C326.472 23.061 326.318 23.127 326.142 23.127H319.542C319.036 23.127 318.574 22.94 318.156 22.566C317.738 22.192 317.177 22.005 316.473 22.005C315.417 22.005 314.889 22.313 314.889 22.929C314.889 23.259 315.142 23.534 315.648 23.754C316.176 23.974 317.144 24.172 318.552 24.348C321.83 24.766 324.162 25.536 325.548 26.658C326.956 27.758 327.66 29.441 327.66 31.707C327.66 33.951 326.626 35.788 324.558 37.218C322.512 38.626 319.828 39.33 316.506 39.33C313.184 39.33 310.577 38.648 308.685 37.284C306.793 35.92 305.847 34.259 305.847 32.301C305.847 32.103 305.913 31.938 306.045 31.806C306.199 31.652 306.375 31.575 306.573 31.575H312.843C313.305 31.575 313.811 31.795 314.361 32.235C314.933 32.675 315.714 32.895 316.704 32.895C318.354 32.895 319.179 32.587 319.179 31.971C319.179 31.575 318.882 31.278 318.288 31.08C317.694 30.86 316.572 30.64 314.922 30.42C309.246 29.672 306.408 27.252 306.408 23.16ZM328.541 15.9H347.879C348.121 15.9 348.33 15.988 348.506 16.164C348.682 16.34 348.77 16.549 348.77 16.791V22.104C348.77 22.346 348.682 22.555 348.506 22.731C348.33 22.907 348.121 22.995 347.879 22.995H342.401V38.109C342.401 38.351 342.313 38.56 342.137 38.736C341.961 38.912 341.752 39 341.51 39H334.91C334.668 39 334.459 38.912 334.283 38.736C334.107 38.56 334.019 38.351 334.019 38.109V22.995H328.541C328.299 22.995 328.09 22.907 327.914 22.731C327.738 22.555 327.65 22.346 327.65 22.104V16.791C327.65 16.549 327.738 16.34 327.914 16.164C328.09 15.988 328.299 15.9 328.541 15.9ZM363.626 15.9H370.094C370.336 15.9 370.545 15.988 370.721 16.164C370.897 16.34 370.985 16.549 370.985 16.791V30.057C370.985 33.137 370.028 35.458 368.114 37.02C366.2 38.56 363.593 39.33 360.293 39.33C357.015 39.33 354.408 38.56 352.472 37.02C350.558 35.48 349.601 33.159 349.601 30.057V16.791C349.601 16.549 349.689 16.34 349.865 16.164C350.041 15.988 350.25 15.9 350.492 15.9H356.96C357.202 15.9 357.411 15.988 357.587 16.164C357.763 16.34 357.851 16.549 357.851 16.791V30.156C357.851 31.85 358.665 32.697 360.293 32.697C361.921 32.697 362.735 31.85 362.735 30.156V16.791C362.735 16.549 362.823 16.34 362.999 16.164C363.175 15.988 363.384 15.9 363.626 15.9ZM373.85 15.9H390.482C390.724 15.9 390.933 15.988 391.109 16.164C391.285 16.34 391.373 16.549 391.373 16.791V21.807C391.373 22.049 391.285 22.258 391.109 22.434C390.933 22.61 390.724 22.698 390.482 22.698H381.044V25.14H389.822C390.064 25.14 390.273 25.228 390.449 25.404C390.625 25.58 390.713 25.789 390.713 26.031V31.014C390.713 31.256 390.625 31.465 390.449 31.641C390.273 31.817 390.064 31.905 389.822 31.905H381.044V38.109C381.044 38.351 380.956 38.56 380.78 38.736C380.604 38.912 380.395 39 380.153 39H373.85C373.608 39 373.399 38.912 373.223 38.736C373.047 38.56 372.959 38.351 372.959 38.109V16.791C372.959 16.549 373.047 16.34 373.223 16.164C373.399 15.988 373.608 15.9 373.85 15.9ZM393.752 15.9H410.384C410.626 15.9 410.835 15.988 411.011 16.164C411.187 16.34 411.275 16.549 411.275 16.791V21.807C411.275 22.049 411.187 22.258 411.011 22.434C410.835 22.61 410.626 22.698 410.384 22.698H400.946V25.14H409.724C409.966 25.14 410.175 25.228 410.351 25.404C410.527 25.58 410.615 25.789 410.615 26.031V31.014C410.615 31.256 410.527 31.465 410.351 31.641C410.175 31.817 409.966 31.905 409.724 31.905H400.946V38.109C400.946 38.351 400.858 38.56 400.682 38.736C400.506 38.912 400.297 39 400.055 39H393.752C393.51 39 393.301 38.912 393.125 38.736C392.949 38.56 392.861 38.351 392.861 38.109V16.791C392.861 16.549 392.949 16.34 393.125 16.164C393.301 15.988 393.51 15.9 393.752 15.9Z" fill="#4AA5FA"/>
<path d="M16.065 22.678V28.222C16.065 30.004 16.879 30.895 18.507 30.895C19.761 30.895 20.586 30.301 20.982 29.113C21.092 28.739 21.224 28.486 21.378 28.354C21.554 28.222 21.829 28.156 22.203 28.156H28.935C29.133 28.156 29.298 28.233 29.43 28.387C29.584 28.519 29.661 28.684 29.661 28.882C29.661 30.796 29.111 32.402 28.011 33.7C25.987 36.12 22.83 37.33 18.54 37.33C15.174 37.33 12.49 36.593 10.488 35.119C8.486 33.623 7.485 31.335 7.485 28.255V22.645C7.485 19.631 8.508 17.365 10.554 15.847C12.6 14.329 15.262 13.57 18.54 13.57C22.83 13.57 25.987 14.78 28.011 17.2C29.111 18.498 29.661 20.104 29.661 22.018C29.661 22.216 29.584 22.392 29.43 22.546C29.298 22.678 29.133 22.744 28.935 22.744H22.203C21.851 22.744 21.587 22.678 21.411 22.546C21.257 22.414 21.114 22.161 20.982 21.787C20.564 20.599 19.739 20.005 18.507 20.005C16.879 20.005 16.065 20.896 16.065 22.678ZM33.1613 16.012C35.1853 14.384 37.8583 13.57 41.1803 13.57C44.5023 13.57 47.1643 14.395 49.1663 16.045C51.1903 17.673 52.2023 19.972 52.2023 22.942V28.09C52.2023 31.104 51.2013 33.403 49.1993 34.987C47.2193 36.549 44.5463 37.33 41.1803 37.33C37.8143 37.33 35.1303 36.549 33.1283 34.987C31.1483 33.403 30.1583 31.104 30.1583 28.09V22.942C30.1583 19.95 31.1593 17.64 33.1613 16.012ZM39.3983 30.235C39.8383 30.675 40.4323 30.895 41.1803 30.895C41.9283 30.895 42.5223 30.675 42.9623 30.235C43.4023 29.795 43.6223 29.124 43.6223 28.222V22.678C43.6223 21.798 43.4023 21.138 42.9623 20.698C42.5223 20.236 41.9283 20.005 41.1803 20.005C40.4323 20.005 39.8383 20.236 39.3983 20.698C38.9583 21.138 38.7383 21.798 38.7383 22.678V28.222C38.7383 29.124 38.9583 29.795 39.3983 30.235ZM72.3591 13.9H77.5731C77.8151 13.9 78.0241 13.988 78.2001 14.164C78.3761 14.34 78.4641 14.549 78.4641 14.791V36.109C78.4641 36.351 78.3761 36.56 78.2001 36.736C78.0241 36.912 77.8151 37 77.5731 37H71.6001C71.3581 37 71.1491 36.912 70.9731 36.736C70.7971 36.56 70.7091 36.351 70.7091 36.109V27.067L68.5311 30.631C68.1791 31.181 67.7721 31.456 67.3101 31.456H65.0001C64.5381 31.456 64.1311 31.181 63.7791 30.631L61.6011 27.067V36.109C61.6011 36.351 61.5131 36.56 61.3371 36.736C61.1611 36.912 60.9521 37 60.7101 37H54.7371C54.4951 37 54.2861 36.912 54.1101 36.736C53.9341 36.56 53.8461 36.351 53.8461 36.109V14.791C53.8461 14.549 53.9341 14.34 54.1101 14.164C54.2861 13.988 54.4951 13.9 54.7371 13.9H59.9511C60.5671 13.9 61.0401 14.197 61.3701 14.791L66.1551 22.711L70.9401 14.791C71.2701 14.197 71.7431 13.9 72.3591 13.9ZM81.6644 13.9H91.4984C94.6664 13.9 97.1414 14.582 98.9234 15.946C100.705 17.31 101.596 19.323 101.596 21.985C101.596 24.647 100.705 26.616 98.9234 27.892C97.1634 29.168 94.6884 29.806 91.4984 29.806H89.3534V36.109C89.3534 36.351 89.2654 36.56 89.0894 36.736C88.9134 36.912 88.7044 37 88.4624 37H81.6644C81.4224 37 81.2134 36.912 81.0374 36.736C80.8614 36.56 80.7734 36.351 80.7734 36.109V14.791C80.7734 14.549 80.8614 14.34 81.0374 14.164C81.2134 13.988 81.4224 13.9 81.6644 13.9ZM89.1884 20.038V23.701H91.4984C91.8944 23.701 92.2464 23.558 92.5544 23.272C92.8624 22.964 93.0164 22.535 93.0164 21.985C93.0164 21.435 92.8954 20.973 92.6534 20.599C92.4114 20.225 92.0264 20.038 91.4984 20.038H89.1884ZM116.433 13.9H122.901C123.143 13.9 123.352 13.988 123.528 14.164C123.704 14.34 123.792 14.549 123.792 14.791V28.057C123.792 31.137 122.835 33.458 120.921 35.02C119.007 36.56 116.4 37.33 113.1 37.33C109.822 37.33 107.215 36.56 105.279 35.02C103.365 33.48 102.408 31.159 102.408 28.057V14.791C102.408 14.549 102.496 14.34 102.672 14.164C102.848 13.988 103.057 13.9 103.299 13.9H109.767C110.009 13.9 110.218 13.988 110.394 14.164C110.57 14.34 110.658 14.549 110.658 14.791V28.156C110.658 29.85 111.472 30.697 113.1 30.697C114.728 30.697 115.542 29.85 115.542 28.156V14.791C115.542 14.549 115.63 14.34 115.806 14.164C115.982 13.988 116.191 13.9 116.433 13.9ZM125.502 13.9H144.84C145.082 13.9 145.291 13.988 145.467 14.164C145.643 14.34 145.731 14.549 145.731 14.791V20.104C145.731 20.346 145.643 20.555 145.467 20.731C145.291 20.907 145.082 20.995 144.84 20.995H139.362V36.109C139.362 36.351 139.274 36.56 139.098 36.736C138.922 36.912 138.713 37 138.471 37H131.871C131.629 37 131.42 36.912 131.244 36.736C131.068 36.56 130.98 36.351 130.98 36.109V20.995H125.502C125.26 20.995 125.051 20.907 124.875 20.731C124.699 20.555 124.611 20.346 124.611 20.104V14.791C124.611 14.549 124.699 14.34 124.875 14.164C125.051 13.988 125.26 13.9 125.502 13.9ZM154.812 30.565H164.976C165.218 30.565 165.427 30.653 165.603 30.829C165.779 31.005 165.867 31.214 165.867 31.456V36.109C165.867 36.351 165.779 36.56 165.603 36.736C165.427 36.912 165.218 37 164.976 37H147.783C147.541 37 147.332 36.912 147.156 36.736C146.98 36.56 146.892 36.351 146.892 36.109V14.791C146.892 14.549 146.98 14.34 147.156 14.164C147.332 13.988 147.541 13.9 147.783 13.9H164.712C164.954 13.9 165.163 13.988 165.339 14.164C165.515 14.34 165.603 14.549 165.603 14.791V19.444C165.603 19.686 165.515 19.895 165.339 20.071C165.163 20.247 164.954 20.335 164.712 20.335H154.812V22.414H163.986C164.228 22.414 164.437 22.502 164.613 22.678C164.789 22.854 164.877 23.063 164.877 23.305V27.595C164.877 27.837 164.789 28.046 164.613 28.222C164.437 28.398 164.228 28.486 163.986 28.486H154.812V30.565ZM189.109 35.911C189.175 36.043 189.208 36.186 189.208 36.34C189.208 36.494 189.131 36.648 188.977 36.802C188.845 36.934 188.68 37 188.482 37H181.717C181.035 37 180.562 36.703 180.298 36.109L177.46 29.806H176.107V36.109C176.107 36.351 176.019 36.56 175.843 36.736C175.667 36.912 175.458 37 175.216 37H168.748C168.506 37 168.297 36.912 168.121 36.736C167.945 36.56 167.857 36.351 167.857 36.109V14.791C167.857 14.549 167.945 14.34 168.121 14.164C168.297 13.988 168.506 13.9 168.748 13.9H178.516C181.684 13.9 184.159 14.615 185.941 16.045C187.723 17.453 188.614 19.488 188.614 22.15C188.614 24.79 187.426 26.869 185.05 28.387L189.109 35.911ZM176.107 20.038V23.536H178.516C179 23.536 179.374 23.382 179.638 23.074C179.902 22.744 180.034 22.337 180.034 21.853C180.034 21.369 179.902 20.951 179.638 20.599C179.396 20.225 179.022 20.038 178.516 20.038H176.107ZM198.694 22.188C198.694 20.788 199.263 19.5933 200.402 18.604C201.559 17.596 203.202 17.092 205.33 17.092C207.476 17.092 209.11 17.596 210.23 18.604C211.35 19.5933 211.91 20.7787 211.91 22.16C211.91 23.1867 211.611 24.1013 211.014 24.904C210.435 25.688 209.539 26.4347 208.326 27.144L210.426 29.328C210.892 28.8427 211.35 28.0773 211.798 27.032C211.872 26.8453 212.059 26.752 212.358 26.752H216.586C216.735 26.752 216.856 26.7987 216.95 26.892C217.043 26.9853 217.09 27.1067 217.09 27.256C217.09 27.7973 216.707 28.6467 215.942 29.804C215.195 30.9613 214.467 31.9133 213.758 32.66L217.09 36.132C217.202 36.244 217.258 36.3747 217.258 36.524C217.258 36.6547 217.202 36.7667 217.09 36.86C216.996 36.9533 216.884 37 216.754 37H211.042C210.818 37 210.584 36.9067 210.342 36.72L209.586 36.048C208.204 36.944 206.394 37.392 204.154 37.392C201.914 37.392 200.112 36.8787 198.75 35.852C197.387 34.8067 196.706 33.3133 196.706 31.372C196.706 29.188 197.919 27.4147 200.346 26.052C199.244 24.876 198.694 23.588 198.694 22.188ZM202.81 30.98C202.81 31.5027 202.978 31.9133 203.314 32.212C203.668 32.5107 204.135 32.66 204.714 32.66C205.292 32.66 205.768 32.548 206.142 32.324L203.678 29.776C203.099 30.056 202.81 30.4573 202.81 30.98ZM206.534 22.384C206.534 22.0853 206.431 21.8427 206.226 21.656C206.039 21.4693 205.796 21.376 205.498 21.376C205.218 21.376 204.975 21.4787 204.77 21.684C204.564 21.8707 204.462 22.1507 204.462 22.524C204.462 22.8787 204.714 23.2893 205.218 23.756C206.095 23.364 206.534 22.9067 206.534 22.384ZM234.773 37H230.054C229.636 37 229.284 36.879 228.998 36.637C228.734 36.373 228.58 36.076 228.536 35.746L225.5 14.725V14.626C225.5 14.428 225.566 14.263 225.698 14.131C225.852 13.977 226.028 13.9 226.226 13.9H232.364C233.09 13.9 233.486 14.197 233.552 14.791L234.674 24.097L236.027 19.972C236.247 19.334 236.621 19.015 237.149 19.015H240.515C241.043 19.015 241.417 19.334 241.637 19.972L242.99 24.064L244.112 14.791C244.178 14.197 244.574 13.9 245.3 13.9H251.438C251.636 13.9 251.801 13.977 251.933 14.131C252.087 14.263 252.164 14.428 252.164 14.626V14.725L249.128 35.746C249.084 36.076 248.919 36.373 248.633 36.637C248.369 36.879 248.028 37 247.61 37H242.891C242.209 37 241.758 36.703 241.538 36.109L238.832 29.344L236.126 36.109C235.906 36.703 235.455 37 234.773 37ZM261.402 30.565H271.566C271.808 30.565 272.017 30.653 272.193 30.829C272.369 31.005 272.457 31.214 272.457 31.456V36.109C272.457 36.351 272.369 36.56 272.193 36.736C272.017 36.912 271.808 37 271.566 37H254.373C254.131 37 253.922 36.912 253.746 36.736C253.57 36.56 253.482 36.351 253.482 36.109V14.791C253.482 14.549 253.57 14.34 253.746 14.164C253.922 13.988 254.131 13.9 254.373 13.9H271.302C271.544 13.9 271.753 13.988 271.929 14.164C272.105 14.34 272.193 14.549 272.193 14.791V19.444C272.193 19.686 272.105 19.895 271.929 20.071C271.753 20.247 271.544 20.335 271.302 20.335H261.402V22.414H270.576C270.818 22.414 271.027 22.502 271.203 22.678C271.379 22.854 271.467 23.063 271.467 23.305V27.595C271.467 27.837 271.379 28.046 271.203 28.222C271.027 28.398 270.818 28.486 270.576 28.486H261.402V30.565ZM286.459 22.15C286.701 21.864 286.822 21.523 286.822 21.127C286.822 20.731 286.701 20.379 286.459 20.071C286.239 19.741 285.909 19.576 285.469 19.576H282.697V22.579H285.469C285.909 22.579 286.239 22.436 286.459 22.15ZM282.697 28.09V31.324H285.766C286.272 31.324 286.646 31.159 286.888 30.829C287.152 30.477 287.284 30.092 287.284 29.674V29.641C287.284 29.223 287.141 28.86 286.855 28.552C286.591 28.244 286.228 28.09 285.766 28.09H282.697ZM286.624 37H275.338C275.096 37 274.887 36.912 274.711 36.736C274.535 36.56 274.447 36.351 274.447 36.109V14.791C274.447 14.549 274.535 14.34 274.711 14.164C274.887 13.988 275.096 13.9 275.338 13.9H286.294C289.418 13.9 291.717 14.472 293.191 15.616C294.687 16.738 295.435 18.443 295.435 20.731V20.83C295.435 21.776 295.16 22.623 294.61 23.371C294.06 24.097 293.455 24.625 292.795 24.955C293.675 25.307 294.412 25.934 295.006 26.836C295.622 27.716 295.93 28.684 295.93 29.74C295.93 34.58 292.828 37 286.624 37ZM304.408 21.16C304.408 18.916 305.332 17.09 307.18 15.682C309.05 14.274 311.492 13.57 314.506 13.57C317.542 13.57 320.017 14.307 321.931 15.781C323.867 17.255 324.835 18.795 324.835 20.401C324.835 20.599 324.758 20.775 324.604 20.929C324.472 21.061 324.318 21.127 324.142 21.127H317.542C317.036 21.127 316.574 20.94 316.156 20.566C315.738 20.192 315.177 20.005 314.473 20.005C313.417 20.005 312.889 20.313 312.889 20.929C312.889 21.259 313.142 21.534 313.648 21.754C314.176 21.974 315.144 22.172 316.552 22.348C319.83 22.766 322.162 23.536 323.548 24.658C324.956 25.758 325.66 27.441 325.66 29.707C325.66 31.951 324.626 33.788 322.558 35.218C320.512 36.626 317.828 37.33 314.506 37.33C311.184 37.33 308.577 36.648 306.685 35.284C304.793 33.92 303.847 32.259 303.847 30.301C303.847 30.103 303.913 29.938 304.045 29.806C304.199 29.652 304.375 29.575 304.573 29.575H310.843C311.305 29.575 311.811 29.795 312.361 30.235C312.933 30.675 313.714 30.895 314.704 30.895C316.354 30.895 317.179 30.587 317.179 29.971C317.179 29.575 316.882 29.278 316.288 29.08C315.694 28.86 314.572 28.64 312.922 28.42C307.246 27.672 304.408 25.252 304.408 21.16ZM326.541 13.9H345.879C346.121 13.9 346.33 13.988 346.506 14.164C346.682 14.34 346.77 14.549 346.77 14.791V20.104C346.77 20.346 346.682 20.555 346.506 20.731C346.33 20.907 346.121 20.995 345.879 20.995H340.401V36.109C340.401 36.351 340.313 36.56 340.137 36.736C339.961 36.912 339.752 37 339.51 37H332.91C332.668 37 332.459 36.912 332.283 36.736C332.107 36.56 332.019 36.351 332.019 36.109V20.995H326.541C326.299 20.995 326.09 20.907 325.914 20.731C325.738 20.555 325.65 20.346 325.65 20.104V14.791C325.65 14.549 325.738 14.34 325.914 14.164C326.09 13.988 326.299 13.9 326.541 13.9ZM361.626 13.9H368.094C368.336 13.9 368.545 13.988 368.721 14.164C368.897 14.34 368.985 14.549 368.985 14.791V28.057C368.985 31.137 368.028 33.458 366.114 35.02C364.2 36.56 361.593 37.33 358.293 37.33C355.015 37.33 352.408 36.56 350.472 35.02C348.558 33.48 347.601 31.159 347.601 28.057V14.791C347.601 14.549 347.689 14.34 347.865 14.164C348.041 13.988 348.25 13.9 348.492 13.9H354.96C355.202 13.9 355.411 13.988 355.587 14.164C355.763 14.34 355.851 14.549 355.851 14.791V28.156C355.851 29.85 356.665 30.697 358.293 30.697C359.921 30.697 360.735 29.85 360.735 28.156V14.791C360.735 14.549 360.823 14.34 360.999 14.164C361.175 13.988 361.384 13.9 361.626 13.9ZM371.85 13.9H388.482C388.724 13.9 388.933 13.988 389.109 14.164C389.285 14.34 389.373 14.549 389.373 14.791V19.807C389.373 20.049 389.285 20.258 389.109 20.434C388.933 20.61 388.724 20.698 388.482 20.698H379.044V23.14H387.822C388.064 23.14 388.273 23.228 388.449 23.404C388.625 23.58 388.713 23.789 388.713 24.031V29.014C388.713 29.256 388.625 29.465 388.449 29.641C388.273 29.817 388.064 29.905 387.822 29.905H379.044V36.109C379.044 36.351 378.956 36.56 378.78 36.736C378.604 36.912 378.395 37 378.153 37H371.85C371.608 37 371.399 36.912 371.223 36.736C371.047 36.56 370.959 36.351 370.959 36.109V14.791C370.959 14.549 371.047 14.34 371.223 14.164C371.399 13.988 371.608 13.9 371.85 13.9ZM391.752 13.9H408.384C408.626 13.9 408.835 13.988 409.011 14.164C409.187 14.34 409.275 14.549 409.275 14.791V19.807C409.275 20.049 409.187 20.258 409.011 20.434C408.835 20.61 408.626 20.698 408.384 20.698H398.946V23.14H407.724C407.966 23.14 408.175 23.228 408.351 23.404C408.527 23.58 408.615 23.789 408.615 24.031V29.014C408.615 29.256 408.527 29.465 408.351 29.641C408.175 29.817 407.966 29.905 407.724 29.905H398.946V36.109C398.946 36.351 398.858 36.56 398.682 36.736C398.506 36.912 398.297 37 398.055 37H391.752C391.51 37 391.301 36.912 391.125 36.736C390.949 36.56 390.861 36.351 390.861 36.109V14.791C390.861 14.549 390.949 14.34 391.125 14.164C391.301 13.988 391.51 13.9 391.752 13.9Z" fill="#73CA86"/>
<path d="M14.065 20.678V26.222C14.065 28.004 14.879 28.895 16.507 28.895C17.761 28.895 18.586 28.301 18.982 27.113C19.092 26.739 19.224 26.486 19.378 26.354C19.554 26.222 19.829 26.156 20.203 26.156H26.935C27.133 26.156 27.298 26.233 27.43 26.387C27.584 26.519 27.661 26.684 27.661 26.882C27.661 28.796 27.111 30.402 26.011 31.7C23.987 34.12 20.83 35.33 16.54 35.33C13.174 35.33 10.49 34.593 8.488 33.119C6.486 31.623 5.485 29.335 5.485 26.255V20.645C5.485 17.631 6.508 15.365 8.554 13.847C10.6 12.329 13.262 11.57 16.54 11.57C20.83 11.57 23.987 12.78 26.011 15.2C27.111 16.498 27.661 18.104 27.661 20.018C27.661 20.216 27.584 20.392 27.43 20.546C27.298 20.678 27.133 20.744 26.935 20.744H20.203C19.851 20.744 19.587 20.678 19.411 20.546C19.257 20.414 19.114 20.161 18.982 19.787C18.564 18.599 17.739 18.005 16.507 18.005C14.879 18.005 14.065 18.896 14.065 20.678ZM31.1613 14.012C33.1853 12.384 35.8583 11.57 39.1803 11.57C42.5023 11.57 45.1643 12.395 47.1663 14.045C49.1903 15.673 50.2023 17.972 50.2023 20.942V26.09C50.2023 29.104 49.2013 31.403 47.1993 32.987C45.2193 34.549 42.5463 35.33 39.1803 35.33C35.8143 35.33 33.1303 34.549 31.1283 32.987C29.1483 31.403 28.1583 29.104 28.1583 26.09V20.942C28.1583 17.95 29.1593 15.64 31.1613 14.012ZM37.3983 28.235C37.8383 28.675 38.4323 28.895 39.1803 28.895C39.9283 28.895 40.5223 28.675 40.9623 28.235C41.4023 27.795 41.6223 27.124 41.6223 26.222V20.678C41.6223 19.798 41.4023 19.138 40.9623 18.698C40.5223 18.236 39.9283 18.005 39.1803 18.005C38.4323 18.005 37.8383 18.236 37.3983 18.698C36.9583 19.138 36.7383 19.798 36.7383 20.678V26.222C36.7383 27.124 36.9583 27.795 37.3983 28.235ZM70.3591 11.9H75.5731C75.8151 11.9 76.0241 11.988 76.2001 12.164C76.3761 12.34 76.4641 12.549 76.4641 12.791V34.109C76.4641 34.351 76.3761 34.56 76.2001 34.736C76.0241 34.912 75.8151 35 75.5731 35H69.6001C69.3581 35 69.1491 34.912 68.9731 34.736C68.7971 34.56 68.7091 34.351 68.7091 34.109V25.067L66.5311 28.631C66.1791 29.181 65.7721 29.456 65.3101 29.456H63.0001C62.5381 29.456 62.1311 29.181 61.7791 28.631L59.6011 25.067V34.109C59.6011 34.351 59.5131 34.56 59.3371 34.736C59.1611 34.912 58.9521 35 58.7101 35H52.7371C52.4951 35 52.2861 34.912 52.1101 34.736C51.9341 34.56 51.8461 34.351 51.8461 34.109V12.791C51.8461 12.549 51.9341 12.34 52.1101 12.164C52.2861 11.988 52.4951 11.9 52.7371 11.9H57.9511C58.5671 11.9 59.0401 12.197 59.3701 12.791L64.1551 20.711L68.9401 12.791C69.2701 12.197 69.7431 11.9 70.3591 11.9ZM79.6644 11.9H89.4984C92.6664 11.9 95.1414 12.582 96.9234 13.946C98.7054 15.31 99.5964 17.323 99.5964 19.985C99.5964 22.647 98.7054 24.616 96.9234 25.892C95.1634 27.168 92.6884 27.806 89.4984 27.806H87.3534V34.109C87.3534 34.351 87.2654 34.56 87.0894 34.736C86.9134 34.912 86.7044 35 86.4624 35H79.6644C79.4224 35 79.2134 34.912 79.0374 34.736C78.8614 34.56 78.7734 34.351 78.7734 34.109V12.791C78.7734 12.549 78.8614 12.34 79.0374 12.164C79.2134 11.988 79.4224 11.9 79.6644 11.9ZM87.1884 18.038V21.701H89.4984C89.8944 21.701 90.2464 21.558 90.5544 21.272C90.8624 20.964 91.0164 20.535 91.0164 19.985C91.0164 19.435 90.8954 18.973 90.6534 18.599C90.4114 18.225 90.0264 18.038 89.4984 18.038H87.1884ZM114.433 11.9H120.901C121.143 11.9 121.352 11.988 121.528 12.164C121.704 12.34 121.792 12.549 121.792 12.791V26.057C121.792 29.137 120.835 31.458 118.921 33.02C117.007 34.56 114.4 35.33 111.1 35.33C107.822 35.33 105.215 34.56 103.279 33.02C101.365 31.48 100.408 29.159 100.408 26.057V12.791C100.408 12.549 100.496 12.34 100.672 12.164C100.848 11.988 101.057 11.9 101.299 11.9H107.767C108.009 11.9 108.218 11.988 108.394 12.164C108.57 12.34 108.658 12.549 108.658 12.791V26.156C108.658 27.85 109.472 28.697 111.1 28.697C112.728 28.697 113.542 27.85 113.542 26.156V12.791C113.542 12.549 113.63 12.34 113.806 12.164C113.982 11.988 114.191 11.9 114.433 11.9ZM123.502 11.9H142.84C143.082 11.9 143.291 11.988 143.467 12.164C143.643 12.34 143.731 12.549 143.731 12.791V18.104C143.731 18.346 143.643 18.555 143.467 18.731C143.291 18.907 143.082 18.995 142.84 18.995H137.362V34.109C137.362 34.351 137.274 34.56 137.098 34.736C136.922 34.912 136.713 35 136.471 35H129.871C129.629 35 129.42 34.912 129.244 34.736C129.068 34.56 128.98 34.351 128.98 34.109V18.995H123.502C123.26 18.995 123.051 18.907 122.875 18.731C122.699 18.555 122.611 18.346 122.611 18.104V12.791C122.611 12.549 122.699 12.34 122.875 12.164C123.051 11.988 123.26 11.9 123.502 11.9ZM152.812 28.565H162.976C163.218 28.565 163.427 28.653 163.603 28.829C163.779 29.005 163.867 29.214 163.867 29.456V34.109C163.867 34.351 163.779 34.56 163.603 34.736C163.427 34.912 163.218 35 162.976 35H145.783C145.541 35 145.332 34.912 145.156 34.736C144.98 34.56 144.892 34.351 144.892 34.109V12.791C144.892 12.549 144.98 12.34 145.156 12.164C145.332 11.988 145.541 11.9 145.783 11.9H162.712C162.954 11.9 163.163 11.988 163.339 12.164C163.515 12.34 163.603 12.549 163.603 12.791V17.444C163.603 17.686 163.515 17.895 163.339 18.071C163.163 18.247 162.954 18.335 162.712 18.335H152.812V20.414H161.986C162.228 20.414 162.437 20.502 162.613 20.678C162.789 20.854 162.877 21.063 162.877 21.305V25.595C162.877 25.837 162.789 26.046 162.613 26.222C162.437 26.398 162.228 26.486 161.986 26.486H152.812V28.565ZM187.109 33.911C187.175 34.043 187.208 34.186 187.208 34.34C187.208 34.494 187.131 34.648 186.977 34.802C186.845 34.934 186.68 35 186.482 35H179.717C179.035 35 178.562 34.703 178.298 34.109L175.46 27.806H174.107V34.109C174.107 34.351 174.019 34.56 173.843 34.736C173.667 34.912 173.458 35 173.216 35H166.748C166.506 35 166.297 34.912 166.121 34.736C165.945 34.56 165.857 34.351 165.857 34.109V12.791C165.857 12.549 165.945 12.34 166.121 12.164C166.297 11.988 166.506 11.9 166.748 11.9H176.516C179.684 11.9 182.159 12.615 183.941 14.045C185.723 15.453 186.614 17.488 186.614 20.15C186.614 22.79 185.426 24.869 183.05 26.387L187.109 33.911ZM174.107 18.038V21.536H176.516C177 21.536 177.374 21.382 177.638 21.074C177.902 20.744 178.034 20.337 178.034 19.853C178.034 19.369 177.902 18.951 177.638 18.599C177.396 18.225 177.022 18.038 176.516 18.038H174.107ZM196.694 20.188C196.694 18.788 197.263 17.5933 198.402 16.604C199.559 15.596 201.202 15.092 203.33 15.092C205.476 15.092 207.11 15.596 208.23 16.604C209.35 17.5933 209.91 18.7787 209.91 20.16C209.91 21.1867 209.611 22.1013 209.014 22.904C208.435 23.688 207.539 24.4347 206.326 25.144L208.426 27.328C208.892 26.8427 209.35 26.0773 209.798 25.032C209.872 24.8453 210.059 24.752 210.358 24.752H214.586C214.735 24.752 214.856 24.7987 214.95 24.892C215.043 24.9853 215.09 25.1067 215.09 25.256C215.09 25.7973 214.707 26.6467 213.942 27.804C213.195 28.9613 212.467 29.9133 211.758 30.66L215.09 34.132C215.202 34.244 215.258 34.3747 215.258 34.524C215.258 34.6547 215.202 34.7667 215.09 34.86C214.996 34.9533 214.884 35 214.754 35H209.042C208.818 35 208.584 34.9067 208.342 34.72L207.586 34.048C206.204 34.944 204.394 35.392 202.154 35.392C199.914 35.392 198.112 34.8787 196.75 33.852C195.387 32.8067 194.706 31.3133 194.706 29.372C194.706 27.188 195.919 25.4147 198.346 24.052C197.244 22.876 196.694 21.588 196.694 20.188ZM200.81 28.98C200.81 29.5027 200.978 29.9133 201.314 30.212C201.668 30.5107 202.135 30.66 202.714 30.66C203.292 30.66 203.768 30.548 204.142 30.324L201.678 27.776C201.099 28.056 200.81 28.4573 200.81 28.98ZM204.534 20.384C204.534 20.0853 204.431 19.8427 204.226 19.656C204.039 19.4693 203.796 19.376 203.498 19.376C203.218 19.376 202.975 19.4787 202.77 19.684C202.564 19.8707 202.462 20.1507 202.462 20.524C202.462 20.8787 202.714 21.2893 203.218 21.756C204.095 21.364 204.534 20.9067 204.534 20.384ZM232.773 35H228.054C227.636 35 227.284 34.879 226.998 34.637C226.734 34.373 226.58 34.076 226.536 33.746L223.5 12.725V12.626C223.5 12.428 223.566 12.263 223.698 12.131C223.852 11.977 224.028 11.9 224.226 11.9H230.364C231.09 11.9 231.486 12.197 231.552 12.791L232.674 22.097L234.027 17.972C234.247 17.334 234.621 17.015 235.149 17.015H238.515C239.043 17.015 239.417 17.334 239.637 17.972L240.99 22.064L242.112 12.791C242.178 12.197 242.574 11.9 243.3 11.9H249.438C249.636 11.9 249.801 11.977 249.933 12.131C250.087 12.263 250.164 12.428 250.164 12.626V12.725L247.128 33.746C247.084 34.076 246.919 34.373 246.633 34.637C246.369 34.879 246.028 35 245.61 35H240.891C240.209 35 239.758 34.703 239.538 34.109L236.832 27.344L234.126 34.109C233.906 34.703 233.455 35 232.773 35ZM259.402 28.565H269.566C269.808 28.565 270.017 28.653 270.193 28.829C270.369 29.005 270.457 29.214 270.457 29.456V34.109C270.457 34.351 270.369 34.56 270.193 34.736C270.017 34.912 269.808 35 269.566 35H252.373C252.131 35 251.922 34.912 251.746 34.736C251.57 34.56 251.482 34.351 251.482 34.109V12.791C251.482 12.549 251.57 12.34 251.746 12.164C251.922 11.988 252.131 11.9 252.373 11.9H269.302C269.544 11.9 269.753 11.988 269.929 12.164C270.105 12.34 270.193 12.549 270.193 12.791V17.444C270.193 17.686 270.105 17.895 269.929 18.071C269.753 18.247 269.544 18.335 269.302 18.335H259.402V20.414H268.576C268.818 20.414 269.027 20.502 269.203 20.678C269.379 20.854 269.467 21.063 269.467 21.305V25.595C269.467 25.837 269.379 26.046 269.203 26.222C269.027 26.398 268.818 26.486 268.576 26.486H259.402V28.565ZM284.459 20.15C284.701 19.864 284.822 19.523 284.822 19.127C284.822 18.731 284.701 18.379 284.459 18.071C284.239 17.741 283.909 17.576 283.469 17.576H280.697V20.579H283.469C283.909 20.579 284.239 20.436 284.459 20.15ZM280.697 26.09V29.324H283.766C284.272 29.324 284.646 29.159 284.888 28.829C285.152 28.477 285.284 28.092 285.284 27.674V27.641C285.284 27.223 285.141 26.86 284.855 26.552C284.591 26.244 284.228 26.09 283.766 26.09H280.697ZM284.624 35H273.338C273.096 35 272.887 34.912 272.711 34.736C272.535 34.56 272.447 34.351 272.447 34.109V12.791C272.447 12.549 272.535 12.34 272.711 12.164C272.887 11.988 273.096 11.9 273.338 11.9H284.294C287.418 11.9 289.717 12.472 291.191 13.616C292.687 14.738 293.435 16.443 293.435 18.731V18.83C293.435 19.776 293.16 20.623 292.61 21.371C292.06 22.097 291.455 22.625 290.795 22.955C291.675 23.307 292.412 23.934 293.006 24.836C293.622 25.716 293.93 26.684 293.93 27.74C293.93 32.58 290.828 35 284.624 35ZM302.408 19.16C302.408 16.916 303.332 15.09 305.18 13.682C307.05 12.274 309.492 11.57 312.506 11.57C315.542 11.57 318.017 12.307 319.931 13.781C321.867 15.255 322.835 16.795 322.835 18.401C322.835 18.599 322.758 18.775 322.604 18.929C322.472 19.061 322.318 19.127 322.142 19.127H315.542C315.036 19.127 314.574 18.94 314.156 18.566C313.738 18.192 313.177 18.005 312.473 18.005C311.417 18.005 310.889 18.313 310.889 18.929C310.889 19.259 311.142 19.534 311.648 19.754C312.176 19.974 313.144 20.172 314.552 20.348C317.83 20.766 320.162 21.536 321.548 22.658C322.956 23.758 323.66 25.441 323.66 27.707C323.66 29.951 322.626 31.788 320.558 33.218C318.512 34.626 315.828 35.33 312.506 35.33C309.184 35.33 306.577 34.648 304.685 33.284C302.793 31.92 301.847 30.259 301.847 28.301C301.847 28.103 301.913 27.938 302.045 27.806C302.199 27.652 302.375 27.575 302.573 27.575H308.843C309.305 27.575 309.811 27.795 310.361 28.235C310.933 28.675 311.714 28.895 312.704 28.895C314.354 28.895 315.179 28.587 315.179 27.971C315.179 27.575 314.882 27.278 314.288 27.08C313.694 26.86 312.572 26.64 310.922 26.42C305.246 25.672 302.408 23.252 302.408 19.16ZM324.541 11.9H343.879C344.121 11.9 344.33 11.988 344.506 12.164C344.682 12.34 344.77 12.549 344.77 12.791V18.104C344.77 18.346 344.682 18.555 344.506 18.731C344.33 18.907 344.121 18.995 343.879 18.995H338.401V34.109C338.401 34.351 338.313 34.56 338.137 34.736C337.961 34.912 337.752 35 337.51 35H330.91C330.668 35 330.459 34.912 330.283 34.736C330.107 34.56 330.019 34.351 330.019 34.109V18.995H324.541C324.299 18.995 324.09 18.907 323.914 18.731C323.738 18.555 323.65 18.346 323.65 18.104V12.791C323.65 12.549 323.738 12.34 323.914 12.164C324.09 11.988 324.299 11.9 324.541 11.9ZM359.626 11.9H366.094C366.336 11.9 366.545 11.988 366.721 12.164C366.897 12.34 366.985 12.549 366.985 12.791V26.057C366.985 29.137 366.028 31.458 364.114 33.02C362.2 34.56 359.593 35.33 356.293 35.33C353.015 35.33 350.408 34.56 348.472 33.02C346.558 31.48 345.601 29.159 345.601 26.057V12.791C345.601 12.549 345.689 12.34 345.865 12.164C346.041 11.988 346.25 11.9 346.492 11.9H352.96C353.202 11.9 353.411 11.988 353.587 12.164C353.763 12.34 353.851 12.549 353.851 12.791V26.156C353.851 27.85 354.665 28.697 356.293 28.697C357.921 28.697 358.735 27.85 358.735 26.156V12.791C358.735 12.549 358.823 12.34 358.999 12.164C359.175 11.988 359.384 11.9 359.626 11.9ZM369.85 11.9H386.482C386.724 11.9 386.933 11.988 387.109 12.164C387.285 12.34 387.373 12.549 387.373 12.791V17.807C387.373 18.049 387.285 18.258 387.109 18.434C386.933 18.61 386.724 18.698 386.482 18.698H377.044V21.14H385.822C386.064 21.14 386.273 21.228 386.449 21.404C386.625 21.58 386.713 21.789 386.713 22.031V27.014C386.713 27.256 386.625 27.465 386.449 27.641C386.273 27.817 386.064 27.905 385.822 27.905H377.044V34.109C377.044 34.351 376.956 34.56 376.78 34.736C376.604 34.912 376.395 35 376.153 35H369.85C369.608 35 369.399 34.912 369.223 34.736C369.047 34.56 368.959 34.351 368.959 34.109V12.791C368.959 12.549 369.047 12.34 369.223 12.164C369.399 11.988 369.608 11.9 369.85 11.9ZM389.752 11.9H406.384C406.626 11.9 406.835 11.988 407.011 12.164C407.187 12.34 407.275 12.549 407.275 12.791V17.807C407.275 18.049 407.187 18.258 407.011 18.434C406.835 18.61 406.626 18.698 406.384 18.698H396.946V21.14H405.724C405.966 21.14 406.175 21.228 406.351 21.404C406.527 21.58 406.615 21.789 406.615 22.031V27.014C406.615 27.256 406.527 27.465 406.351 27.641C406.175 27.817 405.966 27.905 405.724 27.905H396.946V34.109C396.946 34.351 396.858 34.56 396.682 34.736C396.506 34.912 396.297 35 396.055 35H389.752C389.51 35 389.301 34.912 389.125 34.736C388.949 34.56 388.861 34.351 388.861 34.109V12.791C388.861 12.549 388.949 12.34 389.125 12.164C389.301 11.988 389.51 11.9 389.752 11.9Z" fill="#FFD439"/>
<path d="M12.065 18.678V24.222C12.065 26.004 12.879 26.895 14.507 26.895C15.761 26.895 16.586 26.301 16.982 25.113C17.092 24.739 17.224 24.486 17.378 24.354C17.554 24.222 17.829 24.156 18.203 24.156H24.935C25.133 24.156 25.298 24.233 25.43 24.387C25.584 24.519 25.661 24.684 25.661 24.882C25.661 26.796 25.111 28.402 24.011 29.7C21.987 32.12 18.83 33.33 14.54 33.33C11.174 33.33 8.49 32.593 6.488 31.119C4.486 29.623 3.485 27.335 3.485 24.255V18.645C3.485 15.631 4.508 13.365 6.554 11.847C8.6 10.329 11.262 9.57 14.54 9.57C18.83 9.57 21.987 10.78 24.011 13.2C25.111 14.498 25.661 16.104 25.661 18.018C25.661 18.216 25.584 18.392 25.43 18.546C25.298 18.678 25.133 18.744 24.935 18.744H18.203C17.851 18.744 17.587 18.678 17.411 18.546C17.257 18.414 17.114 18.161 16.982 17.787C16.564 16.599 15.739 16.005 14.507 16.005C12.879 16.005 12.065 16.896 12.065 18.678ZM29.1613 12.012C31.1853 10.384 33.8583 9.57 37.1803 9.57C40.5023 9.57 43.1643 10.395 45.1663 12.045C47.1903 13.673 48.2023 15.972 48.2023 18.942V24.09C48.2023 27.104 47.2013 29.403 45.1993 30.987C43.2193 32.549 40.5463 33.33 37.1803 33.33C33.8143 33.33 31.1303 32.549 29.1283 30.987C27.1483 29.403 26.1583 27.104 26.1583 24.09V18.942C26.1583 15.95 27.1593 13.64 29.1613 12.012ZM35.3983 26.235C35.8383 26.675 36.4323 26.895 37.1803 26.895C37.9283 26.895 38.5223 26.675 38.9623 26.235C39.4023 25.795 39.6223 25.124 39.6223 24.222V18.678C39.6223 17.798 39.4023 17.138 38.9623 16.698C38.5223 16.236 37.9283 16.005 37.1803 16.005C36.4323 16.005 35.8383 16.236 35.3983 16.698C34.9583 17.138 34.7383 17.798 34.7383 18.678V24.222C34.7383 25.124 34.9583 25.795 35.3983 26.235ZM68.3591 9.9H73.5731C73.8151 9.9 74.0241 9.988 74.2001 10.164C74.3761 10.34 74.4641 10.549 74.4641 10.791V32.109C74.4641 32.351 74.3761 32.56 74.2001 32.736C74.0241 32.912 73.8151 33 73.5731 33H67.6001C67.3581 33 67.1491 32.912 66.9731 32.736C66.7971 32.56 66.7091 32.351 66.7091 32.109V23.067L64.5311 26.631C64.1791 27.181 63.7721 27.456 63.3101 27.456H61.0001C60.5381 27.456 60.1311 27.181 59.7791 26.631L57.6011 23.067V32.109C57.6011 32.351 57.5131 32.56 57.3371 32.736C57.1611 32.912 56.9521 33 56.7101 33H50.7371C50.4951 33 50.2861 32.912 50.1101 32.736C49.9341 32.56 49.8461 32.351 49.8461 32.109V10.791C49.8461 10.549 49.9341 10.34 50.1101 10.164C50.2861 9.988 50.4951 9.9 50.7371 9.9H55.9511C56.5671 9.9 57.0401 10.197 57.3701 10.791L62.1551 18.711L66.9401 10.791C67.2701 10.197 67.7431 9.9 68.3591 9.9ZM77.6644 9.9H87.4984C90.6664 9.9 93.1414 10.582 94.9234 11.946C96.7054 13.31 97.5964 15.323 97.5964 17.985C97.5964 20.647 96.7054 22.616 94.9234 23.892C93.1634 25.168 90.6884 25.806 87.4984 25.806H85.3534V32.109C85.3534 32.351 85.2654 32.56 85.0894 32.736C84.9134 32.912 84.7044 33 84.4624 33H77.6644C77.4224 33 77.2134 32.912 77.0374 32.736C76.8614 32.56 76.7734 32.351 76.7734 32.109V10.791C76.7734 10.549 76.8614 10.34 77.0374 10.164C77.2134 9.988 77.4224 9.9 77.6644 9.9ZM85.1884 16.038V19.701H87.4984C87.8944 19.701 88.2464 19.558 88.5544 19.272C88.8624 18.964 89.0164 18.535 89.0164 17.985C89.0164 17.435 88.8954 16.973 88.6534 16.599C88.4114 16.225 88.0264 16.038 87.4984 16.038H85.1884ZM112.433 9.9H118.901C119.143 9.9 119.352 9.988 119.528 10.164C119.704 10.34 119.792 10.549 119.792 10.791V24.057C119.792 27.137 118.835 29.458 116.921 31.02C115.007 32.56 112.4 33.33 109.1 33.33C105.822 33.33 103.215 32.56 101.279 31.02C99.3647 29.48 98.4077 27.159 98.4077 24.057V10.791C98.4077 10.549 98.4957 10.34 98.6717 10.164C98.8477 9.988 99.0567 9.9 99.2987 9.9H105.767C106.009 9.9 106.218 9.988 106.394 10.164C106.57 10.34 106.658 10.549 106.658 10.791V24.156C106.658 25.85 107.472 26.697 109.1 26.697C110.728 26.697 111.542 25.85 111.542 24.156V10.791C111.542 10.549 111.63 10.34 111.806 10.164C111.982 9.988 112.191 9.9 112.433 9.9ZM121.502 9.9H140.84C141.082 9.9 141.291 9.988 141.467 10.164C141.643 10.34 141.731 10.549 141.731 10.791V16.104C141.731 16.346 141.643 16.555 141.467 16.731C141.291 16.907 141.082 16.995 140.84 16.995H135.362V32.109C135.362 32.351 135.274 32.56 135.098 32.736C134.922 32.912 134.713 33 134.471 33H127.871C127.629 33 127.42 32.912 127.244 32.736C127.068 32.56 126.98 32.351 126.98 32.109V16.995H121.502C121.26 16.995 121.051 16.907 120.875 16.731C120.699 16.555 120.611 16.346 120.611 16.104V10.791C120.611 10.549 120.699 10.34 120.875 10.164C121.051 9.988 121.26 9.9 121.502 9.9ZM150.812 26.565H160.976C161.218 26.565 161.427 26.653 161.603 26.829C161.779 27.005 161.867 27.214 161.867 27.456V32.109C161.867 32.351 161.779 32.56 161.603 32.736C161.427 32.912 161.218 33 160.976 33H143.783C143.541 33 143.332 32.912 143.156 32.736C142.98 32.56 142.892 32.351 142.892 32.109V10.791C142.892 10.549 142.98 10.34 143.156 10.164C143.332 9.988 143.541 9.9 143.783 9.9H160.712C160.954 9.9 161.163 9.988 161.339 10.164C161.515 10.34 161.603 10.549 161.603 10.791V15.444C161.603 15.686 161.515 15.895 161.339 16.071C161.163 16.247 160.954 16.335 160.712 16.335H150.812V18.414H159.986C160.228 18.414 160.437 18.502 160.613 18.678C160.789 18.854 160.877 19.063 160.877 19.305V23.595C160.877 23.837 160.789 24.046 160.613 24.222C160.437 24.398 160.228 24.486 159.986 24.486H150.812V26.565ZM185.109 31.911C185.175 32.043 185.208 32.186 185.208 32.34C185.208 32.494 185.131 32.648 184.977 32.802C184.845 32.934 184.68 33 184.482 33H177.717C177.035 33 176.562 32.703 176.298 32.109L173.46 25.806H172.107V32.109C172.107 32.351 172.019 32.56 171.843 32.736C171.667 32.912 171.458 33 171.216 33H164.748C164.506 33 164.297 32.912 164.121 32.736C163.945 32.56 163.857 32.351 163.857 32.109V10.791C163.857 10.549 163.945 10.34 164.121 10.164C164.297 9.988 164.506 9.9 164.748 9.9H174.516C177.684 9.9 180.159 10.615 181.941 12.045C183.723 13.453 184.614 15.488 184.614 18.15C184.614 20.79 183.426 22.869 181.05 24.387L185.109 31.911ZM172.107 16.038V19.536H174.516C175 19.536 175.374 19.382 175.638 19.074C175.902 18.744 176.034 18.337 176.034 17.853C176.034 17.369 175.902 16.951 175.638 16.599C175.396 16.225 175.022 16.038 174.516 16.038H172.107ZM193.774 18.188C193.774 16.788 194.343 15.5933 195.482 14.604C196.639 13.596 198.282 13.092 200.41 13.092C202.556 13.092 204.19 13.596 205.31 14.604C206.43 15.5933 206.99 16.7787 206.99 18.16C206.99 19.1867 206.691 20.1013 206.094 20.904C205.515 21.688 204.619 22.4347 203.406 23.144L205.506 25.328C205.972 24.8427 206.43 24.0773 206.878 23.032C206.952 22.8453 207.139 22.752 207.438 22.752H211.666C211.815 22.752 211.936 22.7987 212.03 22.892C212.123 22.9853 212.17 23.1067 212.17 23.256C212.17 23.7973 211.787 24.6467 211.022 25.804C210.275 26.9613 209.547 27.9133 208.838 28.66L212.17 32.132C212.282 32.244 212.338 32.3747 212.338 32.524C212.338 32.6547 212.282 32.7667 212.17 32.86C212.076 32.9533 211.964 33 211.834 33H206.122C205.898 33 205.664 32.9067 205.422 32.72L204.666 32.048C203.284 32.944 201.474 33.392 199.234 33.392C196.994 33.392 195.192 32.8787 193.83 31.852C192.467 30.8067 191.786 29.3133 191.786 27.372C191.786 25.188 192.999 23.4147 195.426 22.052C194.324 20.876 193.774 19.588 193.774 18.188ZM197.89 26.98C197.89 27.5027 198.058 27.9133 198.394 28.212C198.748 28.5107 199.215 28.66 199.794 28.66C200.372 28.66 200.848 28.548 201.222 28.324L198.758 25.776C198.179 26.056 197.89 26.4573 197.89 26.98ZM201.614 18.384C201.614 18.0853 201.511 17.8427 201.306 17.656C201.119 17.4693 200.876 17.376 200.578 17.376C200.298 17.376 200.055 17.4787 199.85 17.684C199.644 17.8707 199.542 18.1507 199.542 18.524C199.542 18.8787 199.794 19.2893 200.298 19.756C201.175 19.364 201.614 18.9067 201.614 18.384ZM228.933 33H224.214C223.796 33 223.444 32.879 223.158 32.637C222.894 32.373 222.74 32.076 222.696 31.746L219.66 10.725V10.626C219.66 10.428 219.726 10.263 219.858 10.131C220.012 9.977 220.188 9.9 220.386 9.9H226.524C227.25 9.9 227.646 10.197 227.712 10.791L228.834 20.097L230.187 15.972C230.407 15.334 230.781 15.015 231.309 15.015H234.675C235.203 15.015 235.577 15.334 235.797 15.972L237.15 20.064L238.272 10.791C238.338 10.197 238.734 9.9 239.46 9.9H245.598C245.796 9.9 245.961 9.977 246.093 10.131C246.247 10.263 246.324 10.428 246.324 10.626V10.725L243.288 31.746C243.244 32.076 243.079 32.373 242.793 32.637C242.529 32.879 242.188 33 241.77 33H237.051C236.369 33 235.918 32.703 235.698 32.109L232.992 25.344L230.286 32.109C230.066 32.703 229.615 33 228.933 33ZM255.561 26.565H265.725C265.967 26.565 266.176 26.653 266.352 26.829C266.528 27.005 266.616 27.214 266.616 27.456V32.109C266.616 32.351 266.528 32.56 266.352 32.736C266.176 32.912 265.967 33 265.725 33H248.532C248.29 33 248.081 32.912 247.905 32.736C247.729 32.56 247.641 32.351 247.641 32.109V10.791C247.641 10.549 247.729 10.34 247.905 10.164C248.081 9.988 248.29 9.9 248.532 9.9H265.461C265.703 9.9 265.912 9.988 266.088 10.164C266.264 10.34 266.352 10.549 266.352 10.791V15.444C266.352 15.686 266.264 15.895 266.088 16.071C265.912 16.247 265.703 16.335 265.461 16.335H255.561V18.414H264.735C264.977 18.414 265.186 18.502 265.362 18.678C265.538 18.854 265.626 19.063 265.626 19.305V23.595C265.626 23.837 265.538 24.046 265.362 24.222C265.186 24.398 264.977 24.486 264.735 24.486H255.561V26.565ZM280.619 18.15C280.861 17.864 280.982 17.523 280.982 17.127C280.982 16.731 280.861 16.379 280.619 16.071C280.399 15.741 280.069 15.576 279.629 15.576H276.857V18.579H279.629C280.069 18.579 280.399 18.436 280.619 18.15ZM276.857 24.09V27.324H279.926C280.432 27.324 280.806 27.159 281.048 26.829C281.312 26.477 281.444 26.092 281.444 25.674V25.641C281.444 25.223 281.301 24.86 281.015 24.552C280.751 24.244 280.388 24.09 279.926 24.09H276.857ZM280.784 33H269.498C269.256 33 269.047 32.912 268.871 32.736C268.695 32.56 268.607 32.351 268.607 32.109V10.791C268.607 10.549 268.695 10.34 268.871 10.164C269.047 9.988 269.256 9.9 269.498 9.9H280.454C283.578 9.9 285.877 10.472 287.351 11.616C288.847 12.738 289.595 14.443 289.595 16.731V16.83C289.595 17.776 289.32 18.623 288.77 19.371C288.22 20.097 287.615 20.625 286.955 20.955C287.835 21.307 288.572 21.934 289.166 22.836C289.782 23.716 290.09 24.684 290.09 25.74C290.09 30.58 286.988 33 280.784 33ZM298.567 17.16C298.567 14.916 299.491 13.09 301.339 11.682C303.209 10.274 305.651 9.57 308.665 9.57C311.701 9.57 314.176 10.307 316.09 11.781C318.026 13.255 318.994 14.795 318.994 16.401C318.994 16.599 318.917 16.775 318.763 16.929C318.631 17.061 318.477 17.127 318.301 17.127H311.701C311.195 17.127 310.733 16.94 310.315 16.566C309.897 16.192 309.336 16.005 308.632 16.005C307.576 16.005 307.048 16.313 307.048 16.929C307.048 17.259 307.301 17.534 307.807 17.754C308.335 17.974 309.303 18.172 310.711 18.348C313.989 18.766 316.321 19.536 317.707 20.658C319.115 21.758 319.819 23.441 319.819 25.707C319.819 27.951 318.785 29.788 316.717 31.218C314.671 32.626 311.987 33.33 308.665 33.33C305.343 33.33 302.736 32.648 300.844 31.284C298.952 29.92 298.006 28.259 298.006 26.301C298.006 26.103 298.072 25.938 298.204 25.806C298.358 25.652 298.534 25.575 298.732 25.575H305.002C305.464 25.575 305.97 25.795 306.52 26.235C307.092 26.675 307.873 26.895 308.863 26.895C310.513 26.895 311.338 26.587 311.338 25.971C311.338 25.575 311.041 25.278 310.447 25.08C309.853 24.86 308.731 24.64 307.081 24.42C301.405 23.672 298.567 21.252 298.567 17.16ZM320.701 9.9H340.039C340.281 9.9 340.49 9.988 340.666 10.164C340.842 10.34 340.93 10.549 340.93 10.791V16.104C340.93 16.346 340.842 16.555 340.666 16.731C340.49 16.907 340.281 16.995 340.039 16.995H334.561V32.109C334.561 32.351 334.473 32.56 334.297 32.736C334.121 32.912 333.912 33 333.67 33H327.07C326.828 33 326.619 32.912 326.443 32.736C326.267 32.56 326.179 32.351 326.179 32.109V16.995H320.701C320.459 16.995 320.25 16.907 320.074 16.731C319.898 16.555 319.81 16.346 319.81 16.104V10.791C319.81 10.549 319.898 10.34 320.074 10.164C320.25 9.988 320.459 9.9 320.701 9.9ZM355.786 9.9H362.254C362.496 9.9 362.705 9.988 362.881 10.164C363.057 10.34 363.145 10.549 363.145 10.791V24.057C363.145 27.137 362.188 29.458 360.274 31.02C358.36 32.56 355.753 33.33 352.453 33.33C349.175 33.33 346.568 32.56 344.632 31.02C342.718 29.48 341.761 27.159 341.761 24.057V10.791C341.761 10.549 341.849 10.34 342.025 10.164C342.201 9.988 342.41 9.9 342.652 9.9H349.12C349.362 9.9 349.571 9.988 349.747 10.164C349.923 10.34 350.011 10.549 350.011 10.791V24.156C350.011 25.85 350.825 26.697 352.453 26.697C354.081 26.697 354.895 25.85 354.895 24.156V10.791C354.895 10.549 354.983 10.34 355.159 10.164C355.335 9.988 355.544 9.9 355.786 9.9ZM366.01 9.9H382.642C382.884 9.9 383.093 9.988 383.269 10.164C383.445 10.34 383.533 10.549 383.533 10.791V15.807C383.533 16.049 383.445 16.258 383.269 16.434C383.093 16.61 382.884 16.698 382.642 16.698H373.204V19.14H381.982C382.224 19.14 382.433 19.228 382.609 19.404C382.785 19.58 382.873 19.789 382.873 20.031V25.014C382.873 25.256 382.785 25.465 382.609 25.641C382.433 25.817 382.224 25.905 381.982 25.905H373.204V32.109C373.204 32.351 373.116 32.56 372.94 32.736C372.764 32.912 372.555 33 372.313 33H366.01C365.768 33 365.559 32.912 365.383 32.736C365.207 32.56 365.119 32.351 365.119 32.109V10.791C365.119 10.549 365.207 10.34 365.383 10.164C365.559 9.988 365.768 9.9 366.01 9.9ZM385.912 9.9H402.544C402.786 9.9 402.995 9.988 403.171 10.164C403.347 10.34 403.435 10.549 403.435 10.791V15.807C403.435 16.049 403.347 16.258 403.171 16.434C402.995 16.61 402.786 16.698 402.544 16.698H393.106V19.14H401.884C402.126 19.14 402.335 19.228 402.511 19.404C402.687 19.58 402.775 19.789 402.775 20.031V25.014C402.775 25.256 402.687 25.465 402.511 25.641C402.335 25.817 402.126 25.905 401.884 25.905H393.106V32.109C393.106 32.351 393.018 32.56 392.842 32.736C392.666 32.912 392.457 33 392.215 33H385.912C385.67 33 385.461 32.912 385.285 32.736C385.109 32.56 385.021 32.351 385.021 32.109V10.791C385.021 10.549 385.109 10.34 385.285 10.164C385.461 9.988 385.67 9.9 385.912 9.9Z" fill="#FF9330"/>
<path d="M10.065 16.678V22.222C10.065 24.004 10.879 24.895 12.507 24.895C13.761 24.895 14.586 24.301 14.982 23.113C15.092 22.739 15.224 22.486 15.378 22.354C15.554 22.222 15.829 22.156 16.203 22.156H22.935C23.133 22.156 23.298 22.233 23.43 22.387C23.584 22.519 23.661 22.684 23.661 22.882C23.661 24.796 23.111 26.402 22.011 27.7C19.987 30.12 16.83 31.33 12.54 31.33C9.174 31.33 6.49 30.593 4.488 29.119C2.486 27.623 1.485 25.335 1.485 22.255V16.645C1.485 13.631 2.508 11.365 4.554 9.847C6.6 8.329 9.262 7.57 12.54 7.57C16.83 7.57 19.987 8.78 22.011 11.2C23.111 12.498 23.661 14.104 23.661 16.018C23.661 16.216 23.584 16.392 23.43 16.546C23.298 16.678 23.133 16.744 22.935 16.744H16.203C15.851 16.744 15.587 16.678 15.411 16.546C15.257 16.414 15.114 16.161 14.982 15.787C14.564 14.599 13.739 14.005 12.507 14.005C10.879 14.005 10.065 14.896 10.065 16.678ZM27.1613 10.012C29.1853 8.384 31.8583 7.57 35.1803 7.57C38.5023 7.57 41.1643 8.395 43.1663 10.045C45.1903 11.673 46.2023 13.972 46.2023 16.942V22.09C46.2023 25.104 45.2013 27.403 43.1993 28.987C41.2193 30.549 38.5463 31.33 35.1803 31.33C31.8143 31.33 29.1303 30.549 27.1283 28.987C25.1483 27.403 24.1583 25.104 24.1583 22.09V16.942C24.1583 13.95 25.1593 11.64 27.1613 10.012ZM33.3983 24.235C33.8383 24.675 34.4323 24.895 35.1803 24.895C35.9283 24.895 36.5223 24.675 36.9623 24.235C37.4023 23.795 37.6223 23.124 37.6223 22.222V16.678C37.6223 15.798 37.4023 15.138 36.9623 14.698C36.5223 14.236 35.9283 14.005 35.1803 14.005C34.4323 14.005 33.8383 14.236 33.3983 14.698C32.9583 15.138 32.7383 15.798 32.7383 16.678V22.222C32.7383 23.124 32.9583 23.795 33.3983 24.235ZM66.3591 7.9H71.5731C71.8151 7.9 72.0241 7.988 72.2001 8.164C72.3761 8.34 72.4641 8.549 72.4641 8.791V30.109C72.4641 30.351 72.3761 30.56 72.2001 30.736C72.0241 30.912 71.8151 31 71.5731 31H65.6001C65.3581 31 65.1491 30.912 64.9731 30.736C64.7971 30.56 64.7091 30.351 64.7091 30.109V21.067L62.5311 24.631C62.1791 25.181 61.7721 25.456 61.3101 25.456H59.0001C58.5381 25.456 58.1311 25.181 57.7791 24.631L55.6011 21.067V30.109C55.6011 30.351 55.5131 30.56 55.3371 30.736C55.1611 30.912 54.9521 31 54.7101 31H48.7371C48.4951 31 48.2861 30.912 48.1101 30.736C47.9341 30.56 47.8461 30.351 47.8461 30.109V8.791C47.8461 8.549 47.9341 8.34 48.1101 8.164C48.2861 7.988 48.4951 7.9 48.7371 7.9H53.9511C54.5671 7.9 55.0401 8.197 55.3701 8.791L60.1551 16.711L64.9401 8.791C65.2701 8.197 65.7431 7.9 66.3591 7.9ZM75.6644 7.9H85.4984C88.6664 7.9 91.1414 8.582 92.9234 9.946C94.7054 11.31 95.5964 13.323 95.5964 15.985C95.5964 18.647 94.7054 20.616 92.9234 21.892C91.1634 23.168 88.6884 23.806 85.4984 23.806H83.3534V30.109C83.3534 30.351 83.2654 30.56 83.0894 30.736C82.9134 30.912 82.7044 31 82.4624 31H75.6644C75.4224 31 75.2134 30.912 75.0374 30.736C74.8614 30.56 74.7734 30.351 74.7734 30.109V8.791C74.7734 8.549 74.8614 8.34 75.0374 8.164C75.2134 7.988 75.4224 7.9 75.6644 7.9ZM83.1884 14.038V17.701H85.4984C85.8944 17.701 86.2464 17.558 86.5544 17.272C86.8624 16.964 87.0164 16.535 87.0164 15.985C87.0164 15.435 86.8954 14.973 86.6534 14.599C86.4114 14.225 86.0264 14.038 85.4984 14.038H83.1884ZM110.433 7.9H116.901C117.143 7.9 117.352 7.988 117.528 8.164C117.704 8.34 117.792 8.549 117.792 8.791V22.057C117.792 25.137 116.835 27.458 114.921 29.02C113.007 30.56 110.4 31.33 107.1 31.33C103.822 31.33 101.215 30.56 99.2787 29.02C97.3647 27.48 96.4077 25.159 96.4077 22.057V8.791C96.4077 8.549 96.4957 8.34 96.6717 8.164C96.8477 7.988 97.0567 7.9 97.2987 7.9H103.767C104.009 7.9 104.218 7.988 104.394 8.164C104.57 8.34 104.658 8.549 104.658 8.791V22.156C104.658 23.85 105.472 24.697 107.1 24.697C108.728 24.697 109.542 23.85 109.542 22.156V8.791C109.542 8.549 109.63 8.34 109.806 8.164C109.982 7.988 110.191 7.9 110.433 7.9ZM119.502 7.9H138.84C139.082 7.9 139.291 7.988 139.467 8.164C139.643 8.34 139.731 8.549 139.731 8.791V14.104C139.731 14.346 139.643 14.555 139.467 14.731C139.291 14.907 139.082 14.995 138.84 14.995H133.362V30.109C133.362 30.351 133.274 30.56 133.098 30.736C132.922 30.912 132.713 31 132.471 31H125.871C125.629 31 125.42 30.912 125.244 30.736C125.068 30.56 124.98 30.351 124.98 30.109V14.995H119.502C119.26 14.995 119.051 14.907 118.875 14.731C118.699 14.555 118.611 14.346 118.611 14.104V8.791C118.611 8.549 118.699 8.34 118.875 8.164C119.051 7.988 119.26 7.9 119.502 7.9ZM148.812 24.565H158.976C159.218 24.565 159.427 24.653 159.603 24.829C159.779 25.005 159.867 25.214 159.867 25.456V30.109C159.867 30.351 159.779 30.56 159.603 30.736C159.427 30.912 159.218 31 158.976 31H141.783C141.541 31 141.332 30.912 141.156 30.736C140.98 30.56 140.892 30.351 140.892 30.109V8.791C140.892 8.549 140.98 8.34 141.156 8.164C141.332 7.988 141.541 7.9 141.783 7.9H158.712C158.954 7.9 159.163 7.988 159.339 8.164C159.515 8.34 159.603 8.549 159.603 8.791V13.444C159.603 13.686 159.515 13.895 159.339 14.071C159.163 14.247 158.954 14.335 158.712 14.335H148.812V16.414H157.986C158.228 16.414 158.437 16.502 158.613 16.678C158.789 16.854 158.877 17.063 158.877 17.305V21.595C158.877 21.837 158.789 22.046 158.613 22.222C158.437 22.398 158.228 22.486 157.986 22.486H148.812V24.565ZM183.109 29.911C183.175 30.043 183.208 30.186 183.208 30.34C183.208 30.494 183.131 30.648 182.977 30.802C182.845 30.934 182.68 31 182.482 31H175.717C175.035 31 174.562 30.703 174.298 30.109L171.46 23.806H170.107V30.109C170.107 30.351 170.019 30.56 169.843 30.736C169.667 30.912 169.458 31 169.216 31H162.748C162.506 31 162.297 30.912 162.121 30.736C161.945 30.56 161.857 30.351 161.857 30.109V8.791C161.857 8.549 161.945 8.34 162.121 8.164C162.297 7.988 162.506 7.9 162.748 7.9H172.516C175.684 7.9 178.159 8.615 179.941 10.045C181.723 11.453 182.614 13.488 182.614 16.15C182.614 18.79 181.426 20.869 179.05 22.387L183.109 29.911ZM170.107 14.038V17.536H172.516C173 17.536 173.374 17.382 173.638 17.074C173.902 16.744 174.034 16.337 174.034 15.853C174.034 15.369 173.902 14.951 173.638 14.599C173.396 14.225 173.022 14.038 172.516 14.038H170.107ZM191.774 16.188C191.774 14.788 192.343 13.5933 193.482 12.604C194.639 11.596 196.282 11.092 198.41 11.092C200.556 11.092 202.19 11.596 203.31 12.604C204.43 13.5933 204.99 14.7787 204.99 16.16C204.99 17.1867 204.691 18.1013 204.094 18.904C203.515 19.688 202.619 20.4347 201.406 21.144L203.506 23.328C203.972 22.8427 204.43 22.0773 204.878 21.032C204.952 20.8453 205.139 20.752 205.438 20.752H209.666C209.815 20.752 209.936 20.7987 210.03 20.892C210.123 20.9853 210.17 21.1067 210.17 21.256C210.17 21.7973 209.787 22.6467 209.022 23.804C208.275 24.9613 207.547 25.9133 206.838 26.66L210.17 30.132C210.282 30.244 210.338 30.3747 210.338 30.524C210.338 30.6547 210.282 30.7667 210.17 30.86C210.076 30.9533 209.964 31 209.834 31H204.122C203.898 31 203.664 30.9067 203.422 30.72L202.666 30.048C201.284 30.944 199.474 31.392 197.234 31.392C194.994 31.392 193.192 30.8787 191.83 29.852C190.467 28.8067 189.786 27.3133 189.786 25.372C189.786 23.188 190.999 21.4147 193.426 20.052C192.324 18.876 191.774 17.588 191.774 16.188ZM195.89 24.98C195.89 25.5027 196.058 25.9133 196.394 26.212C196.748 26.5107 197.215 26.66 197.794 26.66C198.372 26.66 198.848 26.548 199.222 26.324L196.758 23.776C196.179 24.056 195.89 24.4573 195.89 24.98ZM199.614 16.384C199.614 16.0853 199.511 15.8427 199.306 15.656C199.119 15.4693 198.876 15.376 198.578 15.376C198.298 15.376 198.055 15.4787 197.85 15.684C197.644 15.8707 197.542 16.1507 197.542 16.524C197.542 16.8787 197.794 17.2893 198.298 17.756C199.175 17.364 199.614 16.9067 199.614 16.384ZM226.933 31H222.214C221.796 31 221.444 30.879 221.158 30.637C220.894 30.373 220.74 30.076 220.696 29.746L217.66 8.725V8.626C217.66 8.428 217.726 8.263 217.858 8.131C218.012 7.977 218.188 7.9 218.386 7.9H224.524C225.25 7.9 225.646 8.197 225.712 8.791L226.834 18.097L228.187 13.972C228.407 13.334 228.781 13.015 229.309 13.015H232.675C233.203 13.015 233.577 13.334 233.797 13.972L235.15 18.064L236.272 8.791C236.338 8.197 236.734 7.9 237.46 7.9H243.598C243.796 7.9 243.961 7.977 244.093 8.131C244.247 8.263 244.324 8.428 244.324 8.626V8.725L241.288 29.746C241.244 30.076 241.079 30.373 240.793 30.637C240.529 30.879 240.188 31 239.77 31H235.051C234.369 31 233.918 30.703 233.698 30.109L230.992 23.344L228.286 30.109C228.066 30.703 227.615 31 226.933 31ZM253.561 24.565H263.725C263.967 24.565 264.176 24.653 264.352 24.829C264.528 25.005 264.616 25.214 264.616 25.456V30.109C264.616 30.351 264.528 30.56 264.352 30.736C264.176 30.912 263.967 31 263.725 31H246.532C246.29 31 246.081 30.912 245.905 30.736C245.729 30.56 245.641 30.351 245.641 30.109V8.791C245.641 8.549 245.729 8.34 245.905 8.164C246.081 7.988 246.29 7.9 246.532 7.9H263.461C263.703 7.9 263.912 7.988 264.088 8.164C264.264 8.34 264.352 8.549 264.352 8.791V13.444C264.352 13.686 264.264 13.895 264.088 14.071C263.912 14.247 263.703 14.335 263.461 14.335H253.561V16.414H262.735C262.977 16.414 263.186 16.502 263.362 16.678C263.538 16.854 263.626 17.063 263.626 17.305V21.595C263.626 21.837 263.538 22.046 263.362 22.222C263.186 22.398 262.977 22.486 262.735 22.486H253.561V24.565ZM278.619 16.15C278.861 15.864 278.982 15.523 278.982 15.127C278.982 14.731 278.861 14.379 278.619 14.071C278.399 13.741 278.069 13.576 277.629 13.576H274.857V16.579H277.629C278.069 16.579 278.399 16.436 278.619 16.15ZM274.857 22.09V25.324H277.926C278.432 25.324 278.806 25.159 279.048 24.829C279.312 24.477 279.444 24.092 279.444 23.674V23.641C279.444 23.223 279.301 22.86 279.015 22.552C278.751 22.244 278.388 22.09 277.926 22.09H274.857ZM278.784 31H267.498C267.256 31 267.047 30.912 266.871 30.736C266.695 30.56 266.607 30.351 266.607 30.109V8.791C266.607 8.549 266.695 8.34 266.871 8.164C267.047 7.988 267.256 7.9 267.498 7.9H278.454C281.578 7.9 283.877 8.472 285.351 9.616C286.847 10.738 287.595 12.443 287.595 14.731V14.83C287.595 15.776 287.32 16.623 286.77 17.371C286.22 18.097 285.615 18.625 284.955 18.955C285.835 19.307 286.572 19.934 287.166 20.836C287.782 21.716 288.09 22.684 288.09 23.74C288.09 28.58 284.988 31 278.784 31ZM296.567 15.16C296.567 12.916 297.491 11.09 299.339 9.682C301.209 8.274 303.651 7.57 306.665 7.57C309.701 7.57 312.176 8.307 314.09 9.781C316.026 11.255 316.994 12.795 316.994 14.401C316.994 14.599 316.917 14.775 316.763 14.929C316.631 15.061 316.477 15.127 316.301 15.127H309.701C309.195 15.127 308.733 14.94 308.315 14.566C307.897 14.192 307.336 14.005 306.632 14.005C305.576 14.005 305.048 14.313 305.048 14.929C305.048 15.259 305.301 15.534 305.807 15.754C306.335 15.974 307.303 16.172 308.711 16.348C311.989 16.766 314.321 17.536 315.707 18.658C317.115 19.758 317.819 21.441 317.819 23.707C317.819 25.951 316.785 27.788 314.717 29.218C312.671 30.626 309.987 31.33 306.665 31.33C303.343 31.33 300.736 30.648 298.844 29.284C296.952 27.92 296.006 26.259 296.006 24.301C296.006 24.103 296.072 23.938 296.204 23.806C296.358 23.652 296.534 23.575 296.732 23.575H303.002C303.464 23.575 303.97 23.795 304.52 24.235C305.092 24.675 305.873 24.895 306.863 24.895C308.513 24.895 309.338 24.587 309.338 23.971C309.338 23.575 309.041 23.278 308.447 23.08C307.853 22.86 306.731 22.64 305.081 22.42C299.405 21.672 296.567 19.252 296.567 15.16ZM318.701 7.9H338.039C338.281 7.9 338.49 7.988 338.666 8.164C338.842 8.34 338.93 8.549 338.93 8.791V14.104C338.93 14.346 338.842 14.555 338.666 14.731C338.49 14.907 338.281 14.995 338.039 14.995H332.561V30.109C332.561 30.351 332.473 30.56 332.297 30.736C332.121 30.912 331.912 31 331.67 31H325.07C324.828 31 324.619 30.912 324.443 30.736C324.267 30.56 324.179 30.351 324.179 30.109V14.995H318.701C318.459 14.995 318.25 14.907 318.074 14.731C317.898 14.555 317.81 14.346 317.81 14.104V8.791C317.81 8.549 317.898 8.34 318.074 8.164C318.25 7.988 318.459 7.9 318.701 7.9ZM353.786 7.9H360.254C360.496 7.9 360.705 7.988 360.881 8.164C361.057 8.34 361.145 8.549 361.145 8.791V22.057C361.145 25.137 360.188 27.458 358.274 29.02C356.36 30.56 353.753 31.33 350.453 31.33C347.175 31.33 344.568 30.56 342.632 29.02C340.718 27.48 339.761 25.159 339.761 22.057V8.791C339.761 8.549 339.849 8.34 340.025 8.164C340.201 7.988 340.41 7.9 340.652 7.9H347.12C347.362 7.9 347.571 7.988 347.747 8.164C347.923 8.34 348.011 8.549 348.011 8.791V22.156C348.011 23.85 348.825 24.697 350.453 24.697C352.081 24.697 352.895 23.85 352.895 22.156V8.791C352.895 8.549 352.983 8.34 353.159 8.164C353.335 7.988 353.544 7.9 353.786 7.9ZM364.01 7.9H380.642C380.884 7.9 381.093 7.988 381.269 8.164C381.445 8.34 381.533 8.549 381.533 8.791V13.807C381.533 14.049 381.445 14.258 381.269 14.434C381.093 14.61 380.884 14.698 380.642 14.698H371.204V17.14H379.982C380.224 17.14 380.433 17.228 380.609 17.404C380.785 17.58 380.873 17.789 380.873 18.031V23.014C380.873 23.256 380.785 23.465 380.609 23.641C380.433 23.817 380.224 23.905 379.982 23.905H371.204V30.109C371.204 30.351 371.116 30.56 370.94 30.736C370.764 30.912 370.555 31 370.313 31H364.01C363.768 31 363.559 30.912 363.383 30.736C363.207 30.56 363.119 30.351 363.119 30.109V8.791C363.119 8.549 363.207 8.34 363.383 8.164C363.559 7.988 363.768 7.9 364.01 7.9ZM383.912 7.9H400.544C400.786 7.9 400.995 7.988 401.171 8.164C401.347 8.34 401.435 8.549 401.435 8.791V13.807C401.435 14.049 401.347 14.258 401.171 14.434C400.995 14.61 400.786 14.698 400.544 14.698H391.106V17.14H399.884C400.126 17.14 400.335 17.228 400.511 17.404C400.687 17.58 400.775 17.789 400.775 18.031V23.014C400.775 23.256 400.687 23.465 400.511 23.641C400.335 23.817 400.126 23.905 399.884 23.905H391.106V30.109C391.106 30.351 391.018 30.56 390.842 30.736C390.666 30.912 390.457 31 390.215 31H383.912C383.67 31 383.461 30.912 383.285 30.736C383.109 30.56 383.021 30.351 383.021 30.109V8.791C383.021 8.549 383.109 8.34 383.285 8.164C383.461 7.988 383.67 7.9 383.912 7.9Z" fill="#FF6565"/>
</svg>
