<svg width="393" height="103" viewBox="0 0 393 103" fill="none" xmlns="http://www.w3.org/2000/svg">
<path d="M26.3 29.96V40.04C26.3 43.28 27.78 44.9 30.74 44.9C33.02 44.9 34.52 43.82 35.24 41.66C35.44 40.98 35.68 40.52 35.96 40.28C36.28 40.04 36.78 39.92 37.46 39.92H49.7C50.06 39.92 50.36 40.06 50.6 40.34C50.88 40.58 51.02 40.88 51.02 41.24C51.02 44.72 50.02 47.64 48.02 50C44.34 54.4 38.6 56.6 30.8 56.6C24.68 56.6 19.8 55.26 16.16 52.58C12.52 49.86 10.7 45.7 10.7 40.1V29.9C10.7 24.42 12.56 20.3 16.28 17.54C20 14.78 24.84 13.4 30.8 13.4C38.6 13.4 44.34 15.6 48.02 20C50.02 22.36 51.02 25.28 51.02 28.76C51.02 29.12 50.88 29.44 50.6 29.72C50.36 29.96 50.06 30.08 49.7 30.08H37.46C36.82 30.08 36.34 29.96 36.02 29.72C35.74 29.48 35.48 29.02 35.24 28.34C34.48 26.18 32.98 25.1 30.74 25.1C27.78 25.1 26.3 26.72 26.3 29.96ZM57.3842 17.84C61.0642 14.88 65.9242 13.4 71.9642 13.4C78.0042 13.4 82.8442 14.9 86.4842 17.9C90.1642 20.86 92.0042 25.04 92.0042 30.44V39.8C92.0042 45.28 90.1842 49.46 86.5442 52.34C82.9442 55.18 78.0842 56.6 71.9642 56.6C65.8442 56.6 60.9642 55.18 57.3242 52.34C53.7242 49.46 51.9242 45.28 51.9242 39.8V30.44C51.9242 25 53.7442 20.8 57.3842 17.84ZM68.7242 43.7C69.5242 44.5 70.6042 44.9 71.9642 44.9C73.3242 44.9 74.4042 44.5 75.2042 43.7C76.0042 42.9 76.4042 41.68 76.4042 40.04V29.96C76.4042 28.36 76.0042 27.16 75.2042 26.36C74.4042 25.52 73.3242 25.1 71.9642 25.1C70.6042 25.1 69.5242 25.52 68.7242 26.36C67.9242 27.16 67.5242 28.36 67.5242 29.96V40.04C67.5242 41.68 67.9242 42.9 68.7242 43.7ZM128.653 14H138.133C138.573 14 138.953 14.16 139.273 14.48C139.593 14.8 139.753 15.18 139.753 15.62V54.38C139.753 54.82 139.593 55.2 139.273 55.52C138.953 55.84 138.573 56 138.133 56H127.273C126.833 56 126.453 55.84 126.133 55.52C125.813 55.2 125.653 54.82 125.653 54.38V37.94L121.693 44.42C121.053 45.42 120.313 45.92 119.473 45.92H115.273C114.433 45.92 113.693 45.42 113.053 44.42L109.093 37.94V54.38C109.093 54.82 108.933 55.2 108.613 55.52C108.293 55.84 107.913 56 107.473 56H96.613C96.173 56 95.793 55.84 95.473 55.52C95.153 55.2 94.993 54.82 94.993 54.38V15.62C94.993 15.18 95.153 14.8 95.473 14.48C95.793 14.16 96.173 14 96.613 14H106.093C107.213 14 108.073 14.54 108.673 15.62L117.373 30.02L126.073 15.62C126.673 14.54 127.533 14 128.653 14ZM145.572 14H163.452C169.212 14 173.712 15.24 176.952 17.72C180.192 20.2 181.812 23.86 181.812 28.7C181.812 33.54 180.192 37.12 176.952 39.44C173.752 41.76 169.252 42.92 163.452 42.92H159.552V54.38C159.552 54.82 159.392 55.2 159.072 55.52C158.752 55.84 158.372 56 157.932 56H145.572C145.132 56 144.752 55.84 144.432 55.52C144.112 55.2 143.952 54.82 143.952 54.38V15.62C143.952 15.18 144.112 14.8 144.432 14.48C144.752 14.16 145.132 14 145.572 14ZM159.252 25.16V31.82H163.452C164.172 31.82 164.812 31.56 165.372 31.04C165.932 30.48 166.212 29.7 166.212 28.7C166.212 27.7 165.992 26.86 165.552 26.18C165.112 25.5 164.412 25.16 163.452 25.16H159.252ZM208.787 14H220.547C220.987 14 221.367 14.16 221.687 14.48C222.007 14.8 222.167 15.18 222.167 15.62V39.74C222.167 45.34 220.427 49.56 216.947 52.4C213.467 55.2 208.727 56.6 202.727 56.6C196.767 56.6 192.027 55.2 188.507 52.4C185.027 49.6 183.287 45.38 183.287 39.74V15.62C183.287 15.18 183.447 14.8 183.767 14.48C184.087 14.16 184.467 14 184.907 14H196.667C197.107 14 197.487 14.16 197.807 14.48C198.127 14.8 198.287 15.18 198.287 15.62V39.92C198.287 43 199.767 44.54 202.727 44.54C205.687 44.54 207.167 43 207.167 39.92V15.62C207.167 15.18 207.327 14.8 207.647 14.48C207.967 14.16 208.347 14 208.787 14ZM225.275 14H260.435C260.875 14 261.255 14.16 261.575 14.48C261.895 14.8 262.055 15.18 262.055 15.62V25.28C262.055 25.72 261.895 26.1 261.575 26.42C261.255 26.74 260.875 26.9 260.435 26.9H250.475V54.38C250.475 54.82 250.315 55.2 249.995 55.52C249.675 55.84 249.295 56 248.855 56H236.855C236.415 56 236.035 55.84 235.715 55.52C235.395 55.2 235.235 54.82 235.235 54.38V26.9H225.275C224.835 26.9 224.455 26.74 224.135 26.42C223.815 26.1 223.655 25.72 223.655 25.28V15.62C223.655 15.18 223.815 14.8 224.135 14.48C224.455 14.16 224.835 14 225.275 14ZM278.567 44.3H297.047C297.487 44.3 297.867 44.46 298.187 44.78C298.507 45.1 298.667 45.48 298.667 45.92V54.38C298.667 54.82 298.507 55.2 298.187 55.52C297.867 55.84 297.487 56 297.047 56H265.787C265.347 56 264.967 55.84 264.647 55.52C264.327 55.2 264.167 54.82 264.167 54.38V15.62C264.167 15.18 264.327 14.8 264.647 14.48C264.967 14.16 265.347 14 265.787 14H296.567C297.007 14 297.387 14.16 297.707 14.48C298.027 14.8 298.187 15.18 298.187 15.62V24.08C298.187 24.52 298.027 24.9 297.707 25.22C297.387 25.54 297.007 25.7 296.567 25.7H278.567V29.48H295.247C295.687 29.48 296.067 29.64 296.387 29.96C296.707 30.28 296.867 30.66 296.867 31.1V38.9C296.867 39.34 296.707 39.72 296.387 40.04C296.067 40.36 295.687 40.52 295.247 40.52H278.567V44.3ZM340.926 54.02C341.046 54.26 341.106 54.52 341.106 54.8C341.106 55.08 340.966 55.36 340.686 55.64C340.446 55.88 340.146 56 339.786 56H327.486C326.246 56 325.386 55.46 324.906 54.38L319.746 42.92H317.286V54.38C317.286 54.82 317.126 55.2 316.806 55.52C316.486 55.84 316.106 56 315.666 56H303.906C303.466 56 303.086 55.84 302.766 55.52C302.446 55.2 302.286 54.82 302.286 54.38V15.62C302.286 15.18 302.446 14.8 302.766 14.48C303.086 14.16 303.466 14 303.906 14H321.666C327.426 14 331.926 15.3 335.166 17.9C338.406 20.46 340.026 24.16 340.026 29C340.026 33.8 337.866 37.58 333.546 40.34L340.926 54.02ZM317.286 25.16V31.52H321.666C322.546 31.52 323.226 31.24 323.706 30.68C324.186 30.08 324.426 29.34 324.426 28.46C324.426 27.58 324.186 26.82 323.706 26.18C323.266 25.5 322.586 25.16 321.666 25.16H317.286ZM358.448 30.608C358.448 28.208 359.424 26.16 361.376 24.464C363.36 22.736 366.176 21.872 369.824 21.872C373.504 21.872 376.304 22.736 378.224 24.464C380.144 26.16 381.104 28.192 381.104 30.56C381.104 32.32 380.592 33.888 379.568 35.264C378.576 36.608 377.04 37.888 374.96 39.104L378.56 42.848C379.36 42.016 380.144 40.704 380.912 38.912C381.04 38.592 381.36 38.432 381.872 38.432H389.12C389.376 38.432 389.584 38.512 389.744 38.672C389.904 38.832 389.984 39.04 389.984 39.296C389.984 40.224 389.328 41.68 388.016 43.664C386.736 45.648 385.488 47.28 384.272 48.56L389.984 54.512C390.176 54.704 390.272 54.928 390.272 55.184C390.272 55.408 390.176 55.6 389.984 55.76C389.824 55.92 389.632 56 389.408 56H379.616C379.232 56 378.832 55.84 378.416 55.52L377.12 54.368C374.752 55.904 371.648 56.672 367.808 56.672C363.968 56.672 360.88 55.792 358.544 54.032C356.208 52.24 355.04 49.68 355.04 46.352C355.04 42.608 357.12 39.568 361.28 37.232C359.392 35.216 358.448 33.008 358.448 30.608ZM365.504 45.68C365.504 46.576 365.792 47.28 366.368 47.792C366.976 48.304 367.776 48.56 368.768 48.56C369.76 48.56 370.576 48.368 371.216 47.984L366.992 43.616C366 44.096 365.504 44.784 365.504 45.68ZM371.888 30.944C371.888 30.432 371.712 30.016 371.36 29.696C371.04 29.376 370.624 29.216 370.112 29.216C369.632 29.216 369.216 29.392 368.864 29.744C368.512 30.064 368.336 30.544 368.336 31.184C368.336 31.792 368.768 32.496 369.632 33.296C371.136 32.624 371.888 31.84 371.888 30.944Z" fill="#78BEFF"/>
<path d="M18.3 33.96V44.04C18.3 47.28 19.78 48.9 22.74 48.9C25.02 48.9 26.52 47.82 27.24 45.66C27.44 44.98 27.68 44.52 27.96 44.28C28.28 44.04 28.78 43.92 29.46 43.92H41.7C42.06 43.92 42.36 44.06 42.6 44.34C42.88 44.58 43.02 44.88 43.02 45.24C43.02 48.72 42.02 51.64 40.02 54C36.34 58.4 30.6 60.6 22.8 60.6C16.68 60.6 11.8 59.26 8.16 56.58C4.52 53.86 2.7 49.7 2.7 44.1V33.9C2.7 28.42 4.56 24.3 8.28 21.54C12 18.78 16.84 17.4 22.8 17.4C30.6 17.4 36.34 19.6 40.02 24C42.02 26.36 43.02 29.28 43.02 32.76C43.02 33.12 42.88 33.44 42.6 33.72C42.36 33.96 42.06 34.08 41.7 34.08H29.46C28.82 34.08 28.34 33.96 28.02 33.72C27.74 33.48 27.48 33.02 27.24 32.34C26.48 30.18 24.98 29.1 22.74 29.1C19.78 29.1 18.3 30.72 18.3 33.96ZM49.3842 21.84C53.0642 18.88 57.9242 17.4 63.9642 17.4C70.0042 17.4 74.8442 18.9 78.4842 21.9C82.1642 24.86 84.0042 29.04 84.0042 34.44V43.8C84.0042 49.28 82.1842 53.46 78.5442 56.34C74.9442 59.18 70.0842 60.6 63.9642 60.6C57.8442 60.6 52.9642 59.18 49.3242 56.34C45.7242 53.46 43.9242 49.28 43.9242 43.8V34.44C43.9242 29 45.7442 24.8 49.3842 21.84ZM60.7242 47.7C61.5242 48.5 62.6042 48.9 63.9642 48.9C65.3242 48.9 66.4042 48.5 67.2042 47.7C68.0042 46.9 68.4042 45.68 68.4042 44.04V33.96C68.4042 32.36 68.0042 31.16 67.2042 30.36C66.4042 29.52 65.3242 29.1 63.9642 29.1C62.6042 29.1 61.5242 29.52 60.7242 30.36C59.9242 31.16 59.5242 32.36 59.5242 33.96V44.04C59.5242 45.68 59.9242 46.9 60.7242 47.7ZM120.653 18H130.133C130.573 18 130.953 18.16 131.273 18.48C131.593 18.8 131.753 19.18 131.753 19.62V58.38C131.753 58.82 131.593 59.2 131.273 59.52C130.953 59.84 130.573 60 130.133 60H119.273C118.833 60 118.453 59.84 118.133 59.52C117.813 59.2 117.653 58.82 117.653 58.38V41.94L113.693 48.42C113.053 49.42 112.313 49.92 111.473 49.92H107.273C106.433 49.92 105.693 49.42 105.053 48.42L101.093 41.94V58.38C101.093 58.82 100.933 59.2 100.613 59.52C100.293 59.84 99.913 60 99.473 60H88.613C88.173 60 87.793 59.84 87.473 59.52C87.153 59.2 86.993 58.82 86.993 58.38V19.62C86.993 19.18 87.153 18.8 87.473 18.48C87.793 18.16 88.173 18 88.613 18H98.093C99.213 18 100.073 18.54 100.673 19.62L109.373 34.02L118.073 19.62C118.673 18.54 119.533 18 120.653 18ZM137.572 18H155.452C161.212 18 165.712 19.24 168.952 21.72C172.192 24.2 173.812 27.86 173.812 32.7C173.812 37.54 172.192 41.12 168.952 43.44C165.752 45.76 161.252 46.92 155.452 46.92H151.552V58.38C151.552 58.82 151.392 59.2 151.072 59.52C150.752 59.84 150.372 60 149.932 60H137.572C137.132 60 136.752 59.84 136.432 59.52C136.112 59.2 135.952 58.82 135.952 58.38V19.62C135.952 19.18 136.112 18.8 136.432 18.48C136.752 18.16 137.132 18 137.572 18ZM151.252 29.16V35.82H155.452C156.172 35.82 156.812 35.56 157.372 35.04C157.932 34.48 158.212 33.7 158.212 32.7C158.212 31.7 157.992 30.86 157.552 30.18C157.112 29.5 156.412 29.16 155.452 29.16H151.252ZM200.787 18H212.547C212.987 18 213.367 18.16 213.687 18.48C214.007 18.8 214.167 19.18 214.167 19.62V43.74C214.167 49.34 212.427 53.56 208.947 56.4C205.467 59.2 200.727 60.6 194.727 60.6C188.767 60.6 184.027 59.2 180.507 56.4C177.027 53.6 175.287 49.38 175.287 43.74V19.62C175.287 19.18 175.447 18.8 175.767 18.48C176.087 18.16 176.467 18 176.907 18H188.667C189.107 18 189.487 18.16 189.807 18.48C190.127 18.8 190.287 19.18 190.287 19.62V43.92C190.287 47 191.767 48.54 194.727 48.54C197.687 48.54 199.167 47 199.167 43.92V19.62C199.167 19.18 199.327 18.8 199.647 18.48C199.967 18.16 200.347 18 200.787 18ZM217.275 18H252.435C252.875 18 253.255 18.16 253.575 18.48C253.895 18.8 254.055 19.18 254.055 19.62V29.28C254.055 29.72 253.895 30.1 253.575 30.42C253.255 30.74 252.875 30.9 252.435 30.9H242.475V58.38C242.475 58.82 242.315 59.2 241.995 59.52C241.675 59.84 241.295 60 240.855 60H228.855C228.415 60 228.035 59.84 227.715 59.52C227.395 59.2 227.235 58.82 227.235 58.38V30.9H217.275C216.835 30.9 216.455 30.74 216.135 30.42C215.815 30.1 215.655 29.72 215.655 29.28V19.62C215.655 19.18 215.815 18.8 216.135 18.48C216.455 18.16 216.835 18 217.275 18ZM270.567 48.3H289.047C289.487 48.3 289.867 48.46 290.187 48.78C290.507 49.1 290.667 49.48 290.667 49.92V58.38C290.667 58.82 290.507 59.2 290.187 59.52C289.867 59.84 289.487 60 289.047 60H257.787C257.347 60 256.967 59.84 256.647 59.52C256.327 59.2 256.167 58.82 256.167 58.38V19.62C256.167 19.18 256.327 18.8 256.647 18.48C256.967 18.16 257.347 18 257.787 18H288.567C289.007 18 289.387 18.16 289.707 18.48C290.027 18.8 290.187 19.18 290.187 19.62V28.08C290.187 28.52 290.027 28.9 289.707 29.22C289.387 29.54 289.007 29.7 288.567 29.7H270.567V33.48H287.247C287.687 33.48 288.067 33.64 288.387 33.96C288.707 34.28 288.867 34.66 288.867 35.1V42.9C288.867 43.34 288.707 43.72 288.387 44.04C288.067 44.36 287.687 44.52 287.247 44.52H270.567V48.3ZM332.926 58.02C333.046 58.26 333.106 58.52 333.106 58.8C333.106 59.08 332.966 59.36 332.686 59.64C332.446 59.88 332.146 60 331.786 60H319.486C318.246 60 317.386 59.46 316.906 58.38L311.746 46.92H309.286V58.38C309.286 58.82 309.126 59.2 308.806 59.52C308.486 59.84 308.106 60 307.666 60H295.906C295.466 60 295.086 59.84 294.766 59.52C294.446 59.2 294.286 58.82 294.286 58.38V19.62C294.286 19.18 294.446 18.8 294.766 18.48C295.086 18.16 295.466 18 295.906 18H313.666C319.426 18 323.926 19.3 327.166 21.9C330.406 24.46 332.026 28.16 332.026 33C332.026 37.8 329.866 41.58 325.546 44.34L332.926 58.02ZM309.286 29.16V35.52H313.666C314.546 35.52 315.226 35.24 315.706 34.68C316.186 34.08 316.426 33.34 316.426 32.46C316.426 31.58 316.186 30.82 315.706 30.18C315.266 29.5 314.586 29.16 313.666 29.16H309.286ZM350.448 34.608C350.448 32.208 351.424 30.16 353.376 28.464C355.36 26.736 358.176 25.872 361.824 25.872C365.504 25.872 368.304 26.736 370.224 28.464C372.144 30.16 373.104 32.192 373.104 34.56C373.104 36.32 372.592 37.888 371.568 39.264C370.576 40.608 369.04 41.888 366.96 43.104L370.56 46.848C371.36 46.016 372.144 44.704 372.912 42.912C373.04 42.592 373.36 42.432 373.872 42.432H381.12C381.376 42.432 381.584 42.512 381.744 42.672C381.904 42.832 381.984 43.04 381.984 43.296C381.984 44.224 381.328 45.68 380.016 47.664C378.736 49.648 377.488 51.28 376.272 52.56L381.984 58.512C382.176 58.704 382.272 58.928 382.272 59.184C382.272 59.408 382.176 59.6 381.984 59.76C381.824 59.92 381.632 60 381.408 60H371.616C371.232 60 370.832 59.84 370.416 59.52L369.12 58.368C366.752 59.904 363.648 60.672 359.808 60.672C355.968 60.672 352.88 59.792 350.544 58.032C348.208 56.24 347.04 53.68 347.04 50.352C347.04 46.608 349.12 43.568 353.28 41.232C351.392 39.216 350.448 37.008 350.448 34.608ZM357.504 49.68C357.504 50.576 357.792 51.28 358.368 51.792C358.976 52.304 359.776 52.56 360.768 52.56C361.76 52.56 362.576 52.368 363.216 51.984L358.992 47.616C358 48.096 357.504 48.784 357.504 49.68ZM363.888 34.944C363.888 34.432 363.712 34.016 363.36 33.696C363.04 33.376 362.624 33.216 362.112 33.216C361.632 33.216 361.216 33.392 360.864 33.744C360.512 34.064 360.336 34.544 360.336 35.184C360.336 35.792 360.768 36.496 361.632 37.296C363.136 36.624 363.888 35.84 363.888 34.944Z" fill="#FFD439"/>
<path d="M23.3 30.96V41.04C23.3 44.28 24.78 45.9 27.74 45.9C30.02 45.9 31.52 44.82 32.24 42.66C32.44 41.98 32.68 41.52 32.96 41.28C33.28 41.04 33.78 40.92 34.46 40.92H46.7C47.06 40.92 47.36 41.06 47.6 41.34C47.88 41.58 48.02 41.88 48.02 42.24C48.02 45.72 47.02 48.64 45.02 51C41.34 55.4 35.6 57.6 27.8 57.6C21.68 57.6 16.8 56.26 13.16 53.58C9.52 50.86 7.7 46.7 7.7 41.1V30.9C7.7 25.42 9.56 21.3 13.28 18.54C17 15.78 21.84 14.4 27.8 14.4C35.6 14.4 41.34 16.6 45.02 21C47.02 23.36 48.02 26.28 48.02 29.76C48.02 30.12 47.88 30.44 47.6 30.72C47.36 30.96 47.06 31.08 46.7 31.08H34.46C33.82 31.08 33.34 30.96 33.02 30.72C32.74 30.48 32.48 30.02 32.24 29.34C31.48 27.18 29.98 26.1 27.74 26.1C24.78 26.1 23.3 27.72 23.3 30.96ZM54.3842 18.84C58.0642 15.88 62.9242 14.4 68.9642 14.4C75.0042 14.4 79.8442 15.9 83.4842 18.9C87.1642 21.86 89.0042 26.04 89.0042 31.44V40.8C89.0042 46.28 87.1842 50.46 83.5442 53.34C79.9442 56.18 75.0842 57.6 68.9642 57.6C62.8442 57.6 57.9642 56.18 54.3242 53.34C50.7242 50.46 48.9242 46.28 48.9242 40.8V31.44C48.9242 26 50.7442 21.8 54.3842 18.84ZM65.7242 44.7C66.5242 45.5 67.6042 45.9 68.9642 45.9C70.3242 45.9 71.4042 45.5 72.2042 44.7C73.0042 43.9 73.4042 42.68 73.4042 41.04V30.96C73.4042 29.36 73.0042 28.16 72.2042 27.36C71.4042 26.52 70.3242 26.1 68.9642 26.1C67.6042 26.1 66.5242 26.52 65.7242 27.36C64.9242 28.16 64.5242 29.36 64.5242 30.96V41.04C64.5242 42.68 64.9242 43.9 65.7242 44.7ZM125.653 15H135.133C135.573 15 135.953 15.16 136.273 15.48C136.593 15.8 136.753 16.18 136.753 16.62V55.38C136.753 55.82 136.593 56.2 136.273 56.52C135.953 56.84 135.573 57 135.133 57H124.273C123.833 57 123.453 56.84 123.133 56.52C122.813 56.2 122.653 55.82 122.653 55.38V38.94L118.693 45.42C118.053 46.42 117.313 46.92 116.473 46.92H112.273C111.433 46.92 110.693 46.42 110.053 45.42L106.093 38.94V55.38C106.093 55.82 105.933 56.2 105.613 56.52C105.293 56.84 104.913 57 104.473 57H93.613C93.173 57 92.793 56.84 92.473 56.52C92.153 56.2 91.993 55.82 91.993 55.38V16.62C91.993 16.18 92.153 15.8 92.473 15.48C92.793 15.16 93.173 15 93.613 15H103.093C104.213 15 105.073 15.54 105.673 16.62L114.373 31.02L123.073 16.62C123.673 15.54 124.533 15 125.653 15ZM142.572 15H160.452C166.212 15 170.712 16.24 173.952 18.72C177.192 21.2 178.812 24.86 178.812 29.7C178.812 34.54 177.192 38.12 173.952 40.44C170.752 42.76 166.252 43.92 160.452 43.92H156.552V55.38C156.552 55.82 156.392 56.2 156.072 56.52C155.752 56.84 155.372 57 154.932 57H142.572C142.132 57 141.752 56.84 141.432 56.52C141.112 56.2 140.952 55.82 140.952 55.38V16.62C140.952 16.18 141.112 15.8 141.432 15.48C141.752 15.16 142.132 15 142.572 15ZM156.252 26.16V32.82H160.452C161.172 32.82 161.812 32.56 162.372 32.04C162.932 31.48 163.212 30.7 163.212 29.7C163.212 28.7 162.992 27.86 162.552 27.18C162.112 26.5 161.412 26.16 160.452 26.16H156.252ZM205.787 15H217.547C217.987 15 218.367 15.16 218.687 15.48C219.007 15.8 219.167 16.18 219.167 16.62V40.74C219.167 46.34 217.427 50.56 213.947 53.4C210.467 56.2 205.727 57.6 199.727 57.6C193.767 57.6 189.027 56.2 185.507 53.4C182.027 50.6 180.287 46.38 180.287 40.74V16.62C180.287 16.18 180.447 15.8 180.767 15.48C181.087 15.16 181.467 15 181.907 15H193.667C194.107 15 194.487 15.16 194.807 15.48C195.127 15.8 195.287 16.18 195.287 16.62V40.92C195.287 44 196.767 45.54 199.727 45.54C202.687 45.54 204.167 44 204.167 40.92V16.62C204.167 16.18 204.327 15.8 204.647 15.48C204.967 15.16 205.347 15 205.787 15ZM222.275 15H257.435C257.875 15 258.255 15.16 258.575 15.48C258.895 15.8 259.055 16.18 259.055 16.62V26.28C259.055 26.72 258.895 27.1 258.575 27.42C258.255 27.74 257.875 27.9 257.435 27.9H247.475V55.38C247.475 55.82 247.315 56.2 246.995 56.52C246.675 56.84 246.295 57 245.855 57H233.855C233.415 57 233.035 56.84 232.715 56.52C232.395 56.2 232.235 55.82 232.235 55.38V27.9H222.275C221.835 27.9 221.455 27.74 221.135 27.42C220.815 27.1 220.655 26.72 220.655 26.28V16.62C220.655 16.18 220.815 15.8 221.135 15.48C221.455 15.16 221.835 15 222.275 15ZM275.567 45.3H294.047C294.487 45.3 294.867 45.46 295.187 45.78C295.507 46.1 295.667 46.48 295.667 46.92V55.38C295.667 55.82 295.507 56.2 295.187 56.52C294.867 56.84 294.487 57 294.047 57H262.787C262.347 57 261.967 56.84 261.647 56.52C261.327 56.2 261.167 55.82 261.167 55.38V16.62C261.167 16.18 261.327 15.8 261.647 15.48C261.967 15.16 262.347 15 262.787 15H293.567C294.007 15 294.387 15.16 294.707 15.48C295.027 15.8 295.187 16.18 295.187 16.62V25.08C295.187 25.52 295.027 25.9 294.707 26.22C294.387 26.54 294.007 26.7 293.567 26.7H275.567V30.48H292.247C292.687 30.48 293.067 30.64 293.387 30.96C293.707 31.28 293.867 31.66 293.867 32.1V39.9C293.867 40.34 293.707 40.72 293.387 41.04C293.067 41.36 292.687 41.52 292.247 41.52H275.567V45.3ZM337.926 55.02C338.046 55.26 338.106 55.52 338.106 55.8C338.106 56.08 337.966 56.36 337.686 56.64C337.446 56.88 337.146 57 336.786 57H324.486C323.246 57 322.386 56.46 321.906 55.38L316.746 43.92H314.286V55.38C314.286 55.82 314.126 56.2 313.806 56.52C313.486 56.84 313.106 57 312.666 57H300.906C300.466 57 300.086 56.84 299.766 56.52C299.446 56.2 299.286 55.82 299.286 55.38V16.62C299.286 16.18 299.446 15.8 299.766 15.48C300.086 15.16 300.466 15 300.906 15H318.666C324.426 15 328.926 16.3 332.166 18.9C335.406 21.46 337.026 25.16 337.026 30C337.026 34.8 334.866 38.58 330.546 41.34L337.926 55.02ZM314.286 26.16V32.52H318.666C319.546 32.52 320.226 32.24 320.706 31.68C321.186 31.08 321.426 30.34 321.426 29.46C321.426 28.58 321.186 27.82 320.706 27.18C320.266 26.5 319.586 26.16 318.666 26.16H314.286ZM355.448 31.608C355.448 29.208 356.424 27.16 358.376 25.464C360.36 23.736 363.176 22.872 366.824 22.872C370.504 22.872 373.304 23.736 375.224 25.464C377.144 27.16 378.104 29.192 378.104 31.56C378.104 33.32 377.592 34.888 376.568 36.264C375.576 37.608 374.04 38.888 371.96 40.104L375.56 43.848C376.36 43.016 377.144 41.704 377.912 39.912C378.04 39.592 378.36 39.432 378.872 39.432H386.12C386.376 39.432 386.584 39.512 386.744 39.672C386.904 39.832 386.984 40.04 386.984 40.296C386.984 41.224 386.328 42.68 385.016 44.664C383.736 46.648 382.488 48.28 381.272 49.56L386.984 55.512C387.176 55.704 387.272 55.928 387.272 56.184C387.272 56.408 387.176 56.6 386.984 56.76C386.824 56.92 386.632 57 386.408 57H376.616C376.232 57 375.832 56.84 375.416 56.52L374.12 55.368C371.752 56.904 368.648 57.672 364.808 57.672C360.968 57.672 357.88 56.792 355.544 55.032C353.208 53.24 352.04 50.68 352.04 47.352C352.04 43.608 354.12 40.568 358.28 38.232C356.392 36.216 355.448 34.008 355.448 31.608ZM362.504 46.68C362.504 47.576 362.792 48.28 363.368 48.792C363.976 49.304 364.776 49.56 365.768 49.56C366.76 49.56 367.576 49.368 368.216 48.984L363.992 44.616C363 45.096 362.504 45.784 362.504 46.68ZM368.888 31.944C368.888 31.432 368.712 31.016 368.36 30.696C368.04 30.376 367.624 30.216 367.112 30.216C366.632 30.216 366.216 30.392 365.864 30.744C365.512 31.064 365.336 31.544 365.336 32.184C365.336 32.792 365.768 33.496 366.632 34.296C368.136 33.624 368.888 32.84 368.888 31.944Z" fill="#FF6565"/>
<path d="M30.24 43.66L31.1887 43.9762L31.1943 43.9593L31.1994 43.9422L30.24 43.66ZM30.96 42.28L30.36 41.48L30.3339 41.4995L30.3092 41.5207L30.96 42.28ZM45.6 42.34L44.8407 42.9908L44.8908 43.0492L44.9492 43.0993L45.6 42.34ZM43.02 52L42.2571 51.3535L42.2529 51.3584L43.02 52ZM11.16 54.58L10.5614 55.3811L10.5671 55.3853L11.16 54.58ZM11.28 19.54L11.8758 20.3431L11.28 19.54ZM43.02 22L42.2529 22.6416L42.2571 22.6465L43.02 22ZM45.6 31.72L44.8929 31.0129L45.6 31.72ZM31.02 31.72L30.3692 32.4793L30.3939 32.5005L30.42 32.52L31.02 31.72ZM30.24 30.34L29.2967 30.6719L29.297 30.6728L30.24 30.34ZM20.3 31.96V42.04H22.3V31.96H20.3ZM20.3 42.04C20.3 43.7929 20.6984 45.2941 21.6717 46.3595C22.6606 47.442 24.0814 47.9 25.74 47.9V45.9C24.4386 45.9 23.6394 45.548 23.1483 45.0105C22.6416 44.4559 22.3 43.5271 22.3 42.04H20.3ZM25.74 47.9C27.04 47.9 28.2028 47.5902 29.1593 46.9015C30.1159 46.2128 30.7779 45.2086 31.1887 43.9762L29.2913 43.3438C28.9821 44.2714 28.5341 44.8872 27.9907 45.2785C27.4472 45.6698 26.72 45.9 25.74 45.9V47.9ZM31.1994 43.9422C31.3871 43.3039 31.5604 43.0824 31.6108 43.0393L30.3092 41.5207C29.7996 41.9576 29.4929 42.6561 29.2806 43.3778L31.1994 43.9422ZM31.56 43.08C31.6226 43.033 31.8597 42.92 32.46 42.92V40.92C31.7003 40.92 30.9374 41.047 30.36 41.48L31.56 43.08ZM32.46 42.92H44.7V40.92H32.46V42.92ZM44.7 42.92C44.7468 42.92 44.7658 42.9282 44.7721 42.9312C44.7791 42.9344 44.8028 42.9465 44.8407 42.9908L46.3593 41.6892C45.9346 41.1938 45.36 40.92 44.7 40.92V42.92ZM44.9492 43.0993C44.9935 43.1372 45.0056 43.1609 45.0088 43.1679C45.0118 43.1742 45.02 43.1932 45.02 43.24H47.02C47.02 42.58 46.7462 42.0054 46.2508 41.5807L44.9492 43.0993ZM45.02 43.24C45.02 46.5147 44.0848 49.1968 42.2571 51.3535L43.7829 52.6465C45.9552 50.0832 47.02 46.9253 47.02 43.24H45.02ZM42.2529 51.3584C38.8249 55.4571 33.4164 57.6 25.8 57.6V59.6C33.7836 59.6 39.8551 57.3429 43.7871 52.6416L42.2529 51.3584ZM25.8 57.6C19.8189 57.6 15.1695 56.2903 11.7529 53.7747L10.5671 55.3853C14.4305 58.2297 19.5411 59.6 25.8 59.6V57.6ZM11.7586 53.7789C8.43022 51.2918 6.7 47.4664 6.7 42.1H4.7C4.7 47.9336 6.60978 52.4282 10.5614 55.3811L11.7586 53.7789ZM6.7 42.1V31.9H4.7V42.1H6.7ZM6.7 31.9C6.7 26.671 8.45852 22.8785 11.8758 20.3431L10.6842 18.7369C6.66148 21.7215 4.7 26.169 4.7 31.9H6.7ZM11.8758 20.3431C15.3797 17.7434 19.9928 16.4 25.8 16.4V14.4C19.6872 14.4 14.6203 15.8166 10.6842 18.7369L11.8758 20.3431ZM25.8 16.4C33.4164 16.4 38.8249 18.5429 42.2529 22.6416L43.7871 21.3584C39.8551 16.6571 33.7836 14.4 25.8 14.4V16.4ZM42.2571 22.6465C44.0848 24.8032 45.02 27.4853 45.02 30.76H47.02C47.02 27.0747 45.9552 23.9168 43.7829 21.3535L42.2571 22.6465ZM45.02 30.76C45.02 30.827 45.006 30.8998 44.8929 31.0129L46.3071 32.4271C46.7541 31.9802 47.02 31.413 47.02 30.76H45.02ZM44.8929 31.0129C44.8527 31.0531 44.8126 31.08 44.7 31.08V33.08C45.3074 33.08 45.8673 32.8669 46.3071 32.4271L44.8929 31.0129ZM44.7 31.08H32.46V33.08H44.7V31.08ZM32.46 31.08C31.9162 31.08 31.6906 30.973 31.62 30.92L30.42 32.52C30.9894 32.947 31.7238 33.08 32.46 33.08V31.08ZM31.6708 30.9607C31.5996 30.8997 31.4106 30.6521 31.183 30.0072L29.297 30.6728C29.5494 31.3879 29.8804 32.0603 30.3692 32.4793L31.6708 30.9607ZM31.1833 30.0081C30.7518 28.7818 30.0811 27.7838 29.1293 27.0985C28.1757 26.4119 27.0244 26.1 25.74 26.1V28.1C26.6956 28.1 27.4143 28.3281 27.9607 28.7215C28.5089 29.1162 28.9682 29.7382 29.2967 30.6719L31.1833 30.0081ZM25.74 26.1C24.0814 26.1 22.6606 26.558 21.6717 27.6405C20.6984 28.7059 20.3 30.2071 20.3 31.96H22.3C22.3 30.4729 22.6416 29.5441 23.1483 28.9895C23.6394 28.452 24.4386 28.1 25.74 28.1V26.1ZM52.3842 19.84L51.7575 19.0608L51.7533 19.0641L52.3842 19.84ZM81.4842 19.9L80.8482 20.6717L80.8575 20.6792L81.4842 19.9ZM81.5442 54.34L82.1636 55.1251L82.1647 55.1242L81.5442 54.34ZM52.3242 54.34L51.6995 55.1209L51.7091 55.1284L52.3242 54.34ZM63.7242 45.7L64.4313 44.9929L63.7242 45.7ZM70.2042 45.7L70.9113 46.4071L70.2042 45.7ZM70.2042 28.36L69.4801 29.0497L69.4885 29.0585L69.4971 29.0671L70.2042 28.36ZM63.7242 28.36L64.4313 29.0671L64.4399 29.0585L64.4484 29.0497L63.7242 28.36ZM53.011 20.6192C56.4688 17.8379 61.0876 16.4 66.9642 16.4V14.4C60.7609 14.4 55.6597 15.9221 51.7575 19.0608L53.011 20.6192ZM66.9642 16.4C72.8385 16.4 77.4326 17.8566 80.8482 20.6717L82.1202 19.1283C78.2559 15.9434 73.17 14.4 66.9642 14.4V16.4ZM80.8575 20.6792C84.2658 23.4207 86.0042 27.2939 86.0042 32.44H88.0042C88.0042 26.7861 86.0626 22.2993 82.111 19.1208L80.8575 20.6792ZM86.0042 32.44V41.8H88.0042V32.44H86.0042ZM86.0042 41.8C86.0042 47.0361 84.2794 50.9007 80.9237 53.5558L82.1647 55.1242C86.089 52.0193 88.0042 47.5239 88.0042 41.8H86.0042ZM80.9249 53.5549C77.5524 56.2154 72.9346 57.6 66.9642 57.6V59.6C73.2338 59.6 78.336 58.1446 82.1636 55.1251L80.9249 53.5549ZM66.9642 57.6C60.9946 57.6 56.3539 56.2157 52.9394 53.5516L51.7091 55.1284C55.5745 58.1443 60.6939 59.6 66.9642 59.6V57.6ZM52.9489 53.5591C49.6319 50.9055 47.9242 47.0401 47.9242 41.8H45.9242C45.9242 47.5199 47.8166 52.0145 51.6995 55.1209L52.9489 53.5591ZM47.9242 41.8V32.44H45.9242V41.8H47.9242ZM47.9242 32.44C47.9242 27.2472 49.6474 23.3545 53.0151 20.6159L51.7533 19.0641C47.841 22.2455 45.9242 26.7528 45.9242 32.44H47.9242ZM63.0171 46.4071C64.0416 47.4316 65.3963 47.9 66.9642 47.9V45.9C65.8121 45.9 65.0068 45.5684 64.4313 44.9929L63.0171 46.4071ZM66.9642 47.9C68.5321 47.9 69.8868 47.4316 70.9113 46.4071L69.4971 44.9929C68.9216 45.5684 68.1163 45.9 66.9642 45.9V47.9ZM70.9113 46.4071C71.9691 45.3493 72.4042 43.8258 72.4042 42.04H70.4042C70.4042 43.5342 70.0393 44.4507 69.4971 44.9929L70.9113 46.4071ZM72.4042 42.04V31.96H70.4042V42.04H72.4042ZM72.4042 31.96C72.4042 30.2059 71.965 28.7066 70.9113 27.6529L69.4971 29.0671C70.0434 29.6134 70.4042 30.5141 70.4042 31.96H72.4042ZM70.9284 27.6703C69.907 26.5979 68.5466 26.1 66.9642 26.1V28.1C68.1018 28.1 68.9015 28.4421 69.4801 29.0497L70.9284 27.6703ZM66.9642 26.1C65.3818 26.1 64.0215 26.5979 63.0001 27.6703L64.4484 29.0497C65.027 28.4421 65.8266 28.1 66.9642 28.1V26.1ZM63.0171 27.6529C61.9634 28.7066 61.5242 30.2059 61.5242 31.96H63.5242C63.5242 30.5141 63.885 29.6134 64.4313 29.0671L63.0171 27.6529ZM61.5242 31.96V42.04H63.5242V31.96H61.5242ZM61.5242 42.04C61.5242 43.8258 61.9593 45.3493 63.0171 46.4071L64.4313 44.9929C63.8891 44.4507 63.5242 43.5342 63.5242 42.04H61.5242ZM134.273 57.52L133.566 56.8129L134.273 57.52ZM121.133 57.52L121.84 56.8129V56.8129L121.133 57.52ZM120.653 39.94H121.653V36.3859L119.8 39.4185L120.653 39.94ZM116.693 46.42L117.535 46.9591L117.541 46.9503L117.546 46.9414L116.693 46.42ZM108.053 46.42L107.2 46.9414L107.205 46.9503L107.211 46.9591L108.053 46.42ZM104.093 39.94L104.946 39.4185L103.093 36.3859V39.94H104.093ZM103.613 57.52L104.32 58.2271H104.32L103.613 57.52ZM90.473 57.52L91.1801 56.8129L90.473 57.52ZM90.473 16.48L91.1801 17.1871L90.473 16.48ZM103.673 17.62L102.799 18.1056L102.808 18.1215L102.817 18.1371L103.673 17.62ZM112.373 32.02L111.517 32.5371L112.373 33.9538L113.229 32.5371L112.373 32.02ZM121.073 17.62L121.929 18.1371L121.938 18.1215L121.947 18.1056L121.073 17.62ZM123.653 17H133.133V15H123.653V17ZM133.133 17C133.299 17 133.427 17.0487 133.566 17.1871L134.98 15.7729C134.479 15.2713 133.847 15 133.133 15V17ZM133.566 17.1871C133.704 17.3256 133.753 17.4536 133.753 17.62H135.753C135.753 16.9064 135.482 16.2744 134.98 15.7729L133.566 17.1871ZM133.753 17.62V56.38H135.753V17.62H133.753ZM133.753 56.38C133.753 56.5464 133.704 56.6744 133.566 56.8129L134.98 58.2271C135.482 57.7256 135.753 57.0936 135.753 56.38H133.753ZM133.566 56.8129C133.427 56.9513 133.299 57 133.133 57V59C133.847 59 134.479 58.7287 134.98 58.2271L133.566 56.8129ZM133.133 57H122.273V59H133.133V57ZM122.273 57C122.107 57 121.979 56.9513 121.84 56.8129L120.426 58.2271C120.927 58.7287 121.559 59 122.273 59V57ZM121.84 56.8129C121.702 56.6744 121.653 56.5464 121.653 56.38H119.653C119.653 57.0936 119.924 57.7256 120.426 58.2271L121.84 56.8129ZM121.653 56.38V39.94H119.653V56.38H121.653ZM119.8 39.4185L115.84 45.8985L117.546 46.9414L121.506 40.4614L119.8 39.4185ZM115.851 45.8809C115.312 46.7234 114.842 46.92 114.473 46.92V48.92C115.784 48.92 116.794 48.1166 117.535 46.9591L115.851 45.8809ZM114.473 46.92H110.273V48.92H114.473V46.92ZM110.273 46.92C109.904 46.92 109.434 46.7234 108.895 45.8809L107.211 46.9591C107.951 48.1166 108.962 48.92 110.273 48.92V46.92ZM108.906 45.8985L104.946 39.4185L103.24 40.4614L107.2 46.9414L108.906 45.8985ZM103.093 39.94V56.38H105.093V39.94H103.093ZM103.093 56.38C103.093 56.5464 103.044 56.6744 102.906 56.8129L104.32 58.2271C104.822 57.7256 105.093 57.0936 105.093 56.38H103.093ZM102.906 56.8129C102.767 56.9513 102.639 57 102.473 57V59C103.187 59 103.819 58.7287 104.32 58.2271L102.906 56.8129ZM102.473 57H91.613V59H102.473V57ZM91.613 57C91.4465 57 91.3185 56.9513 91.1801 56.8129L89.7659 58.2271C90.2674 58.7287 90.8994 59 91.613 59V57ZM91.1801 56.8129C91.0416 56.6744 90.993 56.5464 90.993 56.38H88.993C88.993 57.0936 89.2643 57.7256 89.7659 58.2271L91.1801 56.8129ZM90.993 56.38V17.62H88.993V56.38H90.993ZM90.993 17.62C90.993 17.4536 91.0416 17.3256 91.1801 17.1871L89.7659 15.7729C89.2643 16.2744 88.993 16.9064 88.993 17.62H90.993ZM91.1801 17.1871C91.3185 17.0487 91.4465 17 91.613 17V15C90.8994 15 90.2674 15.2713 89.7659 15.7729L91.1801 17.1871ZM91.613 17H101.093V15H91.613V17ZM101.093 17C101.806 17 102.353 17.3032 102.799 18.1056L104.547 17.1344C103.793 15.7768 102.62 15 101.093 15V17ZM102.817 18.1371L111.517 32.5371L113.229 31.5029L104.529 17.1029L102.817 18.1371ZM113.229 32.5371L121.929 18.1371L120.217 17.1029L111.517 31.5029L113.229 32.5371ZM121.947 18.1056C122.393 17.3032 122.94 17 123.653 17V15C122.126 15 120.953 15.7768 120.199 17.1344L121.947 18.1056ZM171.952 19.72L171.344 20.5141L171.952 19.72ZM171.952 41.44L171.369 40.6269L171.365 40.6304L171.952 41.44ZM154.552 44.92V43.92H153.552V44.92H154.552ZM154.072 57.52L153.364 56.8129L154.072 57.52ZM139.432 57.52L140.139 56.8129L139.432 57.52ZM139.432 16.48L140.139 17.1871L139.432 16.48ZM154.252 27.16V26.16H153.252V27.16H154.252ZM154.252 33.82H153.252V34.82H154.252V33.82ZM160.372 33.04L161.052 33.7728L161.066 33.7602L161.079 33.7471L160.372 33.04ZM160.552 28.18L159.712 28.7232V28.7233L160.552 28.18ZM140.572 17H158.452V15H140.572V17ZM158.452 17C164.08 17 168.337 18.2128 171.344 20.5141L172.559 18.9259C169.086 16.2672 164.343 15 158.452 15V17ZM171.344 20.5141C174.289 22.7685 175.812 26.1061 175.812 30.7H177.812C177.812 25.6139 176.094 21.6315 172.559 18.9259L171.344 20.5141ZM175.812 30.7C175.812 35.2956 174.289 38.536 171.369 40.6269L172.534 42.2531C176.094 39.704 177.812 35.7844 177.812 30.7H175.812ZM171.365 40.6304C168.398 42.781 164.135 43.92 158.452 43.92V45.92C164.368 45.92 169.105 44.739 172.539 42.2496L171.365 40.6304ZM158.452 43.92H154.552V45.92H158.452V43.92ZM153.552 44.92V56.38H155.552V44.92H153.552ZM153.552 56.38C153.552 56.5464 153.503 56.6744 153.364 56.8129L154.779 58.2271C155.28 57.7256 155.552 57.0936 155.552 56.38H153.552ZM153.364 56.8129C153.226 56.9513 153.098 57 152.932 57V59C153.645 59 154.277 58.7287 154.779 58.2271L153.364 56.8129ZM152.932 57H140.572V59H152.932V57ZM140.572 57C140.405 57 140.277 56.9513 140.139 56.8129L138.724 58.2271C139.226 58.7287 139.858 59 140.572 59V57ZM140.139 56.8129C140 56.6744 139.952 56.5464 139.952 56.38H137.952C137.952 57.0936 138.223 57.7256 138.724 58.2271L140.139 56.8129ZM139.952 56.38V17.62H137.952V56.38H139.952ZM139.952 17.62C139.952 17.4536 140 17.3256 140.139 17.1871L138.724 15.7729C138.223 16.2744 137.952 16.9064 137.952 17.62H139.952ZM140.139 17.1871C140.277 17.0487 140.405 17 140.572 17V15C139.858 15 139.226 15.2713 138.724 15.7729L140.139 17.1871ZM153.252 27.16V33.82H155.252V27.16H153.252ZM154.252 34.82H158.452V32.82H154.252V34.82ZM158.452 34.82C159.44 34.82 160.32 34.453 161.052 33.7728L159.691 32.3072C159.304 32.667 158.903 32.82 158.452 32.82V34.82ZM161.079 33.7471C161.872 32.9534 162.212 31.8919 162.212 30.7H160.212C160.212 31.5081 159.991 32.0066 159.664 32.3329L161.079 33.7471ZM162.212 30.7C162.212 29.5526 161.958 28.5129 161.391 27.6367L159.712 28.7233C160.025 29.2071 160.212 29.8474 160.212 30.7H162.212ZM161.391 27.6367C160.73 26.6157 159.678 26.16 158.452 26.16V28.16C159.145 28.16 159.493 28.3843 159.712 28.7232L161.391 27.6367ZM158.452 26.16H154.252V28.16H158.452V26.16ZM216.687 16.48L217.394 15.7729L217.394 15.7729L216.687 16.48ZM211.947 54.4L212.574 55.1791L212.579 55.1748L211.947 54.4ZM183.507 54.4L182.88 55.1791L182.884 55.1826L183.507 54.4ZM178.767 16.48L178.06 15.7729L178.767 16.48ZM192.807 16.48L193.514 15.7729V15.7729L192.807 16.48ZM202.647 16.48L203.354 17.1871V17.1871L202.647 16.48ZM203.787 17H215.547V15H203.787V17ZM215.547 17C215.713 17 215.841 17.0487 215.98 17.1871L217.394 15.7729C216.892 15.2713 216.26 15 215.547 15V17ZM215.98 17.1871C216.118 17.3256 216.167 17.4536 216.167 17.62H218.167C218.167 16.9064 217.895 16.2744 217.394 15.7729L215.98 17.1871ZM216.167 17.62V41.74H218.167V17.62H216.167ZM216.167 41.74C216.167 47.1207 214.505 51.0211 211.314 53.6252L212.579 55.1748C216.348 52.0989 218.167 47.5593 218.167 41.74H216.167ZM211.32 53.6209C208.07 56.2356 203.577 57.6 197.727 57.6V59.6C203.877 59.6 208.863 58.1644 212.574 55.1791L211.32 53.6209ZM197.727 57.6C191.919 57.6 187.422 56.2368 184.129 53.6174L182.884 55.1826C186.631 58.1632 191.614 59.6 197.727 59.6V57.6ZM184.134 53.6209C180.95 51.0592 179.287 47.164 179.287 41.74H177.287C177.287 47.596 179.104 52.1408 182.88 55.1791L184.134 53.6209ZM179.287 41.74V17.62H177.287V41.74H179.287ZM179.287 17.62C179.287 17.4536 179.335 17.3256 179.474 17.1871L178.06 15.7729C177.558 16.2744 177.287 16.9064 177.287 17.62H179.287ZM179.474 17.1871C179.612 17.0487 179.74 17 179.907 17V15C179.193 15 178.561 15.2713 178.06 15.7729L179.474 17.1871ZM179.907 17H191.667V15H179.907V17ZM191.667 17C191.833 17 191.961 17.0487 192.1 17.1871L193.514 15.7729C193.012 15.2713 192.38 15 191.667 15V17ZM192.1 17.1871C192.238 17.3256 192.287 17.4536 192.287 17.62H194.287C194.287 16.9064 194.015 16.2744 193.514 15.7729L192.1 17.1871ZM192.287 17.62V41.92H194.287V17.62H192.287ZM192.287 41.92C192.287 43.6044 192.691 45.0531 193.676 46.0779C194.668 47.1101 196.082 47.54 197.727 47.54V45.54C196.411 45.54 195.606 45.1999 195.118 44.6921C194.623 44.1769 194.287 43.3156 194.287 41.92H192.287ZM197.727 47.54C199.371 47.54 200.786 47.1101 201.778 46.0779C202.763 45.0531 203.167 43.6044 203.167 41.92H201.167C201.167 43.3156 200.831 44.1769 200.336 44.6921C199.848 45.1999 199.042 45.54 197.727 45.54V47.54ZM203.167 41.92V17.62H201.167V41.92H203.167ZM203.167 17.62C203.167 17.4536 203.215 17.3256 203.354 17.1871L201.94 15.7729C201.438 16.2744 201.167 16.9064 201.167 17.62H203.167ZM203.354 17.1871C203.492 17.0487 203.62 17 203.787 17V15C203.073 15 202.441 15.2713 201.94 15.7729L203.354 17.1871ZM256.575 16.48L257.283 15.7729V15.7729L256.575 16.48ZM256.575 28.42L257.283 29.1271V29.1271L256.575 28.42ZM245.475 28.9V27.9H244.475V28.9H245.475ZM244.995 57.52L244.288 56.8129L244.995 57.52ZM230.235 28.9H231.235V27.9H230.235V28.9ZM220.275 17H255.435V15H220.275V17ZM255.435 17C255.602 17 255.73 17.0487 255.868 17.1871L257.283 15.7729C256.781 15.2713 256.149 15 255.435 15V17ZM255.868 17.1871C256.007 17.3256 256.055 17.4536 256.055 17.62H258.055C258.055 16.9064 257.784 16.2744 257.283 15.7729L255.868 17.1871ZM256.055 17.62V27.28H258.055V17.62H256.055ZM256.055 27.28C256.055 27.4464 256.007 27.5744 255.868 27.7129L257.283 29.1271C257.784 28.6255 258.055 27.9936 258.055 27.28H256.055ZM255.868 27.7129C255.73 27.8513 255.602 27.9 255.435 27.9V29.9C256.149 29.9 256.781 29.6287 257.283 29.1271L255.868 27.7129ZM255.435 27.9H245.475V29.9H255.435V27.9ZM244.475 28.9V56.38H246.475V28.9H244.475ZM244.475 56.38C244.475 56.5464 244.427 56.6744 244.288 56.8129L245.703 58.2271C246.204 57.7256 246.475 57.0936 246.475 56.38H244.475ZM244.288 56.8129C244.15 56.9513 244.022 57 243.855 57V59C244.569 59 245.201 58.7287 245.703 58.2271L244.288 56.8129ZM243.855 57H231.855V59H243.855V57ZM231.855 57C231.689 57 231.561 56.9513 231.423 56.8129L230.008 58.2271C230.51 58.7287 231.142 59 231.855 59V57ZM231.423 56.8129C231.284 56.6744 231.235 56.5464 231.235 56.38H229.235C229.235 57.0936 229.507 57.7256 230.008 58.2271L231.423 56.8129ZM231.235 56.38V28.9H229.235V56.38H231.235ZM230.235 27.9H220.275V29.9H230.235V27.9ZM220.275 27.9C220.109 27.9 219.981 27.8513 219.843 27.7129L218.428 29.1271C218.93 29.6287 219.562 29.9 220.275 29.9V27.9ZM219.843 27.7129C219.704 27.5744 219.655 27.4464 219.655 27.28H217.655C217.655 27.9936 217.927 28.6256 218.428 29.1271L219.843 27.7129ZM219.655 27.28V17.62H217.655V27.28H219.655ZM219.655 17.62C219.655 17.4536 219.704 17.3256 219.843 17.1871L218.428 15.7729C217.927 16.2744 217.655 16.9064 217.655 17.62H219.655ZM219.843 17.1871C219.981 17.0487 220.109 17 220.275 17V15C219.562 15 218.93 15.2713 218.428 15.7729L219.843 17.1871ZM273.567 46.3H272.567V47.3H273.567V46.3ZM293.187 57.52L292.48 56.8129L293.187 57.52ZM259.647 57.52L260.354 56.8129L259.647 57.52ZM259.647 16.48L260.354 17.1871L259.647 16.48ZM292.707 16.48L292 17.1871V17.1871L292.707 16.48ZM292.707 27.22L292 26.5129V26.5129L292.707 27.22ZM273.567 27.7V26.7H272.567V27.7H273.567ZM273.567 31.48H272.567V32.48H273.567V31.48ZM291.387 31.96L292.094 31.2529V31.2529L291.387 31.96ZM291.387 42.04L292.094 42.7471V42.7471L291.387 42.04ZM273.567 42.52V41.52H272.567V42.52H273.567ZM273.567 47.3H292.047V45.3H273.567V47.3ZM292.047 47.3C292.214 47.3 292.342 47.3487 292.48 47.4871L293.894 46.0729C293.393 45.5713 292.761 45.3 292.047 45.3V47.3ZM292.48 47.4871C292.619 47.6256 292.667 47.7536 292.667 47.92H294.667C294.667 47.2064 294.396 46.5744 293.894 46.0729L292.48 47.4871ZM292.667 47.92V56.38H294.667V47.92H292.667ZM292.667 56.38C292.667 56.5464 292.619 56.6744 292.48 56.8129L293.894 58.2271C294.396 57.7256 294.667 57.0936 294.667 56.38H292.667ZM292.48 56.8129C292.342 56.9513 292.214 57 292.047 57V59C292.761 59 293.393 58.7287 293.894 58.2271L292.48 56.8129ZM292.047 57H260.787V59H292.047V57ZM260.787 57C260.621 57 260.493 56.9513 260.354 56.8129L258.94 58.2271C259.442 58.7287 260.074 59 260.787 59V57ZM260.354 56.8129C260.216 56.6744 260.167 56.5464 260.167 56.38H258.167C258.167 57.0936 258.439 57.7256 258.94 58.2271L260.354 56.8129ZM260.167 56.38V17.62H258.167V56.38H260.167ZM260.167 17.62C260.167 17.4536 260.216 17.3256 260.354 17.1871L258.94 15.7729C258.439 16.2744 258.167 16.9064 258.167 17.62H260.167ZM260.354 17.1871C260.493 17.0487 260.621 17 260.787 17V15C260.074 15 259.442 15.2713 258.94 15.7729L260.354 17.1871ZM260.787 17H291.567V15H260.787V17ZM291.567 17C291.734 17 291.862 17.0487 292 17.1871L293.414 15.7729C292.913 15.2713 292.281 15 291.567 15V17ZM292 17.1871C292.139 17.3256 292.187 17.4536 292.187 17.62H294.187C294.187 16.9064 293.916 16.2744 293.414 15.7729L292 17.1871ZM292.187 17.62V26.08H294.187V17.62H292.187ZM292.187 26.08C292.187 26.2464 292.139 26.3744 292 26.5129L293.414 27.9271C293.916 27.4256 294.187 26.7936 294.187 26.08H292.187ZM292 26.5129C291.862 26.6513 291.734 26.7 291.567 26.7V28.7C292.281 28.7 292.913 28.4287 293.414 27.9271L292 26.5129ZM291.567 26.7H273.567V28.7H291.567V26.7ZM272.567 27.7V31.48H274.567V27.7H272.567ZM273.567 32.48H290.247V30.48H273.567V32.48ZM290.247 32.48C290.414 32.48 290.542 32.5287 290.68 32.6671L292.094 31.2529C291.593 30.7513 290.961 30.48 290.247 30.48V32.48ZM290.68 32.6671C290.819 32.8056 290.867 32.9336 290.867 33.1H292.867C292.867 32.3864 292.596 31.7544 292.094 31.2529L290.68 32.6671ZM290.867 33.1V40.9H292.867V33.1H290.867ZM290.867 40.9C290.867 41.0664 290.819 41.1944 290.68 41.3329L292.094 42.7471C292.596 42.2456 292.867 41.6136 292.867 40.9H290.867ZM290.68 41.3329C290.542 41.4713 290.414 41.52 290.247 41.52V43.52C290.961 43.52 291.593 43.2487 292.094 42.7471L290.68 41.3329ZM290.247 41.52H273.567V43.52H290.247V41.52ZM272.567 42.52V46.3H274.567V42.52H272.567ZM335.926 56.02L336.82 55.5728L336.813 55.5589L336.806 55.5452L335.926 56.02ZM335.686 57.64L336.393 58.3471L335.686 57.64ZM319.906 56.38L320.82 55.9739L320.818 55.9694L319.906 56.38ZM314.746 44.92L315.658 44.5094L315.392 43.92H314.746V44.92ZM312.286 44.92V43.92H311.286V44.92H312.286ZM311.806 57.52L311.099 56.8129L311.806 57.52ZM297.766 57.52L298.473 56.8129L297.766 57.52ZM297.766 16.48L298.473 17.1871L297.766 16.48ZM330.166 19.9L329.54 20.6799L329.546 20.6846L330.166 19.9ZM328.546 42.34L328.008 41.4973L327.225 41.9974L327.666 42.8148L328.546 42.34ZM312.286 27.16V26.16H311.286V27.16H312.286ZM312.286 33.52H311.286V34.52H312.286V33.52ZM318.706 32.68L319.465 33.3308L319.476 33.3179L319.487 33.3047L318.706 32.68ZM318.706 28.18L317.866 28.7233L317.885 28.7523L317.906 28.78L318.706 28.18ZM335.031 56.4672C335.079 56.5623 335.106 56.6683 335.106 56.8H337.106C337.106 56.3717 337.013 55.9577 336.82 55.5728L335.031 56.4672ZM335.106 56.8C335.106 56.7672 335.115 56.7551 335.107 56.7728C335.095 56.7951 335.062 56.8497 334.979 56.9329L336.393 58.3471C336.782 57.9581 337.106 57.4388 337.106 56.8H335.106ZM334.979 56.9329C334.939 56.9731 334.899 57 334.786 57V59C335.393 59 335.953 58.7869 336.393 58.3471L334.979 56.9329ZM334.786 57H322.486V59H334.786V57ZM322.486 57C322.012 57 321.681 56.898 321.443 56.7481C321.207 56.6003 320.993 56.3628 320.82 55.9739L318.992 56.7861C319.299 57.4772 319.755 58.0497 320.379 58.4419C321 58.832 321.72 59 322.486 59V57ZM320.818 55.9694L315.658 44.5094L313.834 45.3306L318.994 56.7906L320.818 55.9694ZM314.746 43.92H312.286V45.92H314.746V43.92ZM311.286 44.92V56.38H313.286V44.92H311.286ZM311.286 56.38C311.286 56.5464 311.237 56.6744 311.099 56.8129L312.513 58.2271C313.015 57.7256 313.286 57.0936 313.286 56.38H311.286ZM311.099 56.8129C310.96 56.9513 310.832 57 310.666 57V59C311.379 59 312.011 58.7287 312.513 58.2271L311.099 56.8129ZM310.666 57H298.906V59H310.666V57ZM298.906 57C298.74 57 298.611 56.9513 298.473 56.8129L297.059 58.2271C297.56 58.7287 298.192 59 298.906 59V57ZM298.473 56.8129C298.335 56.6744 298.286 56.5464 298.286 56.38H296.286C296.286 57.0936 296.557 57.7256 297.059 58.2271L298.473 56.8129ZM298.286 56.38V17.62H296.286V56.38H298.286ZM298.286 17.62C298.286 17.4536 298.335 17.3256 298.473 17.1871L297.059 15.7729C296.557 16.2744 296.286 16.9064 296.286 17.62H298.286ZM298.473 17.1871C298.611 17.0487 298.74 17 298.906 17V15C298.192 15 297.56 15.2713 297.059 15.7729L298.473 17.1871ZM298.906 17H316.666V15H298.906V17ZM316.666 17C322.285 17 326.535 18.2686 329.54 20.6799L330.792 19.1201C327.317 16.3314 322.567 15 316.666 15V17ZM329.546 20.6846C332.503 23.0212 334.026 26.4068 334.026 31H336.026C336.026 25.9132 334.309 21.8988 330.786 19.1154L329.546 20.6846ZM334.026 31C334.026 35.4318 332.063 38.9061 328.008 41.4973L329.084 43.1827C333.668 40.2539 336.026 36.1682 336.026 31H334.026ZM327.666 42.8148L335.046 56.4948L336.806 55.5452L329.426 41.8652L327.666 42.8148ZM311.286 27.16V33.52H313.286V27.16H311.286ZM312.286 34.52H316.666V32.52H312.286V34.52ZM316.666 34.52C317.776 34.52 318.758 34.1555 319.465 33.3308L317.947 32.0292C317.694 32.3245 317.316 32.52 316.666 32.52V34.52ZM319.487 33.3047C320.129 32.5021 320.426 31.5324 320.426 30.46H318.426C318.426 31.1476 318.243 31.6579 317.925 32.0553L319.487 33.3047ZM320.426 30.46C320.426 29.3865 320.129 28.4105 319.506 27.58L317.906 28.78C318.243 29.2295 318.426 29.7735 318.426 30.46H320.426ZM319.546 27.6367C318.894 26.6293 317.871 26.16 316.666 26.16V28.16C317.301 28.16 317.638 28.3707 317.866 28.7233L319.546 27.6367ZM316.666 26.16H312.286V28.16H316.666V26.16ZM356.376 26.464L357.031 27.2189L357.032 27.2181L356.376 26.464ZM373.224 26.464L372.555 27.2073L372.561 27.2135L373.224 26.464ZM374.568 37.264L373.765 36.667L373.763 36.6701L374.568 37.264ZM369.96 41.104L369.455 40.2407L368.358 40.8817L369.239 41.7971L369.96 41.104ZM373.56 44.848L372.839 45.5411L373.56 46.2908L374.28 45.5411L373.56 44.848ZM375.912 40.912L376.831 41.3059L376.835 41.2947L376.84 41.2834L375.912 40.912ZM384.744 40.672L385.451 39.9649L384.744 40.672ZM383.016 45.664L382.181 45.1124L382.175 45.1219L383.016 45.664ZM379.272 50.56L378.547 49.8713L377.889 50.5635L378.55 51.2524L379.272 50.56ZM384.984 56.512L384.262 57.2044L384.269 57.2118L384.276 57.2191L384.984 56.512ZM384.984 57.76L384.343 56.9918L384.309 57.0208L384.276 57.0529L384.984 57.76ZM373.416 57.52L372.751 58.2674L372.778 58.291L372.806 58.3126L373.416 57.52ZM372.12 56.368L372.784 55.6206L372.215 55.1145L371.575 55.529L372.12 56.368ZM353.544 56.032L352.935 56.8255L352.942 56.8307L353.544 56.032ZM356.28 39.232L356.769 40.1039L357.881 39.4794L357.009 38.5484L356.28 39.232ZM361.368 49.792L360.703 50.5394L360.713 50.5483L360.723 50.5569L361.368 49.792ZM366.216 49.984L366.73 50.8415L367.81 50.1938L366.934 49.2888L366.216 49.984ZM361.992 45.616L362.71 44.9208L362.207 44.4007L361.556 44.7158L361.992 45.616ZM366.36 31.696L365.652 32.4031L365.669 32.4199L365.687 32.4359L366.36 31.696ZM363.864 31.744L364.536 32.4839L364.554 32.4679L364.571 32.4511L363.864 31.744ZM364.632 35.296L363.952 36.0298L364.437 36.4784L365.039 36.209L364.632 35.296ZM354.448 32.608C354.448 30.522 355.279 28.7416 357.031 27.2189L355.72 25.7091C353.568 27.5784 352.448 29.894 352.448 32.608H354.448ZM357.032 27.2181C358.775 25.7007 361.324 24.872 364.824 24.872V22.872C361.027 22.872 357.945 23.7713 355.719 25.7099L357.032 27.2181ZM364.824 24.872C368.361 24.872 370.883 25.703 372.555 27.2073L373.893 25.7207C371.724 23.769 368.646 22.872 364.824 22.872V24.872ZM372.561 27.2135C374.286 28.7372 375.104 30.5041 375.104 32.56H377.104C377.104 29.8799 376.001 27.5828 373.886 25.7145L372.561 27.2135ZM375.104 32.56C375.104 34.1109 374.657 35.4683 373.765 36.667L375.37 37.861C376.526 36.3077 377.104 34.5291 377.104 32.56H375.104ZM373.763 36.6701C372.879 37.8678 371.465 39.0653 369.455 40.2407L370.464 41.9673C372.614 40.7107 374.272 39.3482 375.372 37.8579L373.763 36.6701ZM369.239 41.7971L372.839 45.5411L374.28 44.1549L370.68 40.4109L369.239 41.7971ZM374.28 45.5411C375.202 44.5824 376.043 43.1432 376.831 41.3059L374.992 40.5181C374.244 42.2648 373.517 43.4496 372.839 44.1549L374.28 45.5411ZM376.84 41.2834C376.828 41.3126 376.807 41.3493 376.775 41.3843C376.742 41.4188 376.712 41.438 376.695 41.4464C376.68 41.454 376.682 41.4498 376.712 41.444C376.743 41.4381 376.794 41.432 376.872 41.432V39.432C376.182 39.432 375.334 39.664 374.983 40.5406L376.84 41.2834ZM376.872 41.432H384.12V39.432H376.872V41.432ZM384.12 41.432C384.143 41.432 384.135 41.4354 384.109 41.4253C384.096 41.4205 384.082 41.4136 384.068 41.4046C384.055 41.3957 384.044 41.3866 384.036 41.3791L385.451 39.9649C385.078 39.5921 384.603 39.432 384.12 39.432V41.432ZM384.036 41.3791C384.029 41.3716 384.02 41.361 384.011 41.3473C384.002 41.3335 383.995 41.3196 383.99 41.307C383.98 41.2807 383.984 41.2727 383.984 41.296H385.984C385.984 40.8128 385.823 40.3377 385.451 39.9649L384.036 41.3791ZM383.984 41.296C383.984 41.5511 383.886 41.9943 383.58 42.6732C383.282 43.3348 382.821 44.1458 382.181 45.1124L383.85 46.2156C384.522 45.1982 385.045 44.2892 385.403 43.4948C385.753 42.7177 385.984 41.9689 385.984 41.296H383.984ZM382.175 45.1219C380.918 47.0698 379.708 48.6486 378.547 49.8713L379.997 51.2487C381.267 49.9114 382.553 48.2262 383.856 46.2061L382.175 45.1219ZM378.55 51.2524L384.262 57.2044L385.705 55.8196L379.993 49.8676L378.55 51.2524ZM384.276 57.2191C384.285 57.2278 384.288 57.232 384.287 57.2312C384.287 57.2303 384.284 57.2257 384.28 57.2179C384.277 57.21 384.274 57.2017 384.273 57.1941C384.271 57.1867 384.272 57.1828 384.272 57.184H386.272C386.272 56.6454 386.058 56.1718 385.691 55.8049L384.276 57.2191ZM384.272 57.184C384.272 57.1477 384.281 57.0977 384.305 57.0488C384.328 57.0028 384.351 56.9857 384.343 56.9918L385.624 58.5282C386.014 58.203 386.272 57.7415 386.272 57.184H384.272ZM384.276 57.0529C384.281 57.0487 384.3 57.0314 384.335 57.0169C384.37 57.0023 384.398 57 384.408 57V59C384.9 59 385.345 58.8125 385.691 58.4671L384.276 57.0529ZM384.408 57H374.616V59H384.408V57ZM374.616 57C374.52 57 374.33 56.9616 374.025 56.7274L372.806 58.3126C373.333 58.7184 373.943 59 374.616 59V57ZM374.08 56.7726L372.784 55.6206L371.455 57.1154L372.751 58.2674L374.08 56.7726ZM371.575 55.529C369.418 56.9284 366.522 57.672 362.808 57.672V59.672C366.773 59.672 370.085 58.8796 372.664 57.207L371.575 55.529ZM362.808 57.672C359.117 57.672 356.261 56.827 354.145 55.2333L352.942 56.8307C355.499 58.757 358.818 59.672 362.808 59.672V57.672ZM354.152 55.2386C352.097 53.6623 351.04 51.4153 351.04 48.352H349.04C349.04 51.9447 350.318 54.8177 352.935 56.8254L354.152 55.2386ZM351.04 48.352C351.04 45.0718 352.824 42.3194 356.769 40.1039L355.79 38.3601C351.415 40.8166 349.04 44.1442 349.04 48.352H351.04ZM357.009 38.5484C355.267 36.6877 354.448 34.7158 354.448 32.608H352.448C352.448 35.3002 353.516 37.7443 355.55 39.9156L357.009 38.5484ZM359.504 47.68C359.504 48.8105 359.878 49.8061 360.703 50.5394L362.032 49.0446C361.705 48.7539 361.504 48.3415 361.504 47.68H359.504ZM360.723 50.5569C361.553 51.2555 362.6 51.56 363.768 51.56V49.56C362.951 49.56 362.398 49.3525 362.012 49.0271L360.723 50.5569ZM363.768 51.56C364.883 51.56 365.892 51.3446 366.73 50.8415L365.701 49.1265C365.26 49.3914 364.636 49.56 363.768 49.56V51.56ZM366.934 49.2888L362.71 44.9208L361.273 46.3112L365.497 50.6792L366.934 49.2888ZM361.556 44.7158C360.954 45.0072 360.434 45.3942 360.064 45.9072C359.686 46.4314 359.504 47.0347 359.504 47.68H361.504C361.504 47.4293 361.569 47.2406 361.687 47.0768C361.813 46.9018 362.037 46.7048 362.427 46.5162L361.556 44.7158ZM367.888 32.944C367.888 32.1744 367.61 31.4812 367.032 30.9561L365.687 32.4359C365.813 32.5508 365.888 32.6896 365.888 32.944H367.888ZM367.067 30.9889C366.534 30.4561 365.851 30.216 365.112 30.216V32.216C365.396 32.216 365.545 32.2959 365.652 32.4031L367.067 30.9889ZM365.112 30.216C364.356 30.216 363.688 30.5051 363.156 31.0369L364.571 32.4511C364.743 32.2789 364.908 32.216 365.112 32.216V30.216ZM363.191 31.0041C362.565 31.5726 362.336 32.364 362.336 33.184H364.336C364.336 32.724 364.458 32.5554 364.536 32.4839L363.191 31.0041ZM362.336 33.184C362.336 34.2395 363.054 35.1986 363.952 36.0298L365.311 34.5622C364.481 33.7934 364.336 33.3445 364.336 33.184H362.336ZM365.039 36.209C366.591 35.5159 367.888 34.4897 367.888 32.944H365.888C365.888 33.1903 365.68 33.7321 364.224 34.383L365.039 36.209Z" fill="#51473D"/>
<path d="M296.848 88.328C298.128 88.328 299.232 87.976 300.16 87.272C301.12 86.568 301.6 85.384 301.6 83.72C301.6 82.6 301.088 81.672 300.064 80.936C299.072 80.2 297.824 79.544 296.32 78.968C294.816 78.36 293.792 77.944 293.248 77.72C292.736 77.464 292.048 77.064 291.184 76.52C289.616 75.464 288.832 73.944 288.832 71.96C288.832 69.976 289.616 68.328 291.184 67.016C292.752 65.704 295.04 65.048 298.048 65.048C299.968 65.048 301.6 65.48 302.944 66.344C304.32 67.176 305.008 68.184 305.008 69.368C305.008 70.552 304.56 71.368 303.664 71.816C303.184 72.04 302.704 72.152 302.224 72.152C301.776 72.152 301.328 72.056 300.88 71.864C301.008 71.288 301.072 70.664 301.072 69.992C301.072 69.32 300.912 68.648 300.592 67.976C300.048 66.824 299.008 66.248 297.472 66.248C295.936 66.248 294.768 66.664 293.968 67.496C293.168 68.328 292.768 69.416 292.768 70.76C292.768 72.136 293.344 73.16 294.496 73.832C295.36 74.376 296.432 74.872 297.712 75.32C298.992 75.768 299.856 76.088 300.304 76.28C300.784 76.44 301.408 76.728 302.176 77.144C302.944 77.56 303.52 77.992 303.904 78.44C304.896 79.528 305.392 81 305.392 82.856C305.392 84.712 304.56 86.296 302.896 87.608C301.232 88.888 299.2 89.528 296.8 89.528C294.4 89.528 292.288 89.16 290.464 88.424C288.672 87.688 287.776 86.616 287.776 85.208C287.776 83.896 288.752 83.032 290.704 82.616C291.28 86.424 293.328 88.328 296.848 88.328ZM321.385 84.008C321.385 84.104 321.369 84.216 321.337 84.344C320.825 85.912 319.961 87.176 318.745 88.136C317.561 89.064 316.169 89.528 314.569 89.528C312.969 89.528 311.625 89.08 310.537 88.184C309.481 87.256 308.953 85.464 308.953 82.808C308.953 82.072 309.033 76.744 309.193 66.824H305.881V65.576H309.241L309.289 58.52H313.993L313.849 65.576H320.713V66.824H313.849C313.689 77.16 313.609 83.208 313.609 84.968C313.609 87.112 314.313 88.184 315.721 88.184C316.585 88.184 317.481 87.688 318.409 86.696C319.369 85.704 320.041 84.584 320.425 83.336C321.065 83.336 321.385 83.56 321.385 84.008ZM331.048 89.576C325.928 89.576 323.368 87.112 323.368 82.184C323.368 78.568 323.48 73.544 323.704 67.112L319.864 66.92V65.816L328.408 65.288C328.184 73.736 328.072 79.48 328.072 82.52C328.072 84.344 328.408 85.704 329.08 86.6C329.752 87.496 330.872 87.944 332.44 87.944C334.04 87.944 335.544 87.064 336.952 85.304C338.36 83.512 339.064 81.944 339.064 80.6V67.112L335.08 66.92V65.816L343.768 65.288V87.512L347.848 87.704L347.896 88.808L339.256 89.384L339.592 84.2H339.016C337.352 87.784 334.696 89.576 331.048 89.576ZM350.363 66.824H347.003V65.576H350.363V64.856C350.363 60.6 351.259 57.4 353.051 55.256C354.843 53.112 357.403 52.04 360.731 52.04C362.715 52.04 364.363 52.424 365.675 53.192C367.019 53.928 367.691 54.936 367.691 56.216C367.691 57.464 367.259 58.376 366.395 58.952C365.883 59.304 365.371 59.48 364.859 59.48C364.379 59.48 363.915 59.384 363.467 59.192C363.659 58.296 363.755 57.432 363.755 56.6C363.755 55.768 363.467 55.032 362.891 54.392C362.315 53.752 361.515 53.432 360.491 53.432C359.467 53.432 358.587 53.72 357.851 54.296C357.147 54.84 356.619 55.496 356.267 56.264C355.915 57 355.643 57.992 355.451 59.24C355.195 60.904 355.067 63.016 355.067 65.576H362.315V66.824H355.067V87.608L360.443 87.848L360.491 89H347.147L347.099 87.848L350.363 87.656V66.824ZM365.061 66.824H361.701V65.576H365.061V64.856C365.061 60.6 365.957 57.4 367.749 55.256C369.541 53.112 372.101 52.04 375.429 52.04C377.413 52.04 379.061 52.424 380.373 53.192C381.717 53.928 382.389 54.936 382.389 56.216C382.389 57.464 381.957 58.376 381.093 58.952C380.581 59.304 380.069 59.48 379.557 59.48C379.077 59.48 378.613 59.384 378.165 59.192C378.357 58.296 378.453 57.432 378.453 56.6C378.453 55.768 378.165 55.032 377.589 54.392C377.013 53.752 376.213 53.432 375.189 53.432C374.165 53.432 373.285 53.72 372.549 54.296C371.845 54.84 371.317 55.496 370.965 56.264C370.613 57 370.341 57.992 370.149 59.24C369.893 60.904 369.765 63.016 369.765 65.576H377.013V66.824H369.765V87.608L375.141 87.848L375.189 89H361.845L361.797 87.848L365.061 87.656V66.824Z" fill="#51473D"/>
</svg>
