<svg width="751" height="94" viewBox="0 0 751 94" fill="none" xmlns="http://www.w3.org/2000/svg">
<path d="M37.3 49.96V60.04C37.3 63.28 38.78 64.9 41.74 64.9C44.02 64.9 45.52 63.82 46.24 61.66C46.44 60.98 46.68 60.52 46.96 60.28C47.28 60.04 47.78 59.92 48.46 59.92H60.7C61.06 59.92 61.36 60.06 61.6 60.34C61.88 60.58 62.02 60.88 62.02 61.24C62.02 64.72 61.02 67.64 59.02 70C55.34 74.4 49.6 76.6 41.8 76.6C35.68 76.6 30.8 75.26 27.16 72.58C23.52 69.86 21.7 65.7 21.7 60.1V49.9C21.7 44.42 23.56 40.3 27.28 37.54C31 34.78 35.84 33.4 41.8 33.4C49.6 33.4 55.34 35.6 59.02 40C61.02 42.36 62.02 45.28 62.02 48.76C62.02 49.12 61.88 49.44 61.6 49.72C61.36 49.96 61.06 50.08 60.7 50.08H48.46C47.82 50.08 47.34 49.96 47.02 49.72C46.74 49.48 46.48 49.02 46.24 48.34C45.48 46.18 43.98 45.1 41.74 45.1C38.78 45.1 37.3 46.72 37.3 49.96ZM68.3842 37.84C72.0642 34.88 76.9242 33.4 82.9642 33.4C89.0042 33.4 93.8442 34.9 97.4842 37.9C101.164 40.86 103.004 45.04 103.004 50.44V59.8C103.004 65.28 101.184 69.46 97.5442 72.34C93.9442 75.18 89.0842 76.6 82.9642 76.6C76.8442 76.6 71.9642 75.18 68.3242 72.34C64.7242 69.46 62.9242 65.28 62.9242 59.8V50.44C62.9242 45 64.7442 40.8 68.3842 37.84ZM79.7242 63.7C80.5242 64.5 81.6042 64.9 82.9642 64.9C84.3242 64.9 85.4042 64.5 86.2042 63.7C87.0042 62.9 87.4042 61.68 87.4042 60.04V49.96C87.4042 48.36 87.0042 47.16 86.2042 46.36C85.4042 45.52 84.3242 45.1 82.9642 45.1C81.6042 45.1 80.5242 45.52 79.7242 46.36C78.9242 47.16 78.5242 48.36 78.5242 49.96V60.04C78.5242 61.68 78.9242 62.9 79.7242 63.7ZM139.653 34H149.133C149.573 34 149.953 34.16 150.273 34.48C150.593 34.8 150.753 35.18 150.753 35.62V74.38C150.753 74.82 150.593 75.2 150.273 75.52C149.953 75.84 149.573 76 149.133 76H138.273C137.833 76 137.453 75.84 137.133 75.52C136.813 75.2 136.653 74.82 136.653 74.38V57.94L132.693 64.42C132.053 65.42 131.313 65.92 130.473 65.92H126.273C125.433 65.92 124.693 65.42 124.053 64.42L120.093 57.94V74.38C120.093 74.82 119.933 75.2 119.613 75.52C119.293 75.84 118.913 76 118.473 76H107.613C107.173 76 106.793 75.84 106.473 75.52C106.153 75.2 105.993 74.82 105.993 74.38V35.62C105.993 35.18 106.153 34.8 106.473 34.48C106.793 34.16 107.173 34 107.613 34H117.093C118.213 34 119.073 34.54 119.673 35.62L128.373 50.02L137.073 35.62C137.673 34.54 138.533 34 139.653 34ZM156.572 34H174.452C180.212 34 184.712 35.24 187.952 37.72C191.192 40.2 192.812 43.86 192.812 48.7C192.812 53.54 191.192 57.12 187.952 59.44C184.752 61.76 180.252 62.92 174.452 62.92H170.552V74.38C170.552 74.82 170.392 75.2 170.072 75.52C169.752 75.84 169.372 76 168.932 76H156.572C156.132 76 155.752 75.84 155.432 75.52C155.112 75.2 154.952 74.82 154.952 74.38V35.62C154.952 35.18 155.112 34.8 155.432 34.48C155.752 34.16 156.132 34 156.572 34ZM170.252 45.16V51.82H174.452C175.172 51.82 175.812 51.56 176.372 51.04C176.932 50.48 177.212 49.7 177.212 48.7C177.212 47.7 176.992 46.86 176.552 46.18C176.112 45.5 175.412 45.16 174.452 45.16H170.252ZM219.787 34H231.547C231.987 34 232.367 34.16 232.687 34.48C233.007 34.8 233.167 35.18 233.167 35.62V59.74C233.167 65.34 231.427 69.56 227.947 72.4C224.467 75.2 219.727 76.6 213.727 76.6C207.767 76.6 203.027 75.2 199.507 72.4C196.027 69.6 194.287 65.38 194.287 59.74V35.62C194.287 35.18 194.447 34.8 194.767 34.48C195.087 34.16 195.467 34 195.907 34H207.667C208.107 34 208.487 34.16 208.807 34.48C209.127 34.8 209.287 35.18 209.287 35.62V59.92C209.287 63 210.767 64.54 213.727 64.54C216.687 64.54 218.167 63 218.167 59.92V35.62C218.167 35.18 218.327 34.8 218.647 34.48C218.967 34.16 219.347 34 219.787 34ZM236.275 34H271.435C271.875 34 272.255 34.16 272.575 34.48C272.895 34.8 273.055 35.18 273.055 35.62V45.28C273.055 45.72 272.895 46.1 272.575 46.42C272.255 46.74 271.875 46.9 271.435 46.9H261.475V74.38C261.475 74.82 261.315 75.2 260.995 75.52C260.675 75.84 260.295 76 259.855 76H247.855C247.415 76 247.035 75.84 246.715 75.52C246.395 75.2 246.235 74.82 246.235 74.38V46.9H236.275C235.835 46.9 235.455 46.74 235.135 46.42C234.815 46.1 234.655 45.72 234.655 45.28V35.62C234.655 35.18 234.815 34.8 235.135 34.48C235.455 34.16 235.835 34 236.275 34ZM289.567 64.3H308.047C308.487 64.3 308.867 64.46 309.187 64.78C309.507 65.1 309.667 65.48 309.667 65.92V74.38C309.667 74.82 309.507 75.2 309.187 75.52C308.867 75.84 308.487 76 308.047 76H276.787C276.347 76 275.967 75.84 275.647 75.52C275.327 75.2 275.167 74.82 275.167 74.38V35.62C275.167 35.18 275.327 34.8 275.647 34.48C275.967 34.16 276.347 34 276.787 34H307.567C308.007 34 308.387 34.16 308.707 34.48C309.027 34.8 309.187 35.18 309.187 35.62V44.08C309.187 44.52 309.027 44.9 308.707 45.22C308.387 45.54 308.007 45.7 307.567 45.7H289.567V49.48H306.247C306.687 49.48 307.067 49.64 307.387 49.96C307.707 50.28 307.867 50.66 307.867 51.1V58.9C307.867 59.34 307.707 59.72 307.387 60.04C307.067 60.36 306.687 60.52 306.247 60.52H289.567V64.3ZM351.926 74.02C352.046 74.26 352.106 74.52 352.106 74.8C352.106 75.08 351.966 75.36 351.686 75.64C351.446 75.88 351.146 76 350.786 76H338.486C337.246 76 336.386 75.46 335.906 74.38L330.746 62.92H328.286V74.38C328.286 74.82 328.126 75.2 327.806 75.52C327.486 75.84 327.106 76 326.666 76H314.906C314.466 76 314.086 75.84 313.766 75.52C313.446 75.2 313.286 74.82 313.286 74.38V35.62C313.286 35.18 313.446 34.8 313.766 34.48C314.086 34.16 314.466 34 314.906 34H332.666C338.426 34 342.926 35.3 346.166 37.9C349.406 40.46 351.026 44.16 351.026 49C351.026 53.8 348.866 57.58 344.546 60.34L351.926 74.02ZM328.286 45.16V51.52H332.666C333.546 51.52 334.226 51.24 334.706 50.68C335.186 50.08 335.426 49.34 335.426 48.46C335.426 47.58 335.186 46.82 334.706 46.18C334.266 45.5 333.586 45.16 332.666 45.16H328.286ZM369.115 52.195C369.115 49.945 370.03 48.025 371.86 46.435C373.72 44.815 376.36 44.005 379.78 44.005C383.23 44.005 385.855 44.815 387.655 46.435C389.455 48.025 390.355 49.93 390.355 52.15C390.355 53.8 389.875 55.27 388.915 56.56C387.985 57.82 386.545 59.02 384.595 60.16L387.97 63.67C388.72 62.89 389.455 61.66 390.175 59.98C390.295 59.68 390.595 59.53 391.075 59.53H397.87C398.11 59.53 398.305 59.605 398.455 59.755C398.605 59.905 398.68 60.1 398.68 60.34C398.68 61.21 398.065 62.575 396.835 64.435C395.635 66.295 394.465 67.825 393.325 69.025L398.68 74.605C398.86 74.785 398.95 74.995 398.95 75.235C398.95 75.445 398.86 75.625 398.68 75.775C398.53 75.925 398.35 76 398.14 76H388.96C388.6 76 388.225 75.85 387.835 75.55L386.62 74.47C384.4 75.91 381.49 76.63 377.89 76.63C374.29 76.63 371.395 75.805 369.205 74.155C367.015 72.475 365.92 70.075 365.92 66.955C365.92 63.445 367.87 60.595 371.77 58.405C370 56.515 369.115 54.445 369.115 52.195ZM375.73 66.325C375.73 67.165 376 67.825 376.54 68.305C377.11 68.785 377.86 69.025 378.79 69.025C379.72 69.025 380.485 68.845 381.085 68.485L377.125 64.39C376.195 64.84 375.73 65.485 375.73 66.325ZM381.715 52.51C381.715 52.03 381.55 51.64 381.22 51.34C380.92 51.04 380.53 50.89 380.05 50.89C379.6 50.89 379.21 51.055 378.88 51.385C378.55 51.685 378.385 52.135 378.385 52.735C378.385 53.305 378.79 53.965 379.6 54.715C381.01 54.085 381.715 53.35 381.715 52.51ZM431.272 76H422.692C421.932 76 421.292 75.78 420.772 75.34C420.292 74.86 420.012 74.32 419.932 73.72L414.412 35.5V35.32C414.412 34.96 414.532 34.66 414.772 34.42C415.052 34.14 415.372 34 415.732 34H426.892C428.212 34 428.932 34.54 429.052 35.62L431.092 52.54L433.552 45.04C433.952 43.88 434.632 43.3 435.592 43.3H441.712C442.672 43.3 443.352 43.88 443.752 45.04L446.212 52.48L448.252 35.62C448.372 34.54 449.092 34 450.412 34H461.572C461.932 34 462.232 34.14 462.472 34.42C462.752 34.66 462.892 34.96 462.892 35.32V35.5L457.372 73.72C457.292 74.32 456.992 74.86 456.472 75.34C455.992 75.78 455.372 76 454.612 76H446.032C444.792 76 443.972 75.46 443.572 74.38L438.652 62.08L433.732 74.38C433.332 75.46 432.512 76 431.272 76ZM479.688 64.3H498.168C498.608 64.3 498.988 64.46 499.308 64.78C499.628 65.1 499.788 65.48 499.788 65.92V74.38C499.788 74.82 499.628 75.2 499.308 75.52C498.988 75.84 498.608 76 498.168 76H466.908C466.468 76 466.088 75.84 465.768 75.52C465.448 75.2 465.288 74.82 465.288 74.38V35.62C465.288 35.18 465.448 34.8 465.768 34.48C466.088 34.16 466.468 34 466.908 34H497.688C498.128 34 498.508 34.16 498.828 34.48C499.148 34.8 499.308 35.18 499.308 35.62V44.08C499.308 44.52 499.148 44.9 498.828 45.22C498.508 45.54 498.128 45.7 497.688 45.7H479.688V49.48H496.368C496.808 49.48 497.188 49.64 497.508 49.96C497.828 50.28 497.988 50.66 497.988 51.1V58.9C497.988 59.34 497.828 59.72 497.508 60.04C497.188 60.36 496.808 60.52 496.368 60.52H479.688V64.3ZM525.246 49C525.686 48.48 525.906 47.86 525.906 47.14C525.906 46.42 525.686 45.78 525.246 45.22C524.846 44.62 524.246 44.32 523.446 44.32H518.406V49.78H523.446C524.246 49.78 524.846 49.52 525.246 49ZM518.406 59.8V65.68H523.986C524.906 65.68 525.586 65.38 526.026 64.78C526.506 64.14 526.746 63.44 526.746 62.68V62.62C526.746 61.86 526.486 61.2 525.966 60.64C525.486 60.08 524.826 59.8 523.986 59.8H518.406ZM525.546 76H505.026C504.586 76 504.206 75.84 503.886 75.52C503.566 75.2 503.406 74.82 503.406 74.38V35.62C503.406 35.18 503.566 34.8 503.886 34.48C504.206 34.16 504.586 34 505.026 34H524.946C530.626 34 534.806 35.04 537.486 37.12C540.206 39.16 541.566 42.26 541.566 46.42V46.6C541.566 48.32 541.066 49.86 540.066 51.22C539.066 52.54 537.966 53.5 536.766 54.1C538.366 54.74 539.706 55.88 540.786 57.52C541.906 59.12 542.466 60.88 542.466 62.8C542.466 71.6 536.826 76 525.546 76ZM557.88 47.2C557.88 43.12 559.56 39.8 562.92 37.24C566.32 34.68 570.76 33.4 576.24 33.4C581.76 33.4 586.26 34.74 589.74 37.42C593.26 40.1 595.02 42.9 595.02 45.82C595.02 46.18 594.88 46.5 594.6 46.78C594.36 47.02 594.08 47.14 593.76 47.14H581.76C580.84 47.14 580 46.8 579.24 46.12C578.48 45.44 577.46 45.1 576.18 45.1C574.26 45.1 573.3 45.66 573.3 46.78C573.3 47.38 573.76 47.88 574.68 48.28C575.64 48.68 577.4 49.04 579.96 49.36C585.92 50.12 590.16 51.52 592.68 53.56C595.24 55.56 596.52 58.62 596.52 62.74C596.52 66.82 594.64 70.16 590.88 72.76C587.16 75.32 582.28 76.6 576.24 76.6C570.2 76.6 565.46 75.36 562.02 72.88C558.58 70.4 556.86 67.38 556.86 63.82C556.86 63.46 556.98 63.16 557.22 62.92C557.5 62.64 557.82 62.5 558.18 62.5H569.58C570.42 62.5 571.34 62.9 572.34 63.7C573.38 64.5 574.8 64.9 576.6 64.9C579.6 64.9 581.1 64.34 581.1 63.22C581.1 62.5 580.56 61.96 579.48 61.6C578.4 61.2 576.36 60.8 573.36 60.4C563.04 59.04 557.88 54.64 557.88 47.2ZM598.122 34H633.282C633.722 34 634.102 34.16 634.422 34.48C634.742 34.8 634.902 35.18 634.902 35.62V45.28C634.902 45.72 634.742 46.1 634.422 46.42C634.102 46.74 633.722 46.9 633.282 46.9H623.322V74.38C623.322 74.82 623.162 75.2 622.842 75.52C622.522 75.84 622.142 76 621.702 76H609.702C609.262 76 608.882 75.84 608.562 75.52C608.242 75.2 608.082 74.82 608.082 74.38V46.9H598.122C597.682 46.9 597.302 46.74 596.982 46.42C596.662 46.1 596.502 45.72 596.502 45.28V35.62C596.502 35.18 596.662 34.8 596.982 34.48C597.302 34.16 597.682 34 598.122 34ZM661.914 34H673.674C674.114 34 674.494 34.16 674.814 34.48C675.134 34.8 675.294 35.18 675.294 35.62V59.74C675.294 65.34 673.554 69.56 670.074 72.4C666.594 75.2 661.854 76.6 655.854 76.6C649.894 76.6 645.154 75.2 641.634 72.4C638.154 69.6 636.414 65.38 636.414 59.74V35.62C636.414 35.18 636.574 34.8 636.894 34.48C637.214 34.16 637.594 34 638.034 34H649.794C650.234 34 650.614 34.16 650.934 34.48C651.254 34.8 651.414 35.18 651.414 35.62V59.92C651.414 63 652.894 64.54 655.854 64.54C658.814 64.54 660.294 63 660.294 59.92V35.62C660.294 35.18 660.454 34.8 660.774 34.48C661.094 34.16 661.474 34 661.914 34ZM680.503 34H710.743C711.183 34 711.563 34.16 711.883 34.48C712.203 34.8 712.363 35.18 712.363 35.62V44.74C712.363 45.18 712.203 45.56 711.883 45.88C711.563 46.2 711.183 46.36 710.743 46.36H693.583V50.8H709.543C709.983 50.8 710.363 50.96 710.683 51.28C711.003 51.6 711.163 51.98 711.163 52.42V61.48C711.163 61.92 711.003 62.3 710.683 62.62C710.363 62.94 709.983 63.1 709.543 63.1H693.583V74.38C693.583 74.82 693.423 75.2 693.103 75.52C692.783 75.84 692.403 76 691.963 76H680.503C680.063 76 679.683 75.84 679.363 75.52C679.043 75.2 678.883 74.82 678.883 74.38V35.62C678.883 35.18 679.043 34.8 679.363 34.48C679.683 34.16 680.063 34 680.503 34ZM716.688 34H746.928C747.368 34 747.748 34.16 748.068 34.48C748.388 34.8 748.548 35.18 748.548 35.62V44.74C748.548 45.18 748.388 45.56 748.068 45.88C747.748 46.2 747.368 46.36 746.928 46.36H729.768V50.8H745.728C746.168 50.8 746.548 50.96 746.868 51.28C747.188 51.6 747.348 51.98 747.348 52.42V61.48C747.348 61.92 747.188 62.3 746.868 62.62C746.548 62.94 746.168 63.1 745.728 63.1H729.768V74.38C729.768 74.82 729.608 75.2 729.288 75.52C728.968 75.84 728.588 76 728.148 76H716.688C716.248 76 715.868 75.84 715.548 75.52C715.228 75.2 715.068 74.82 715.068 74.38V35.62C715.068 35.18 715.228 34.8 715.548 34.48C715.868 34.16 716.248 34 716.688 34Z" fill="#4AA5FA"/>
<path d="M34.3 45.96V56.04C34.3 59.28 35.78 60.9 38.74 60.9C41.02 60.9 42.52 59.82 43.24 57.66C43.44 56.98 43.68 56.52 43.96 56.28C44.28 56.04 44.78 55.92 45.46 55.92H57.7C58.06 55.92 58.36 56.06 58.6 56.34C58.88 56.58 59.02 56.88 59.02 57.24C59.02 60.72 58.02 63.64 56.02 66C52.34 70.4 46.6 72.6 38.8 72.6C32.68 72.6 27.8 71.26 24.16 68.58C20.52 65.86 18.7 61.7 18.7 56.1V45.9C18.7 40.42 20.56 36.3 24.28 33.54C28 30.78 32.84 29.4 38.8 29.4C46.6 29.4 52.34 31.6 56.02 36C58.02 38.36 59.02 41.28 59.02 44.76C59.02 45.12 58.88 45.44 58.6 45.72C58.36 45.96 58.06 46.08 57.7 46.08H45.46C44.82 46.08 44.34 45.96 44.02 45.72C43.74 45.48 43.48 45.02 43.24 44.34C42.48 42.18 40.98 41.1 38.74 41.1C35.78 41.1 34.3 42.72 34.3 45.96ZM65.3842 33.84C69.0642 30.88 73.9242 29.4 79.9642 29.4C86.0042 29.4 90.8442 30.9 94.4842 33.9C98.1642 36.86 100.004 41.04 100.004 46.44V55.8C100.004 61.28 98.1842 65.46 94.5442 68.34C90.9442 71.18 86.0842 72.6 79.9642 72.6C73.8442 72.6 68.9642 71.18 65.3242 68.34C61.7242 65.46 59.9242 61.28 59.9242 55.8V46.44C59.9242 41 61.7442 36.8 65.3842 33.84ZM76.7242 59.7C77.5242 60.5 78.6042 60.9 79.9642 60.9C81.3242 60.9 82.4042 60.5 83.2042 59.7C84.0042 58.9 84.4042 57.68 84.4042 56.04V45.96C84.4042 44.36 84.0042 43.16 83.2042 42.36C82.4042 41.52 81.3242 41.1 79.9642 41.1C78.6042 41.1 77.5242 41.52 76.7242 42.36C75.9242 43.16 75.5242 44.36 75.5242 45.96V56.04C75.5242 57.68 75.9242 58.9 76.7242 59.7ZM136.653 30H146.133C146.573 30 146.953 30.16 147.273 30.48C147.593 30.8 147.753 31.18 147.753 31.62V70.38C147.753 70.82 147.593 71.2 147.273 71.52C146.953 71.84 146.573 72 146.133 72H135.273C134.833 72 134.453 71.84 134.133 71.52C133.813 71.2 133.653 70.82 133.653 70.38V53.94L129.693 60.42C129.053 61.42 128.313 61.92 127.473 61.92H123.273C122.433 61.92 121.693 61.42 121.053 60.42L117.093 53.94V70.38C117.093 70.82 116.933 71.2 116.613 71.52C116.293 71.84 115.913 72 115.473 72H104.613C104.173 72 103.793 71.84 103.473 71.52C103.153 71.2 102.993 70.82 102.993 70.38V31.62C102.993 31.18 103.153 30.8 103.473 30.48C103.793 30.16 104.173 30 104.613 30H114.093C115.213 30 116.073 30.54 116.673 31.62L125.373 46.02L134.073 31.62C134.673 30.54 135.533 30 136.653 30ZM153.572 30H171.452C177.212 30 181.712 31.24 184.952 33.72C188.192 36.2 189.812 39.86 189.812 44.7C189.812 49.54 188.192 53.12 184.952 55.44C181.752 57.76 177.252 58.92 171.452 58.92H167.552V70.38C167.552 70.82 167.392 71.2 167.072 71.52C166.752 71.84 166.372 72 165.932 72H153.572C153.132 72 152.752 71.84 152.432 71.52C152.112 71.2 151.952 70.82 151.952 70.38V31.62C151.952 31.18 152.112 30.8 152.432 30.48C152.752 30.16 153.132 30 153.572 30ZM167.252 41.16V47.82H171.452C172.172 47.82 172.812 47.56 173.372 47.04C173.932 46.48 174.212 45.7 174.212 44.7C174.212 43.7 173.992 42.86 173.552 42.18C173.112 41.5 172.412 41.16 171.452 41.16H167.252ZM216.787 30H228.547C228.987 30 229.367 30.16 229.687 30.48C230.007 30.8 230.167 31.18 230.167 31.62V55.74C230.167 61.34 228.427 65.56 224.947 68.4C221.467 71.2 216.727 72.6 210.727 72.6C204.767 72.6 200.027 71.2 196.507 68.4C193.027 65.6 191.287 61.38 191.287 55.74V31.62C191.287 31.18 191.447 30.8 191.767 30.48C192.087 30.16 192.467 30 192.907 30H204.667C205.107 30 205.487 30.16 205.807 30.48C206.127 30.8 206.287 31.18 206.287 31.62V55.92C206.287 59 207.767 60.54 210.727 60.54C213.687 60.54 215.167 59 215.167 55.92V31.62C215.167 31.18 215.327 30.8 215.647 30.48C215.967 30.16 216.347 30 216.787 30ZM233.275 30H268.435C268.875 30 269.255 30.16 269.575 30.48C269.895 30.8 270.055 31.18 270.055 31.62V41.28C270.055 41.72 269.895 42.1 269.575 42.42C269.255 42.74 268.875 42.9 268.435 42.9H258.475V70.38C258.475 70.82 258.315 71.2 257.995 71.52C257.675 71.84 257.295 72 256.855 72H244.855C244.415 72 244.035 71.84 243.715 71.52C243.395 71.2 243.235 70.82 243.235 70.38V42.9H233.275C232.835 42.9 232.455 42.74 232.135 42.42C231.815 42.1 231.655 41.72 231.655 41.28V31.62C231.655 31.18 231.815 30.8 232.135 30.48C232.455 30.16 232.835 30 233.275 30ZM286.567 60.3H305.047C305.487 60.3 305.867 60.46 306.187 60.78C306.507 61.1 306.667 61.48 306.667 61.92V70.38C306.667 70.82 306.507 71.2 306.187 71.52C305.867 71.84 305.487 72 305.047 72H273.787C273.347 72 272.967 71.84 272.647 71.52C272.327 71.2 272.167 70.82 272.167 70.38V31.62C272.167 31.18 272.327 30.8 272.647 30.48C272.967 30.16 273.347 30 273.787 30H304.567C305.007 30 305.387 30.16 305.707 30.48C306.027 30.8 306.187 31.18 306.187 31.62V40.08C306.187 40.52 306.027 40.9 305.707 41.22C305.387 41.54 305.007 41.7 304.567 41.7H286.567V45.48H303.247C303.687 45.48 304.067 45.64 304.387 45.96C304.707 46.28 304.867 46.66 304.867 47.1V54.9C304.867 55.34 304.707 55.72 304.387 56.04C304.067 56.36 303.687 56.52 303.247 56.52H286.567V60.3ZM348.926 70.02C349.046 70.26 349.106 70.52 349.106 70.8C349.106 71.08 348.966 71.36 348.686 71.64C348.446 71.88 348.146 72 347.786 72H335.486C334.246 72 333.386 71.46 332.906 70.38L327.746 58.92H325.286V70.38C325.286 70.82 325.126 71.2 324.806 71.52C324.486 71.84 324.106 72 323.666 72H311.906C311.466 72 311.086 71.84 310.766 71.52C310.446 71.2 310.286 70.82 310.286 70.38V31.62C310.286 31.18 310.446 30.8 310.766 30.48C311.086 30.16 311.466 30 311.906 30H329.666C335.426 30 339.926 31.3 343.166 33.9C346.406 36.46 348.026 40.16 348.026 45C348.026 49.8 345.866 53.58 341.546 56.34L348.926 70.02ZM325.286 41.16V47.52H329.666C330.546 47.52 331.226 47.24 331.706 46.68C332.186 46.08 332.426 45.34 332.426 44.46C332.426 43.58 332.186 42.82 331.706 42.18C331.266 41.5 330.586 41.16 329.666 41.16H325.286ZM366.115 48.195C366.115 45.945 367.03 44.025 368.86 42.435C370.72 40.815 373.36 40.005 376.78 40.005C380.23 40.005 382.855 40.815 384.655 42.435C386.455 44.025 387.355 45.93 387.355 48.15C387.355 49.8 386.875 51.27 385.915 52.56C384.985 53.82 383.545 55.02 381.595 56.16L384.97 59.67C385.72 58.89 386.455 57.66 387.175 55.98C387.295 55.68 387.595 55.53 388.075 55.53H394.87C395.11 55.53 395.305 55.605 395.455 55.755C395.605 55.905 395.68 56.1 395.68 56.34C395.68 57.21 395.065 58.575 393.835 60.435C392.635 62.295 391.465 63.825 390.325 65.025L395.68 70.605C395.86 70.785 395.95 70.995 395.95 71.235C395.95 71.445 395.86 71.625 395.68 71.775C395.53 71.925 395.35 72 395.14 72H385.96C385.6 72 385.225 71.85 384.835 71.55L383.62 70.47C381.4 71.91 378.49 72.63 374.89 72.63C371.29 72.63 368.395 71.805 366.205 70.155C364.015 68.475 362.92 66.075 362.92 62.955C362.92 59.445 364.87 56.595 368.77 54.405C367 52.515 366.115 50.445 366.115 48.195ZM372.73 62.325C372.73 63.165 373 63.825 373.54 64.305C374.11 64.785 374.86 65.025 375.79 65.025C376.72 65.025 377.485 64.845 378.085 64.485L374.125 60.39C373.195 60.84 372.73 61.485 372.73 62.325ZM378.715 48.51C378.715 48.03 378.55 47.64 378.22 47.34C377.92 47.04 377.53 46.89 377.05 46.89C376.6 46.89 376.21 47.055 375.88 47.385C375.55 47.685 375.385 48.135 375.385 48.735C375.385 49.305 375.79 49.965 376.6 50.715C378.01 50.085 378.715 49.35 378.715 48.51ZM428.272 72H419.692C418.932 72 418.292 71.78 417.772 71.34C417.292 70.86 417.012 70.32 416.932 69.72L411.412 31.5V31.32C411.412 30.96 411.532 30.66 411.772 30.42C412.052 30.14 412.372 30 412.732 30H423.892C425.212 30 425.932 30.54 426.052 31.62L428.092 48.54L430.552 41.04C430.952 39.88 431.632 39.3 432.592 39.3H438.712C439.672 39.3 440.352 39.88 440.752 41.04L443.212 48.48L445.252 31.62C445.372 30.54 446.092 30 447.412 30H458.572C458.932 30 459.232 30.14 459.472 30.42C459.752 30.66 459.892 30.96 459.892 31.32V31.5L454.372 69.72C454.292 70.32 453.992 70.86 453.472 71.34C452.992 71.78 452.372 72 451.612 72H443.032C441.792 72 440.972 71.46 440.572 70.38L435.652 58.08L430.732 70.38C430.332 71.46 429.512 72 428.272 72ZM476.688 60.3H495.168C495.608 60.3 495.988 60.46 496.308 60.78C496.628 61.1 496.788 61.48 496.788 61.92V70.38C496.788 70.82 496.628 71.2 496.308 71.52C495.988 71.84 495.608 72 495.168 72H463.908C463.468 72 463.088 71.84 462.768 71.52C462.448 71.2 462.288 70.82 462.288 70.38V31.62C462.288 31.18 462.448 30.8 462.768 30.48C463.088 30.16 463.468 30 463.908 30H494.688C495.128 30 495.508 30.16 495.828 30.48C496.148 30.8 496.308 31.18 496.308 31.62V40.08C496.308 40.52 496.148 40.9 495.828 41.22C495.508 41.54 495.128 41.7 494.688 41.7H476.688V45.48H493.368C493.808 45.48 494.188 45.64 494.508 45.96C494.828 46.28 494.988 46.66 494.988 47.1V54.9C494.988 55.34 494.828 55.72 494.508 56.04C494.188 56.36 493.808 56.52 493.368 56.52H476.688V60.3ZM522.246 45C522.686 44.48 522.906 43.86 522.906 43.14C522.906 42.42 522.686 41.78 522.246 41.22C521.846 40.62 521.246 40.32 520.446 40.32H515.406V45.78H520.446C521.246 45.78 521.846 45.52 522.246 45ZM515.406 55.8V61.68H520.986C521.906 61.68 522.586 61.38 523.026 60.78C523.506 60.14 523.746 59.44 523.746 58.68V58.62C523.746 57.86 523.486 57.2 522.966 56.64C522.486 56.08 521.826 55.8 520.986 55.8H515.406ZM522.546 72H502.026C501.586 72 501.206 71.84 500.886 71.52C500.566 71.2 500.406 70.82 500.406 70.38V31.62C500.406 31.18 500.566 30.8 500.886 30.48C501.206 30.16 501.586 30 502.026 30H521.946C527.626 30 531.806 31.04 534.486 33.12C537.206 35.16 538.566 38.26 538.566 42.42V42.6C538.566 44.32 538.066 45.86 537.066 47.22C536.066 48.54 534.966 49.5 533.766 50.1C535.366 50.74 536.706 51.88 537.786 53.52C538.906 55.12 539.466 56.88 539.466 58.8C539.466 67.6 533.826 72 522.546 72ZM554.88 43.2C554.88 39.12 556.56 35.8 559.92 33.24C563.32 30.68 567.76 29.4 573.24 29.4C578.76 29.4 583.26 30.74 586.74 33.42C590.26 36.1 592.02 38.9 592.02 41.82C592.02 42.18 591.88 42.5 591.6 42.78C591.36 43.02 591.08 43.14 590.76 43.14H578.76C577.84 43.14 577 42.8 576.24 42.12C575.48 41.44 574.46 41.1 573.18 41.1C571.26 41.1 570.3 41.66 570.3 42.78C570.3 43.38 570.76 43.88 571.68 44.28C572.64 44.68 574.4 45.04 576.96 45.36C582.92 46.12 587.16 47.52 589.68 49.56C592.24 51.56 593.52 54.62 593.52 58.74C593.52 62.82 591.64 66.16 587.88 68.76C584.16 71.32 579.28 72.6 573.24 72.6C567.2 72.6 562.46 71.36 559.02 68.88C555.58 66.4 553.86 63.38 553.86 59.82C553.86 59.46 553.98 59.16 554.22 58.92C554.5 58.64 554.82 58.5 555.18 58.5H566.58C567.42 58.5 568.34 58.9 569.34 59.7C570.38 60.5 571.8 60.9 573.6 60.9C576.6 60.9 578.1 60.34 578.1 59.22C578.1 58.5 577.56 57.96 576.48 57.6C575.4 57.2 573.36 56.8 570.36 56.4C560.04 55.04 554.88 50.64 554.88 43.2ZM595.122 30H630.282C630.722 30 631.102 30.16 631.422 30.48C631.742 30.8 631.902 31.18 631.902 31.62V41.28C631.902 41.72 631.742 42.1 631.422 42.42C631.102 42.74 630.722 42.9 630.282 42.9H620.322V70.38C620.322 70.82 620.162 71.2 619.842 71.52C619.522 71.84 619.142 72 618.702 72H606.702C606.262 72 605.882 71.84 605.562 71.52C605.242 71.2 605.082 70.82 605.082 70.38V42.9H595.122C594.682 42.9 594.302 42.74 593.982 42.42C593.662 42.1 593.502 41.72 593.502 41.28V31.62C593.502 31.18 593.662 30.8 593.982 30.48C594.302 30.16 594.682 30 595.122 30ZM658.914 30H670.674C671.114 30 671.494 30.16 671.814 30.48C672.134 30.8 672.294 31.18 672.294 31.62V55.74C672.294 61.34 670.554 65.56 667.074 68.4C663.594 71.2 658.854 72.6 652.854 72.6C646.894 72.6 642.154 71.2 638.634 68.4C635.154 65.6 633.414 61.38 633.414 55.74V31.62C633.414 31.18 633.574 30.8 633.894 30.48C634.214 30.16 634.594 30 635.034 30H646.794C647.234 30 647.614 30.16 647.934 30.48C648.254 30.8 648.414 31.18 648.414 31.62V55.92C648.414 59 649.894 60.54 652.854 60.54C655.814 60.54 657.294 59 657.294 55.92V31.62C657.294 31.18 657.454 30.8 657.774 30.48C658.094 30.16 658.474 30 658.914 30ZM677.503 30H707.743C708.183 30 708.563 30.16 708.883 30.48C709.203 30.8 709.363 31.18 709.363 31.62V40.74C709.363 41.18 709.203 41.56 708.883 41.88C708.563 42.2 708.183 42.36 707.743 42.36H690.583V46.8H706.543C706.983 46.8 707.363 46.96 707.683 47.28C708.003 47.6 708.163 47.98 708.163 48.42V57.48C708.163 57.92 708.003 58.3 707.683 58.62C707.363 58.94 706.983 59.1 706.543 59.1H690.583V70.38C690.583 70.82 690.423 71.2 690.103 71.52C689.783 71.84 689.403 72 688.963 72H677.503C677.063 72 676.683 71.84 676.363 71.52C676.043 71.2 675.883 70.82 675.883 70.38V31.62C675.883 31.18 676.043 30.8 676.363 30.48C676.683 30.16 677.063 30 677.503 30ZM713.688 30H743.928C744.368 30 744.748 30.16 745.068 30.48C745.388 30.8 745.548 31.18 745.548 31.62V40.74C745.548 41.18 745.388 41.56 745.068 41.88C744.748 42.2 744.368 42.36 743.928 42.36H726.768V46.8H742.728C743.168 46.8 743.548 46.96 743.868 47.28C744.188 47.6 744.348 47.98 744.348 48.42V57.48C744.348 57.92 744.188 58.3 743.868 58.62C743.548 58.94 743.168 59.1 742.728 59.1H726.768V70.38C726.768 70.82 726.608 71.2 726.288 71.52C725.968 71.84 725.588 72 725.148 72H713.688C713.248 72 712.868 71.84 712.548 71.52C712.228 71.2 712.068 70.82 712.068 70.38V31.62C712.068 31.18 712.228 30.8 712.548 30.48C712.868 30.16 713.248 30 713.688 30Z" fill="#73CA86"/>
<path d="M30.3 41.96V52.04C30.3 55.28 31.78 56.9 34.74 56.9C37.02 56.9 38.52 55.82 39.24 53.66C39.44 52.98 39.68 52.52 39.96 52.28C40.28 52.04 40.78 51.92 41.46 51.92H53.7C54.06 51.92 54.36 52.06 54.6 52.34C54.88 52.58 55.02 52.88 55.02 53.24C55.02 56.72 54.02 59.64 52.02 62C48.34 66.4 42.6 68.6 34.8 68.6C28.68 68.6 23.8 67.26 20.16 64.58C16.52 61.86 14.7 57.7 14.7 52.1V41.9C14.7 36.42 16.56 32.3 20.28 29.54C24 26.78 28.84 25.4 34.8 25.4C42.6 25.4 48.34 27.6 52.02 32C54.02 34.36 55.02 37.28 55.02 40.76C55.02 41.12 54.88 41.44 54.6 41.72C54.36 41.96 54.06 42.08 53.7 42.08H41.46C40.82 42.08 40.34 41.96 40.02 41.72C39.74 41.48 39.48 41.02 39.24 40.34C38.48 38.18 36.98 37.1 34.74 37.1C31.78 37.1 30.3 38.72 30.3 41.96ZM61.3842 29.84C65.0642 26.88 69.9242 25.4 75.9642 25.4C82.0042 25.4 86.8442 26.9 90.4842 29.9C94.1642 32.86 96.0042 37.04 96.0042 42.44V51.8C96.0042 57.28 94.1842 61.46 90.5442 64.34C86.9442 67.18 82.0842 68.6 75.9642 68.6C69.8442 68.6 64.9642 67.18 61.3242 64.34C57.7242 61.46 55.9242 57.28 55.9242 51.8V42.44C55.9242 37 57.7442 32.8 61.3842 29.84ZM72.7242 55.7C73.5242 56.5 74.6042 56.9 75.9642 56.9C77.3242 56.9 78.4042 56.5 79.2042 55.7C80.0042 54.9 80.4042 53.68 80.4042 52.04V41.96C80.4042 40.36 80.0042 39.16 79.2042 38.36C78.4042 37.52 77.3242 37.1 75.9642 37.1C74.6042 37.1 73.5242 37.52 72.7242 38.36C71.9242 39.16 71.5242 40.36 71.5242 41.96V52.04C71.5242 53.68 71.9242 54.9 72.7242 55.7ZM132.653 26H142.133C142.573 26 142.953 26.16 143.273 26.48C143.593 26.8 143.753 27.18 143.753 27.62V66.38C143.753 66.82 143.593 67.2 143.273 67.52C142.953 67.84 142.573 68 142.133 68H131.273C130.833 68 130.453 67.84 130.133 67.52C129.813 67.2 129.653 66.82 129.653 66.38V49.94L125.693 56.42C125.053 57.42 124.313 57.92 123.473 57.92H119.273C118.433 57.92 117.693 57.42 117.053 56.42L113.093 49.94V66.38C113.093 66.82 112.933 67.2 112.613 67.52C112.293 67.84 111.913 68 111.473 68H100.613C100.173 68 99.793 67.84 99.473 67.52C99.153 67.2 98.993 66.82 98.993 66.38V27.62C98.993 27.18 99.153 26.8 99.473 26.48C99.793 26.16 100.173 26 100.613 26H110.093C111.213 26 112.073 26.54 112.673 27.62L121.373 42.02L130.073 27.62C130.673 26.54 131.533 26 132.653 26ZM149.572 26H167.452C173.212 26 177.712 27.24 180.952 29.72C184.192 32.2 185.812 35.86 185.812 40.7C185.812 45.54 184.192 49.12 180.952 51.44C177.752 53.76 173.252 54.92 167.452 54.92H163.552V66.38C163.552 66.82 163.392 67.2 163.072 67.52C162.752 67.84 162.372 68 161.932 68H149.572C149.132 68 148.752 67.84 148.432 67.52C148.112 67.2 147.952 66.82 147.952 66.38V27.62C147.952 27.18 148.112 26.8 148.432 26.48C148.752 26.16 149.132 26 149.572 26ZM163.252 37.16V43.82H167.452C168.172 43.82 168.812 43.56 169.372 43.04C169.932 42.48 170.212 41.7 170.212 40.7C170.212 39.7 169.992 38.86 169.552 38.18C169.112 37.5 168.412 37.16 167.452 37.16H163.252ZM212.787 26H224.547C224.987 26 225.367 26.16 225.687 26.48C226.007 26.8 226.167 27.18 226.167 27.62V51.74C226.167 57.34 224.427 61.56 220.947 64.4C217.467 67.2 212.727 68.6 206.727 68.6C200.767 68.6 196.027 67.2 192.507 64.4C189.027 61.6 187.287 57.38 187.287 51.74V27.62C187.287 27.18 187.447 26.8 187.767 26.48C188.087 26.16 188.467 26 188.907 26H200.667C201.107 26 201.487 26.16 201.807 26.48C202.127 26.8 202.287 27.18 202.287 27.62V51.92C202.287 55 203.767 56.54 206.727 56.54C209.687 56.54 211.167 55 211.167 51.92V27.62C211.167 27.18 211.327 26.8 211.647 26.48C211.967 26.16 212.347 26 212.787 26ZM229.275 26H264.435C264.875 26 265.255 26.16 265.575 26.48C265.895 26.8 266.055 27.18 266.055 27.62V37.28C266.055 37.72 265.895 38.1 265.575 38.42C265.255 38.74 264.875 38.9 264.435 38.9H254.475V66.38C254.475 66.82 254.315 67.2 253.995 67.52C253.675 67.84 253.295 68 252.855 68H240.855C240.415 68 240.035 67.84 239.715 67.52C239.395 67.2 239.235 66.82 239.235 66.38V38.9H229.275C228.835 38.9 228.455 38.74 228.135 38.42C227.815 38.1 227.655 37.72 227.655 37.28V27.62C227.655 27.18 227.815 26.8 228.135 26.48C228.455 26.16 228.835 26 229.275 26ZM282.567 56.3H301.047C301.487 56.3 301.867 56.46 302.187 56.78C302.507 57.1 302.667 57.48 302.667 57.92V66.38C302.667 66.82 302.507 67.2 302.187 67.52C301.867 67.84 301.487 68 301.047 68H269.787C269.347 68 268.967 67.84 268.647 67.52C268.327 67.2 268.167 66.82 268.167 66.38V27.62C268.167 27.18 268.327 26.8 268.647 26.48C268.967 26.16 269.347 26 269.787 26H300.567C301.007 26 301.387 26.16 301.707 26.48C302.027 26.8 302.187 27.18 302.187 27.62V36.08C302.187 36.52 302.027 36.9 301.707 37.22C301.387 37.54 301.007 37.7 300.567 37.7H282.567V41.48H299.247C299.687 41.48 300.067 41.64 300.387 41.96C300.707 42.28 300.867 42.66 300.867 43.1V50.9C300.867 51.34 300.707 51.72 300.387 52.04C300.067 52.36 299.687 52.52 299.247 52.52H282.567V56.3ZM344.926 66.02C345.046 66.26 345.106 66.52 345.106 66.8C345.106 67.08 344.966 67.36 344.686 67.64C344.446 67.88 344.146 68 343.786 68H331.486C330.246 68 329.386 67.46 328.906 66.38L323.746 54.92H321.286V66.38C321.286 66.82 321.126 67.2 320.806 67.52C320.486 67.84 320.106 68 319.666 68H307.906C307.466 68 307.086 67.84 306.766 67.52C306.446 67.2 306.286 66.82 306.286 66.38V27.62C306.286 27.18 306.446 26.8 306.766 26.48C307.086 26.16 307.466 26 307.906 26H325.666C331.426 26 335.926 27.3 339.166 29.9C342.406 32.46 344.026 36.16 344.026 41C344.026 45.8 341.866 49.58 337.546 52.34L344.926 66.02ZM321.286 37.16V43.52H325.666C326.546 43.52 327.226 43.24 327.706 42.68C328.186 42.08 328.426 41.34 328.426 40.46C328.426 39.58 328.186 38.82 327.706 38.18C327.266 37.5 326.586 37.16 325.666 37.16H321.286ZM362.115 44.195C362.115 41.945 363.03 40.025 364.86 38.435C366.72 36.815 369.36 36.005 372.78 36.005C376.23 36.005 378.855 36.815 380.655 38.435C382.455 40.025 383.355 41.93 383.355 44.15C383.355 45.8 382.875 47.27 381.915 48.56C380.985 49.82 379.545 51.02 377.595 52.16L380.97 55.67C381.72 54.89 382.455 53.66 383.175 51.98C383.295 51.68 383.595 51.53 384.075 51.53H390.87C391.11 51.53 391.305 51.605 391.455 51.755C391.605 51.905 391.68 52.1 391.68 52.34C391.68 53.21 391.065 54.575 389.835 56.435C388.635 58.295 387.465 59.825 386.325 61.025L391.68 66.605C391.86 66.785 391.95 66.995 391.95 67.235C391.95 67.445 391.86 67.625 391.68 67.775C391.53 67.925 391.35 68 391.14 68H381.96C381.6 68 381.225 67.85 380.835 67.55L379.62 66.47C377.4 67.91 374.49 68.63 370.89 68.63C367.29 68.63 364.395 67.805 362.205 66.155C360.015 64.475 358.92 62.075 358.92 58.955C358.92 55.445 360.87 52.595 364.77 50.405C363 48.515 362.115 46.445 362.115 44.195ZM368.73 58.325C368.73 59.165 369 59.825 369.54 60.305C370.11 60.785 370.86 61.025 371.79 61.025C372.72 61.025 373.485 60.845 374.085 60.485L370.125 56.39C369.195 56.84 368.73 57.485 368.73 58.325ZM374.715 44.51C374.715 44.03 374.55 43.64 374.22 43.34C373.92 43.04 373.53 42.89 373.05 42.89C372.6 42.89 372.21 43.055 371.88 43.385C371.55 43.685 371.385 44.135 371.385 44.735C371.385 45.305 371.79 45.965 372.6 46.715C374.01 46.085 374.715 45.35 374.715 44.51ZM424.272 68H415.692C414.932 68 414.292 67.78 413.772 67.34C413.292 66.86 413.012 66.32 412.932 65.72L407.412 27.5V27.32C407.412 26.96 407.532 26.66 407.772 26.42C408.052 26.14 408.372 26 408.732 26H419.892C421.212 26 421.932 26.54 422.052 27.62L424.092 44.54L426.552 37.04C426.952 35.88 427.632 35.3 428.592 35.3H434.712C435.672 35.3 436.352 35.88 436.752 37.04L439.212 44.48L441.252 27.62C441.372 26.54 442.092 26 443.412 26H454.572C454.932 26 455.232 26.14 455.472 26.42C455.752 26.66 455.892 26.96 455.892 27.32V27.5L450.372 65.72C450.292 66.32 449.992 66.86 449.472 67.34C448.992 67.78 448.372 68 447.612 68H439.032C437.792 68 436.972 67.46 436.572 66.38L431.652 54.08L426.732 66.38C426.332 67.46 425.512 68 424.272 68ZM472.688 56.3H491.168C491.608 56.3 491.988 56.46 492.308 56.78C492.628 57.1 492.788 57.48 492.788 57.92V66.38C492.788 66.82 492.628 67.2 492.308 67.52C491.988 67.84 491.608 68 491.168 68H459.908C459.468 68 459.088 67.84 458.768 67.52C458.448 67.2 458.288 66.82 458.288 66.38V27.62C458.288 27.18 458.448 26.8 458.768 26.48C459.088 26.16 459.468 26 459.908 26H490.688C491.128 26 491.508 26.16 491.828 26.48C492.148 26.8 492.308 27.18 492.308 27.62V36.08C492.308 36.52 492.148 36.9 491.828 37.22C491.508 37.54 491.128 37.7 490.688 37.7H472.688V41.48H489.368C489.808 41.48 490.188 41.64 490.508 41.96C490.828 42.28 490.988 42.66 490.988 43.1V50.9C490.988 51.34 490.828 51.72 490.508 52.04C490.188 52.36 489.808 52.52 489.368 52.52H472.688V56.3ZM518.246 41C518.686 40.48 518.906 39.86 518.906 39.14C518.906 38.42 518.686 37.78 518.246 37.22C517.846 36.62 517.246 36.32 516.446 36.32H511.406V41.78H516.446C517.246 41.78 517.846 41.52 518.246 41ZM511.406 51.8V57.68H516.986C517.906 57.68 518.586 57.38 519.026 56.78C519.506 56.14 519.746 55.44 519.746 54.68V54.62C519.746 53.86 519.486 53.2 518.966 52.64C518.486 52.08 517.826 51.8 516.986 51.8H511.406ZM518.546 68H498.026C497.586 68 497.206 67.84 496.886 67.52C496.566 67.2 496.406 66.82 496.406 66.38V27.62C496.406 27.18 496.566 26.8 496.886 26.48C497.206 26.16 497.586 26 498.026 26H517.946C523.626 26 527.806 27.04 530.486 29.12C533.206 31.16 534.566 34.26 534.566 38.42V38.6C534.566 40.32 534.066 41.86 533.066 43.22C532.066 44.54 530.966 45.5 529.766 46.1C531.366 46.74 532.706 47.88 533.786 49.52C534.906 51.12 535.466 52.88 535.466 54.8C535.466 63.6 529.826 68 518.546 68ZM550.88 39.2C550.88 35.12 552.56 31.8 555.92 29.24C559.32 26.68 563.76 25.4 569.24 25.4C574.76 25.4 579.26 26.74 582.74 29.42C586.26 32.1 588.02 34.9 588.02 37.82C588.02 38.18 587.88 38.5 587.6 38.78C587.36 39.02 587.08 39.14 586.76 39.14H574.76C573.84 39.14 573 38.8 572.24 38.12C571.48 37.44 570.46 37.1 569.18 37.1C567.26 37.1 566.3 37.66 566.3 38.78C566.3 39.38 566.76 39.88 567.68 40.28C568.64 40.68 570.4 41.04 572.96 41.36C578.92 42.12 583.16 43.52 585.68 45.56C588.24 47.56 589.52 50.62 589.52 54.74C589.52 58.82 587.64 62.16 583.88 64.76C580.16 67.32 575.28 68.6 569.24 68.6C563.2 68.6 558.46 67.36 555.02 64.88C551.58 62.4 549.86 59.38 549.86 55.82C549.86 55.46 549.98 55.16 550.22 54.92C550.5 54.64 550.82 54.5 551.18 54.5H562.58C563.42 54.5 564.34 54.9 565.34 55.7C566.38 56.5 567.8 56.9 569.6 56.9C572.6 56.9 574.1 56.34 574.1 55.22C574.1 54.5 573.56 53.96 572.48 53.6C571.4 53.2 569.36 52.8 566.36 52.4C556.04 51.04 550.88 46.64 550.88 39.2ZM591.122 26H626.282C626.722 26 627.102 26.16 627.422 26.48C627.742 26.8 627.902 27.18 627.902 27.62V37.28C627.902 37.72 627.742 38.1 627.422 38.42C627.102 38.74 626.722 38.9 626.282 38.9H616.322V66.38C616.322 66.82 616.162 67.2 615.842 67.52C615.522 67.84 615.142 68 614.702 68H602.702C602.262 68 601.882 67.84 601.562 67.52C601.242 67.2 601.082 66.82 601.082 66.38V38.9H591.122C590.682 38.9 590.302 38.74 589.982 38.42C589.662 38.1 589.502 37.72 589.502 37.28V27.62C589.502 27.18 589.662 26.8 589.982 26.48C590.302 26.16 590.682 26 591.122 26ZM654.914 26H666.674C667.114 26 667.494 26.16 667.814 26.48C668.134 26.8 668.294 27.18 668.294 27.62V51.74C668.294 57.34 666.554 61.56 663.074 64.4C659.594 67.2 654.854 68.6 648.854 68.6C642.894 68.6 638.154 67.2 634.634 64.4C631.154 61.6 629.414 57.38 629.414 51.74V27.62C629.414 27.18 629.574 26.8 629.894 26.48C630.214 26.16 630.594 26 631.034 26H642.794C643.234 26 643.614 26.16 643.934 26.48C644.254 26.8 644.414 27.18 644.414 27.62V51.92C644.414 55 645.894 56.54 648.854 56.54C651.814 56.54 653.294 55 653.294 51.92V27.62C653.294 27.18 653.454 26.8 653.774 26.48C654.094 26.16 654.474 26 654.914 26ZM673.503 26H703.743C704.183 26 704.563 26.16 704.883 26.48C705.203 26.8 705.363 27.18 705.363 27.62V36.74C705.363 37.18 705.203 37.56 704.883 37.88C704.563 38.2 704.183 38.36 703.743 38.36H686.583V42.8H702.543C702.983 42.8 703.363 42.96 703.683 43.28C704.003 43.6 704.163 43.98 704.163 44.42V53.48C704.163 53.92 704.003 54.3 703.683 54.62C703.363 54.94 702.983 55.1 702.543 55.1H686.583V66.38C686.583 66.82 686.423 67.2 686.103 67.52C685.783 67.84 685.403 68 684.963 68H673.503C673.063 68 672.683 67.84 672.363 67.52C672.043 67.2 671.883 66.82 671.883 66.38V27.62C671.883 27.18 672.043 26.8 672.363 26.48C672.683 26.16 673.063 26 673.503 26ZM709.688 26H739.928C740.368 26 740.748 26.16 741.068 26.48C741.388 26.8 741.548 27.18 741.548 27.62V36.74C741.548 37.18 741.388 37.56 741.068 37.88C740.748 38.2 740.368 38.36 739.928 38.36H722.768V42.8H738.728C739.168 42.8 739.548 42.96 739.868 43.28C740.188 43.6 740.348 43.98 740.348 44.42V53.48C740.348 53.92 740.188 54.3 739.868 54.62C739.548 54.94 739.168 55.1 738.728 55.1H722.768V66.38C722.768 66.82 722.608 67.2 722.288 67.52C721.968 67.84 721.588 68 721.148 68H709.688C709.248 68 708.868 67.84 708.548 67.52C708.228 67.2 708.068 66.82 708.068 66.38V27.62C708.068 27.18 708.228 26.8 708.548 26.48C708.868 26.16 709.248 26 709.688 26Z" fill="#FFD439"/>
<path d="M26.3 37.96V48.04C26.3 51.28 27.78 52.9 30.74 52.9C33.02 52.9 34.52 51.82 35.24 49.66C35.44 48.98 35.68 48.52 35.96 48.28C36.28 48.04 36.78 47.92 37.46 47.92H49.7C50.06 47.92 50.36 48.06 50.6 48.34C50.88 48.58 51.02 48.88 51.02 49.24C51.02 52.72 50.02 55.64 48.02 58C44.34 62.4 38.6 64.6 30.8 64.6C24.68 64.6 19.8 63.26 16.16 60.58C12.52 57.86 10.7 53.7 10.7 48.1V37.9C10.7 32.42 12.56 28.3 16.28 25.54C20 22.78 24.84 21.4 30.8 21.4C38.6 21.4 44.34 23.6 48.02 28C50.02 30.36 51.02 33.28 51.02 36.76C51.02 37.12 50.88 37.44 50.6 37.72C50.36 37.96 50.06 38.08 49.7 38.08H37.46C36.82 38.08 36.34 37.96 36.02 37.72C35.74 37.48 35.48 37.02 35.24 36.34C34.48 34.18 32.98 33.1 30.74 33.1C27.78 33.1 26.3 34.72 26.3 37.96ZM57.3842 25.84C61.0642 22.88 65.9242 21.4 71.9642 21.4C78.0042 21.4 82.8442 22.9 86.4842 25.9C90.1642 28.86 92.0042 33.04 92.0042 38.44V47.8C92.0042 53.28 90.1842 57.46 86.5442 60.34C82.9442 63.18 78.0842 64.6 71.9642 64.6C65.8442 64.6 60.9642 63.18 57.3242 60.34C53.7242 57.46 51.9242 53.28 51.9242 47.8V38.44C51.9242 33 53.7442 28.8 57.3842 25.84ZM68.7242 51.7C69.5242 52.5 70.6042 52.9 71.9642 52.9C73.3242 52.9 74.4042 52.5 75.2042 51.7C76.0042 50.9 76.4042 49.68 76.4042 48.04V37.96C76.4042 36.36 76.0042 35.16 75.2042 34.36C74.4042 33.52 73.3242 33.1 71.9642 33.1C70.6042 33.1 69.5242 33.52 68.7242 34.36C67.9242 35.16 67.5242 36.36 67.5242 37.96V48.04C67.5242 49.68 67.9242 50.9 68.7242 51.7ZM128.653 22H138.133C138.573 22 138.953 22.16 139.273 22.48C139.593 22.8 139.753 23.18 139.753 23.62V62.38C139.753 62.82 139.593 63.2 139.273 63.52C138.953 63.84 138.573 64 138.133 64H127.273C126.833 64 126.453 63.84 126.133 63.52C125.813 63.2 125.653 62.82 125.653 62.38V45.94L121.693 52.42C121.053 53.42 120.313 53.92 119.473 53.92H115.273C114.433 53.92 113.693 53.42 113.053 52.42L109.093 45.94V62.38C109.093 62.82 108.933 63.2 108.613 63.52C108.293 63.84 107.913 64 107.473 64H96.613C96.173 64 95.793 63.84 95.473 63.52C95.153 63.2 94.993 62.82 94.993 62.38V23.62C94.993 23.18 95.153 22.8 95.473 22.48C95.793 22.16 96.173 22 96.613 22H106.093C107.213 22 108.073 22.54 108.673 23.62L117.373 38.02L126.073 23.62C126.673 22.54 127.533 22 128.653 22ZM145.572 22H163.452C169.212 22 173.712 23.24 176.952 25.72C180.192 28.2 181.812 31.86 181.812 36.7C181.812 41.54 180.192 45.12 176.952 47.44C173.752 49.76 169.252 50.92 163.452 50.92H159.552V62.38C159.552 62.82 159.392 63.2 159.072 63.52C158.752 63.84 158.372 64 157.932 64H145.572C145.132 64 144.752 63.84 144.432 63.52C144.112 63.2 143.952 62.82 143.952 62.38V23.62C143.952 23.18 144.112 22.8 144.432 22.48C144.752 22.16 145.132 22 145.572 22ZM159.252 33.16V39.82H163.452C164.172 39.82 164.812 39.56 165.372 39.04C165.932 38.48 166.212 37.7 166.212 36.7C166.212 35.7 165.992 34.86 165.552 34.18C165.112 33.5 164.412 33.16 163.452 33.16H159.252ZM208.787 22H220.547C220.987 22 221.367 22.16 221.687 22.48C222.007 22.8 222.167 23.18 222.167 23.62V47.74C222.167 53.34 220.427 57.56 216.947 60.4C213.467 63.2 208.727 64.6 202.727 64.6C196.767 64.6 192.027 63.2 188.507 60.4C185.027 57.6 183.287 53.38 183.287 47.74V23.62C183.287 23.18 183.447 22.8 183.767 22.48C184.087 22.16 184.467 22 184.907 22H196.667C197.107 22 197.487 22.16 197.807 22.48C198.127 22.8 198.287 23.18 198.287 23.62V47.92C198.287 51 199.767 52.54 202.727 52.54C205.687 52.54 207.167 51 207.167 47.92V23.62C207.167 23.18 207.327 22.8 207.647 22.48C207.967 22.16 208.347 22 208.787 22ZM225.275 22H260.435C260.875 22 261.255 22.16 261.575 22.48C261.895 22.8 262.055 23.18 262.055 23.62V33.28C262.055 33.72 261.895 34.1 261.575 34.42C261.255 34.74 260.875 34.9 260.435 34.9H250.475V62.38C250.475 62.82 250.315 63.2 249.995 63.52C249.675 63.84 249.295 64 248.855 64H236.855C236.415 64 236.035 63.84 235.715 63.52C235.395 63.2 235.235 62.82 235.235 62.38V34.9H225.275C224.835 34.9 224.455 34.74 224.135 34.42C223.815 34.1 223.655 33.72 223.655 33.28V23.62C223.655 23.18 223.815 22.8 224.135 22.48C224.455 22.16 224.835 22 225.275 22ZM278.567 52.3H297.047C297.487 52.3 297.867 52.46 298.187 52.78C298.507 53.1 298.667 53.48 298.667 53.92V62.38C298.667 62.82 298.507 63.2 298.187 63.52C297.867 63.84 297.487 64 297.047 64H265.787C265.347 64 264.967 63.84 264.647 63.52C264.327 63.2 264.167 62.82 264.167 62.38V23.62C264.167 23.18 264.327 22.8 264.647 22.48C264.967 22.16 265.347 22 265.787 22H296.567C297.007 22 297.387 22.16 297.707 22.48C298.027 22.8 298.187 23.18 298.187 23.62V32.08C298.187 32.52 298.027 32.9 297.707 33.22C297.387 33.54 297.007 33.7 296.567 33.7H278.567V37.48H295.247C295.687 37.48 296.067 37.64 296.387 37.96C296.707 38.28 296.867 38.66 296.867 39.1V46.9C296.867 47.34 296.707 47.72 296.387 48.04C296.067 48.36 295.687 48.52 295.247 48.52H278.567V52.3ZM340.926 62.02C341.046 62.26 341.106 62.52 341.106 62.8C341.106 63.08 340.966 63.36 340.686 63.64C340.446 63.88 340.146 64 339.786 64H327.486C326.246 64 325.386 63.46 324.906 62.38L319.746 50.92H317.286V62.38C317.286 62.82 317.126 63.2 316.806 63.52C316.486 63.84 316.106 64 315.666 64H303.906C303.466 64 303.086 63.84 302.766 63.52C302.446 63.2 302.286 62.82 302.286 62.38V23.62C302.286 23.18 302.446 22.8 302.766 22.48C303.086 22.16 303.466 22 303.906 22H321.666C327.426 22 331.926 23.3 335.166 25.9C338.406 28.46 340.026 32.16 340.026 37C340.026 41.8 337.866 45.58 333.546 48.34L340.926 62.02ZM317.286 33.16V39.52H321.666C322.546 39.52 323.226 39.24 323.706 38.68C324.186 38.08 324.426 37.34 324.426 36.46C324.426 35.58 324.186 34.82 323.706 34.18C323.266 33.5 322.586 33.16 321.666 33.16H317.286ZM358.115 40.195C358.115 37.945 359.03 36.025 360.86 34.435C362.72 32.815 365.36 32.005 368.78 32.005C372.23 32.005 374.855 32.815 376.655 34.435C378.455 36.025 379.355 37.93 379.355 40.15C379.355 41.8 378.875 43.27 377.915 44.56C376.985 45.82 375.545 47.02 373.595 48.16L376.97 51.67C377.72 50.89 378.455 49.66 379.175 47.98C379.295 47.68 379.595 47.53 380.075 47.53H386.87C387.11 47.53 387.305 47.605 387.455 47.755C387.605 47.905 387.68 48.1 387.68 48.34C387.68 49.21 387.065 50.575 385.835 52.435C384.635 54.295 383.465 55.825 382.325 57.025L387.68 62.605C387.86 62.785 387.95 62.995 387.95 63.235C387.95 63.445 387.86 63.625 387.68 63.775C387.53 63.925 387.35 64 387.14 64H377.96C377.6 64 377.225 63.85 376.835 63.55L375.62 62.47C373.4 63.91 370.49 64.63 366.89 64.63C363.29 64.63 360.395 63.805 358.205 62.155C356.015 60.475 354.92 58.075 354.92 54.955C354.92 51.445 356.87 48.595 360.77 46.405C359 44.515 358.115 42.445 358.115 40.195ZM364.73 54.325C364.73 55.165 365 55.825 365.54 56.305C366.11 56.785 366.86 57.025 367.79 57.025C368.72 57.025 369.485 56.845 370.085 56.485L366.125 52.39C365.195 52.84 364.73 53.485 364.73 54.325ZM370.715 40.51C370.715 40.03 370.55 39.64 370.22 39.34C369.92 39.04 369.53 38.89 369.05 38.89C368.6 38.89 368.21 39.055 367.88 39.385C367.55 39.685 367.385 40.135 367.385 40.735C367.385 41.305 367.79 41.965 368.6 42.715C370.01 42.085 370.715 41.35 370.715 40.51ZM420.272 64H411.692C410.932 64 410.292 63.78 409.772 63.34C409.292 62.86 409.012 62.32 408.932 61.72L403.412 23.5V23.32C403.412 22.96 403.532 22.66 403.772 22.42C404.052 22.14 404.372 22 404.732 22H415.892C417.212 22 417.932 22.54 418.052 23.62L420.092 40.54L422.552 33.04C422.952 31.88 423.632 31.3 424.592 31.3H430.712C431.672 31.3 432.352 31.88 432.752 33.04L435.212 40.48L437.252 23.62C437.372 22.54 438.092 22 439.412 22H450.572C450.932 22 451.232 22.14 451.472 22.42C451.752 22.66 451.892 22.96 451.892 23.32V23.5L446.372 61.72C446.292 62.32 445.992 62.86 445.472 63.34C444.992 63.78 444.372 64 443.612 64H435.032C433.792 64 432.972 63.46 432.572 62.38L427.652 50.08L422.732 62.38C422.332 63.46 421.512 64 420.272 64ZM468.688 52.3H487.168C487.608 52.3 487.988 52.46 488.308 52.78C488.628 53.1 488.788 53.48 488.788 53.92V62.38C488.788 62.82 488.628 63.2 488.308 63.52C487.988 63.84 487.608 64 487.168 64H455.908C455.468 64 455.088 63.84 454.768 63.52C454.448 63.2 454.288 62.82 454.288 62.38V23.62C454.288 23.18 454.448 22.8 454.768 22.48C455.088 22.16 455.468 22 455.908 22H486.688C487.128 22 487.508 22.16 487.828 22.48C488.148 22.8 488.308 23.18 488.308 23.62V32.08C488.308 32.52 488.148 32.9 487.828 33.22C487.508 33.54 487.128 33.7 486.688 33.7H468.688V37.48H485.368C485.808 37.48 486.188 37.64 486.508 37.96C486.828 38.28 486.988 38.66 486.988 39.1V46.9C486.988 47.34 486.828 47.72 486.508 48.04C486.188 48.36 485.808 48.52 485.368 48.52H468.688V52.3ZM514.246 37C514.686 36.48 514.906 35.86 514.906 35.14C514.906 34.42 514.686 33.78 514.246 33.22C513.846 32.62 513.246 32.32 512.446 32.32H507.406V37.78H512.446C513.246 37.78 513.846 37.52 514.246 37ZM507.406 47.8V53.68H512.986C513.906 53.68 514.586 53.38 515.026 52.78C515.506 52.14 515.746 51.44 515.746 50.68V50.62C515.746 49.86 515.486 49.2 514.966 48.64C514.486 48.08 513.826 47.8 512.986 47.8H507.406ZM514.546 64H494.026C493.586 64 493.206 63.84 492.886 63.52C492.566 63.2 492.406 62.82 492.406 62.38V23.62C492.406 23.18 492.566 22.8 492.886 22.48C493.206 22.16 493.586 22 494.026 22H513.946C519.626 22 523.806 23.04 526.486 25.12C529.206 27.16 530.566 30.26 530.566 34.42V34.6C530.566 36.32 530.066 37.86 529.066 39.22C528.066 40.54 526.966 41.5 525.766 42.1C527.366 42.74 528.706 43.88 529.786 45.52C530.906 47.12 531.466 48.88 531.466 50.8C531.466 59.6 525.826 64 514.546 64ZM546.88 35.2C546.88 31.12 548.56 27.8 551.92 25.24C555.32 22.68 559.76 21.4 565.24 21.4C570.76 21.4 575.26 22.74 578.74 25.42C582.26 28.1 584.02 30.9 584.02 33.82C584.02 34.18 583.88 34.5 583.6 34.78C583.36 35.02 583.08 35.14 582.76 35.14H570.76C569.84 35.14 569 34.8 568.24 34.12C567.48 33.44 566.46 33.1 565.18 33.1C563.26 33.1 562.3 33.66 562.3 34.78C562.3 35.38 562.76 35.88 563.68 36.28C564.64 36.68 566.4 37.04 568.96 37.36C574.92 38.12 579.16 39.52 581.68 41.56C584.24 43.56 585.52 46.62 585.52 50.74C585.52 54.82 583.64 58.16 579.88 60.76C576.16 63.32 571.28 64.6 565.24 64.6C559.2 64.6 554.46 63.36 551.02 60.88C547.58 58.4 545.86 55.38 545.86 51.82C545.86 51.46 545.98 51.16 546.22 50.92C546.5 50.64 546.82 50.5 547.18 50.5H558.58C559.42 50.5 560.34 50.9 561.34 51.7C562.38 52.5 563.8 52.9 565.6 52.9C568.6 52.9 570.1 52.34 570.1 51.22C570.1 50.5 569.56 49.96 568.48 49.6C567.4 49.2 565.36 48.8 562.36 48.4C552.04 47.04 546.88 42.64 546.88 35.2ZM587.122 22H622.282C622.722 22 623.102 22.16 623.422 22.48C623.742 22.8 623.902 23.18 623.902 23.62V33.28C623.902 33.72 623.742 34.1 623.422 34.42C623.102 34.74 622.722 34.9 622.282 34.9H612.322V62.38C612.322 62.82 612.162 63.2 611.842 63.52C611.522 63.84 611.142 64 610.702 64H598.702C598.262 64 597.882 63.84 597.562 63.52C597.242 63.2 597.082 62.82 597.082 62.38V34.9H587.122C586.682 34.9 586.302 34.74 585.982 34.42C585.662 34.1 585.502 33.72 585.502 33.28V23.62C585.502 23.18 585.662 22.8 585.982 22.48C586.302 22.16 586.682 22 587.122 22ZM650.914 22H662.674C663.114 22 663.494 22.16 663.814 22.48C664.134 22.8 664.294 23.18 664.294 23.62V47.74C664.294 53.34 662.554 57.56 659.074 60.4C655.594 63.2 650.854 64.6 644.854 64.6C638.894 64.6 634.154 63.2 630.634 60.4C627.154 57.6 625.414 53.38 625.414 47.74V23.62C625.414 23.18 625.574 22.8 625.894 22.48C626.214 22.16 626.594 22 627.034 22H638.794C639.234 22 639.614 22.16 639.934 22.48C640.254 22.8 640.414 23.18 640.414 23.62V47.92C640.414 51 641.894 52.54 644.854 52.54C647.814 52.54 649.294 51 649.294 47.92V23.62C649.294 23.18 649.454 22.8 649.774 22.48C650.094 22.16 650.474 22 650.914 22ZM669.503 22H699.743C700.183 22 700.563 22.16 700.883 22.48C701.203 22.8 701.363 23.18 701.363 23.62V32.74C701.363 33.18 701.203 33.56 700.883 33.88C700.563 34.2 700.183 34.36 699.743 34.36H682.583V38.8H698.543C698.983 38.8 699.363 38.96 699.683 39.28C700.003 39.6 700.163 39.98 700.163 40.42V49.48C700.163 49.92 700.003 50.3 699.683 50.62C699.363 50.94 698.983 51.1 698.543 51.1H682.583V62.38C682.583 62.82 682.423 63.2 682.103 63.52C681.783 63.84 681.403 64 680.963 64H669.503C669.063 64 668.683 63.84 668.363 63.52C668.043 63.2 667.883 62.82 667.883 62.38V23.62C667.883 23.18 668.043 22.8 668.363 22.48C668.683 22.16 669.063 22 669.503 22ZM705.688 22H735.928C736.368 22 736.748 22.16 737.068 22.48C737.388 22.8 737.548 23.18 737.548 23.62V32.74C737.548 33.18 737.388 33.56 737.068 33.88C736.748 34.2 736.368 34.36 735.928 34.36H718.768V38.8H734.728C735.168 38.8 735.548 38.96 735.868 39.28C736.188 39.6 736.348 39.98 736.348 40.42V49.48C736.348 49.92 736.188 50.3 735.868 50.62C735.548 50.94 735.168 51.1 734.728 51.1H718.768V62.38C718.768 62.82 718.608 63.2 718.288 63.52C717.968 63.84 717.588 64 717.148 64H705.688C705.248 64 704.868 63.84 704.548 63.52C704.228 63.2 704.068 62.82 704.068 62.38V23.62C704.068 23.18 704.228 22.8 704.548 22.48C704.868 22.16 705.248 22 705.688 22Z" fill="#FF9330"/>
<path d="M22.3 33.96V44.04C22.3 47.28 23.78 48.9 26.74 48.9C29.02 48.9 30.52 47.82 31.24 45.66C31.44 44.98 31.68 44.52 31.96 44.28C32.28 44.04 32.78 43.92 33.46 43.92H45.7C46.06 43.92 46.36 44.06 46.6 44.34C46.88 44.58 47.02 44.88 47.02 45.24C47.02 48.72 46.02 51.64 44.02 54C40.34 58.4 34.6 60.6 26.8 60.6C20.68 60.6 15.8 59.26 12.16 56.58C8.52 53.86 6.7 49.7 6.7 44.1V33.9C6.7 28.42 8.56 24.3 12.28 21.54C16 18.78 20.84 17.4 26.8 17.4C34.6 17.4 40.34 19.6 44.02 24C46.02 26.36 47.02 29.28 47.02 32.76C47.02 33.12 46.88 33.44 46.6 33.72C46.36 33.96 46.06 34.08 45.7 34.08H33.46C32.82 34.08 32.34 33.96 32.02 33.72C31.74 33.48 31.48 33.02 31.24 32.34C30.48 30.18 28.98 29.1 26.74 29.1C23.78 29.1 22.3 30.72 22.3 33.96ZM53.3842 21.84C57.0642 18.88 61.9242 17.4 67.9642 17.4C74.0042 17.4 78.8442 18.9 82.4842 21.9C86.1642 24.86 88.0042 29.04 88.0042 34.44V43.8C88.0042 49.28 86.1842 53.46 82.5442 56.34C78.9442 59.18 74.0842 60.6 67.9642 60.6C61.8442 60.6 56.9642 59.18 53.3242 56.34C49.7242 53.46 47.9242 49.28 47.9242 43.8V34.44C47.9242 29 49.7442 24.8 53.3842 21.84ZM64.7242 47.7C65.5242 48.5 66.6042 48.9 67.9642 48.9C69.3242 48.9 70.4042 48.5 71.2042 47.7C72.0042 46.9 72.4042 45.68 72.4042 44.04V33.96C72.4042 32.36 72.0042 31.16 71.2042 30.36C70.4042 29.52 69.3242 29.1 67.9642 29.1C66.6042 29.1 65.5242 29.52 64.7242 30.36C63.9242 31.16 63.5242 32.36 63.5242 33.96V44.04C63.5242 45.68 63.9242 46.9 64.7242 47.7ZM124.653 18H134.133C134.573 18 134.953 18.16 135.273 18.48C135.593 18.8 135.753 19.18 135.753 19.62V58.38C135.753 58.82 135.593 59.2 135.273 59.52C134.953 59.84 134.573 60 134.133 60H123.273C122.833 60 122.453 59.84 122.133 59.52C121.813 59.2 121.653 58.82 121.653 58.38V41.94L117.693 48.42C117.053 49.42 116.313 49.92 115.473 49.92H111.273C110.433 49.92 109.693 49.42 109.053 48.42L105.093 41.94V58.38C105.093 58.82 104.933 59.2 104.613 59.52C104.293 59.84 103.913 60 103.473 60H92.613C92.173 60 91.793 59.84 91.473 59.52C91.153 59.2 90.993 58.82 90.993 58.38V19.62C90.993 19.18 91.153 18.8 91.473 18.48C91.793 18.16 92.173 18 92.613 18H102.093C103.213 18 104.073 18.54 104.673 19.62L113.373 34.02L122.073 19.62C122.673 18.54 123.533 18 124.653 18ZM141.572 18H159.452C165.212 18 169.712 19.24 172.952 21.72C176.192 24.2 177.812 27.86 177.812 32.7C177.812 37.54 176.192 41.12 172.952 43.44C169.752 45.76 165.252 46.92 159.452 46.92H155.552V58.38C155.552 58.82 155.392 59.2 155.072 59.52C154.752 59.84 154.372 60 153.932 60H141.572C141.132 60 140.752 59.84 140.432 59.52C140.112 59.2 139.952 58.82 139.952 58.38V19.62C139.952 19.18 140.112 18.8 140.432 18.48C140.752 18.16 141.132 18 141.572 18ZM155.252 29.16V35.82H159.452C160.172 35.82 160.812 35.56 161.372 35.04C161.932 34.48 162.212 33.7 162.212 32.7C162.212 31.7 161.992 30.86 161.552 30.18C161.112 29.5 160.412 29.16 159.452 29.16H155.252ZM204.787 18H216.547C216.987 18 217.367 18.16 217.687 18.48C218.007 18.8 218.167 19.18 218.167 19.62V43.74C218.167 49.34 216.427 53.56 212.947 56.4C209.467 59.2 204.727 60.6 198.727 60.6C192.767 60.6 188.027 59.2 184.507 56.4C181.027 53.6 179.287 49.38 179.287 43.74V19.62C179.287 19.18 179.447 18.8 179.767 18.48C180.087 18.16 180.467 18 180.907 18H192.667C193.107 18 193.487 18.16 193.807 18.48C194.127 18.8 194.287 19.18 194.287 19.62V43.92C194.287 47 195.767 48.54 198.727 48.54C201.687 48.54 203.167 47 203.167 43.92V19.62C203.167 19.18 203.327 18.8 203.647 18.48C203.967 18.16 204.347 18 204.787 18ZM221.275 18H256.435C256.875 18 257.255 18.16 257.575 18.48C257.895 18.8 258.055 19.18 258.055 19.62V29.28C258.055 29.72 257.895 30.1 257.575 30.42C257.255 30.74 256.875 30.9 256.435 30.9H246.475V58.38C246.475 58.82 246.315 59.2 245.995 59.52C245.675 59.84 245.295 60 244.855 60H232.855C232.415 60 232.035 59.84 231.715 59.52C231.395 59.2 231.235 58.82 231.235 58.38V30.9H221.275C220.835 30.9 220.455 30.74 220.135 30.42C219.815 30.1 219.655 29.72 219.655 29.28V19.62C219.655 19.18 219.815 18.8 220.135 18.48C220.455 18.16 220.835 18 221.275 18ZM274.567 48.3H293.047C293.487 48.3 293.867 48.46 294.187 48.78C294.507 49.1 294.667 49.48 294.667 49.92V58.38C294.667 58.82 294.507 59.2 294.187 59.52C293.867 59.84 293.487 60 293.047 60H261.787C261.347 60 260.967 59.84 260.647 59.52C260.327 59.2 260.167 58.82 260.167 58.38V19.62C260.167 19.18 260.327 18.8 260.647 18.48C260.967 18.16 261.347 18 261.787 18H292.567C293.007 18 293.387 18.16 293.707 18.48C294.027 18.8 294.187 19.18 294.187 19.62V28.08C294.187 28.52 294.027 28.9 293.707 29.22C293.387 29.54 293.007 29.7 292.567 29.7H274.567V33.48H291.247C291.687 33.48 292.067 33.64 292.387 33.96C292.707 34.28 292.867 34.66 292.867 35.1V42.9C292.867 43.34 292.707 43.72 292.387 44.04C292.067 44.36 291.687 44.52 291.247 44.52H274.567V48.3ZM336.926 58.02C337.046 58.26 337.106 58.52 337.106 58.8C337.106 59.08 336.966 59.36 336.686 59.64C336.446 59.88 336.146 60 335.786 60H323.486C322.246 60 321.386 59.46 320.906 58.38L315.746 46.92H313.286V58.38C313.286 58.82 313.126 59.2 312.806 59.52C312.486 59.84 312.106 60 311.666 60H299.906C299.466 60 299.086 59.84 298.766 59.52C298.446 59.2 298.286 58.82 298.286 58.38V19.62C298.286 19.18 298.446 18.8 298.766 18.48C299.086 18.16 299.466 18 299.906 18H317.666C323.426 18 327.926 19.3 331.166 21.9C334.406 24.46 336.026 28.16 336.026 33C336.026 37.8 333.866 41.58 329.546 44.34L336.926 58.02ZM313.286 29.16V35.52H317.666C318.546 35.52 319.226 35.24 319.706 34.68C320.186 34.08 320.426 33.34 320.426 32.46C320.426 31.58 320.186 30.82 319.706 30.18C319.266 29.5 318.586 29.16 317.666 29.16H313.286ZM354.115 36.195C354.115 33.945 355.03 32.025 356.86 30.435C358.72 28.815 361.36 28.005 364.78 28.005C368.23 28.005 370.855 28.815 372.655 30.435C374.455 32.025 375.355 33.93 375.355 36.15C375.355 37.8 374.875 39.27 373.915 40.56C372.985 41.82 371.545 43.02 369.595 44.16L372.97 47.67C373.72 46.89 374.455 45.66 375.175 43.98C375.295 43.68 375.595 43.53 376.075 43.53H382.87C383.11 43.53 383.305 43.605 383.455 43.755C383.605 43.905 383.68 44.1 383.68 44.34C383.68 45.21 383.065 46.575 381.835 48.435C380.635 50.295 379.465 51.825 378.325 53.025L383.68 58.605C383.86 58.785 383.95 58.995 383.95 59.235C383.95 59.445 383.86 59.625 383.68 59.775C383.53 59.925 383.35 60 383.14 60H373.96C373.6 60 373.225 59.85 372.835 59.55L371.62 58.47C369.4 59.91 366.49 60.63 362.89 60.63C359.29 60.63 356.395 59.805 354.205 58.155C352.015 56.475 350.92 54.075 350.92 50.955C350.92 47.445 352.87 44.595 356.77 42.405C355 40.515 354.115 38.445 354.115 36.195ZM360.73 50.325C360.73 51.165 361 51.825 361.54 52.305C362.11 52.785 362.86 53.025 363.79 53.025C364.72 53.025 365.485 52.845 366.085 52.485L362.125 48.39C361.195 48.84 360.73 49.485 360.73 50.325ZM366.715 36.51C366.715 36.03 366.55 35.64 366.22 35.34C365.92 35.04 365.53 34.89 365.05 34.89C364.6 34.89 364.21 35.055 363.88 35.385C363.55 35.685 363.385 36.135 363.385 36.735C363.385 37.305 363.79 37.965 364.6 38.715C366.01 38.085 366.715 37.35 366.715 36.51ZM416.272 60H407.692C406.932 60 406.292 59.78 405.772 59.34C405.292 58.86 405.012 58.32 404.932 57.72L399.412 19.5V19.32C399.412 18.96 399.532 18.66 399.772 18.42C400.052 18.14 400.372 18 400.732 18H411.892C413.212 18 413.932 18.54 414.052 19.62L416.092 36.54L418.552 29.04C418.952 27.88 419.632 27.3 420.592 27.3H426.712C427.672 27.3 428.352 27.88 428.752 29.04L431.212 36.48L433.252 19.62C433.372 18.54 434.092 18 435.412 18H446.572C446.932 18 447.232 18.14 447.472 18.42C447.752 18.66 447.892 18.96 447.892 19.32V19.5L442.372 57.72C442.292 58.32 441.992 58.86 441.472 59.34C440.992 59.78 440.372 60 439.612 60H431.032C429.792 60 428.972 59.46 428.572 58.38L423.652 46.08L418.732 58.38C418.332 59.46 417.512 60 416.272 60ZM464.688 48.3H483.168C483.608 48.3 483.988 48.46 484.308 48.78C484.628 49.1 484.788 49.48 484.788 49.92V58.38C484.788 58.82 484.628 59.2 484.308 59.52C483.988 59.84 483.608 60 483.168 60H451.908C451.468 60 451.088 59.84 450.768 59.52C450.448 59.2 450.288 58.82 450.288 58.38V19.62C450.288 19.18 450.448 18.8 450.768 18.48C451.088 18.16 451.468 18 451.908 18H482.688C483.128 18 483.508 18.16 483.828 18.48C484.148 18.8 484.308 19.18 484.308 19.62V28.08C484.308 28.52 484.148 28.9 483.828 29.22C483.508 29.54 483.128 29.7 482.688 29.7H464.688V33.48H481.368C481.808 33.48 482.188 33.64 482.508 33.96C482.828 34.28 482.988 34.66 482.988 35.1V42.9C482.988 43.34 482.828 43.72 482.508 44.04C482.188 44.36 481.808 44.52 481.368 44.52H464.688V48.3ZM510.246 33C510.686 32.48 510.906 31.86 510.906 31.14C510.906 30.42 510.686 29.78 510.246 29.22C509.846 28.62 509.246 28.32 508.446 28.32H503.406V33.78H508.446C509.246 33.78 509.846 33.52 510.246 33ZM503.406 43.8V49.68H508.986C509.906 49.68 510.586 49.38 511.026 48.78C511.506 48.14 511.746 47.44 511.746 46.68V46.62C511.746 45.86 511.486 45.2 510.966 44.64C510.486 44.08 509.826 43.8 508.986 43.8H503.406ZM510.546 60H490.026C489.586 60 489.206 59.84 488.886 59.52C488.566 59.2 488.406 58.82 488.406 58.38V19.62C488.406 19.18 488.566 18.8 488.886 18.48C489.206 18.16 489.586 18 490.026 18H509.946C515.626 18 519.806 19.04 522.486 21.12C525.206 23.16 526.566 26.26 526.566 30.42V30.6C526.566 32.32 526.066 33.86 525.066 35.22C524.066 36.54 522.966 37.5 521.766 38.1C523.366 38.74 524.706 39.88 525.786 41.52C526.906 43.12 527.466 44.88 527.466 46.8C527.466 55.6 521.826 60 510.546 60ZM542.88 31.2C542.88 27.12 544.56 23.8 547.92 21.24C551.32 18.68 555.76 17.4 561.24 17.4C566.76 17.4 571.26 18.74 574.74 21.42C578.26 24.1 580.02 26.9 580.02 29.82C580.02 30.18 579.88 30.5 579.6 30.78C579.36 31.02 579.08 31.14 578.76 31.14H566.76C565.84 31.14 565 30.8 564.24 30.12C563.48 29.44 562.46 29.1 561.18 29.1C559.26 29.1 558.3 29.66 558.3 30.78C558.3 31.38 558.76 31.88 559.68 32.28C560.64 32.68 562.4 33.04 564.96 33.36C570.92 34.12 575.16 35.52 577.68 37.56C580.24 39.56 581.52 42.62 581.52 46.74C581.52 50.82 579.64 54.16 575.88 56.76C572.16 59.32 567.28 60.6 561.24 60.6C555.2 60.6 550.46 59.36 547.02 56.88C543.58 54.4 541.86 51.38 541.86 47.82C541.86 47.46 541.98 47.16 542.22 46.92C542.5 46.64 542.82 46.5 543.18 46.5H554.58C555.42 46.5 556.34 46.9 557.34 47.7C558.38 48.5 559.8 48.9 561.6 48.9C564.6 48.9 566.1 48.34 566.1 47.22C566.1 46.5 565.56 45.96 564.48 45.6C563.4 45.2 561.36 44.8 558.36 44.4C548.04 43.04 542.88 38.64 542.88 31.2ZM583.122 18H618.282C618.722 18 619.102 18.16 619.422 18.48C619.742 18.8 619.902 19.18 619.902 19.62V29.28C619.902 29.72 619.742 30.1 619.422 30.42C619.102 30.74 618.722 30.9 618.282 30.9H608.322V58.38C608.322 58.82 608.162 59.2 607.842 59.52C607.522 59.84 607.142 60 606.702 60H594.702C594.262 60 593.882 59.84 593.562 59.52C593.242 59.2 593.082 58.82 593.082 58.38V30.9H583.122C582.682 30.9 582.302 30.74 581.982 30.42C581.662 30.1 581.502 29.72 581.502 29.28V19.62C581.502 19.18 581.662 18.8 581.982 18.48C582.302 18.16 582.682 18 583.122 18ZM646.914 18H658.674C659.114 18 659.494 18.16 659.814 18.48C660.134 18.8 660.294 19.18 660.294 19.62V43.74C660.294 49.34 658.554 53.56 655.074 56.4C651.594 59.2 646.854 60.6 640.854 60.6C634.894 60.6 630.154 59.2 626.634 56.4C623.154 53.6 621.414 49.38 621.414 43.74V19.62C621.414 19.18 621.574 18.8 621.894 18.48C622.214 18.16 622.594 18 623.034 18H634.794C635.234 18 635.614 18.16 635.934 18.48C636.254 18.8 636.414 19.18 636.414 19.62V43.92C636.414 47 637.894 48.54 640.854 48.54C643.814 48.54 645.294 47 645.294 43.92V19.62C645.294 19.18 645.454 18.8 645.774 18.48C646.094 18.16 646.474 18 646.914 18ZM665.503 18H695.743C696.183 18 696.563 18.16 696.883 18.48C697.203 18.8 697.363 19.18 697.363 19.62V28.74C697.363 29.18 697.203 29.56 696.883 29.88C696.563 30.2 696.183 30.36 695.743 30.36H678.583V34.8H694.543C694.983 34.8 695.363 34.96 695.683 35.28C696.003 35.6 696.163 35.98 696.163 36.42V45.48C696.163 45.92 696.003 46.3 695.683 46.62C695.363 46.94 694.983 47.1 694.543 47.1H678.583V58.38C678.583 58.82 678.423 59.2 678.103 59.52C677.783 59.84 677.403 60 676.963 60H665.503C665.063 60 664.683 59.84 664.363 59.52C664.043 59.2 663.883 58.82 663.883 58.38V19.62C663.883 19.18 664.043 18.8 664.363 18.48C664.683 18.16 665.063 18 665.503 18ZM701.688 18H731.928C732.368 18 732.748 18.16 733.068 18.48C733.388 18.8 733.548 19.18 733.548 19.62V28.74C733.548 29.18 733.388 29.56 733.068 29.88C732.748 30.2 732.368 30.36 731.928 30.36H714.768V34.8H730.728C731.168 34.8 731.548 34.96 731.868 35.28C732.188 35.6 732.348 35.98 732.348 36.42V45.48C732.348 45.92 732.188 46.3 731.868 46.62C731.548 46.94 731.168 47.1 730.728 47.1H714.768V58.38C714.768 58.82 714.608 59.2 714.288 59.52C713.968 59.84 713.588 60 713.148 60H701.688C701.248 60 700.868 59.84 700.548 59.52C700.228 59.2 700.068 58.82 700.068 58.38V19.62C700.068 19.18 700.228 18.8 700.548 18.48C700.868 18.16 701.248 18 701.688 18Z" fill="#FF6565"/>
<path d="M18.3 29.96V40.04C18.3 43.28 19.78 44.9 22.74 44.9C25.02 44.9 26.52 43.82 27.24 41.66C27.44 40.98 27.68 40.52 27.96 40.28C28.28 40.04 28.78 39.92 29.46 39.92H41.7C42.06 39.92 42.36 40.06 42.6 40.34C42.88 40.58 43.02 40.88 43.02 41.24C43.02 44.72 42.02 47.64 40.02 50C36.34 54.4 30.6 56.6 22.8 56.6C16.68 56.6 11.8 55.26 8.16 52.58C4.52 49.86 2.7 45.7 2.7 40.1V29.9C2.7 24.42 4.56 20.3 8.28 17.54C12 14.78 16.84 13.4 22.8 13.4C30.6 13.4 36.34 15.6 40.02 20C42.02 22.36 43.02 25.28 43.02 28.76C43.02 29.12 42.88 29.44 42.6 29.72C42.36 29.96 42.06 30.08 41.7 30.08H29.46C28.82 30.08 28.34 29.96 28.02 29.72C27.74 29.48 27.48 29.02 27.24 28.34C26.48 26.18 24.98 25.1 22.74 25.1C19.78 25.1 18.3 26.72 18.3 29.96ZM49.3842 17.84C53.0642 14.88 57.9242 13.4 63.9642 13.4C70.0042 13.4 74.8442 14.9 78.4842 17.9C82.1642 20.86 84.0042 25.04 84.0042 30.44V39.8C84.0042 45.28 82.1842 49.46 78.5442 52.34C74.9442 55.18 70.0842 56.6 63.9642 56.6C57.8442 56.6 52.9642 55.18 49.3242 52.34C45.7242 49.46 43.9242 45.28 43.9242 39.8V30.44C43.9242 25 45.7442 20.8 49.3842 17.84ZM60.7242 43.7C61.5242 44.5 62.6042 44.9 63.9642 44.9C65.3242 44.9 66.4042 44.5 67.2042 43.7C68.0042 42.9 68.4042 41.68 68.4042 40.04V29.96C68.4042 28.36 68.0042 27.16 67.2042 26.36C66.4042 25.52 65.3242 25.1 63.9642 25.1C62.6042 25.1 61.5242 25.52 60.7242 26.36C59.9242 27.16 59.5242 28.36 59.5242 29.96V40.04C59.5242 41.68 59.9242 42.9 60.7242 43.7ZM120.653 14H130.133C130.573 14 130.953 14.16 131.273 14.48C131.593 14.8 131.753 15.18 131.753 15.62V54.38C131.753 54.82 131.593 55.2 131.273 55.52C130.953 55.84 130.573 56 130.133 56H119.273C118.833 56 118.453 55.84 118.133 55.52C117.813 55.2 117.653 54.82 117.653 54.38V37.94L113.693 44.42C113.053 45.42 112.313 45.92 111.473 45.92H107.273C106.433 45.92 105.693 45.42 105.053 44.42L101.093 37.94V54.38C101.093 54.82 100.933 55.2 100.613 55.52C100.293 55.84 99.913 56 99.473 56H88.613C88.173 56 87.793 55.84 87.473 55.52C87.153 55.2 86.993 54.82 86.993 54.38V15.62C86.993 15.18 87.153 14.8 87.473 14.48C87.793 14.16 88.173 14 88.613 14H98.093C99.213 14 100.073 14.54 100.673 15.62L109.373 30.02L118.073 15.62C118.673 14.54 119.533 14 120.653 14ZM137.572 14H155.452C161.212 14 165.712 15.24 168.952 17.72C172.192 20.2 173.812 23.86 173.812 28.7C173.812 33.54 172.192 37.12 168.952 39.44C165.752 41.76 161.252 42.92 155.452 42.92H151.552V54.38C151.552 54.82 151.392 55.2 151.072 55.52C150.752 55.84 150.372 56 149.932 56H137.572C137.132 56 136.752 55.84 136.432 55.52C136.112 55.2 135.952 54.82 135.952 54.38V15.62C135.952 15.18 136.112 14.8 136.432 14.48C136.752 14.16 137.132 14 137.572 14ZM151.252 25.16V31.82H155.452C156.172 31.82 156.812 31.56 157.372 31.04C157.932 30.48 158.212 29.7 158.212 28.7C158.212 27.7 157.992 26.86 157.552 26.18C157.112 25.5 156.412 25.16 155.452 25.16H151.252ZM200.787 14H212.547C212.987 14 213.367 14.16 213.687 14.48C214.007 14.8 214.167 15.18 214.167 15.62V39.74C214.167 45.34 212.427 49.56 208.947 52.4C205.467 55.2 200.727 56.6 194.727 56.6C188.767 56.6 184.027 55.2 180.507 52.4C177.027 49.6 175.287 45.38 175.287 39.74V15.62C175.287 15.18 175.447 14.8 175.767 14.48C176.087 14.16 176.467 14 176.907 14H188.667C189.107 14 189.487 14.16 189.807 14.48C190.127 14.8 190.287 15.18 190.287 15.62V39.92C190.287 43 191.767 44.54 194.727 44.54C197.687 44.54 199.167 43 199.167 39.92V15.62C199.167 15.18 199.327 14.8 199.647 14.48C199.967 14.16 200.347 14 200.787 14ZM217.275 14H252.435C252.875 14 253.255 14.16 253.575 14.48C253.895 14.8 254.055 15.18 254.055 15.62V25.28C254.055 25.72 253.895 26.1 253.575 26.42C253.255 26.74 252.875 26.9 252.435 26.9H242.475V54.38C242.475 54.82 242.315 55.2 241.995 55.52C241.675 55.84 241.295 56 240.855 56H228.855C228.415 56 228.035 55.84 227.715 55.52C227.395 55.2 227.235 54.82 227.235 54.38V26.9H217.275C216.835 26.9 216.455 26.74 216.135 26.42C215.815 26.1 215.655 25.72 215.655 25.28V15.62C215.655 15.18 215.815 14.8 216.135 14.48C216.455 14.16 216.835 14 217.275 14ZM270.567 44.3H289.047C289.487 44.3 289.867 44.46 290.187 44.78C290.507 45.1 290.667 45.48 290.667 45.92V54.38C290.667 54.82 290.507 55.2 290.187 55.52C289.867 55.84 289.487 56 289.047 56H257.787C257.347 56 256.967 55.84 256.647 55.52C256.327 55.2 256.167 54.82 256.167 54.38V15.62C256.167 15.18 256.327 14.8 256.647 14.48C256.967 14.16 257.347 14 257.787 14H288.567C289.007 14 289.387 14.16 289.707 14.48C290.027 14.8 290.187 15.18 290.187 15.62V24.08C290.187 24.52 290.027 24.9 289.707 25.22C289.387 25.54 289.007 25.7 288.567 25.7H270.567V29.48H287.247C287.687 29.48 288.067 29.64 288.387 29.96C288.707 30.28 288.867 30.66 288.867 31.1V38.9C288.867 39.34 288.707 39.72 288.387 40.04C288.067 40.36 287.687 40.52 287.247 40.52H270.567V44.3ZM332.926 54.02C333.046 54.26 333.106 54.52 333.106 54.8C333.106 55.08 332.966 55.36 332.686 55.64C332.446 55.88 332.146 56 331.786 56H319.486C318.246 56 317.386 55.46 316.906 54.38L311.746 42.92H309.286V54.38C309.286 54.82 309.126 55.2 308.806 55.52C308.486 55.84 308.106 56 307.666 56H295.906C295.466 56 295.086 55.84 294.766 55.52C294.446 55.2 294.286 54.82 294.286 54.38V15.62C294.286 15.18 294.446 14.8 294.766 14.48C295.086 14.16 295.466 14 295.906 14H313.666C319.426 14 323.926 15.3 327.166 17.9C330.406 20.46 332.026 24.16 332.026 29C332.026 33.8 329.866 37.58 325.546 40.34L332.926 54.02ZM309.286 25.16V31.52H313.666C314.546 31.52 315.226 31.24 315.706 30.68C316.186 30.08 316.426 29.34 316.426 28.46C316.426 27.58 316.186 26.82 315.706 26.18C315.266 25.5 314.586 25.16 313.666 25.16H309.286ZM350.115 32.195C350.115 29.945 351.03 28.025 352.86 26.435C354.72 24.815 357.36 24.005 360.78 24.005C364.23 24.005 366.855 24.815 368.655 26.435C370.455 28.025 371.355 29.93 371.355 32.15C371.355 33.8 370.875 35.27 369.915 36.56C368.985 37.82 367.545 39.02 365.595 40.16L368.97 43.67C369.72 42.89 370.455 41.66 371.175 39.98C371.295 39.68 371.595 39.53 372.075 39.53H378.87C379.11 39.53 379.305 39.605 379.455 39.755C379.605 39.905 379.68 40.1 379.68 40.34C379.68 41.21 379.065 42.575 377.835 44.435C376.635 46.295 375.465 47.825 374.325 49.025L379.68 54.605C379.86 54.785 379.95 54.995 379.95 55.235C379.95 55.445 379.86 55.625 379.68 55.775C379.53 55.925 379.35 56 379.14 56H369.96C369.6 56 369.225 55.85 368.835 55.55L367.62 54.47C365.4 55.91 362.49 56.63 358.89 56.63C355.29 56.63 352.395 55.805 350.205 54.155C348.015 52.475 346.92 50.075 346.92 46.955C346.92 43.445 348.87 40.595 352.77 38.405C351 36.515 350.115 34.445 350.115 32.195ZM356.73 46.325C356.73 47.165 357 47.825 357.54 48.305C358.11 48.785 358.86 49.025 359.79 49.025C360.72 49.025 361.485 48.845 362.085 48.485L358.125 44.39C357.195 44.84 356.73 45.485 356.73 46.325ZM362.715 32.51C362.715 32.03 362.55 31.64 362.22 31.34C361.92 31.04 361.53 30.89 361.05 30.89C360.6 30.89 360.21 31.055 359.88 31.385C359.55 31.685 359.385 32.135 359.385 32.735C359.385 33.305 359.79 33.965 360.6 34.715C362.01 34.085 362.715 33.35 362.715 32.51ZM412.272 56H403.692C402.932 56 402.292 55.78 401.772 55.34C401.292 54.86 401.012 54.32 400.932 53.72L395.412 15.5V15.32C395.412 14.96 395.532 14.66 395.772 14.42C396.052 14.14 396.372 14 396.732 14H407.892C409.212 14 409.932 14.54 410.052 15.62L412.092 32.54L414.552 25.04C414.952 23.88 415.632 23.3 416.592 23.3H422.712C423.672 23.3 424.352 23.88 424.752 25.04L427.212 32.48L429.252 15.62C429.372 14.54 430.092 14 431.412 14H442.572C442.932 14 443.232 14.14 443.472 14.42C443.752 14.66 443.892 14.96 443.892 15.32V15.5L438.372 53.72C438.292 54.32 437.992 54.86 437.472 55.34C436.992 55.78 436.372 56 435.612 56H427.032C425.792 56 424.972 55.46 424.572 54.38L419.652 42.08L414.732 54.38C414.332 55.46 413.512 56 412.272 56ZM460.688 44.3H479.168C479.608 44.3 479.988 44.46 480.308 44.78C480.628 45.1 480.788 45.48 480.788 45.92V54.38C480.788 54.82 480.628 55.2 480.308 55.52C479.988 55.84 479.608 56 479.168 56H447.908C447.468 56 447.088 55.84 446.768 55.52C446.448 55.2 446.288 54.82 446.288 54.38V15.62C446.288 15.18 446.448 14.8 446.768 14.48C447.088 14.16 447.468 14 447.908 14H478.688C479.128 14 479.508 14.16 479.828 14.48C480.148 14.8 480.308 15.18 480.308 15.62V24.08C480.308 24.52 480.148 24.9 479.828 25.22C479.508 25.54 479.128 25.7 478.688 25.7H460.688V29.48H477.368C477.808 29.48 478.188 29.64 478.508 29.96C478.828 30.28 478.988 30.66 478.988 31.1V38.9C478.988 39.34 478.828 39.72 478.508 40.04C478.188 40.36 477.808 40.52 477.368 40.52H460.688V44.3ZM506.246 29C506.686 28.48 506.906 27.86 506.906 27.14C506.906 26.42 506.686 25.78 506.246 25.22C505.846 24.62 505.246 24.32 504.446 24.32H499.406V29.78H504.446C505.246 29.78 505.846 29.52 506.246 29ZM499.406 39.8V45.68H504.986C505.906 45.68 506.586 45.38 507.026 44.78C507.506 44.14 507.746 43.44 507.746 42.68V42.62C507.746 41.86 507.486 41.2 506.966 40.64C506.486 40.08 505.826 39.8 504.986 39.8H499.406ZM506.546 56H486.026C485.586 56 485.206 55.84 484.886 55.52C484.566 55.2 484.406 54.82 484.406 54.38V15.62C484.406 15.18 484.566 14.8 484.886 14.48C485.206 14.16 485.586 14 486.026 14H505.946C511.626 14 515.806 15.04 518.486 17.12C521.206 19.16 522.566 22.26 522.566 26.42V26.6C522.566 28.32 522.066 29.86 521.066 31.22C520.066 32.54 518.966 33.5 517.766 34.1C519.366 34.74 520.706 35.88 521.786 37.52C522.906 39.12 523.466 40.88 523.466 42.8C523.466 51.6 517.826 56 506.546 56ZM538.88 27.2C538.88 23.12 540.56 19.8 543.92 17.24C547.32 14.68 551.76 13.4 557.24 13.4C562.76 13.4 567.26 14.74 570.74 17.42C574.26 20.1 576.02 22.9 576.02 25.82C576.02 26.18 575.88 26.5 575.6 26.78C575.36 27.02 575.08 27.14 574.76 27.14H562.76C561.84 27.14 561 26.8 560.24 26.12C559.48 25.44 558.46 25.1 557.18 25.1C555.26 25.1 554.3 25.66 554.3 26.78C554.3 27.38 554.76 27.88 555.68 28.28C556.64 28.68 558.4 29.04 560.96 29.36C566.92 30.12 571.16 31.52 573.68 33.56C576.24 35.56 577.52 38.62 577.52 42.74C577.52 46.82 575.64 50.16 571.88 52.76C568.16 55.32 563.28 56.6 557.24 56.6C551.2 56.6 546.46 55.36 543.02 52.88C539.58 50.4 537.86 47.38 537.86 43.82C537.86 43.46 537.98 43.16 538.22 42.92C538.5 42.64 538.82 42.5 539.18 42.5H550.58C551.42 42.5 552.34 42.9 553.34 43.7C554.38 44.5 555.8 44.9 557.6 44.9C560.6 44.9 562.1 44.34 562.1 43.22C562.1 42.5 561.56 41.96 560.48 41.6C559.4 41.2 557.36 40.8 554.36 40.4C544.04 39.04 538.88 34.64 538.88 27.2ZM579.122 14H614.282C614.722 14 615.102 14.16 615.422 14.48C615.742 14.8 615.902 15.18 615.902 15.62V25.28C615.902 25.72 615.742 26.1 615.422 26.42C615.102 26.74 614.722 26.9 614.282 26.9H604.322V54.38C604.322 54.82 604.162 55.2 603.842 55.52C603.522 55.84 603.142 56 602.702 56H590.702C590.262 56 589.882 55.84 589.562 55.52C589.242 55.2 589.082 54.82 589.082 54.38V26.9H579.122C578.682 26.9 578.302 26.74 577.982 26.42C577.662 26.1 577.502 25.72 577.502 25.28V15.62C577.502 15.18 577.662 14.8 577.982 14.48C578.302 14.16 578.682 14 579.122 14ZM642.914 14H654.674C655.114 14 655.494 14.16 655.814 14.48C656.134 14.8 656.294 15.18 656.294 15.62V39.74C656.294 45.34 654.554 49.56 651.074 52.4C647.594 55.2 642.854 56.6 636.854 56.6C630.894 56.6 626.154 55.2 622.634 52.4C619.154 49.6 617.414 45.38 617.414 39.74V15.62C617.414 15.18 617.574 14.8 617.894 14.48C618.214 14.16 618.594 14 619.034 14H630.794C631.234 14 631.614 14.16 631.934 14.48C632.254 14.8 632.414 15.18 632.414 15.62V39.92C632.414 43 633.894 44.54 636.854 44.54C639.814 44.54 641.294 43 641.294 39.92V15.62C641.294 15.18 641.454 14.8 641.774 14.48C642.094 14.16 642.474 14 642.914 14ZM661.503 14H691.743C692.183 14 692.563 14.16 692.883 14.48C693.203 14.8 693.363 15.18 693.363 15.62V24.74C693.363 25.18 693.203 25.56 692.883 25.88C692.563 26.2 692.183 26.36 691.743 26.36H674.583V30.8H690.543C690.983 30.8 691.363 30.96 691.683 31.28C692.003 31.6 692.163 31.98 692.163 32.42V41.48C692.163 41.92 692.003 42.3 691.683 42.62C691.363 42.94 690.983 43.1 690.543 43.1H674.583V54.38C674.583 54.82 674.423 55.2 674.103 55.52C673.783 55.84 673.403 56 672.963 56H661.503C661.063 56 660.683 55.84 660.363 55.52C660.043 55.2 659.883 54.82 659.883 54.38V15.62C659.883 15.18 660.043 14.8 660.363 14.48C660.683 14.16 661.063 14 661.503 14ZM697.688 14H727.928C728.368 14 728.748 14.16 729.068 14.48C729.388 14.8 729.548 15.18 729.548 15.62V24.74C729.548 25.18 729.388 25.56 729.068 25.88C728.748 26.2 728.368 26.36 727.928 26.36H710.768V30.8H726.728C727.168 30.8 727.548 30.96 727.868 31.28C728.188 31.6 728.348 31.98 728.348 32.42V41.48C728.348 41.92 728.188 42.3 727.868 42.62C727.548 42.94 727.168 43.1 726.728 43.1H710.768V54.38C710.768 54.82 710.608 55.2 710.288 55.52C709.968 55.84 709.588 56 709.148 56H697.688C697.248 56 696.868 55.84 696.548 55.52C696.228 55.2 696.068 54.82 696.068 54.38V15.62C696.068 15.18 696.228 14.8 696.548 14.48C696.868 14.16 697.248 14 697.688 14Z" fill="#F8EBD8"/>
</svg>
