<svg width="732" height="93" viewBox="0 0 732 93" fill="none" xmlns="http://www.w3.org/2000/svg">
<path d="M18.3 29.96V40.04C18.3 43.28 19.78 44.9 22.74 44.9C25.02 44.9 26.52 43.82 27.24 41.66C27.44 40.98 27.68 40.52 27.96 40.28C28.28 40.04 28.78 39.92 29.46 39.92H41.7C42.06 39.92 42.36 40.06 42.6 40.34C42.88 40.58 43.02 40.88 43.02 41.24C43.02 44.72 42.02 47.64 40.02 50C36.34 54.4 30.6 56.6 22.8 56.6C16.68 56.6 11.8 55.26 8.16 52.58C4.52 49.86 2.7 45.7 2.7 40.1V29.9C2.7 24.42 4.56 20.3 8.28 17.54C12 14.78 16.84 13.4 22.8 13.4C30.6 13.4 36.34 15.6 40.02 20C42.02 22.36 43.02 25.28 43.02 28.76C43.02 29.12 42.88 29.44 42.6 29.72C42.36 29.96 42.06 30.08 41.7 30.08H29.46C28.82 30.08 28.34 29.96 28.02 29.72C27.74 29.48 27.48 29.02 27.24 28.34C26.48 26.18 24.98 25.1 22.74 25.1C19.78 25.1 18.3 26.72 18.3 29.96ZM49.3842 17.84C53.0642 14.88 57.9242 13.4 63.9642 13.4C70.0042 13.4 74.8442 14.9 78.4842 17.9C82.1642 20.86 84.0042 25.04 84.0042 30.44V39.8C84.0042 45.28 82.1842 49.46 78.5442 52.34C74.9442 55.18 70.0842 56.6 63.9642 56.6C57.8442 56.6 52.9642 55.18 49.3242 52.34C45.7242 49.46 43.9242 45.28 43.9242 39.8V30.44C43.9242 25 45.7442 20.8 49.3842 17.84ZM60.7242 43.7C61.5242 44.5 62.6042 44.9 63.9642 44.9C65.3242 44.9 66.4042 44.5 67.2042 43.7C68.0042 42.9 68.4042 41.68 68.4042 40.04V29.96C68.4042 28.36 68.0042 27.16 67.2042 26.36C66.4042 25.52 65.3242 25.1 63.9642 25.1C62.6042 25.1 61.5242 25.52 60.7242 26.36C59.9242 27.16 59.5242 28.36 59.5242 29.96V40.04C59.5242 41.68 59.9242 42.9 60.7242 43.7ZM120.653 14H130.133C130.573 14 130.953 14.16 131.273 14.48C131.593 14.8 131.753 15.18 131.753 15.62V54.38C131.753 54.82 131.593 55.2 131.273 55.52C130.953 55.84 130.573 56 130.133 56H119.273C118.833 56 118.453 55.84 118.133 55.52C117.813 55.2 117.653 54.82 117.653 54.38V37.94L113.693 44.42C113.053 45.42 112.313 45.92 111.473 45.92H107.273C106.433 45.92 105.693 45.42 105.053 44.42L101.093 37.94V54.38C101.093 54.82 100.933 55.2 100.613 55.52C100.293 55.84 99.913 56 99.473 56H88.613C88.173 56 87.793 55.84 87.473 55.52C87.153 55.2 86.993 54.82 86.993 54.38V15.62C86.993 15.18 87.153 14.8 87.473 14.48C87.793 14.16 88.173 14 88.613 14H98.093C99.213 14 100.073 14.54 100.673 15.62L109.373 30.02L118.073 15.62C118.673 14.54 119.533 14 120.653 14ZM137.572 14H155.452C161.212 14 165.712 15.24 168.952 17.72C172.192 20.2 173.812 23.86 173.812 28.7C173.812 33.54 172.192 37.12 168.952 39.44C165.752 41.76 161.252 42.92 155.452 42.92H151.552V54.38C151.552 54.82 151.392 55.2 151.072 55.52C150.752 55.84 150.372 56 149.932 56H137.572C137.132 56 136.752 55.84 136.432 55.52C136.112 55.2 135.952 54.82 135.952 54.38V15.62C135.952 15.18 136.112 14.8 136.432 14.48C136.752 14.16 137.132 14 137.572 14ZM151.252 25.16V31.82H155.452C156.172 31.82 156.812 31.56 157.372 31.04C157.932 30.48 158.212 29.7 158.212 28.7C158.212 27.7 157.992 26.86 157.552 26.18C157.112 25.5 156.412 25.16 155.452 25.16H151.252ZM200.787 14H212.547C212.987 14 213.367 14.16 213.687 14.48C214.007 14.8 214.167 15.18 214.167 15.62V39.74C214.167 45.34 212.427 49.56 208.947 52.4C205.467 55.2 200.727 56.6 194.727 56.6C188.767 56.6 184.027 55.2 180.507 52.4C177.027 49.6 175.287 45.38 175.287 39.74V15.62C175.287 15.18 175.447 14.8 175.767 14.48C176.087 14.16 176.467 14 176.907 14H188.667C189.107 14 189.487 14.16 189.807 14.48C190.127 14.8 190.287 15.18 190.287 15.62V39.92C190.287 43 191.767 44.54 194.727 44.54C197.687 44.54 199.167 43 199.167 39.92V15.62C199.167 15.18 199.327 14.8 199.647 14.48C199.967 14.16 200.347 14 200.787 14ZM217.275 14H252.435C252.875 14 253.255 14.16 253.575 14.48C253.895 14.8 254.055 15.18 254.055 15.62V25.28C254.055 25.72 253.895 26.1 253.575 26.42C253.255 26.74 252.875 26.9 252.435 26.9H242.475V54.38C242.475 54.82 242.315 55.2 241.995 55.52C241.675 55.84 241.295 56 240.855 56H228.855C228.415 56 228.035 55.84 227.715 55.52C227.395 55.2 227.235 54.82 227.235 54.38V26.9H217.275C216.835 26.9 216.455 26.74 216.135 26.42C215.815 26.1 215.655 25.72 215.655 25.28V15.62C215.655 15.18 215.815 14.8 216.135 14.48C216.455 14.16 216.835 14 217.275 14ZM270.567 44.3H289.047C289.487 44.3 289.867 44.46 290.187 44.78C290.507 45.1 290.667 45.48 290.667 45.92V54.38C290.667 54.82 290.507 55.2 290.187 55.52C289.867 55.84 289.487 56 289.047 56H257.787C257.347 56 256.967 55.84 256.647 55.52C256.327 55.2 256.167 54.82 256.167 54.38V15.62C256.167 15.18 256.327 14.8 256.647 14.48C256.967 14.16 257.347 14 257.787 14H288.567C289.007 14 289.387 14.16 289.707 14.48C290.027 14.8 290.187 15.18 290.187 15.62V24.08C290.187 24.52 290.027 24.9 289.707 25.22C289.387 25.54 289.007 25.7 288.567 25.7H270.567V29.48H287.247C287.687 29.48 288.067 29.64 288.387 29.96C288.707 30.28 288.867 30.66 288.867 31.1V38.9C288.867 39.34 288.707 39.72 288.387 40.04C288.067 40.36 287.687 40.52 287.247 40.52H270.567V44.3ZM332.926 54.02C333.046 54.26 333.106 54.52 333.106 54.8C333.106 55.08 332.966 55.36 332.686 55.64C332.446 55.88 332.146 56 331.786 56H319.486C318.246 56 317.386 55.46 316.906 54.38L311.746 42.92H309.286V54.38C309.286 54.82 309.126 55.2 308.806 55.52C308.486 55.84 308.106 56 307.666 56H295.906C295.466 56 295.086 55.84 294.766 55.52C294.446 55.2 294.286 54.82 294.286 54.38V15.62C294.286 15.18 294.446 14.8 294.766 14.48C295.086 14.16 295.466 14 295.906 14H313.666C319.426 14 323.926 15.3 327.166 17.9C330.406 20.46 332.026 24.16 332.026 29C332.026 33.8 329.866 37.58 325.546 40.34L332.926 54.02ZM309.286 25.16V31.52H313.666C314.546 31.52 315.226 31.24 315.706 30.68C316.186 30.08 316.426 29.34 316.426 28.46C316.426 27.58 316.186 26.82 315.706 26.18C315.266 25.5 314.586 25.16 313.666 25.16H309.286ZM350.115 32.195C350.115 29.945 351.03 28.025 352.86 26.435C354.72 24.815 357.36 24.005 360.78 24.005C364.23 24.005 366.855 24.815 368.655 26.435C370.455 28.025 371.355 29.93 371.355 32.15C371.355 33.8 370.875 35.27 369.915 36.56C368.985 37.82 367.545 39.02 365.595 40.16L368.97 43.67C369.72 42.89 370.455 41.66 371.175 39.98C371.295 39.68 371.595 39.53 372.075 39.53H378.87C379.11 39.53 379.305 39.605 379.455 39.755C379.605 39.905 379.68 40.1 379.68 40.34C379.68 41.21 379.065 42.575 377.835 44.435C376.635 46.295 375.465 47.825 374.325 49.025L379.68 54.605C379.86 54.785 379.95 54.995 379.95 55.235C379.95 55.445 379.86 55.625 379.68 55.775C379.53 55.925 379.35 56 379.14 56H369.96C369.6 56 369.225 55.85 368.835 55.55L367.62 54.47C365.4 55.91 362.49 56.63 358.89 56.63C355.29 56.63 352.395 55.805 350.205 54.155C348.015 52.475 346.92 50.075 346.92 46.955C346.92 43.445 348.87 40.595 352.77 38.405C351 36.515 350.115 34.445 350.115 32.195ZM356.73 46.325C356.73 47.165 357 47.825 357.54 48.305C358.11 48.785 358.86 49.025 359.79 49.025C360.72 49.025 361.485 48.845 362.085 48.485L358.125 44.39C357.195 44.84 356.73 45.485 356.73 46.325ZM362.715 32.51C362.715 32.03 362.55 31.64 362.22 31.34C361.92 31.04 361.53 30.89 361.05 30.89C360.6 30.89 360.21 31.055 359.88 31.385C359.55 31.685 359.385 32.135 359.385 32.735C359.385 33.305 359.79 33.965 360.6 34.715C362.01 34.085 362.715 33.35 362.715 32.51ZM412.272 56H403.692C402.932 56 402.292 55.78 401.772 55.34C401.292 54.86 401.012 54.32 400.932 53.72L395.412 15.5V15.32C395.412 14.96 395.532 14.66 395.772 14.42C396.052 14.14 396.372 14 396.732 14H407.892C409.212 14 409.932 14.54 410.052 15.62L412.092 32.54L414.552 25.04C414.952 23.88 415.632 23.3 416.592 23.3H422.712C423.672 23.3 424.352 23.88 424.752 25.04L427.212 32.48L429.252 15.62C429.372 14.54 430.092 14 431.412 14H442.572C442.932 14 443.232 14.14 443.472 14.42C443.752 14.66 443.892 14.96 443.892 15.32V15.5L438.372 53.72C438.292 54.32 437.992 54.86 437.472 55.34C436.992 55.78 436.372 56 435.612 56H427.032C425.792 56 424.972 55.46 424.572 54.38L419.652 42.08L414.732 54.38C414.332 55.46 413.512 56 412.272 56ZM460.688 44.3H479.168C479.608 44.3 479.988 44.46 480.308 44.78C480.628 45.1 480.788 45.48 480.788 45.92V54.38C480.788 54.82 480.628 55.2 480.308 55.52C479.988 55.84 479.608 56 479.168 56H447.908C447.468 56 447.088 55.84 446.768 55.52C446.448 55.2 446.288 54.82 446.288 54.38V15.62C446.288 15.18 446.448 14.8 446.768 14.48C447.088 14.16 447.468 14 447.908 14H478.688C479.128 14 479.508 14.16 479.828 14.48C480.148 14.8 480.308 15.18 480.308 15.62V24.08C480.308 24.52 480.148 24.9 479.828 25.22C479.508 25.54 479.128 25.7 478.688 25.7H460.688V29.48H477.368C477.808 29.48 478.188 29.64 478.508 29.96C478.828 30.28 478.988 30.66 478.988 31.1V38.9C478.988 39.34 478.828 39.72 478.508 40.04C478.188 40.36 477.808 40.52 477.368 40.52H460.688V44.3ZM506.246 29C506.686 28.48 506.906 27.86 506.906 27.14C506.906 26.42 506.686 25.78 506.246 25.22C505.846 24.62 505.246 24.32 504.446 24.32H499.406V29.78H504.446C505.246 29.78 505.846 29.52 506.246 29ZM499.406 39.8V45.68H504.986C505.906 45.68 506.586 45.38 507.026 44.78C507.506 44.14 507.746 43.44 507.746 42.68V42.62C507.746 41.86 507.486 41.2 506.966 40.64C506.486 40.08 505.826 39.8 504.986 39.8H499.406ZM506.546 56H486.026C485.586 56 485.206 55.84 484.886 55.52C484.566 55.2 484.406 54.82 484.406 54.38V15.62C484.406 15.18 484.566 14.8 484.886 14.48C485.206 14.16 485.586 14 486.026 14H505.946C511.626 14 515.806 15.04 518.486 17.12C521.206 19.16 522.566 22.26 522.566 26.42V26.6C522.566 28.32 522.066 29.86 521.066 31.22C520.066 32.54 518.966 33.5 517.766 34.1C519.366 34.74 520.706 35.88 521.786 37.52C522.906 39.12 523.466 40.88 523.466 42.8C523.466 51.6 517.826 56 506.546 56ZM538.88 27.2C538.88 23.12 540.56 19.8 543.92 17.24C547.32 14.68 551.76 13.4 557.24 13.4C562.76 13.4 567.26 14.74 570.74 17.42C574.26 20.1 576.02 22.9 576.02 25.82C576.02 26.18 575.88 26.5 575.6 26.78C575.36 27.02 575.08 27.14 574.76 27.14H562.76C561.84 27.14 561 26.8 560.24 26.12C559.48 25.44 558.46 25.1 557.18 25.1C555.26 25.1 554.3 25.66 554.3 26.78C554.3 27.38 554.76 27.88 555.68 28.28C556.64 28.68 558.4 29.04 560.96 29.36C566.92 30.12 571.16 31.52 573.68 33.56C576.24 35.56 577.52 38.62 577.52 42.74C577.52 46.82 575.64 50.16 571.88 52.76C568.16 55.32 563.28 56.6 557.24 56.6C551.2 56.6 546.46 55.36 543.02 52.88C539.58 50.4 537.86 47.38 537.86 43.82C537.86 43.46 537.98 43.16 538.22 42.92C538.5 42.64 538.82 42.5 539.18 42.5H550.58C551.42 42.5 552.34 42.9 553.34 43.7C554.38 44.5 555.8 44.9 557.6 44.9C560.6 44.9 562.1 44.34 562.1 43.22C562.1 42.5 561.56 41.96 560.48 41.6C559.4 41.2 557.36 40.8 554.36 40.4C544.04 39.04 538.88 34.64 538.88 27.2ZM579.122 14H614.282C614.722 14 615.102 14.16 615.422 14.48C615.742 14.8 615.902 15.18 615.902 15.62V25.28C615.902 25.72 615.742 26.1 615.422 26.42C615.102 26.74 614.722 26.9 614.282 26.9H604.322V54.38C604.322 54.82 604.162 55.2 603.842 55.52C603.522 55.84 603.142 56 602.702 56H590.702C590.262 56 589.882 55.84 589.562 55.52C589.242 55.2 589.082 54.82 589.082 54.38V26.9H579.122C578.682 26.9 578.302 26.74 577.982 26.42C577.662 26.1 577.502 25.72 577.502 25.28V15.62C577.502 15.18 577.662 14.8 577.982 14.48C578.302 14.16 578.682 14 579.122 14ZM642.914 14H654.674C655.114 14 655.494 14.16 655.814 14.48C656.134 14.8 656.294 15.18 656.294 15.62V39.74C656.294 45.34 654.554 49.56 651.074 52.4C647.594 55.2 642.854 56.6 636.854 56.6C630.894 56.6 626.154 55.2 622.634 52.4C619.154 49.6 617.414 45.38 617.414 39.74V15.62C617.414 15.18 617.574 14.8 617.894 14.48C618.214 14.16 618.594 14 619.034 14H630.794C631.234 14 631.614 14.16 631.934 14.48C632.254 14.8 632.414 15.18 632.414 15.62V39.92C632.414 43 633.894 44.54 636.854 44.54C639.814 44.54 641.294 43 641.294 39.92V15.62C641.294 15.18 641.454 14.8 641.774 14.48C642.094 14.16 642.474 14 642.914 14ZM661.503 14H691.743C692.183 14 692.563 14.16 692.883 14.48C693.203 14.8 693.363 15.18 693.363 15.62V24.74C693.363 25.18 693.203 25.56 692.883 25.88C692.563 26.2 692.183 26.36 691.743 26.36H674.583V30.8H690.543C690.983 30.8 691.363 30.96 691.683 31.28C692.003 31.6 692.163 31.98 692.163 32.42V41.48C692.163 41.92 692.003 42.3 691.683 42.62C691.363 42.94 690.983 43.1 690.543 43.1H674.583V54.38C674.583 54.82 674.423 55.2 674.103 55.52C673.783 55.84 673.403 56 672.963 56H661.503C661.063 56 660.683 55.84 660.363 55.52C660.043 55.2 659.883 54.82 659.883 54.38V15.62C659.883 15.18 660.043 14.8 660.363 14.48C660.683 14.16 661.063 14 661.503 14ZM697.688 14H727.928C728.368 14 728.748 14.16 729.068 14.48C729.388 14.8 729.548 15.18 729.548 15.62V24.74C729.548 25.18 729.388 25.56 729.068 25.88C728.748 26.2 728.368 26.36 727.928 26.36H710.768V30.8H726.728C727.168 30.8 727.548 30.96 727.868 31.28C728.188 31.6 728.348 31.98 728.348 32.42V41.48C728.348 41.92 728.188 42.3 727.868 42.62C727.548 42.94 727.168 43.1 726.728 43.1H710.768V54.38C710.768 54.82 710.608 55.2 710.288 55.52C709.968 55.84 709.588 56 709.148 56H697.688C697.248 56 696.868 55.84 696.548 55.52C696.228 55.2 696.068 54.82 696.068 54.38V15.62C696.068 15.18 696.228 14.8 696.548 14.48C696.868 14.16 697.248 14 697.688 14Z" fill="#FF6565"/>
<path d="M662.382 87.676C662.838 87.676 663.228 87.58 663.552 87.388C663.888 87.196 664.146 86.956 664.326 86.668C664.518 86.38 664.668 86.014 664.776 85.57C664.932 84.862 665.01 83.968 665.01 82.888C665.01 81.808 664.824 80.986 664.452 80.422C664.08 79.858 663.558 79.576 662.886 79.576C662.214 79.576 661.596 79.864 661.032 80.44C660.48 81.004 660.204 81.526 660.204 82.006L660.24 87.01C660.816 87.454 661.53 87.676 662.382 87.676ZM660.222 74.212L660.204 78.064C660.204 79.288 660.174 80.158 660.114 80.674H660.276C660.6 80.146 661.05 79.738 661.626 79.45C662.202 79.162 662.82 79.018 663.48 79.018C664.476 79.018 665.31 79.366 665.982 80.062C666.654 80.746 666.99 81.838 666.99 83.338C666.99 84.826 666.588 86.014 665.784 86.902C664.98 87.778 663.834 88.216 662.346 88.216C662.01 88.216 661.62 88.162 661.176 88.054C660.744 87.946 660.39 87.802 660.114 87.622L658.458 88.198V75.076L656.874 75.004L656.856 74.59L660.222 74.212ZM670.928 91.672C670.688 91.948 670.382 92.194 670.01 92.41C669.638 92.638 669.26 92.752 668.875 92.752C668.503 92.752 668.21 92.65 667.994 92.446C667.79 92.254 667.688 91.99 667.688 91.654C667.688 91.33 667.838 91 668.138 90.664C668.474 91.048 668.852 91.24 669.272 91.24C669.872 91.24 670.388 90.976 670.82 90.448C671.252 89.932 671.672 89.116 672.08 88L668.624 79.792L667.706 79.684V79.216H671.54V79.684L670.298 79.792L672.872 86.074L675.086 80.026L673.646 79.684V79.216H677.102V79.684L675.842 80.026L672.8 88C672.584 88.552 672.416 88.978 672.296 89.278C672.176 89.578 671.978 89.98 671.702 90.484C671.438 91 671.18 91.396 670.928 91.672ZM694.218 81.952C694.218 83.752 693.672 85.246 692.58 86.434C691.488 87.61 690.024 88.198 688.188 88.198C686.352 88.198 684.882 87.61 683.778 86.434C682.686 85.246 682.14 83.752 682.14 81.952C682.14 80.152 682.686 78.664 683.778 77.488C684.882 76.3 686.352 75.706 688.188 75.706C690.024 75.706 691.488 76.3 692.58 77.488C693.672 78.664 694.218 80.152 694.218 81.952ZM688.206 87.64C690.75 87.64 692.022 85.744 692.022 81.952C692.022 80.128 691.728 78.724 691.14 77.74C690.564 76.756 689.58 76.264 688.188 76.264C686.796 76.264 685.806 76.756 685.218 77.74C684.63 78.712 684.336 80.116 684.336 81.952C684.336 85.744 685.626 87.64 688.206 87.64ZM707.817 79.09C709.737 79.09 710.697 80.014 710.697 81.862C710.697 83.194 710.655 85.066 710.571 87.478L711.849 87.568V88H707.835V87.568L708.807 87.496C708.891 84.328 708.933 82.408 708.933 81.736C708.933 81.052 708.807 80.542 708.555 80.206C708.303 79.87 707.895 79.702 707.331 79.702C706.767 79.702 706.245 79.942 705.765 80.422C705.285 80.89 704.961 81.394 704.793 81.934C704.793 83.23 704.751 85.078 704.667 87.478L705.945 87.568V88H701.931V87.568L702.903 87.496C702.987 84.328 703.029 82.408 703.029 81.736C703.029 81.052 702.903 80.542 702.651 80.206C702.399 79.87 701.961 79.702 701.337 79.702C700.725 79.702 700.149 80.032 699.609 80.692C699.069 81.34 698.799 81.916 698.799 82.42V87.478L700.149 87.568V88H695.865V87.568L697.035 87.496V79.864L695.505 79.792V79.378L698.727 79.162L698.637 81.016H698.817C699.141 80.38 699.573 79.9 700.113 79.576C700.665 79.252 701.265 79.09 701.913 79.09C703.533 79.09 704.469 79.738 704.721 81.034V81.016C705.045 80.38 705.477 79.9 706.017 79.576C706.569 79.252 707.169 79.09 707.817 79.09ZM714.732 86.056C714.732 86.836 715.05 87.298 715.686 87.442C715.83 87.478 715.968 87.496 716.1 87.496C716.556 87.496 717.03 87.304 717.522 86.92C718.014 86.524 718.272 85.996 718.296 85.336V83.788C715.92 83.812 714.732 84.568 714.732 86.056ZM715.452 88.216C714.768 88.216 714.18 88.03 713.688 87.658C713.208 87.274 712.968 86.74 712.968 86.056C712.98 85.132 713.442 84.442 714.354 83.986C715.278 83.53 716.592 83.302 718.296 83.302V81.754C718.296 80.23 717.744 79.468 716.64 79.468C716.076 79.468 715.62 79.702 715.272 80.17C715.032 80.494 714.912 80.896 714.912 81.376C714.912 81.58 714.936 81.796 714.984 82.024C714.816 82.144 714.642 82.204 714.462 82.204C714.294 82.204 714.126 82.168 713.958 82.096C713.574 81.952 713.382 81.676 713.382 81.268C713.382 80.716 713.58 80.26 713.976 79.9C714.624 79.312 715.518 79.018 716.658 79.018C717.798 79.018 718.626 79.264 719.142 79.756C719.658 80.236 719.916 80.998 719.916 82.042V87.496L721.428 87.568L721.446 87.982L718.44 88.198L718.278 86.596C717.726 87.676 716.784 88.216 715.452 88.216ZM727.795 79C728.107 79 728.353 79.078 728.533 79.234C728.713 79.378 728.803 79.582 728.803 79.846C728.803 80.302 728.629 80.602 728.281 80.746C728.089 80.59 727.741 80.512 727.237 80.512C726.733 80.512 726.247 80.68 725.779 81.016C725.323 81.34 725.095 81.712 725.095 82.132V87.478L726.715 87.568V88H722.143V87.568L723.331 87.496V79.81L721.909 79.738V79.324L725.095 79.126L724.987 81.34H725.059C725.263 80.692 725.635 80.14 726.175 79.684C726.727 79.228 727.267 79 727.795 79Z" fill="#2B2723"/>
</svg>
