<svg width="566" height="130" viewBox="0 0 566 130" fill="none" xmlns="http://www.w3.org/2000/svg">
<path d="M37.4 40.28V53.72C37.4 58.04 39.3733 60.2 43.32 60.2C46.36 60.2 48.36 58.76 49.32 55.88C49.5867 54.9733 49.9067 54.36 50.28 54.04C50.7067 53.72 51.3733 53.56 52.28 53.56H68.6C69.08 53.56 69.48 53.7467 69.8 54.12C70.1733 54.44 70.36 54.84 70.36 55.32C70.36 59.96 69.0267 63.8533 66.36 67C61.4533 72.8667 53.8 75.8 43.4 75.8C35.24 75.8 28.7333 74.0133 23.88 70.44C19.0267 66.8133 16.6 61.2667 16.6 53.8V40.2C16.6 32.8933 19.08 27.4 24.04 23.72C29 20.04 35.4533 18.2 43.4 18.2C53.8 18.2 61.4533 21.1333 66.36 27C69.0267 30.1467 70.36 34.04 70.36 38.68C70.36 39.16 70.1733 39.5867 69.8 39.96C69.48 40.28 69.08 40.44 68.6 40.44H52.28C51.4267 40.44 50.7867 40.28 50.36 39.96C49.9867 39.64 49.64 39.0267 49.32 38.12C48.3067 35.24 46.3067 33.8 43.32 33.8C39.3733 33.8 37.4 35.96 37.4 40.28ZM78.8456 24.12C83.7523 20.1733 90.2323 18.2 98.2856 18.2C106.339 18.2 112.792 20.2 117.646 24.2C122.552 28.1467 125.006 33.72 125.006 40.92V53.4C125.006 60.7067 122.579 66.28 117.726 70.12C112.926 73.9067 106.446 75.8 98.2856 75.8C90.1256 75.8 83.619 73.9067 78.7656 70.12C73.9656 66.28 71.5656 60.7067 71.5656 53.4V40.92C71.5656 33.6667 73.9923 28.0667 78.8456 24.12ZM93.9656 58.6C95.0323 59.6667 96.4723 60.2 98.2856 60.2C100.099 60.2 101.539 59.6667 102.606 58.6C103.672 57.5333 104.206 55.9067 104.206 53.72V40.28C104.206 38.1467 103.672 36.5467 102.606 35.48C101.539 34.36 100.099 33.8 98.2856 33.8C96.4723 33.8 95.0323 34.36 93.9656 35.48C92.899 36.5467 92.3656 38.1467 92.3656 40.28V53.72C92.3656 55.9067 92.899 57.5333 93.9656 58.6ZM173.871 19H186.511C187.097 19 187.604 19.2133 188.031 19.64C188.457 20.0667 188.671 20.5733 188.671 21.16V72.84C188.671 73.4267 188.457 73.9333 188.031 74.36C187.604 74.7867 187.097 75 186.511 75H172.031C171.444 75 170.937 74.7867 170.511 74.36C170.084 73.9333 169.871 73.4267 169.871 72.84V50.92L164.591 59.56C163.737 60.8933 162.751 61.56 161.631 61.56H156.031C154.911 61.56 153.924 60.8933 153.071 59.56L147.791 50.92V72.84C147.791 73.4267 147.577 73.9333 147.151 74.36C146.724 74.7867 146.217 75 145.631 75H131.151C130.564 75 130.057 74.7867 129.631 74.36C129.204 73.9333 128.991 73.4267 128.991 72.84V21.16C128.991 20.5733 129.204 20.0667 129.631 19.64C130.057 19.2133 130.564 19 131.151 19H143.791C145.284 19 146.431 19.72 147.231 21.16L158.831 40.36L170.431 21.16C171.231 19.72 172.377 19 173.871 19ZM196.429 19H220.269C227.949 19 233.949 20.6533 238.269 23.96C242.589 27.2667 244.749 32.1467 244.749 38.6C244.749 45.0533 242.589 49.8267 238.269 52.92C234.002 56.0133 228.002 57.56 220.269 57.56H215.069V72.84C215.069 73.4267 214.855 73.9333 214.429 74.36C214.002 74.7867 213.495 75 212.909 75H196.429C195.842 75 195.335 74.7867 194.909 74.36C194.482 73.9333 194.269 73.4267 194.269 72.84V21.16C194.269 20.5733 194.482 20.0667 194.909 19.64C195.335 19.2133 195.842 19 196.429 19ZM214.669 33.88V42.76H220.269C221.229 42.76 222.082 42.4133 222.829 41.72C223.575 40.9733 223.949 39.9333 223.949 38.6C223.949 37.2667 223.655 36.1467 223.069 35.24C222.482 34.3333 221.549 33.88 220.269 33.88H214.669ZM280.716 19H296.396C296.982 19 297.489 19.2133 297.916 19.64C298.342 20.0667 298.556 20.5733 298.556 21.16V53.32C298.556 60.7867 296.236 66.4133 291.596 70.2C286.956 73.9333 280.636 75.8 272.636 75.8C264.689 75.8 258.369 73.9333 253.676 70.2C249.036 66.4667 246.716 60.84 246.716 53.32V21.16C246.716 20.5733 246.929 20.0667 247.356 19.64C247.782 19.2133 248.289 19 248.876 19H264.556C265.142 19 265.649 19.2133 266.076 19.64C266.502 20.0667 266.716 20.5733 266.716 21.16V53.56C266.716 57.6667 268.689 59.72 272.636 59.72C276.582 59.72 278.556 57.6667 278.556 53.56V21.16C278.556 20.5733 278.769 20.0667 279.196 19.64C279.622 19.2133 280.129 19 280.716 19ZM302.701 19H349.581C350.167 19 350.674 19.2133 351.101 19.64C351.527 20.0667 351.741 20.5733 351.741 21.16V34.04C351.741 34.6267 351.527 35.1333 351.101 35.56C350.674 35.9867 350.167 36.2 349.581 36.2H336.301V72.84C336.301 73.4267 336.087 73.9333 335.661 74.36C335.234 74.7867 334.727 75 334.141 75H318.141C317.554 75 317.047 74.7867 316.621 74.36C316.194 73.9333 315.981 73.4267 315.981 72.84V36.2H302.701C302.114 36.2 301.607 35.9867 301.181 35.56C300.754 35.1333 300.541 34.6267 300.541 34.04V21.16C300.541 20.5733 300.754 20.0667 301.181 19.64C301.607 19.2133 302.114 19 302.701 19ZM373.756 59.4H398.396C398.983 59.4 399.49 59.6133 399.916 60.04C400.343 60.4667 400.556 60.9733 400.556 61.56V72.84C400.556 73.4267 400.343 73.9333 399.916 74.36C399.49 74.7867 398.983 75 398.396 75H356.716C356.13 75 355.623 74.7867 355.196 74.36C354.77 73.9333 354.556 73.4267 354.556 72.84V21.16C354.556 20.5733 354.77 20.0667 355.196 19.64C355.623 19.2133 356.13 19 356.716 19H397.756C398.343 19 398.85 19.2133 399.276 19.64C399.703 20.0667 399.916 20.5733 399.916 21.16V32.44C399.916 33.0267 399.703 33.5333 399.276 33.96C398.85 34.3867 398.343 34.6 397.756 34.6H373.756V39.64H395.996C396.583 39.64 397.09 39.8533 397.516 40.28C397.943 40.7067 398.156 41.2133 398.156 41.8V52.2C398.156 52.7867 397.943 53.2933 397.516 53.72C397.09 54.1467 396.583 54.36 395.996 54.36H373.756V59.4ZM456.901 72.36C457.061 72.68 457.141 73.0267 457.141 73.4C457.141 73.7733 456.955 74.1467 456.581 74.52C456.261 74.84 455.861 75 455.381 75H438.981C437.328 75 436.181 74.28 435.541 72.84L428.661 57.56H425.381V72.84C425.381 73.4267 425.168 73.9333 424.741 74.36C424.315 74.7867 423.808 75 423.221 75H407.541C406.955 75 406.448 74.7867 406.021 74.36C405.595 73.9333 405.381 73.4267 405.381 72.84V21.16C405.381 20.5733 405.595 20.0667 406.021 19.64C406.448 19.2133 406.955 19 407.541 19H431.221C438.901 19 444.901 20.7333 449.221 24.2C453.541 27.6133 455.701 32.5467 455.701 39C455.701 45.4 452.821 50.44 447.061 54.12L456.901 72.36ZM425.381 33.88V42.36H431.221C432.395 42.36 433.301 41.9867 433.941 41.24C434.581 40.44 434.901 39.4533 434.901 38.28C434.901 37.1067 434.581 36.0933 433.941 35.24C433.355 34.3333 432.448 33.88 431.221 33.88H425.381ZM475.219 43.26C475.219 40.26 476.439 37.7 478.879 35.58C481.359 33.42 484.879 32.34 489.439 32.34C494.039 32.34 497.539 33.42 499.939 35.58C502.339 37.7 503.539 40.24 503.539 43.2C503.539 45.4 502.899 47.36 501.619 49.08C500.379 50.76 498.459 52.36 495.859 53.88L500.359 58.56C501.359 57.52 502.339 55.88 503.299 53.64C503.459 53.24 503.859 53.04 504.499 53.04H513.559C513.879 53.04 514.139 53.14 514.339 53.34C514.539 53.54 514.639 53.8 514.639 54.12C514.639 55.28 513.819 57.1 512.179 59.58C510.579 62.06 509.019 64.1 507.499 65.7L514.639 73.14C514.879 73.38 514.999 73.66 514.999 73.98C514.999 74.26 514.879 74.5 514.639 74.7C514.439 74.9 514.199 75 513.919 75H501.679C501.199 75 500.699 74.8 500.179 74.4L498.559 72.96C495.599 74.88 491.719 75.84 486.919 75.84C482.119 75.84 478.259 74.74 475.339 72.54C472.419 70.3 470.959 67.1 470.959 62.94C470.959 58.26 473.559 54.46 478.759 51.54C476.399 49.02 475.219 46.26 475.219 43.26ZM484.039 62.1C484.039 63.22 484.399 64.1 485.119 64.74C485.879 65.38 486.879 65.7 488.119 65.7C489.359 65.7 490.379 65.46 491.179 64.98L485.899 59.52C484.659 60.12 484.039 60.98 484.039 62.1ZM492.019 43.68C492.019 43.04 491.799 42.52 491.359 42.12C490.959 41.72 490.439 41.52 489.799 41.52C489.199 41.52 488.679 41.74 488.239 42.18C487.799 42.58 487.579 43.18 487.579 43.98C487.579 44.74 488.119 45.62 489.199 46.62C491.079 45.78 492.019 44.8 492.019 43.68Z" fill="#78BEFF"/>
<path d="M24.4 44.28V57.72C24.4 62.04 26.3733 64.2 30.32 64.2C33.36 64.2 35.36 62.76 36.32 59.88C36.5867 58.9733 36.9067 58.36 37.28 58.04C37.7067 57.72 38.3733 57.56 39.28 57.56H55.6C56.08 57.56 56.48 57.7467 56.8 58.12C57.1733 58.44 57.36 58.84 57.36 59.32C57.36 63.96 56.0267 67.8533 53.36 71C48.4533 76.8667 40.8 79.8 30.4 79.8C22.24 79.8 15.7333 78.0133 10.88 74.44C6.02667 70.8133 3.6 65.2667 3.6 57.8V44.2C3.6 36.8933 6.08 31.4 11.04 27.72C16 24.04 22.4533 22.2 30.4 22.2C40.8 22.2 48.4533 25.1333 53.36 31C56.0267 34.1467 57.36 38.04 57.36 42.68C57.36 43.16 57.1733 43.5867 56.8 43.96C56.48 44.28 56.08 44.44 55.6 44.44H39.28C38.4267 44.44 37.7867 44.28 37.36 43.96C36.9867 43.64 36.64 43.0267 36.32 42.12C35.3067 39.24 33.3067 37.8 30.32 37.8C26.3733 37.8 24.4 39.96 24.4 44.28ZM65.8456 28.12C70.7523 24.1733 77.2323 22.2 85.2856 22.2C93.339 22.2 99.7923 24.2 104.646 28.2C109.552 32.1467 112.006 37.72 112.006 44.92V57.4C112.006 64.7067 109.579 70.28 104.726 74.12C99.9256 77.9067 93.4456 79.8 85.2856 79.8C77.1256 79.8 70.619 77.9067 65.7656 74.12C60.9656 70.28 58.5656 64.7067 58.5656 57.4V44.92C58.5656 37.6667 60.9923 32.0667 65.8456 28.12ZM80.9656 62.6C82.0323 63.6667 83.4723 64.2 85.2856 64.2C87.099 64.2 88.539 63.6667 89.6056 62.6C90.6723 61.5333 91.2056 59.9067 91.2056 57.72V44.28C91.2056 42.1467 90.6723 40.5467 89.6056 39.48C88.539 38.36 87.099 37.8 85.2856 37.8C83.4723 37.8 82.0323 38.36 80.9656 39.48C79.899 40.5467 79.3656 42.1467 79.3656 44.28V57.72C79.3656 59.9067 79.899 61.5333 80.9656 62.6ZM160.871 23H173.511C174.097 23 174.604 23.2133 175.031 23.64C175.457 24.0667 175.671 24.5733 175.671 25.16V76.84C175.671 77.4267 175.457 77.9333 175.031 78.36C174.604 78.7867 174.097 79 173.511 79H159.031C158.444 79 157.937 78.7867 157.511 78.36C157.084 77.9333 156.871 77.4267 156.871 76.84V54.92L151.591 63.56C150.737 64.8933 149.751 65.56 148.631 65.56H143.031C141.911 65.56 140.924 64.8933 140.071 63.56L134.791 54.92V76.84C134.791 77.4267 134.577 77.9333 134.151 78.36C133.724 78.7867 133.217 79 132.631 79H118.151C117.564 79 117.057 78.7867 116.631 78.36C116.204 77.9333 115.991 77.4267 115.991 76.84V25.16C115.991 24.5733 116.204 24.0667 116.631 23.64C117.057 23.2133 117.564 23 118.151 23H130.791C132.284 23 133.431 23.72 134.231 25.16L145.831 44.36L157.431 25.16C158.231 23.72 159.377 23 160.871 23ZM183.429 23H207.269C214.949 23 220.949 24.6533 225.269 27.96C229.589 31.2667 231.749 36.1467 231.749 42.6C231.749 49.0533 229.589 53.8267 225.269 56.92C221.002 60.0133 215.002 61.56 207.269 61.56H202.069V76.84C202.069 77.4267 201.855 77.9333 201.429 78.36C201.002 78.7867 200.495 79 199.909 79H183.429C182.842 79 182.335 78.7867 181.909 78.36C181.482 77.9333 181.269 77.4267 181.269 76.84V25.16C181.269 24.5733 181.482 24.0667 181.909 23.64C182.335 23.2133 182.842 23 183.429 23ZM201.669 37.88V46.76H207.269C208.229 46.76 209.082 46.4133 209.829 45.72C210.575 44.9733 210.949 43.9333 210.949 42.6C210.949 41.2667 210.655 40.1467 210.069 39.24C209.482 38.3333 208.549 37.88 207.269 37.88H201.669ZM267.716 23H283.396C283.982 23 284.489 23.2133 284.916 23.64C285.342 24.0667 285.556 24.5733 285.556 25.16V57.32C285.556 64.7867 283.236 70.4133 278.596 74.2C273.956 77.9333 267.636 79.8 259.636 79.8C251.689 79.8 245.369 77.9333 240.676 74.2C236.036 70.4667 233.716 64.84 233.716 57.32V25.16C233.716 24.5733 233.929 24.0667 234.356 23.64C234.782 23.2133 235.289 23 235.876 23H251.556C252.142 23 252.649 23.2133 253.076 23.64C253.502 24.0667 253.716 24.5733 253.716 25.16V57.56C253.716 61.6667 255.689 63.72 259.636 63.72C263.582 63.72 265.556 61.6667 265.556 57.56V25.16C265.556 24.5733 265.769 24.0667 266.196 23.64C266.622 23.2133 267.129 23 267.716 23ZM289.701 23H336.581C337.167 23 337.674 23.2133 338.101 23.64C338.527 24.0667 338.741 24.5733 338.741 25.16V38.04C338.741 38.6267 338.527 39.1333 338.101 39.56C337.674 39.9867 337.167 40.2 336.581 40.2H323.301V76.84C323.301 77.4267 323.087 77.9333 322.661 78.36C322.234 78.7867 321.727 79 321.141 79H305.141C304.554 79 304.047 78.7867 303.621 78.36C303.194 77.9333 302.981 77.4267 302.981 76.84V40.2H289.701C289.114 40.2 288.607 39.9867 288.181 39.56C287.754 39.1333 287.541 38.6267 287.541 38.04V25.16C287.541 24.5733 287.754 24.0667 288.181 23.64C288.607 23.2133 289.114 23 289.701 23ZM360.756 63.4H385.396C385.983 63.4 386.49 63.6133 386.916 64.04C387.343 64.4667 387.556 64.9733 387.556 65.56V76.84C387.556 77.4267 387.343 77.9333 386.916 78.36C386.49 78.7867 385.983 79 385.396 79H343.716C343.13 79 342.623 78.7867 342.196 78.36C341.77 77.9333 341.556 77.4267 341.556 76.84V25.16C341.556 24.5733 341.77 24.0667 342.196 23.64C342.623 23.2133 343.13 23 343.716 23H384.756C385.343 23 385.85 23.2133 386.276 23.64C386.703 24.0667 386.916 24.5733 386.916 25.16V36.44C386.916 37.0267 386.703 37.5333 386.276 37.96C385.85 38.3867 385.343 38.6 384.756 38.6H360.756V43.64H382.996C383.583 43.64 384.09 43.8533 384.516 44.28C384.943 44.7067 385.156 45.2133 385.156 45.8V56.2C385.156 56.7867 384.943 57.2933 384.516 57.72C384.09 58.1467 383.583 58.36 382.996 58.36H360.756V63.4ZM443.901 76.36C444.061 76.68 444.141 77.0267 444.141 77.4C444.141 77.7733 443.955 78.1467 443.581 78.52C443.261 78.84 442.861 79 442.381 79H425.981C424.328 79 423.181 78.28 422.541 76.84L415.661 61.56H412.381V76.84C412.381 77.4267 412.168 77.9333 411.741 78.36C411.315 78.7867 410.808 79 410.221 79H394.541C393.955 79 393.448 78.7867 393.021 78.36C392.595 77.9333 392.381 77.4267 392.381 76.84V25.16C392.381 24.5733 392.595 24.0667 393.021 23.64C393.448 23.2133 393.955 23 394.541 23H418.221C425.901 23 431.901 24.7333 436.221 28.2C440.541 31.6133 442.701 36.5467 442.701 43C442.701 49.4 439.821 54.44 434.061 58.12L443.901 76.36ZM412.381 37.88V46.36H418.221C419.395 46.36 420.301 45.9867 420.941 45.24C421.581 44.44 421.901 43.4533 421.901 42.28C421.901 41.1067 421.581 40.0933 420.941 39.24C420.355 38.3333 419.448 37.88 418.221 37.88H412.381ZM462.219 47.26C462.219 44.26 463.439 41.7 465.879 39.58C468.359 37.42 471.879 36.34 476.439 36.34C481.039 36.34 484.539 37.42 486.939 39.58C489.339 41.7 490.539 44.24 490.539 47.2C490.539 49.4 489.899 51.36 488.619 53.08C487.379 54.76 485.459 56.36 482.859 57.88L487.359 62.56C488.359 61.52 489.339 59.88 490.299 57.64C490.459 57.24 490.859 57.04 491.499 57.04H500.559C500.879 57.04 501.139 57.14 501.339 57.34C501.539 57.54 501.639 57.8 501.639 58.12C501.639 59.28 500.819 61.1 499.179 63.58C497.579 66.06 496.019 68.1 494.499 69.7L501.639 77.14C501.879 77.38 501.999 77.66 501.999 77.98C501.999 78.26 501.879 78.5 501.639 78.7C501.439 78.9 501.199 79 500.919 79H488.679C488.199 79 487.699 78.8 487.179 78.4L485.559 76.96C482.599 78.88 478.719 79.84 473.919 79.84C469.119 79.84 465.259 78.74 462.339 76.54C459.419 74.3 457.959 71.1 457.959 66.94C457.959 62.26 460.559 58.46 465.759 55.54C463.399 53.02 462.219 50.26 462.219 47.26ZM471.039 66.1C471.039 67.22 471.399 68.1 472.119 68.74C472.879 69.38 473.879 69.7 475.119 69.7C476.359 69.7 477.379 69.46 478.179 68.98L472.899 63.52C471.659 64.12 471.039 64.98 471.039 66.1ZM479.019 47.68C479.019 47.04 478.799 46.52 478.359 46.12C477.959 45.72 477.439 45.52 476.799 45.52C476.199 45.52 475.679 45.74 475.239 46.18C474.799 46.58 474.579 47.18 474.579 47.98C474.579 48.74 475.119 49.62 476.199 50.62C478.079 49.78 479.019 48.8 479.019 47.68Z" fill="#FFD439"/>
<path d="M33.4 44.28V57.72C33.4 62.04 35.3733 64.2 39.32 64.2C42.36 64.2 44.36 62.76 45.32 59.88C45.5867 58.9733 45.9067 58.36 46.28 58.04C46.7067 57.72 47.3733 57.56 48.28 57.56H64.6C65.08 57.56 65.48 57.7467 65.8 58.12C66.1733 58.44 66.36 58.84 66.36 59.32C66.36 63.96 65.0267 67.8533 62.36 71C57.4533 76.8667 49.8 79.8 39.4 79.8C31.24 79.8 24.7333 78.0133 19.88 74.44C15.0267 70.8133 12.6 65.2667 12.6 57.8V44.2C12.6 36.8933 15.08 31.4 20.04 27.72C25 24.04 31.4533 22.2 39.4 22.2C49.8 22.2 57.4533 25.1333 62.36 31C65.0267 34.1467 66.36 38.04 66.36 42.68C66.36 43.16 66.1733 43.5867 65.8 43.96C65.48 44.28 65.08 44.44 64.6 44.44H48.28C47.4267 44.44 46.7867 44.28 46.36 43.96C45.9867 43.64 45.64 43.0267 45.32 42.12C44.3067 39.24 42.3067 37.8 39.32 37.8C35.3733 37.8 33.4 39.96 33.4 44.28ZM74.8456 28.12C79.7523 24.1733 86.2323 22.2 94.2856 22.2C102.339 22.2 108.792 24.2 113.646 28.2C118.552 32.1467 121.006 37.72 121.006 44.92V57.4C121.006 64.7067 118.579 70.28 113.726 74.12C108.926 77.9067 102.446 79.8 94.2856 79.8C86.1256 79.8 79.619 77.9067 74.7656 74.12C69.9656 70.28 67.5656 64.7067 67.5656 57.4V44.92C67.5656 37.6667 69.9923 32.0667 74.8456 28.12ZM89.9656 62.6C91.0323 63.6667 92.4723 64.2 94.2856 64.2C96.099 64.2 97.539 63.6667 98.6056 62.6C99.6723 61.5333 100.206 59.9067 100.206 57.72V44.28C100.206 42.1467 99.6723 40.5467 98.6056 39.48C97.539 38.36 96.099 37.8 94.2856 37.8C92.4723 37.8 91.0323 38.36 89.9656 39.48C88.899 40.5467 88.3656 42.1467 88.3656 44.28V57.72C88.3656 59.9067 88.899 61.5333 89.9656 62.6ZM169.871 23H182.511C183.097 23 183.604 23.2133 184.031 23.64C184.457 24.0667 184.671 24.5733 184.671 25.16V76.84C184.671 77.4267 184.457 77.9333 184.031 78.36C183.604 78.7867 183.097 79 182.511 79H168.031C167.444 79 166.937 78.7867 166.511 78.36C166.084 77.9333 165.871 77.4267 165.871 76.84V54.92L160.591 63.56C159.737 64.8933 158.751 65.56 157.631 65.56H152.031C150.911 65.56 149.924 64.8933 149.071 63.56L143.791 54.92V76.84C143.791 77.4267 143.577 77.9333 143.151 78.36C142.724 78.7867 142.217 79 141.631 79H127.151C126.564 79 126.057 78.7867 125.631 78.36C125.204 77.9333 124.991 77.4267 124.991 76.84V25.16C124.991 24.5733 125.204 24.0667 125.631 23.64C126.057 23.2133 126.564 23 127.151 23H139.791C141.284 23 142.431 23.72 143.231 25.16L154.831 44.36L166.431 25.16C167.231 23.72 168.377 23 169.871 23ZM192.429 23H216.269C223.949 23 229.949 24.6533 234.269 27.96C238.589 31.2667 240.749 36.1467 240.749 42.6C240.749 49.0533 238.589 53.8267 234.269 56.92C230.002 60.0133 224.002 61.56 216.269 61.56H211.069V76.84C211.069 77.4267 210.855 77.9333 210.429 78.36C210.002 78.7867 209.495 79 208.909 79H192.429C191.842 79 191.335 78.7867 190.909 78.36C190.482 77.9333 190.269 77.4267 190.269 76.84V25.16C190.269 24.5733 190.482 24.0667 190.909 23.64C191.335 23.2133 191.842 23 192.429 23ZM210.669 37.88V46.76H216.269C217.229 46.76 218.082 46.4133 218.829 45.72C219.575 44.9733 219.949 43.9333 219.949 42.6C219.949 41.2667 219.655 40.1467 219.069 39.24C218.482 38.3333 217.549 37.88 216.269 37.88H210.669ZM276.716 23H292.396C292.982 23 293.489 23.2133 293.916 23.64C294.342 24.0667 294.556 24.5733 294.556 25.16V57.32C294.556 64.7867 292.236 70.4133 287.596 74.2C282.956 77.9333 276.636 79.8 268.636 79.8C260.689 79.8 254.369 77.9333 249.676 74.2C245.036 70.4667 242.716 64.84 242.716 57.32V25.16C242.716 24.5733 242.929 24.0667 243.356 23.64C243.782 23.2133 244.289 23 244.876 23H260.556C261.142 23 261.649 23.2133 262.076 23.64C262.502 24.0667 262.716 24.5733 262.716 25.16V57.56C262.716 61.6667 264.689 63.72 268.636 63.72C272.582 63.72 274.556 61.6667 274.556 57.56V25.16C274.556 24.5733 274.769 24.0667 275.196 23.64C275.622 23.2133 276.129 23 276.716 23ZM298.701 23H345.581C346.167 23 346.674 23.2133 347.101 23.64C347.527 24.0667 347.741 24.5733 347.741 25.16V38.04C347.741 38.6267 347.527 39.1333 347.101 39.56C346.674 39.9867 346.167 40.2 345.581 40.2H332.301V76.84C332.301 77.4267 332.087 77.9333 331.661 78.36C331.234 78.7867 330.727 79 330.141 79H314.141C313.554 79 313.047 78.7867 312.621 78.36C312.194 77.9333 311.981 77.4267 311.981 76.84V40.2H298.701C298.114 40.2 297.607 39.9867 297.181 39.56C296.754 39.1333 296.541 38.6267 296.541 38.04V25.16C296.541 24.5733 296.754 24.0667 297.181 23.64C297.607 23.2133 298.114 23 298.701 23ZM369.756 63.4H394.396C394.983 63.4 395.49 63.6133 395.916 64.04C396.343 64.4667 396.556 64.9733 396.556 65.56V76.84C396.556 77.4267 396.343 77.9333 395.916 78.36C395.49 78.7867 394.983 79 394.396 79H352.716C352.13 79 351.623 78.7867 351.196 78.36C350.77 77.9333 350.556 77.4267 350.556 76.84V25.16C350.556 24.5733 350.77 24.0667 351.196 23.64C351.623 23.2133 352.13 23 352.716 23H393.756C394.343 23 394.85 23.2133 395.276 23.64C395.703 24.0667 395.916 24.5733 395.916 25.16V36.44C395.916 37.0267 395.703 37.5333 395.276 37.96C394.85 38.3867 394.343 38.6 393.756 38.6H369.756V43.64H391.996C392.583 43.64 393.09 43.8533 393.516 44.28C393.943 44.7067 394.156 45.2133 394.156 45.8V56.2C394.156 56.7867 393.943 57.2933 393.516 57.72C393.09 58.1467 392.583 58.36 391.996 58.36H369.756V63.4ZM452.901 76.36C453.061 76.68 453.141 77.0267 453.141 77.4C453.141 77.7733 452.955 78.1467 452.581 78.52C452.261 78.84 451.861 79 451.381 79H434.981C433.328 79 432.181 78.28 431.541 76.84L424.661 61.56H421.381V76.84C421.381 77.4267 421.168 77.9333 420.741 78.36C420.315 78.7867 419.808 79 419.221 79H403.541C402.955 79 402.448 78.7867 402.021 78.36C401.595 77.9333 401.381 77.4267 401.381 76.84V25.16C401.381 24.5733 401.595 24.0667 402.021 23.64C402.448 23.2133 402.955 23 403.541 23H427.221C434.901 23 440.901 24.7333 445.221 28.2C449.541 31.6133 451.701 36.5467 451.701 43C451.701 49.4 448.821 54.44 443.061 58.12L452.901 76.36ZM421.381 37.88V46.36H427.221C428.395 46.36 429.301 45.9867 429.941 45.24C430.581 44.44 430.901 43.4533 430.901 42.28C430.901 41.1067 430.581 40.0933 429.941 39.24C429.355 38.3333 428.448 37.88 427.221 37.88H421.381ZM471.219 47.26C471.219 44.26 472.439 41.7 474.879 39.58C477.359 37.42 480.879 36.34 485.439 36.34C490.039 36.34 493.539 37.42 495.939 39.58C498.339 41.7 499.539 44.24 499.539 47.2C499.539 49.4 498.899 51.36 497.619 53.08C496.379 54.76 494.459 56.36 491.859 57.88L496.359 62.56C497.359 61.52 498.339 59.88 499.299 57.64C499.459 57.24 499.859 57.04 500.499 57.04H509.559C509.879 57.04 510.139 57.14 510.339 57.34C510.539 57.54 510.639 57.8 510.639 58.12C510.639 59.28 509.819 61.1 508.179 63.58C506.579 66.06 505.019 68.1 503.499 69.7L510.639 77.14C510.879 77.38 510.999 77.66 510.999 77.98C510.999 78.26 510.879 78.5 510.639 78.7C510.439 78.9 510.199 79 509.919 79H497.679C497.199 79 496.699 78.8 496.179 78.4L494.559 76.96C491.599 78.88 487.719 79.84 482.919 79.84C478.119 79.84 474.259 78.74 471.339 76.54C468.419 74.3 466.959 71.1 466.959 66.94C466.959 62.26 469.559 58.46 474.759 55.54C472.399 53.02 471.219 50.26 471.219 47.26ZM480.039 66.1C480.039 67.22 480.399 68.1 481.119 68.74C481.879 69.38 482.879 69.7 484.119 69.7C485.359 69.7 486.379 69.46 487.179 68.98L481.899 63.52C480.659 64.12 480.039 64.98 480.039 66.1ZM488.019 47.68C488.019 47.04 487.799 46.52 487.359 46.12C486.959 45.72 486.439 45.52 485.799 45.52C485.199 45.52 484.679 45.74 484.239 46.18C483.799 46.58 483.579 47.18 483.579 47.98C483.579 48.74 484.119 49.62 485.199 50.62C487.079 49.78 488.019 48.8 488.019 47.68Z" fill="#FF6565"/>
<path d="M41.32 57.88L42.2687 58.1962L42.2743 58.1793L42.2794 58.1622L41.32 57.88ZM42.28 56.04L41.68 55.24L41.6539 55.2595L41.6292 55.2807L42.28 56.04ZM61.8 56.12L61.0407 56.7708L61.0908 56.8292L61.1492 56.8793L61.8 56.12ZM58.36 69L57.5971 68.3535L57.5929 68.3584L58.36 69ZM15.88 72.44L15.2814 73.2411L15.2871 73.2453L15.88 72.44ZM16.04 25.72L16.6358 26.5231L16.6358 26.5231L16.04 25.72ZM58.36 29L57.5929 29.6416L57.5971 29.6465L58.36 29ZM61.8 41.96L61.0929 41.2529L61.0929 41.2529L61.8 41.96ZM42.36 41.96L41.7092 42.7193L41.7339 42.7405L41.76 42.76L42.36 41.96ZM41.32 40.12L40.3767 40.4519L40.377 40.4528L41.32 40.12ZM28.4 42.28V55.72H30.4V42.28H28.4ZM28.4 55.72C28.4 58.0129 28.9218 59.9191 30.1417 61.2545C31.3773 62.607 33.1681 63.2 35.32 63.2V61.2C33.5252 61.2 32.356 60.713 31.6183 59.9055C30.8649 59.0809 30.4 57.7471 30.4 55.72H28.4ZM35.32 63.2C37 63.2 38.4778 62.8002 39.6843 61.9315C40.8909 61.0628 41.7379 59.7886 42.2687 58.1962L40.3713 57.5638C39.9421 58.8514 39.3091 59.7372 38.5157 60.3085C37.7222 60.8798 36.68 61.2 35.32 61.2V63.2ZM42.2794 58.1622C42.5337 57.2973 42.7871 56.9224 42.9308 56.7993L41.6292 55.2807C41.0262 55.7976 40.6396 56.6494 40.3606 57.5978L42.2794 58.1622ZM42.88 56.84C43.0493 56.713 43.453 56.56 44.28 56.56V54.56C43.2936 54.56 42.364 54.727 41.68 55.24L42.88 56.84ZM44.28 56.56H60.6V54.56H44.28V56.56ZM60.6 56.56C60.78 56.56 60.9054 56.6129 61.0407 56.7708L62.5593 55.4692C62.0546 54.8804 61.38 54.56 60.6 54.56V56.56ZM61.1492 56.8793C61.3071 57.0146 61.36 57.14 61.36 57.32H63.36C63.36 56.54 63.0396 55.8654 62.4508 55.3607L61.1492 56.8793ZM61.36 57.32C61.36 61.7547 60.0915 65.4101 57.5971 68.3535L59.1229 69.6465C61.9619 66.2965 63.36 62.1653 63.36 57.32H61.36ZM57.5929 68.3584C52.9383 73.9238 45.6164 76.8 35.4 76.8V78.8C45.9836 78.8 53.9684 75.8095 59.1271 69.6416L57.5929 68.3584ZM35.4 76.8C27.3789 76.8 21.1029 75.0436 16.4729 71.6347L15.2871 73.2453C20.3638 76.9831 27.1011 78.8 35.4 78.8V76.8ZM16.4786 71.6389C11.9369 68.2451 9.6 63.033 9.6 55.8H7.6C7.6 63.5003 10.1164 69.3815 15.2814 73.2411L16.4786 71.6389ZM9.6 55.8V42.2H7.6V55.8H9.6ZM9.6 42.2C9.6 35.1443 11.9785 29.9785 16.6358 26.5231L15.4442 24.9169C10.1815 28.8215 7.6 34.6423 7.6 42.2H9.6ZM16.6358 26.5231C21.3797 23.0034 27.6062 21.2 35.4 21.2V19.2C27.3005 19.2 20.6203 21.0766 15.4442 24.9169L16.6358 26.5231ZM35.4 21.2C45.6164 21.2 52.9383 24.0762 57.5929 29.6416L59.1271 28.3584C53.9684 22.1905 45.9836 19.2 35.4 19.2V21.2ZM57.5971 29.6465C60.0915 32.5899 61.36 36.2453 61.36 40.68H63.36C63.36 35.8347 61.9619 31.7035 59.1229 28.3535L57.5971 29.6465ZM61.36 40.68C61.36 40.867 61.2993 41.0465 61.0929 41.2529L62.5071 42.6671C63.0474 42.1268 63.36 41.453 63.36 40.68H61.36ZM61.0929 41.2529C60.9727 41.3731 60.8326 41.44 60.6 41.44V43.44C61.3274 43.44 61.9873 43.1869 62.5071 42.6671L61.0929 41.2529ZM60.6 41.44H44.28V43.44H60.6V41.44ZM44.28 41.44C43.5228 41.44 43.1373 41.293 42.96 41.16L41.76 42.76C42.4361 43.267 43.3305 43.44 44.28 43.44V41.44ZM43.0108 41.2007C42.8463 41.0597 42.5706 40.6588 42.263 39.7872L40.377 40.4528C40.7094 41.3945 41.127 42.2203 41.7092 42.7193L43.0108 41.2007ZM42.2633 39.7881C41.7052 38.2018 40.8461 36.9338 39.6443 36.0685C38.4407 35.2019 36.9777 34.8 35.32 34.8V36.8C36.649 36.8 37.6793 37.1181 38.4757 37.6915C39.2739 38.2662 39.9215 39.1582 40.3767 40.4519L42.2633 39.7881ZM35.32 34.8C33.1681 34.8 31.3773 35.393 30.1417 36.7455C28.9218 38.0809 28.4 39.9871 28.4 42.28H30.4C30.4 40.2529 30.8649 38.9191 31.6183 38.0945C32.356 37.287 33.5252 36.8 35.32 36.8V34.8ZM70.8456 26.12L70.2189 25.3408L70.2147 25.3441L70.8456 26.12ZM109.646 26.2L109.01 26.9717L109.019 26.9792L109.646 26.2ZM109.726 72.12L110.345 72.9051L110.346 72.9042L109.726 72.12ZM70.7656 72.12L70.1409 72.9009L70.1505 72.9084L70.7656 72.12ZM85.9656 60.6L86.6727 59.8929L86.6727 59.8929L85.9656 60.6ZM94.6056 60.6L95.3127 61.3071L95.3127 61.3071L94.6056 60.6ZM94.6056 37.48L93.8815 38.1697L93.8899 38.1785L93.8985 38.1871L94.6056 37.48ZM85.9656 37.48L86.6727 38.1871L86.6814 38.1785L86.6898 38.1697L85.9656 37.48ZM71.4724 26.8992C76.1569 23.1313 82.3957 21.2 90.2856 21.2V19.2C82.0689 19.2 75.3477 21.2154 70.2189 25.3408L71.4724 26.8992ZM90.2856 21.2C98.1732 21.2 104.381 23.1566 109.01 26.9717L110.282 25.4283C105.204 21.2434 98.5047 19.2 90.2856 19.2V21.2ZM109.019 26.9792C113.654 30.7074 116.006 35.9739 116.006 42.92H118.006C118.006 35.4661 115.451 29.586 110.272 25.4208L109.019 26.9792ZM116.006 42.92V55.4H118.006V42.92H116.006ZM116.006 55.4C116.006 62.4628 113.674 67.7207 109.105 71.3358L110.346 72.9042C115.484 68.8393 118.006 62.9505 118.006 55.4H116.006ZM109.106 71.3349C104.534 74.9421 98.296 76.8 90.2856 76.8V78.8C98.5952 78.8 105.317 76.8713 110.345 72.9051L109.106 71.3349ZM90.2856 76.8C82.276 76.8 76.0086 74.9423 71.3808 71.3316L70.1505 72.9084C75.2293 76.871 81.9753 78.8 90.2856 78.8V76.8ZM71.3903 71.3391C66.8733 67.7255 64.5656 62.4668 64.5656 55.4H62.5656C62.5656 62.9466 65.058 68.8345 70.1409 72.9009L71.3903 71.3391ZM64.5656 55.4V42.92H62.5656V55.4H64.5656ZM64.5656 42.92C64.5656 35.9139 66.8955 30.6211 71.4765 26.8959L70.2147 25.3441C65.0891 29.5122 62.5656 35.4194 62.5656 42.92H64.5656ZM85.2585 61.3071C86.5497 62.5983 88.2644 63.2 90.2856 63.2V61.2C88.6802 61.2 87.5149 60.735 86.6727 59.8929L85.2585 61.3071ZM90.2856 63.2C92.3068 63.2 94.0215 62.5983 95.3127 61.3071L93.8985 59.8929C93.0564 60.735 91.8911 61.2 90.2856 61.2V63.2ZM95.3127 61.3071C96.6372 59.9826 97.2056 58.0525 97.2056 55.72H95.2056C95.2056 57.7609 94.7074 59.084 93.8985 59.8929L95.3127 61.3071ZM97.2056 55.72V42.28H95.2056V55.72H97.2056ZM97.2056 42.28C97.2056 39.9925 96.6331 38.0932 95.3127 36.7729L93.8985 38.1871C94.7115 39.0001 95.2056 40.3008 95.2056 42.28H97.2056ZM95.3298 36.7903C94.0417 35.4379 92.3214 34.8 90.2856 34.8V36.8C91.8766 36.8 93.0362 37.2821 93.8815 38.1697L95.3298 36.7903ZM90.2856 34.8C88.2499 34.8 86.5296 35.4379 85.2415 36.7903L86.6898 38.1697C87.535 37.2821 88.6947 36.8 90.2856 36.8V34.8ZM85.2585 36.7729C83.9382 38.0932 83.3656 39.9925 83.3656 42.28H85.3656C85.3656 40.3008 85.8597 39.0001 86.6727 38.1871L85.2585 36.7729ZM83.3656 42.28V55.72H85.3656V42.28H83.3656ZM83.3656 55.72C83.3656 58.0525 83.9341 59.9826 85.2585 61.3071L86.6727 59.8929C85.8639 59.084 85.3656 57.7609 85.3656 55.72H83.3656ZM162.511 76.36L163.218 75.6529L163.218 75.6529L162.511 76.36ZM161.871 52.92H162.871V49.3659L161.017 52.3985L161.871 52.92ZM156.591 61.56L157.433 62.0991L157.438 62.0903L157.444 62.0814L156.591 61.56ZM145.071 61.56L144.217 62.0814L144.223 62.0903L144.228 62.0991L145.071 61.56ZM139.791 52.92L140.644 52.3985L138.791 49.3659V52.92H139.791ZM139.151 76.36L139.858 77.0671L139.858 77.0671L139.151 76.36ZM121.631 76.36L122.338 75.6529L122.338 75.6529L121.631 76.36ZM121.631 21.64L122.338 22.3471L122.338 22.3471L121.631 21.64ZM139.231 23.16L138.356 23.6456L138.365 23.6615L138.375 23.6771L139.231 23.16ZM150.831 42.36L149.975 42.8771L150.831 44.2938L151.687 42.8771L150.831 42.36ZM162.431 23.16L163.287 23.6771L163.296 23.6615L163.305 23.6456L162.431 23.16ZM165.871 22H178.511V20H165.871V22ZM178.511 22C178.824 22 179.078 22.102 179.324 22.3471L180.738 20.9329C180.13 20.3247 179.371 20 178.511 20V22ZM179.324 22.3471C179.569 22.5922 179.671 22.8469 179.671 23.16H181.671C181.671 22.2998 181.346 21.5411 180.738 20.9329L179.324 22.3471ZM179.671 23.16V74.84H181.671V23.16H179.671ZM179.671 74.84C179.671 75.1531 179.569 75.4078 179.324 75.6529L180.738 77.0671C181.346 76.4589 181.671 75.7002 181.671 74.84H179.671ZM179.324 75.6529C179.078 75.898 178.824 76 178.511 76V78C179.371 78 180.13 77.6753 180.738 77.0671L179.324 75.6529ZM178.511 76H164.031V78H178.511V76ZM164.031 76C163.718 76 163.463 75.898 163.218 75.6529L161.804 77.0671C162.412 77.6753 163.17 78 164.031 78V76ZM163.218 75.6529C162.973 75.4078 162.871 75.1531 162.871 74.84H160.871C160.871 75.7002 161.195 76.4589 161.804 77.0671L163.218 75.6529ZM162.871 74.84V52.92H160.871V74.84H162.871ZM161.017 52.3985L155.737 61.0385L157.444 62.0814L162.724 53.4414L161.017 52.3985ZM155.748 61.0209C154.996 62.1968 154.28 62.56 153.631 62.56V64.56C155.221 64.56 156.479 63.5899 157.433 62.0991L155.748 61.0209ZM153.631 62.56H148.031V64.56H153.631V62.56ZM148.031 62.56C147.381 62.56 146.665 62.1968 145.913 61.0209L144.228 62.0991C145.182 63.5899 146.44 64.56 148.031 64.56V62.56ZM145.924 61.0385L140.644 52.3985L138.937 53.4414L144.217 62.0814L145.924 61.0385ZM138.791 52.92V74.84H140.791V52.92H138.791ZM138.791 74.84C138.791 75.1531 138.689 75.4078 138.444 75.6529L139.858 77.0671C140.466 76.4589 140.791 75.7002 140.791 74.84H138.791ZM138.444 75.6529C138.198 75.898 137.944 76 137.631 76V78C138.491 78 139.25 77.6753 139.858 77.0671L138.444 75.6529ZM137.631 76H123.151V78H137.631V76ZM123.151 76C122.838 76 122.583 75.898 122.338 75.6529L120.924 77.0671C121.532 77.6753 122.29 78 123.151 78V76ZM122.338 75.6529C122.093 75.4078 121.991 75.1531 121.991 74.84H119.991C119.991 75.7002 120.315 76.4589 120.924 77.0671L122.338 75.6529ZM121.991 74.84V23.16H119.991V74.84H121.991ZM121.991 23.16C121.991 22.8469 122.093 22.5922 122.338 22.3471L120.924 20.9329C120.315 21.5411 119.991 22.2998 119.991 23.16H121.991ZM122.338 22.3471C122.583 22.102 122.838 22 123.151 22V20C122.29 20 121.532 20.3247 120.924 20.9329L122.338 22.3471ZM123.151 22H135.791V20H123.151V22ZM135.791 22C136.877 22 137.711 22.4832 138.356 23.6456L140.105 22.6744C139.151 20.9568 137.691 20 135.791 20V22ZM138.375 23.6771L149.975 42.8771L151.687 41.8429L140.087 22.6429L138.375 23.6771ZM151.687 42.8771L163.287 23.6771L161.575 22.6429L149.975 41.8429L151.687 42.8771ZM163.305 23.6456C163.951 22.4832 164.784 22 165.871 22V20C163.971 20 162.511 20.9568 161.556 22.6744L163.305 23.6456ZM230.269 25.96L229.661 26.7541L229.661 26.7541L230.269 25.96ZM230.269 54.92L229.687 54.1069L229.682 54.1104L230.269 54.92ZM207.069 59.56V58.56H206.069V59.56H207.069ZM206.429 76.36L205.722 75.6529L205.722 75.6529L206.429 76.36ZM186.909 76.36L187.616 75.6529L187.616 75.6529L186.909 76.36ZM186.909 21.64L187.616 22.3471L187.616 22.3471L186.909 21.64ZM206.669 35.88V34.88H205.669V35.88H206.669ZM206.669 44.76H205.669V45.76H206.669V44.76ZM214.829 43.72L215.509 44.4528L215.523 44.4402L215.536 44.4271L214.829 43.72ZM215.069 37.24L214.229 37.7833L214.229 37.7833L215.069 37.24ZM188.429 22H212.269V20H188.429V22ZM212.269 22C219.817 22 225.574 23.6262 229.661 26.7541L230.877 25.1659C226.323 21.6805 220.08 20 212.269 20V22ZM229.661 26.7541C233.686 29.8352 235.749 34.3928 235.749 40.6H237.749C237.749 33.9005 235.491 28.6982 230.877 25.1659L229.661 26.7541ZM235.749 40.6C235.749 46.8089 233.687 51.2427 229.687 54.1069L230.851 55.7331C235.491 52.4106 237.749 47.2977 237.749 40.6H235.749ZM229.682 54.1104C225.649 57.0343 219.885 58.56 212.269 58.56V60.56C220.119 60.56 226.355 58.9924 230.856 55.7296L229.682 54.1104ZM212.269 58.56H207.069V60.56H212.269V58.56ZM206.069 59.56V74.84H208.069V59.56H206.069ZM206.069 74.84C206.069 75.1531 205.967 75.4078 205.722 75.6529L207.136 77.0671C207.744 76.4589 208.069 75.7002 208.069 74.84H206.069ZM205.722 75.6529C205.477 75.898 205.222 76 204.909 76V78C205.769 78 206.528 77.6753 207.136 77.0671L205.722 75.6529ZM204.909 76H188.429V78H204.909V76ZM188.429 76C188.116 76 187.861 75.898 187.616 75.6529L186.202 77.0671C186.81 77.6753 187.569 78 188.429 78V76ZM187.616 75.6529C187.371 75.4078 187.269 75.1531 187.269 74.84H185.269C185.269 75.7002 185.593 76.4589 186.202 77.0671L187.616 75.6529ZM187.269 74.84V23.16H185.269V74.84H187.269ZM187.269 23.16C187.269 22.8469 187.371 22.5922 187.616 22.3471L186.202 20.9329C185.593 21.5411 185.269 22.2998 185.269 23.16H187.269ZM187.616 22.3471C187.861 22.102 188.116 22 188.429 22V20C187.569 20 186.81 20.3247 186.202 20.9329L187.616 22.3471ZM205.669 35.88V44.76H207.669V35.88H205.669ZM206.669 45.76H212.269V43.76H206.669V45.76ZM212.269 45.76C213.498 45.76 214.59 45.3063 215.509 44.4528L214.148 42.9872C213.574 43.5204 212.96 43.76 212.269 43.76V45.76ZM215.536 44.4271C216.516 43.4467 216.949 42.1252 216.949 40.6H214.949C214.949 41.7415 214.635 42.4999 214.122 43.0129L215.536 44.4271ZM216.949 40.6C216.949 39.1193 216.622 37.7995 215.908 36.6967L214.229 37.7833C214.689 38.4938 214.949 39.4141 214.949 40.6H216.949ZM215.908 36.6967C215.101 35.4491 213.815 34.88 212.269 34.88V36.88C213.282 36.88 213.863 37.2176 214.229 37.7833L215.908 36.6967ZM212.269 34.88H206.669V36.88H212.269V34.88ZM289.916 21.64L290.623 20.9329L290.623 20.9329L289.916 21.64ZM283.596 72.2L284.223 72.9791L284.228 72.9747L283.596 72.2ZM245.676 72.2L245.049 72.9791L245.053 72.9826L245.676 72.2ZM239.356 21.64L238.649 20.9329L238.649 20.9329L239.356 21.64ZM258.076 21.64L258.783 20.9329L258.783 20.9329L258.076 21.64ZM271.196 21.64L271.903 22.3471L271.903 22.3471L271.196 21.64ZM272.716 22H288.396V20H272.716V22ZM288.396 22C288.709 22 288.963 22.102 289.209 22.3471L290.623 20.9329C290.015 20.3247 289.256 20 288.396 20V22ZM289.209 22.3471C289.454 22.5922 289.556 22.8469 289.556 23.16H291.556C291.556 22.2998 291.231 21.5411 290.623 20.9329L289.209 22.3471ZM289.556 23.16V55.32H291.556V23.16H289.556ZM289.556 55.32C289.556 62.5673 287.314 67.8744 282.963 71.4252L284.228 72.9747C289.157 68.9523 291.556 63.006 291.556 55.32H289.556ZM282.969 71.4209C278.559 74.9689 272.486 76.8 264.636 76.8V78.8C272.785 78.8 279.352 76.8977 284.223 72.9791L282.969 71.4209ZM264.636 76.8C256.841 76.8 250.764 74.9701 246.298 71.4174L245.053 72.9826C249.974 76.8966 256.537 78.8 264.636 78.8V76.8ZM246.303 71.4209C241.959 67.9258 239.716 62.624 239.716 55.32H237.716C237.716 63.056 240.113 69.0075 245.049 72.9791L246.303 71.4209ZM239.716 55.32V23.16H237.716V55.32H239.716ZM239.716 23.16C239.716 22.8469 239.818 22.5922 240.063 22.3471L238.649 20.9329C238.04 21.5411 237.716 22.2998 237.716 23.16H239.716ZM240.063 22.3471C240.308 22.102 240.563 22 240.876 22V20C240.015 20 239.257 20.3247 238.649 20.9329L240.063 22.3471ZM240.876 22H256.556V20H240.876V22ZM256.556 22C256.869 22 257.123 22.102 257.369 22.3471L258.783 20.9329C258.175 20.3247 257.416 20 256.556 20V22ZM257.369 22.3471C257.614 22.5922 257.716 22.8469 257.716 23.16H259.716C259.716 22.2998 259.391 21.5411 258.783 20.9329L257.369 22.3471ZM257.716 23.16V55.56H259.716V23.16H257.716ZM257.716 55.56C257.716 57.7578 258.243 59.5915 259.475 60.8729C260.713 62.1618 262.498 62.72 264.636 62.72V60.72C262.827 60.72 261.651 60.2516 260.917 59.4871C260.175 58.7152 259.716 57.4689 259.716 55.56H257.716ZM264.636 62.72C266.773 62.72 268.558 62.1618 269.797 60.8729C271.028 59.5915 271.556 57.7578 271.556 55.56H269.556C269.556 57.4689 269.096 58.7152 268.355 59.4871C267.62 60.2516 266.444 60.72 264.636 60.72V62.72ZM271.556 55.56V23.16H269.556V55.56H271.556ZM271.556 23.16C271.556 22.8469 271.658 22.5922 271.903 22.3471L270.489 20.9329C269.88 21.5411 269.556 22.2998 269.556 23.16H271.556ZM271.903 22.3471C272.148 22.102 272.403 22 272.716 22V20C271.855 20 271.097 20.3247 270.489 20.9329L271.903 22.3471ZM343.101 21.64L343.808 20.9329L343.808 20.9329L343.101 21.64ZM343.101 37.56L343.808 38.2671L343.808 38.2671L343.101 37.56ZM328.301 38.2V37.2H327.301V38.2H328.301ZM327.661 76.36L326.954 75.6529L326.954 75.6529L327.661 76.36ZM307.981 38.2H308.981V37.2H307.981V38.2ZM294.701 22H341.581V20H294.701V22ZM341.581 22C341.894 22 342.148 22.102 342.394 22.3471L343.808 20.9329C343.2 20.3247 342.441 20 341.581 20V22ZM342.394 22.3471C342.639 22.5922 342.741 22.8469 342.741 23.16H344.741C344.741 22.2998 344.416 21.5411 343.808 20.9329L342.394 22.3471ZM342.741 23.16V36.04H344.741V23.16H342.741ZM342.741 36.04C342.741 36.3531 342.639 36.6078 342.394 36.8529L343.808 38.2671C344.416 37.6589 344.741 36.9002 344.741 36.04H342.741ZM342.394 36.8529C342.148 37.098 341.894 37.2 341.581 37.2V39.2C342.441 39.2 343.2 38.8753 343.808 38.2671L342.394 36.8529ZM341.581 37.2H328.301V39.2H341.581V37.2ZM327.301 38.2V74.84H329.301V38.2H327.301ZM327.301 74.84C327.301 75.1531 327.199 75.4078 326.954 75.6529L328.368 77.0671C328.976 76.4589 329.301 75.7002 329.301 74.84H327.301ZM326.954 75.6529C326.708 75.898 326.454 76 326.141 76V78C327.001 78 327.76 77.6753 328.368 77.0671L326.954 75.6529ZM326.141 76H310.141V78H326.141V76ZM310.141 76C309.828 76 309.573 75.898 309.328 75.6529L307.914 77.0671C308.522 77.6753 309.28 78 310.141 78V76ZM309.328 75.6529C309.083 75.4078 308.981 75.1531 308.981 74.84H306.981C306.981 75.7002 307.305 76.4589 307.914 77.0671L309.328 75.6529ZM308.981 74.84V38.2H306.981V74.84H308.981ZM307.981 37.2H294.701V39.2H307.981V37.2ZM294.701 37.2C294.388 37.2 294.133 37.098 293.888 36.8529L292.474 38.2671C293.082 38.8753 293.84 39.2 294.701 39.2V37.2ZM293.888 36.8529C293.643 36.6078 293.541 36.3531 293.541 36.04H291.541C291.541 36.9002 291.865 37.6589 292.474 38.2671L293.888 36.8529ZM293.541 36.04V23.16H291.541V36.04H293.541ZM293.541 23.16C293.541 22.8469 293.643 22.5922 293.888 22.3471L292.474 20.9329C291.865 21.5411 291.541 22.2998 291.541 23.16H293.541ZM293.888 22.3471C294.133 22.102 294.388 22 294.701 22V20C293.84 20 293.082 20.3247 292.474 20.9329L293.888 22.3471ZM365.756 61.4H364.756V62.4H365.756V61.4ZM347.196 76.36L347.903 75.6529L347.903 75.6529L347.196 76.36ZM347.196 21.64L347.903 22.3471L347.903 22.3471L347.196 21.64ZM391.276 21.64L390.569 22.3471L390.569 22.3471L391.276 21.64ZM391.276 35.96L390.569 35.2529L390.569 35.2529L391.276 35.96ZM365.756 36.6V35.6H364.756V36.6H365.756ZM365.756 41.64H364.756V42.64H365.756V41.64ZM389.516 42.28L390.223 41.5729L390.223 41.5729L389.516 42.28ZM389.516 55.72L390.223 56.4271L390.223 56.4271L389.516 55.72ZM365.756 56.36V55.36H364.756V56.36H365.756ZM365.756 62.4H390.396V60.4H365.756V62.4ZM390.396 62.4C390.709 62.4 390.964 62.502 391.209 62.7471L392.623 61.3329C392.015 60.7247 391.256 60.4 390.396 60.4V62.4ZM391.209 62.7471C391.454 62.9922 391.556 63.2469 391.556 63.56H393.556C393.556 62.6998 393.232 61.9411 392.623 61.3329L391.209 62.7471ZM391.556 63.56V74.84H393.556V63.56H391.556ZM391.556 74.84C391.556 75.1531 391.454 75.4078 391.209 75.6529L392.623 77.0671C393.232 76.4589 393.556 75.7002 393.556 74.84H391.556ZM391.209 75.6529C390.964 75.898 390.709 76 390.396 76V78C391.256 78 392.015 77.6753 392.623 77.0671L391.209 75.6529ZM390.396 76H348.716V78H390.396V76ZM348.716 76C348.403 76 348.148 75.898 347.903 75.6529L346.489 77.0671C347.097 77.6753 347.856 78 348.716 78V76ZM347.903 75.6529C347.658 75.4078 347.556 75.1531 347.556 74.84H345.556C345.556 75.7002 345.881 76.4589 346.489 77.0671L347.903 75.6529ZM347.556 74.84V23.16H345.556V74.84H347.556ZM347.556 23.16C347.556 22.8469 347.658 22.5922 347.903 22.3471L346.489 20.9329C345.881 21.5411 345.556 22.2998 345.556 23.16H347.556ZM347.903 22.3471C348.148 22.102 348.403 22 348.716 22V20C347.856 20 347.097 20.3247 346.489 20.9329L347.903 22.3471ZM348.716 22H389.756V20H348.716V22ZM389.756 22C390.069 22 390.324 22.102 390.569 22.3471L391.983 20.9329C391.375 20.3247 390.616 20 389.756 20V22ZM390.569 22.3471C390.814 22.5922 390.916 22.8469 390.916 23.16H392.916C392.916 22.2998 392.592 21.5411 391.983 20.9329L390.569 22.3471ZM390.916 23.16V34.44H392.916V23.16H390.916ZM390.916 34.44C390.916 34.7531 390.814 35.0078 390.569 35.2529L391.983 36.6671C392.592 36.0589 392.916 35.3002 392.916 34.44H390.916ZM390.569 35.2529C390.324 35.498 390.069 35.6 389.756 35.6V37.6C390.616 37.6 391.375 37.2753 391.983 36.6671L390.569 35.2529ZM389.756 35.6H365.756V37.6H389.756V35.6ZM364.756 36.6V41.64H366.756V36.6H364.756ZM365.756 42.64H387.996V40.64H365.756V42.64ZM387.996 42.64C388.309 42.64 388.564 42.742 388.809 42.9871L390.223 41.5729C389.615 40.9647 388.856 40.64 387.996 40.64V42.64ZM388.809 42.9871C389.054 43.2322 389.156 43.4869 389.156 43.8H391.156C391.156 42.9398 390.832 42.1811 390.223 41.5729L388.809 42.9871ZM389.156 43.8V54.2H391.156V43.8H389.156ZM389.156 54.2C389.156 54.5131 389.054 54.7678 388.809 55.0129L390.223 56.4271C390.832 55.8189 391.156 55.0602 391.156 54.2H389.156ZM388.809 55.0129C388.564 55.258 388.309 55.36 387.996 55.36V57.36C388.856 57.36 389.615 57.0353 390.223 56.4271L388.809 55.0129ZM387.996 55.36H365.756V57.36H387.996V55.36ZM364.756 56.36V61.4H366.756V56.36H364.756ZM448.901 74.36L449.796 73.9128L449.789 73.8989L449.781 73.8852L448.901 74.36ZM448.581 76.52L449.288 77.2271L449.288 77.2271L448.581 76.52ZM427.541 74.84L428.455 74.4339L428.453 74.4294L427.541 74.84ZM420.661 59.56L421.573 59.1494L421.308 58.56H420.661V59.56ZM417.381 59.56V58.56H416.381V59.56H417.381ZM416.741 76.36L416.034 75.6529L416.034 75.6529L416.741 76.36ZM398.021 76.36L398.728 75.6529L398.728 75.6529L398.021 76.36ZM398.021 21.64L398.728 22.3471L398.728 22.3471L398.021 21.64ZM441.221 26.2L440.595 26.9799L440.601 26.9846L441.221 26.2ZM439.061 56.12L438.523 55.2773L437.74 55.7774L438.181 56.5948L439.061 56.12ZM417.381 35.88V34.88H416.381V35.88H417.381ZM417.381 44.36H416.381V45.36H417.381V44.36ZM425.941 43.24L426.701 43.8908L426.712 43.8779L426.722 43.8647L425.941 43.24ZM425.941 37.24L425.102 37.7833L425.12 37.8123L425.141 37.84L425.941 37.24ZM448.007 74.8072C448.094 74.9823 448.141 75.175 448.141 75.4H450.141C450.141 74.8784 450.028 74.3777 449.796 73.9128L448.007 74.8072ZM448.141 75.4C448.141 75.4146 448.138 75.5486 447.874 75.8129L449.288 77.2271C449.771 76.7448 450.141 76.1321 450.141 75.4H448.141ZM447.874 75.8129C447.754 75.9331 447.614 76 447.381 76V78C448.109 78 448.769 77.7469 449.288 77.2271L447.874 75.8129ZM447.381 76H430.981V78H447.381V76ZM430.981 76C430.301 76 429.795 75.853 429.413 75.6131C429.034 75.3753 428.708 75.0028 428.455 74.4339L426.627 75.2461C427.015 76.1172 427.582 76.8247 428.349 77.3069C429.114 77.787 430.008 78 430.981 78V76ZM428.453 74.4294L421.573 59.1494L419.749 59.9706L426.629 75.2506L428.453 74.4294ZM420.661 58.56H417.381V60.56H420.661V58.56ZM416.381 59.56V74.84H418.381V59.56H416.381ZM416.381 74.84C416.381 75.1531 416.279 75.4078 416.034 75.6529L417.448 77.0671C418.057 76.4589 418.381 75.7002 418.381 74.84H416.381ZM416.034 75.6529C415.789 75.898 415.534 76 415.221 76V78C416.081 78 416.84 77.6753 417.448 77.0671L416.034 75.6529ZM415.221 76H399.541V78H415.221V76ZM399.541 76C399.228 76 398.973 75.898 398.728 75.6529L397.314 77.0671C397.922 77.6753 398.681 78 399.541 78V76ZM398.728 75.6529C398.483 75.4078 398.381 75.1531 398.381 74.84H396.381C396.381 75.7002 396.706 76.4589 397.314 77.0671L398.728 75.6529ZM398.381 74.84V23.16H396.381V74.84H398.381ZM398.381 23.16C398.381 22.8469 398.483 22.5922 398.728 22.3471L397.314 20.9329C396.706 21.5411 396.381 22.2998 396.381 23.16H398.381ZM398.728 22.3471C398.973 22.102 399.228 22 399.541 22V20C398.681 20 397.922 20.3247 397.314 20.9329L398.728 22.3471ZM399.541 22H423.221V20H399.541V22ZM423.221 22C430.761 22 436.51 23.7019 440.595 26.9799L441.847 25.4201C437.292 21.7647 431.042 20 423.221 20V22ZM440.601 26.9846C444.638 30.1745 446.701 34.7935 446.701 41H448.701C448.701 34.2998 446.444 29.0522 441.841 25.4154L440.601 26.9846ZM446.701 41C446.701 47.0318 444.019 51.7661 438.523 55.2773L439.6 56.9627C445.624 53.1139 448.701 47.7682 448.701 41H446.701ZM438.181 56.5948L448.021 74.8348L449.781 73.8852L439.941 55.6452L438.181 56.5948ZM416.381 35.88V44.36H418.381V35.88H416.381ZM417.381 45.36H423.221V43.36H417.381V45.36ZM423.221 45.36C424.625 45.36 425.834 44.9022 426.701 43.8908L425.182 42.5892C424.769 43.0711 424.165 43.36 423.221 43.36V45.36ZM426.722 43.8647C427.524 42.8621 427.901 41.6457 427.901 40.28H425.901C425.901 41.261 425.638 42.0179 425.16 42.6153L426.722 43.8647ZM427.901 40.28C427.901 38.9131 427.524 37.6838 426.741 36.64L425.141 37.84C425.638 38.5028 425.901 39.3002 425.901 40.28H427.901ZM426.781 36.6967C425.982 35.4626 424.733 34.88 423.221 34.88V36.88C424.163 36.88 424.727 37.2041 425.102 37.7833L426.781 36.6967ZM423.221 34.88H417.381V36.88H423.221V34.88ZM470.879 37.58L471.534 38.3349L471.535 38.3341L470.879 37.58ZM491.939 37.58L491.27 38.3233L491.277 38.3295L491.939 37.58ZM493.619 51.08L492.816 50.483L492.814 50.4861L493.619 51.08ZM487.859 55.88L487.354 55.0167L486.258 55.6577L487.138 56.5731L487.859 55.88ZM492.359 60.56L491.638 61.2531L492.359 62.0028L493.079 61.2531L492.359 60.56ZM495.299 55.64L496.218 56.0339L496.223 56.0227L496.227 56.0114L495.299 55.64ZM506.339 55.34L507.046 54.6329L507.046 54.6329L506.339 55.34ZM504.179 61.58L503.344 61.0284L503.338 61.0379L504.179 61.58ZM499.499 67.7L498.774 67.0113L498.116 67.7035L498.777 68.3924L499.499 67.7ZM506.639 75.14L505.917 75.8324L505.924 75.8398L505.931 75.8471L506.639 75.14ZM506.639 76.7L505.998 75.9318L505.964 75.9608L505.931 75.9929L506.639 76.7ZM492.179 76.4L491.514 77.1474L491.541 77.171L491.569 77.1926L492.179 76.4ZM490.559 74.96L491.223 74.2126L490.654 73.7065L490.014 74.121L490.559 74.96ZM467.339 74.54L466.73 75.3335L466.737 75.3387L467.339 74.54ZM470.759 53.54L471.248 54.4119L472.36 53.7874L471.488 52.8564L470.759 53.54ZM477.119 66.74L476.454 67.4874L476.464 67.4963L476.474 67.5049L477.119 66.74ZM483.179 66.98L483.693 67.8375L484.773 67.1898L483.897 66.2848L483.179 66.98ZM477.899 61.52L478.617 60.8248L478.114 60.3047L477.463 60.6198L477.899 61.52ZM483.359 44.12L482.651 44.8271L482.668 44.8439L482.686 44.8599L483.359 44.12ZM480.239 44.18L480.911 44.9199L480.929 44.9039L480.946 44.8871L480.239 44.18ZM481.199 48.62L480.519 49.3538L481.004 49.8024L481.607 49.533L481.199 48.62ZM468.219 45.26C468.219 42.574 469.294 40.2816 471.534 38.3349L470.223 36.8251C467.583 39.1184 466.219 41.946 466.219 45.26H468.219ZM471.535 38.3341C473.774 36.3847 477.027 35.34 481.439 35.34V33.34C476.73 33.34 472.944 34.4553 470.222 36.8259L471.535 38.3341ZM481.439 35.34C485.896 35.34 489.118 36.387 491.27 38.3233L492.608 36.8367C489.959 34.453 486.181 33.34 481.439 33.34V35.34ZM491.277 38.3295C493.481 40.2772 494.539 42.5521 494.539 45.2H496.539C496.539 41.9279 495.196 39.1228 492.601 36.8305L491.277 38.3295ZM494.539 45.2C494.539 47.1909 493.964 48.9403 492.816 50.483L494.421 51.677C495.833 49.7797 496.539 47.6091 496.539 45.2H494.539ZM492.814 50.4861C491.682 52.0198 489.884 53.5373 487.354 55.0167L488.363 56.7433C491.033 55.1827 493.075 53.5002 494.423 51.6739L492.814 50.4861ZM487.138 56.5731L491.638 61.2531L493.079 59.8669L488.579 55.1869L487.138 56.5731ZM493.079 61.2531C494.201 60.0864 495.238 58.3192 496.218 56.0339L494.379 55.2461C493.439 57.4408 492.516 58.9536 491.638 59.8669L493.079 61.2531ZM496.227 56.0114C496.223 56.0206 496.213 56.0398 496.195 56.0598C496.176 56.0793 496.163 56.086 496.166 56.0844C496.18 56.0772 496.271 56.04 496.499 56.04V54.04C495.681 54.04 494.753 54.312 494.37 55.2686L496.227 56.0114ZM496.499 56.04H505.559V54.04H496.499V56.04ZM505.559 56.04C505.587 56.04 505.606 56.0422 505.617 56.0442C505.629 56.0462 505.634 56.0482 505.635 56.0483C505.635 56.0485 505.633 56.0478 505.631 56.0464C505.629 56.0449 505.629 56.0446 505.631 56.0471L507.046 54.6329C506.633 54.2201 506.106 54.04 505.559 54.04V56.04ZM505.631 56.0471C505.634 56.0496 505.634 56.0497 505.632 56.0475C505.631 56.0453 505.63 56.0436 505.63 56.044C505.63 56.0445 505.632 56.0496 505.634 56.0612C505.636 56.0729 505.639 56.092 505.639 56.12H507.639C507.639 55.5728 507.458 55.0457 507.046 54.6329L505.631 56.0471ZM505.639 56.12C505.639 56.4911 505.5 57.0833 505.112 57.9442C504.732 58.7878 504.148 59.8138 503.344 61.0284L505.013 62.1316C505.849 60.8662 506.495 59.7422 506.935 58.7658C507.367 57.8067 507.639 56.9089 507.639 56.12H505.639ZM503.338 61.0379C501.762 63.4818 500.239 65.4686 498.774 67.0113L500.224 68.3887C501.798 66.7314 503.396 64.6382 505.019 62.1221L503.338 61.0379ZM498.777 68.3924L505.917 75.8324L507.36 74.4476L500.22 67.0076L498.777 68.3924ZM505.931 75.8471C505.997 75.9122 505.999 75.9426 505.999 75.98H507.999C507.999 75.3774 507.761 74.8478 507.346 74.4329L505.931 75.8471ZM505.999 75.98C505.999 75.978 505.999 75.9699 506.002 75.9576C506.005 75.9452 506.009 75.9331 506.014 75.9228C506.019 75.9127 506.023 75.9082 506.022 75.9093C506.021 75.9106 506.014 75.9185 505.998 75.9318L507.279 77.4682C507.717 77.103 507.999 76.5935 507.999 75.98H505.999ZM505.931 75.9929C505.923 76.0015 505.918 76.0048 505.918 76.005C505.918 76.0052 505.92 76.0037 505.924 76.0019C505.928 76.0002 505.931 75.9994 505.932 75.9992C505.933 75.9991 505.929 76 505.919 76V78C506.467 78 506.96 77.7925 507.346 77.4071L505.931 75.9929ZM505.919 76H493.679V78H505.919V76ZM493.679 76C493.488 76 493.197 75.9216 492.788 75.6074L491.569 77.1926C492.2 77.6784 492.91 78 493.679 78V76ZM492.843 75.6526L491.223 74.2126L489.894 75.7074L491.514 77.1474L492.843 75.6526ZM490.014 74.121C487.265 75.9044 483.593 76.84 478.919 76.84V78.84C483.844 78.84 487.932 77.8556 491.103 75.799L490.014 74.121ZM478.919 76.84C474.268 76.84 470.64 75.775 467.94 73.7413L466.737 75.3387C469.878 77.705 473.969 78.84 478.919 78.84V76.84ZM467.947 73.7466C465.308 71.7223 463.959 68.8353 463.959 64.94H461.959C461.959 69.3647 463.529 72.8777 466.73 75.3334L467.947 73.7466ZM463.959 64.94C463.959 60.7238 466.263 57.2114 471.248 54.4119L470.269 52.6681C464.854 55.7086 461.959 59.7962 461.959 64.94H463.959ZM471.488 52.8564C469.274 50.4917 468.219 47.9678 468.219 45.26H466.219C466.219 48.5522 467.523 51.5483 470.029 54.2236L471.488 52.8564ZM475.039 64.1C475.039 65.4545 475.485 66.6261 476.454 67.4874L477.783 65.9926C477.312 65.5739 477.039 64.9855 477.039 64.1H475.039ZM476.474 67.5049C477.456 68.3315 478.703 68.7 480.119 68.7V66.7C479.054 66.7 478.301 66.4285 477.763 65.9751L476.474 67.5049ZM480.119 68.7C481.482 68.7 482.695 68.4366 483.693 67.8375L482.664 66.1225C482.063 66.4834 481.235 66.7 480.119 66.7V68.7ZM483.897 66.2848L478.617 60.8248L477.18 62.2152L482.46 67.6752L483.897 66.2848ZM477.463 60.6198C476.737 60.9712 476.124 61.4312 475.692 62.0302C475.252 62.6404 475.039 63.3427 475.039 64.1H477.039C477.039 63.7373 477.135 63.4496 477.315 63.1998C477.503 62.9388 477.82 62.6688 478.334 62.4202L477.463 60.6198ZM485.019 45.68C485.019 44.7824 484.697 43.9852 484.031 43.3801L482.686 44.8599C482.9 45.0548 483.019 45.2976 483.019 45.68H485.019ZM484.066 43.4129C483.453 42.8001 482.666 42.52 481.799 42.52V44.52C482.211 44.52 482.464 44.6399 482.651 44.8271L484.066 43.4129ZM481.799 42.52C480.923 42.52 480.151 42.8531 479.531 43.4729L480.946 44.8871C481.206 44.6269 481.475 44.52 481.799 44.52V42.52ZM479.566 43.4401C478.852 44.0886 478.579 45 478.579 45.98H480.579C480.579 45.36 480.745 45.0714 480.911 44.9199L479.566 43.4401ZM478.579 45.98C478.579 47.1875 479.406 48.3226 480.519 49.3538L481.878 47.8862C480.832 46.9174 480.579 46.2925 480.579 45.98H478.579ZM481.607 49.533C483.534 48.6719 485.019 47.4497 485.019 45.68H483.019C483.019 46.1503 482.623 46.8881 480.791 47.707L481.607 49.533Z" fill="#51473D"/>
<path d="M458.56 112.16C460.16 112.16 461.54 111.72 462.7 110.84C463.9 109.96 464.5 108.48 464.5 106.4C464.5 105 463.86 103.84 462.58 102.92C461.34 102 459.78 101.18 457.9 100.46C456.02 99.7 454.74 99.18 454.06 98.9C453.42 98.58 452.56 98.08 451.48 97.4C449.52 96.08 448.54 94.18 448.54 91.7C448.54 89.22 449.52 87.16 451.48 85.52C453.44 83.88 456.3 83.06 460.06 83.06C462.46 83.06 464.5 83.6 466.18 84.68C467.9 85.72 468.76 86.98 468.76 88.46C468.76 89.94 468.2 90.96 467.08 91.52C466.48 91.8 465.88 91.94 465.28 91.94C464.72 91.94 464.16 91.82 463.6 91.58C463.76 90.86 463.84 90.08 463.84 89.24C463.84 88.4 463.64 87.56 463.24 86.72C462.56 85.28 461.26 84.56 459.34 84.56C457.42 84.56 455.96 85.08 454.96 86.12C453.96 87.16 453.46 88.52 453.46 90.2C453.46 91.92 454.18 93.2 455.62 94.04C456.7 94.72 458.04 95.34 459.64 95.9C461.24 96.46 462.32 96.86 462.88 97.1C463.48 97.3 464.26 97.66 465.22 98.18C466.18 98.7 466.9 99.24 467.38 99.8C468.62 101.16 469.24 103 469.24 105.32C469.24 107.64 468.2 109.62 466.12 111.26C464.04 112.86 461.5 113.66 458.5 113.66C455.5 113.66 452.86 113.2 450.58 112.28C448.34 111.36 447.22 110.02 447.22 108.26C447.22 106.62 448.44 105.54 450.88 105.02C451.6 109.78 454.16 112.16 458.56 112.16ZM489.232 106.76C489.232 106.88 489.212 107.02 489.172 107.18C488.532 109.14 487.452 110.72 485.932 111.92C484.452 113.08 482.712 113.66 480.712 113.66C478.712 113.66 477.032 113.1 475.672 111.98C474.352 110.82 473.692 108.58 473.692 105.26C473.692 104.34 473.792 97.68 473.992 85.28H469.852V83.72H474.052L474.112 74.9H479.992L479.812 83.72H488.392V85.28H479.812C479.612 98.2 479.512 105.76 479.512 107.96C479.512 110.64 480.392 111.98 482.152 111.98C483.232 111.98 484.352 111.36 485.512 110.12C486.712 108.88 487.552 107.48 488.032 105.92C488.832 105.92 489.232 106.2 489.232 106.76ZM501.31 113.72C494.91 113.72 491.71 110.64 491.71 104.48C491.71 99.96 491.85 93.68 492.13 85.64L487.33 85.4V84.02L498.01 83.36C497.73 93.92 497.59 101.1 497.59 104.9C497.59 107.18 498.01 108.88 498.85 110C499.69 111.12 501.09 111.68 503.05 111.68C505.05 111.68 506.93 110.58 508.69 108.38C510.45 106.14 511.33 104.18 511.33 102.5V85.64L506.35 85.4V84.02L517.21 83.36V111.14L522.31 111.38L522.37 112.76L511.57 113.48L511.99 107H511.27C509.19 111.48 505.87 113.72 501.31 113.72ZM525.454 85.28H521.254V83.72H525.454V82.82C525.454 77.5 526.574 73.5 528.814 70.82C531.054 68.14 534.254 66.8 538.414 66.8C540.894 66.8 542.954 67.28 544.594 68.24C546.274 69.16 547.114 70.42 547.114 72.02C547.114 73.58 546.574 74.72 545.494 75.44C544.854 75.88 544.214 76.1 543.574 76.1C542.974 76.1 542.394 75.98 541.834 75.74C542.074 74.62 542.194 73.54 542.194 72.5C542.194 71.46 541.834 70.54 541.114 69.74C540.394 68.94 539.394 68.54 538.114 68.54C536.834 68.54 535.734 68.9 534.814 69.62C533.934 70.3 533.274 71.12 532.834 72.08C532.394 73 532.054 74.24 531.814 75.8C531.494 77.88 531.334 80.52 531.334 83.72H540.394V85.28H531.334V111.26L538.054 111.56L538.114 113H521.434L521.374 111.56L525.454 111.32V85.28ZM543.827 85.28H539.627V83.72H543.827V82.82C543.827 77.5 544.947 73.5 547.187 70.82C549.427 68.14 552.627 66.8 556.787 66.8C559.267 66.8 561.327 67.28 562.967 68.24C564.647 69.16 565.487 70.42 565.487 72.02C565.487 73.58 564.947 74.72 563.867 75.44C563.227 75.88 562.587 76.1 561.947 76.1C561.347 76.1 560.767 75.98 560.207 75.74C560.447 74.62 560.567 73.54 560.567 72.5C560.567 71.46 560.207 70.54 559.487 69.74C558.767 68.94 557.767 68.54 556.487 68.54C555.207 68.54 554.107 68.9 553.187 69.62C552.307 70.3 551.647 71.12 551.207 72.08C550.767 73 550.427 74.24 550.187 75.8C549.867 77.88 549.707 80.52 549.707 83.72H558.767V85.28H549.707V111.26L556.427 111.56L556.487 113H539.807L539.747 111.56L543.827 111.32V85.28Z" fill="#51473D"/>
</svg>
