<svg width="44" height="30" viewBox="0 0 44 30" fill="none" xmlns="http://www.w3.org/2000/svg">
<path d="M41.7818 2.89091C40.5982 0.785454 39.3136 0.398182 36.6982 0.250909C34.0855 0.0736364 27.5155 0 21.8236 0C16.1209 0 9.54818 0.0736366 6.93818 0.248182C4.32818 0.398182 3.04091 0.782727 1.84636 2.89091C0.627273 4.99364 0 8.61545 0 14.9918C0 14.9973 0 15 0 15C0 15.0055 0 15.0082 0 15.0082V15.0136C0 21.3627 0.627273 25.0118 1.84636 27.0927C3.04091 29.1982 4.32545 29.58 6.93545 29.7573C9.54818 29.91 16.1209 30 21.8236 30C27.5155 30 34.0855 29.91 36.7009 29.76C39.3164 29.5827 40.6009 29.2009 41.7845 27.0955C43.0145 25.0145 43.6364 21.3655 43.6364 15.0164C43.6364 15.0164 43.6364 15.0082 43.6364 15.0027C43.6364 15.0027 43.6364 14.9973 43.6364 14.9945C43.6364 8.61545 43.0145 4.99364 41.7818 2.89091ZM16.3636 23.1818V6.81818L30 15L16.3636 23.1818Z" fill="#F8EBD8"/>
</svg>
