<svg width="24" height="17" viewBox="0 0 24 17" fill="none" xmlns="http://www.w3.org/2000/svg">
<path d="M22.2836 2.53962C21.6524 1.41671 20.9673 1.21017 19.5724 1.13162C18.1789 1.03708 14.6749 0.997803 11.6393 0.997803C8.59782 0.997803 5.09236 1.03708 3.70036 1.13017C2.30836 1.21017 1.62182 1.41526 0.984727 2.53962C0.334545 3.66108 0 5.59271 0 8.99344C0 8.99635 0 8.9978 0 8.9978C0 9.00071 0 9.00217 0 9.00217V9.00508C0 12.3913 0.334545 14.3374 0.984727 15.4473C1.62182 16.5702 2.30691 16.7738 3.69891 16.8683C5.09236 16.9498 8.59782 16.9978 11.6393 16.9978C14.6749 16.9978 18.1789 16.9498 19.5738 16.8698C20.9687 16.7753 21.6538 16.5716 22.2851 15.4487C22.9411 14.3389 23.2727 12.3927 23.2727 9.00653C23.2727 9.00653 23.2727 9.00217 23.2727 8.99926C23.2727 8.99926 23.2727 8.99635 23.2727 8.99489C23.2727 5.59271 22.9411 3.66108 22.2836 2.53962ZM8.72727 13.3614V4.63417L16 8.9978L8.72727 13.3614Z" fill="#51473D"/>
</svg>
